<svg xmlns="http://www.w3.org/2000/svg" xmlns:xlink="http://www.w3.org/1999/xlink" width="469" height="296" viewBox="0 0 469 296">
    <defs>
        <radialGradient id="a" cx="49.995%" cy="49.83%" r="370.474%" fx="49.995%" fy="49.83%" gradientTransform="matrix(.09586 0 0 1 .452 0)">
            <stop offset=".513%" stop-color="#CECDE3"/>
            <stop offset="27.42%" stop-color="#D2D2E6" stop-opacity=".73"/>
            <stop offset="57.42%" stop-color="#E0DFED" stop-opacity=".428"/>
            <stop offset="88.82%" stop-color="#F5F5FA" stop-opacity=".112"/>
            <stop offset="100%" stop-color="#FFF" stop-opacity="0"/>
        </radialGradient>
        <path id="c" d="M126.3 161.788c-12.974-.873-27.755-4.054-33.556-16.528-10.478-21.83-4.428-46.466-5.488-69.792H86.07c-.624 0-1.185.124-1.747.374-.187.873-.25 1.809-.062 2.807-.187-.998-.063-1.872.062-2.807-1.621.686-2.806 2.308-2.806 4.179v133.472a4.472 4.472 0 0 0 4.49 4.49h90.25a4.472 4.472 0 0 0 4.49-4.49v-50.707c-17.9.499-36.05.935-54.449-.998z"/>
        <filter id="b" width="171.6%" height="149.8%" x="-35.8%" y="-23.5%" filterUnits="objectBoundingBox">
            <feOffset dy="2" in="SourceAlpha" result="shadowOffsetOuter1"/>
            <feGaussianBlur in="shadowOffsetOuter1" result="shadowBlurOuter1" stdDeviation="11.5"/>
            <feColorMatrix in="shadowBlurOuter1" values="0 0 0 0 0.27380548 0 0 0 0 0.27380548 0 0 0 0 0.27380548 0 0 0 0.5 0"/>
        </filter>
    </defs>
    <g fill="none" fill-rule="evenodd">
        <g fill-rule="nonzero" transform="translate(0 23.7)">
            <path fill="#5B90F6" d="M47.963 243.991c-13.535-.249-29.003-1.496-37.173-12.037-7.11-9.168-5.8-22.39-.998-32.931 4.865-10.54 12.724-19.46 18.524-29.564 5.8-10.041 9.48-22.39 5.114-33.118-5.114-12.474-19.272-18.898-27.006-30-8.545-12.225-7.983-29.065-1.372-42.474 6.611-13.41 18.274-23.763 30.935-32.058C74.72 6.549 123.056-1.247 169.522.499c18.15.686 39.043 4.366 47.962 19.771 10.977 18.96-2.245 45.78 10.977 63.243 6.113 8.109 16.466 11.913 25.884 16.092 15.904 7.048 31.247 16.777 40.79 31.123 7.983 12.037 11.289 26.507 13.285 40.79 1.559 11.039 2.37 22.39.062 33.305-7.235 34.116-40.166 36.736-70.041 36.112-39.605-.81-79.46 2.87-119.127 3.244-23.763.374-47.526.249-71.351-.188z"/>
            <ellipse cx="100.478" cy="261.206" fill="url(#a)" rx="76.777" ry="7.36"/>
            <ellipse cx="234.574" cy="261.206" fill="url(#a)" rx="76.777" ry="7.36"/>
        </g>
        <g transform="translate(33.056)">
            <g fill-rule="nonzero">
                <use fill="#000" filter="url(#b)" xlink:href="#c"/>
                <use fill="#395FA4" xlink:href="#c"/>
            </g>
            <path stroke="#6D93B4" stroke-width="3.119" d="M146.819 209.002H99.605c-4.117 0-7.485-3.368-7.485-7.485v-10.54c0-4.116 3.368-7.484 7.485-7.484h47.214c4.116 0 7.484 3.368 7.484 7.484v10.54c0 4.117-3.368 7.485-7.484 7.485z"/>
            <path fill="#6D93B4" fill-rule="nonzero" d="M92.744 145.26c5.8 12.536 20.582 15.655 33.555 16.528 18.4 1.996 36.487 1.559 54.574.998V79.958a4.472 4.472 0 0 0-4.49-4.49H87.255c1.06 23.264-4.99 47.9 5.488 69.792z"/>
            <path fill="#CFDEFF" fill-rule="nonzero" d="M124.303 136.715H92.557a2.435 2.435 0 0 1-2.432-2.432 2.435 2.435 0 0 1 2.432-2.433h31.746a2.435 2.435 0 0 1 2.433 2.433 2.397 2.397 0 0 1-2.433 2.432zM124.303 116.757H92.557a2.435 2.435 0 0 1-2.432-2.433 2.435 2.435 0 0 1 2.432-2.432h31.746a2.435 2.435 0 0 1 2.433 2.432 2.397 2.397 0 0 1-2.433 2.433zM117.63 126.923H92.557a2.435 2.435 0 0 1-2.432-2.432 2.435 2.435 0 0 1 2.432-2.433h25.073a2.435 2.435 0 0 1 2.432 2.433c0 1.31-1.122 2.432-2.432 2.432z"/>
            <path fill="#E4AB8F" fill-rule="nonzero" d="M103.97 57.568v-.874.874c.936-.874 2.184-.624 3.431-.687-.312-1.746-.873-3.305-3.118-2.931-1.996.312-2.059 1.934-1.81 3.68.687 4.116 1.685 8.233 2.745 12.287-.125-4.117-1.122-8.233-1.247-12.35z"/>
            <path fill="#FFCBB3" fill-rule="nonzero" d="M110.644 73.347c-.436-.062-.935-.062-1.247-.374-.25-.25-.25-.624-.25-.936-.249-4.366-.748-8.67-1.434-12.973-.125-.686-.187-1.434-.312-2.183-1.247.063-2.557-.187-3.43.687.125 4.116 1.122 8.232 1.247 12.349.374 1.434.749 2.869 1.06 4.303.063.312.188.686.5.873.311.188.623.063.935 0 1.996-.436 4.054-.374 6.05.125-.686-1.06-1.871-1.684-3.119-1.87z"/>
            <path fill="#FFFED5" fill-rule="nonzero" d="M102.536 41.6v.188c1.747 4.615 2.246 9.168 1.996 14.096.81-.125 1.684-.25 2.495-.375-1.123-4.677-2.682-9.355-4.49-13.908z"/>
            <path fill="#CFDBDB" fill-rule="nonzero" d="M102.474 41.85c-.187 2.745-1.934 4.865-2.744 7.36-.437 1.31-.125 1.497.25 2.682.124.374.56 4.553.498 4.615 1.372-.187 2.682-.374 4.054-.561.187-4.927-.312-9.543-2.058-14.096zM93.804 57.006c-2.806-4.116-6.299-7.36-9.916-10.29-.187.186-.312.373-.5.56a29.374 29.374 0 0 0-1.746 2.183l-.499.5.437-.437c-.187.25-.312.436-.499.686l-.062.062c4.927 1.123 9.043 3.867 12.785 6.736z"/>
            <path fill="#FFFED5" fill-rule="nonzero" d="M81.019 50.27c-1.31 1.56-3.368 3.93-4.054 4.865-1.373 1.746-2.62 3.43-3.181 4.179-.749.998-4.054 6.424-5.177 6.486 3.617-.187 7.173-.436 10.79-.623 3.306-1.747 6.923-3.119 10.104-5.115.062-.062.125-.124.125-.187a23.662 23.662 0 0 0 4.178-2.869c-3.742-2.869-7.858-5.613-12.785-6.736zM102.412 41.975c.187-.936-.811-1.684-1.622-2.245-1.809-1.123-3.68-2.246-5.8-2.246-3.119.063-5.551 2.558-7.423 4.99-1.31 1.684-2.432 2.62-3.742 4.116 3.618 2.932 7.173 6.237 9.917 10.291 4.553-3.68 7.734-9.106 8.67-14.906z"/>
            <path fill="#CECDE3" fill-rule="nonzero" d="M89.251 18.649l-14.345.436v-5.8l14.283 2.432c.81.125 1.372.811 1.372 1.622 0 .748-.623 1.31-1.31 1.31z"/>
            <path fill="#35485E" fill-rule="nonzero" d="M74.906 19.085a1.384 1.384 0 0 1-1.372-1.372v-3.118c0-.749.624-1.373 1.372-1.373.749 0 1.373.624 1.373 1.373v3.118c-.063.749-.687 1.372-1.373 1.372z"/>
            <path fill="#E4AB8F" fill-rule="nonzero" d="M64.865 124.74c-2.433-.25-3.992-.561-4.428 1.871-.063.25.124 1.435.311 2.744 1.185-.623 2.433-1.122 3.743-1.434l.374-3.181z"/>
            <path fill="#FFCBB3" fill-rule="nonzero" d="M64.553 127.859c-1.31.311-2.557.81-3.742 1.434.374 2.245.873 5.052.686 5.114.998-.25 1.933-.436 2.931-.686-.125-1.933-.062-3.867.125-5.862z"/>
            <path fill="#35485E" fill-rule="nonzero" d="M63.68 127.36c.623 0 1.31-.063 1.933-.063.5-15.218 5.052-30.25 13.098-43.097.935-1.497 1.871-2.932 2.744-4.491-6.112 8.42-11.351 17.526-14.657 27.068-1.746 6.237-3.118 13.847-3.118 20.583z"/>
            <path fill="#35485E" fill-rule="nonzero" d="M72.162 73.16c-2.308 1.435-3.368 6.486-4.303 8.857v.062c.374 7.671-1.435 15.031-1.435 22.453.062.81-3.742 21.954-3.555 22.828 0-.063.873-2.183.873-2.246 6.736-30 11.663-37.048 17.776-45.405.81-1.497 1.496-2.994 1.87-4.616.375-1.995-9.854-2.806-11.226-1.933z"/>
            <path fill="#395FA4" fill-rule="nonzero" d="M67.859 82.079c-3.68 9.106-6.175 18.71-7.485 28.503-.748 5.613-1.123 11.289-1.06 16.965 1.497-.063 2.931-.125 4.428-.125 0-6.611 0-3.555.873-11.164-.124-.811 1.871-10.853 1.809-11.601-.062-7.547 1.809-14.907 1.435-22.578z"/>
            <path fill="#CFDBDB" fill-rule="nonzero" d="M79.335 65.177c1.559-.063 3.056-.187 4.615-.25.312 0 .561-.062.873-.125.063-.062.187-.062.25-.124a6.21 6.21 0 0 0 .686-.624c1.247-1.31 2.495-2.62 3.68-3.992-3.181 1.996-6.799 3.368-10.104 5.115z"/>
            <path fill="#FFCBB3" fill-rule="nonzero" d="M93.18 31.684c-.56 2.495-.872 5.301-1.122 6.362 2.058.312 4.117.436 6.175.499-1.06 0-1.06-4.242-1.372-7.547-1.185.561-2.433.81-3.68.686z"/>
            <path fill="#E4AB8F" fill-rule="nonzero" d="M95.052 27.256c-.81.374-1.435 2.307-1.871 4.428 1.247.062 2.557-.125 3.68-.686-.25-2.37-.686-4.241-1.81-3.742z"/>
            <path fill="#FFFED5" fill-rule="nonzero" d="M92.308 37.422c.124.125.062.062 0 0zM92.308 37.422c-.125-.125-.063-.062 0 0z"/>
            <path fill="#6D93B4" fill-rule="nonzero" d="M61.31 71.04c1.497 1.122 2.806 2.432 4.178 3.68.063 0 .125.062.188.062-1.31-1.31-2.246-3.244-4.366-3.743z"/>
            <path fill="#FFFED5" fill-rule="nonzero" d="M63.493 132.037c-.25-.062-.5-.062-.811-.062-3.992-.25-8.295 4.865-9.356 8.233-.25.81-.374 1.621-.25 2.432.188.811.687 1.56 1.498 1.809 1.247.374 2.495-.624 3.118-1.809l.187-.374c-.748-4.116 1.435-8.482 5.614-10.229z"/>
            <path fill="#CFDBDB" fill-rule="nonzero" d="M63.493 132.037c-4.18 1.747-6.362 6.113-5.614 10.229.5-1.06.749-2.245 1.435-3.18.81-1.124 9.106-6.238 4.179-7.049z"/>
            <path fill="#FFCBB3" fill-rule="nonzero" d="M90.748 25.51c0 .997.063 2.058.562 2.93 1.122 1.81 3.991 1.872 5.738.624 1.746-1.247 2.744-3.305 3.617-5.301.374-.81.749-1.622 1.123-2.495.624-1.434 1.247-2.869 1.497-4.428.187-1.56-.063-3.243-1.06-4.428-6.674-7.672-11.352 9.293-11.477 13.097z"/>
            <path fill="#E7E6FF" fill-rule="nonzero" d="M89.813 20.956l-13.16.811v-5.8l13.285 1.621c.873.125 1.496.811 1.496 1.684 0 .874-.686 1.622-1.621 1.684z"/>
            <path fill="#FFCBB3" fill-rule="nonzero" d="M80.27 19.834c.125-.811.125-1.56.125-2.37v-.624c0-.25.437-.312.499-.062.25.56.436 1.185.436 1.87l.188-1.933c0-.062.124-.062.124 0 .125.561.063 1.497.312 2.058 0-.623.374-1.621.562-2.183.124.686.187 1.373.187 1.996.062-.436.187-.81.374-1.247.125-.25.499-.187.499.062.062 1.372-.187 2.745-.873 3.93.623-.312 1.31-.5 1.995-.624.125 0 .312-.063.375.062.187.125.062.374-.063.5-.81.935-1.746 1.746-2.869 2.37-.935.56-2.495.81-2.869-.437-.25-.998.811-2.433.998-3.368z"/>
            <path fill="#6D93B4" fill-rule="nonzero" d="M76.653 21.767a1.384 1.384 0 0 1-1.372-1.372v-3.119c0-.748.623-1.372 1.372-1.372.748 0 1.372.624 1.372 1.372v3.119c0 .748-.624 1.372-1.372 1.372z"/>
            <path fill="#35485E" fill-rule="nonzero" d="M85.135 15.094a.853.853 0 0 0-.873.873v1.372c0 .312.187.561.374.748.312-.935.686-1.87.998-2.806-.125-.187-.312-.187-.499-.187z"/>
            <path fill="#6D93B4" fill-rule="nonzero" d="M85.634 15.218c-.312.936-.686 1.871-.998 2.807.125.125.312.125.5.125a.853.853 0 0 0 .872-.874v-1.372c.063-.25-.125-.561-.374-.686z"/>
            <path fill="#E4AB8F" fill-rule="nonzero" d="M98.233 24.137c.312-.312.561-.686.81-1.06.188.25.687-.624.936-.374-.499.25-1.247 1.684-1.746 1.996-.374.187-.749.436-1.123.436-.748 0-1.123-.686-.686-1.31.312.686 1.06.936 1.809.312z"/>
            <path fill="#35485E" fill-rule="nonzero" d="M98.046 19.584c.623.25 1.31.312 1.995.25.375.998-.623 1.933-1.06 2.869-.062.187-.125.374-.062.499.062.25.374.311.624.311 1.06.063 1.87-.873 2.37-1.808.499-.936.873-1.996 1.746-2.62.624-.436 1.372-.623 1.996-.935.623-.312 1.31-.874 1.31-1.622 0-.499-.312-.998-.25-1.497.062-.499.499-.873.686-1.372.5-1.185-.624-2.495-1.746-3.18-1.809-1.061-4.054-1.56-6.175-1.061-1.434.312-5.488 2.495-3.118 4.428.998.811 1.808-.25 2.494 1.31.749 1.56-.062 3.306-.81 4.428z"/>
            <path fill="#FFCBB3" fill-rule="nonzero" d="M82.204 96.424c.312-.686.499-1.434.686-2.183 0-.125.062-.25 0-.374a.752.752 0 0 0-.312-.312 63.083 63.083 0 0 1-5.426-3.617c.124.124.187.374.124.623 1.435 2.12 2.994 4.117 4.928 5.863z"/>
            <path fill="#E4AB8F" fill-rule="nonzero" d="M77.214 90.561c-.125 1.123-.998 3.306-.25 4.179.936 1.123 3.556 1.871 4.803 2.557.125-.312.25-.561.374-.873-1.87-1.746-3.43-3.742-4.927-5.863z"/>
            <path fill="#FFFED5" fill-rule="nonzero" d="M81.58 103.472c.374 2.12.998 4.303 2.308 6.174.062.125.187.25.374.25a.421.421 0 0 0 .374-.25c.873-1.122.998-2.557.873-3.929-.124-1.372-.499-2.682-.499-4.054 0-1.06.187-2.058.5-3.118.311-1.185.81-2.433.498-3.618-.748-2.869-3.867-1.871-4.366.437-.561 2.62-.499 5.426-.062 8.108z"/>
            <path fill="#E4AB8F" fill-rule="nonzero" d="M67.36 43.721c.748.063 1.185 1.06 1.87 1.248 2.62-4.678 5.24-9.356 7.86-14.096.436-.81 1.746-2.557 2.744-4.241-5.177 4.74-8.982 11.102-12.474 17.09z"/>
            <path fill="#FFCBB3" fill-rule="nonzero" d="M77.339 48.15c-2.744-.874-5.489-1.934-8.17-3.056 0-.063.062-.063.062-.125-.686-.25-1.123-1.185-1.871-1.248-.188.312-.375.562-.5.874.188-.312.375-.562.5-.874h-.063.063c3.492-5.925 7.297-12.287 12.474-17.027.748-1.247 1.372-2.432 1.247-3.056-.312-2.495-1.497-.686-2.557.187-1.871 1.56-18.087 21.144-15.905 22.578 1.31.811 2.62 1.622 3.992 2.308 3.992 1.123 8.42 3.243 10.728-.561z"/>
            <path fill="#E4AB8F" fill-rule="nonzero" d="M77.339 48.15c-2.308 3.867-6.736 1.684-10.665.561a45.273 45.273 0 0 0 14.033 4.615c2.744.437 5.488.624 8.233.811 2.058.125 4.615-.062 5.301-1.996-5.738-.873-11.414-2.183-16.902-3.991z"/>
            <path fill="#FFFED5" fill-rule="nonzero" d="M88.69 48.773c-3.804-.062-7.547-.623-11.226-1.559-.5 3.618-1.373 7.11-2.745 10.291 3.368 1.06 6.861 1.185 10.354 1.185 3.118.063 6.361 0 9.106-1.87 1.434-.999 6.61-7.111 4.677-9.668-1.06-1.372-8.482 1.684-10.166 1.621z"/>
            <path fill="#CFDBDB" fill-rule="nonzero" d="M93.617 56.944a24.07 24.07 0 0 0-4.615 1.247c-1.435.562-2.807 1.185-4.304 1.747-3.118 1.122-8.295 2.058-11.6 2.557 1.372-3.555.873-2.682 1.808-5.364-.062 2.245-.187 2.62-.062 3.555.062.312.624-.062.873.062.187.125.437.125.686.125 4.927-.312 9.792-1.434 14.283-3.43M91.123 46.216c-1.06.25-2.059.562-3.119.686-.873.125-2.931-.124-4.241-.124-.125.249-.25.498-.437.686.312.25.686.56.811.997 2.932.375 6.362-.686 8.981-1.995.624-.312 1.248-.686 1.81-1.185-1.373.311-2.558.623-3.805.935z"/>
            <g fill-rule="nonzero">
                <path fill="#F8EF89" d="M172.141 149.064c.437-1.31 2.058-2.307 3.805-2.37-.562-1.87-3.119-2.682-5.177-2.245-2.183.499-4.054 1.871-6.175 2.432-5.488 1.497-11.663-2.307-16.715.25-4.99 2.495-5.738 9.605-9.667 13.472.312.124.561.187.873.312 13.098 4.99 26.82 2.494 33.056-11.85z"/>
                <path fill="#F5EA61" d="M182.495 153.056c-.375-1.996-2.183-3.617-4.18-3.805-.748-.062-1.62-.062-2.057-.686-.25-.374-.187-.935-.25-1.372 0-.125-.062-.312-.125-.436-1.746.062-3.368 1.06-3.804 2.37-6.237 14.345-19.959 16.84-33.056 11.85-.312-.125-.562-.25-.873-.312a9.12 9.12 0 0 1-1.185.998c-1.186.81-2.62 1.31-3.805 2.12-3.43 2.246-4.927 7.048-3.368 10.853.624 1.56 1.746 3.056 1.809 4.74.062 2.744-2.557 4.615-4.553 6.424-1.934 1.747-3.618 4.117-3.618 6.736 0 2.62 2.246 5.302 4.865 4.927.873-.124 1.622-.56 2.495-.686 1.185-.25 2.37 0 3.555.437 5.177-2.37 9.543-6.237 12.162-12.536 2.495-7.485 13.722-4.99 21.206-8.109.935-.436 2.183-1.31 3.056-2.432-.312-1.123-.561-2.183-.125-3.18.749-1.747 2.994-2.37 3.867-4.055.936-1.871-.312-4.179.187-6.175 1.185-4.802 9.169-.81 7.797-7.671z"/>
                <path fill="#C7BE4F" d="M167.775 176.507c-7.484 3.119-18.71.624-21.206 8.108-2.619 6.3-6.985 10.167-12.162 12.537 1.372.499 2.682 1.185 4.054 1.684 4.616 1.621 10.603-.25 12.287-4.865.811-2.183.562-4.616 1.497-6.736 1.996-4.429 7.796-5.302 12.661-5.738 2.682-.25 6.05-1.123 6.55-3.743.249-1.247-.25-2.494-.625-3.742-.873 1.185-2.12 2.059-3.056 2.495z"/>
                <path fill="#FFCBB3" d="M173.077 166.59c-.686-.312-1.435-.686-2.183-.561-.749.125-1.435.935-1.123 1.622.187.374.561.623.936.81 1.434.811 2.869 1.622 4.24 2.37.188-1.933-1.309-3.492-2.681-4.802.125.437.25.81.374 1.247M181.497 177.817c-.686.748-1.435 1.434-2.37 1.871 0 1.809.062 3.617-.25 5.114-.062.25-.125.5 0 .749.187.436.749.499 1.185.561l5.8.187c-1.559-.062-3.243-4.865-4.365-8.482z"/>
                <path fill="#E4AB8F" d="M181.497 177.817c-.562-1.746-1.06-3.243-1.31-3.805-.998 1.497-1.06 3.555-1.06 5.676.935-.374 1.684-1.123 2.37-1.871z"/>
                <path fill="#6D93B4" d="M162.411 217.609c-.062 0-.062-.062-.124-.062-.187.311 0 .187.124.062z"/>
                <path fill="#6D93B4" d="M162.287 217.547c.062 0 .062.062.124.062.125-.125.125-.25-.124-.062z"/>
                <path fill="#35485E" d="M177.88 189.23c4.989 9.855 6.423 21.518 3.804 32.308 6.798-.062 13.659-.81 20.27-2.307-.125-.624-.25-1.248-.437-1.872-2.93-2.557-6.361-3.492-9.48-5.426-7.36-5.675-7.983-15.966-14.158-22.702z"/>
                <path fill="#395FA4" d="M204.2 174.075c-.624.312-.936.935-1.934 1.122.561 4.304.873 10.603.81 12.973 1.56-4.677-.249-9.418 1.123-14.095z"/>
                <path fill="#6D93B4" d="M206.819 193.098c.437-6.113-.998-13.16-1.746-19.21-.375 0-.624.062-.811.187-1.435 4.677.436 9.418-1.06 14.095 0 .375 0 .686-.063.811h-.25s0 .062-.062.062c0 0 0-.062.063-.062-4.117.125-10.291-.436-14.657-1.746.499 1.31.935 2.682 2.12 3.617-1.808-1.185-2.994-2.994-4.428-4.49-2.308-1.185-4.304-3.68-6.611-4.304-3.867-1.06-5.364 3.18-6.113 6.112-1.247 4.99-3.18 10.853-5.301 16.528 2.994-5.363 6.362-10.603 9.48-16.153l.063.062c.062-.062.062-.187.124-.25.125.25.25.562.375.811 6.174 6.736 6.798 17.027 14.22 22.703 3.118 1.933 6.549 2.869 9.48 5.426-1.247-5.301-2.869-10.54-4.927-15.655-1.372-3.493-3.056-7.11-6.112-9.293 5.301 1.56 11.164 2.994 16.216.749z"/>
                <path fill="#35485E" d="M167.838 204.76c-1.747 4.616-3.68 9.044-5.551 12.787.25-.188.25-.063.124.062.749.312.998.499 1.872.748 3.742-9.542 8.357-20.52 13.035-29.688l-.062-.062c-3.057 5.488-6.425 10.728-9.418 16.154z"/>
                <path fill="#395FA4" d="M190.29 190.852c-1.184-.935-1.62-2.307-2.12-3.617-.561-.187-1.06-.312-1.559-.5-.25-.124-.499-.186-.748-.373 1.434 1.496 2.62 3.305 4.428 4.49z"/>
                <path fill="#CFDBDB" d="M167.838 249.355c0 .125-.063.312-.063.437-.312 1.871-.312 3.804-.873 5.676-.686 2.37-2.245 4.428-3.493 6.548-2.931 4.99-4.428 10.853-4.24 16.59.373-.373.748-.685 1.06-1.06 1.185-7.422 4.99-13.846 7.234-20.956.874-2.308.437-4.802.375-7.235zM203.201 279.979c.312-2.744.874-5.489 1.56-8.17-.562-2.745-1.497-5.49-2.495-8.171-.187 5.489-.187 11.04.935 16.34z"/>
                <path fill="#FFFED5" d="M204.823 220.977c-.624-.624-1.247-1.185-2.058-1.497-.936-.374-1.934-.312-2.932-.25-5.738.312-12.037-.249-17.775.063l.062.187c-3.243 2.245-7.671 9.917-8.607 12.724-1.122 3.492-5.052 13.846-5.675 17.089.062 2.432.499 4.927-.375 7.235-2.245 7.11-6.05 13.534-7.234 20.956 3.866-3.93 6.985-8.545 9.043-13.659 3.181-7.796 9.917-12.786 15.593-18.898 5.8-6.237 7.172-9.418 11.164-17.027 3.555 1.31 1.497 4.428 3.118 7.859 4.054 8.544 3.368 18.15 3.057 27.754.997 2.745 1.933 5.426 2.494 8.17 1.871-7.297 4.553-14.407 6.05-21.766 2.183-9.98 1.435-21.705-5.925-28.94z"/>
                <path fill="#FFFED5" d="M200.956 243.991c.063 2.495-.499 4.99-.499 7.547 0 6.237 4.553 12.1 3.181 18.15.561-9.356 1.06-18.649 1.622-28.004.124-2.433.25-4.99-.624-7.298-.81-2.12-2.432-3.742-3.992-5.363-1.372-1.435-8.856-6.487-11.226-5.489-2.183.873 1.621 2.62 2.245 4.49 3.68 11.103 9.168 12.974 9.293 15.967z"/>
                <path fill="#35485E" d="M159.605 277.36a25.66 25.66 0 0 0 8.17 2.93c-2.495.936-5.239 1.31-7.92.999-1.186-.125-1.997-1.372-1.56-2.495.062-.187.187-.374.25-.561M203.888 279.043a25.66 25.66 0 0 0 8.17 2.932c-2.495.935-5.177 1.247-7.796 1.06-1.248-.125-2.058-1.372-1.56-2.557.063-.187.125-.312.188-.5"/>
                <path fill="#FFCBB3" d="M171.268 162.287c.312 2.432.81 4.865 1.497 7.297.499 1.871 1.185 3.805 2.37 5.364 1.247 1.56 3.118 2.682 5.052 2.557 1.06-1.871 2.12-3.742 2.62-5.8.873-3.743-.25-7.61-1.373-11.29-.312-.997-.623-2.058-1.372-2.868-1.247-1.31-3.493-1.435-5.114-.5-1.622.936-2.62 2.62-3.056 4.429"/>
            </g>
            <path fill="#6D93B4" fill-rule="nonzero" d="M123.617 278.108c1.185.436.063-.998 0 0z"/>
            <path d="M131.102 281.226c2.37-3.43 2.931-10.104 7.858-5.488-.81 1.372-2.37 2.495-3.68 3.368-.873.623-3.68 1.372-4.178 2.12z"/>
            <path fill="#CFDBDB" fill-rule="nonzero" d="M193.16 233.825a70.287 70.287 0 0 0 3.305-7.734c-.249 3.493-.56 6.923-.997 10.416"/>
            <path fill="#FFCBB3" fill-rule="nonzero" d="M161.226 220.228c-.436.125-.935.188-1.372.125-.748-.125-1.372-.748-1.87-1.31-.25-.249-.5-.686-.313-.997.125-.25.5-.312.749-.312 1.933-.125 4.428-.562 6.3-.125 0 1.684-2.184 2.308-3.494 2.62z"/>
            <path fill="#CFDEFF" fill-rule="nonzero" d="M221.413 132.287s-29.189 29.064-29.5 30.436l1.87 5.302c12.6-2.058 25.26-4.117 37.86-5.925l-10.23-29.813z"/>
            <path fill="#CECDE3" fill-rule="nonzero" d="M193.721 168.025l.312.81 39.23-1.995-1.62-4.74c-12.662 1.808-25.26 3.867-37.922 5.925z"/>
            <path fill="#CECDE3" fill-rule="nonzero" d="M191.85 162.723l-4.865 2.62 1.622 4.802 5.426-1.31z"/>
            <path fill="#FFCBB3" fill-rule="nonzero" d="M204.636 168.274c.374-.623.998-1.372 1.622-.935.311.187.499.623.499 1.06 0 1.372-.063 2.682-.25 3.992-.187 1.434-1.247 2.557-2.557 2.744-.624.062-1.31.125-1.809 0 1.06-2.12 1.31-4.74 2.495-6.86z"/>
            <path fill="#FFCBB3" fill-rule="nonzero" d="M202.702 174.948c-.935-.998-1.683-2.183-2.37-3.43-.249-.5-.436-1.123-.124-1.497.374-.437 1.06-.063 1.434.374.562.561 1.06 1.123 1.497 1.809.125.187.25.374.312.623.25.811-.499 1.497-1.123 1.934"/>
            <path fill="#CFDBDB" fill-rule="nonzero" d="M107.027 274.802c0-.686.062-1.31.062-1.996-1.06 1.123-2.058 2.308-2.869 3.618a15.648 15.648 0 0 0 2.807-1.622zM43.285 174.324c.436-.062 6.923-2.807 7.297-3.056 2.37-1.56-.935.686 0 0 1.746-1.247.998-.936 3.119-.998-.063.998-.125 1.996-.25 2.994 0 .125 0 .312-.125.436-.124.125-.25.188-.436.25-3.368 1.247-8.483 2.495-12.038 1.622.312-.5 1.81-1.123 2.433-1.248z"/>
            <path fill="#754B3F" fill-rule="nonzero" d="M84.511 231.642c0 1.372.187 2.744.5 4.117.186.81 1.371.81 1.559 0 .623-2.745.436-6.487.499-8.732 0-.936-1.622-.437-2.183 0-.811.623-2.308 4.74-2.62 5.613.187-.062 2.245-.81 2.245-.998z"/>
            <path fill="#491E11" fill-rule="nonzero" d="M71.663 174.137c0-.312-2.994.312-3.43.81-.624.75-.686 2.496-.811 3.369-.062.436-.125.935-.187 1.372 1.31-.748 2.869-1.247 4.366-1.809 0-1.247.062-2.495.062-3.742z"/>
            <path fill="#754B3F" fill-rule="nonzero" d="M65.239 169.834c-.125 1.746 0 3.68 1.247 4.927 1.31 1.31 3.556 1.247 5.177.312 1.622-.936 2.682-2.495 3.555-4.117 1.934-3.493 3.306-7.422 3.368-11.476.063-4.366-4.865-11.164-8.856-5.925-3.056 3.992-4.18 11.289-4.491 16.279zM67.235 179.688c-.374 2.557-.749 5.114-1.996 7.422 2.245-.374 4.553-.499 6.798-.374-.312-2.932-.436-5.925-.436-8.857-1.497.624-3.056 1.06-4.366 1.809z"/>
            <path fill="#CFDBDB" fill-rule="nonzero" d="M73.41 193.784c0 1.185.124 2.37.311 3.555v-.437a58.443 58.443 0 0 1 9.231 2.807c-2.432-2.495-6.736-3.555-9.543-5.925z"/>
            <path fill="#FFFED5" fill-rule="nonzero" d="M73.347 193.659l.062.062v-.062h-.062z"/>
            <path fill="#CFDBDB" fill-rule="nonzero" d="M66.611 231.455c.25.873.561 1.746 1.123 2.432 1.684 1.934 4.678 1.373 7.172.562.125-.063.187-.125.187-.25-.686-9.168-1.122-18.274-1.247-27.442-.312 8.607-1.684 17.027-7.484 23.763.062.311.124.623.25.935z"/>
            <path fill="#FFFED5" fill-rule="nonzero" d="M89.002 196.777c-.374-.935-1.247-1.559-2.058-2.12-3.867-2.62-9.231-7.859-14.969-9.231-.125-.062-.312.062-.312.187-.561 3.243-1.871 6.3-3.555 9.169-.81 1.434-2.931.686-2.744-.936.374-2.682.499-5.364.873-7.983 0-.188-.125-.375-.312-.312-.686.25-1.31.561-1.933.998-3.618 2.557-5.988 4.865-6.3 9.293 1.185-.936 3.243.187 3.93-.873-1.622 8.357.436 16.715 1.496 25.072 1.06 3.493 2.183 6.986 3.244 10.479 5.8-6.799 7.172-15.156 7.484-23.763-.062-3.181-.062-6.3-.062-9.48v-.063c-.187-1.185-.312-2.308-.312-3.493l-.063-.062c-.124 0-.374.125-.374.436 0-.311.25-.374.374-.436a8.334 8.334 0 0 1-1.247-1.31c.374.499.749.936 1.247 1.31h.063v.062c2.807 2.37 7.11 3.493 9.542 5.925.063 0 .063 0 .125.063.562.187 1.123.436 1.435.935.436.562.436 1.372.374 2.058-.374 8.483-.686 17.028-1.06 25.51 0 .125.124.25.25.25.748 0 2.244.062 2.93.062.125 0 .25-.063.25-.25 1.435-8.732.873-18.898 1.809-29.189.062-.748.124-1.56-.125-2.308z"/>
            <path fill="#CFDBDB" fill-rule="nonzero" d="M61.56 194.969c-.687 1.06-1.061-.063-2.184.873-.312 4.49-.374 11.102.686 14.657l2.994 9.542c-1.06-8.357-3.056-16.715-1.497-25.072z"/>
            <path fill="#6D93B4" fill-rule="nonzero" d="M62.744 224.781c-3.18 1.934-9.542 4.803-12.973 6.175-6.424 2.62-13.097 4.99-18.337 9.792-.56.5-1.06 1.06-1.559 1.622 7.173-5.613 18.275-6.674 26.82-10.977 2.556-1.435 4.49-4.054 6.05-6.612z"/>
            <path fill="#6D93B4" fill-rule="nonzero" d="M63.056 224.594c-.062.063-.187.125-.312.187-1.559 2.558-3.492 5.177-6.05 6.612-8.544 4.303-19.646 5.364-26.819 10.977a7.628 7.628 0 0 0-1.06 1.809c-.624 1.621-.561 3.492-.499 5.239.437 8.42.998 17.214 3.93 25.01 2.494-6.611 1.371-14.657 3.118-21.705 0-.81.062-1.621.561-2.183.062-.062.062-.124.125-.124.125-.375.25-.687.436-1.06-.124.373-.311.685-.436 1.06.499-.5 1.185-.687 1.871-.811 10.229-2.557 19.834-7.734 27.755-14.844.25-.25.499-.437.748-.686.187.56.312 1.122.499 1.684 1.56-3.805 4.054-7.235 7.11-10.042-4.74-.686-6.05-.998-10.977-1.123z"/>
            <path fill="#395FA4" fill-rule="nonzero" d="M35.301 280.727v-5.488c.063-7.422.063-14.844.125-22.266v-.187c-1.746 6.985-.624 15.093-3.118 21.704a38.216 38.216 0 0 0 2.993 6.237z"/>
            <path fill="#35485E" fill-rule="nonzero" d="M38.919 280.665c.062 0-2.994-3.93-3.992-4.054-1.31-.125-2.682 1.123-3.93 1.996 1.997.561 3.868 1.497 5.614 2.682.811-.125 1.622-.312 2.308-.624z"/>
            <path fill="#395FA4" fill-rule="nonzero" d="M31.06 278.607a9.4 9.4 0 0 1-1.247.748c-1.372.5-2.932.5-4.428.811-.749.125-.686 1.185.062 1.247 3.742.375 7.61.624 11.227-.124-1.747-1.123-3.618-2.12-5.614-2.682zM23.389 158.67c-1.185 0-2.12.935-2.12 2.12s.997 2.12 2.12 2.12h.187c.062-1.434.062-2.806.062-4.24h-.25z"/>
            <path fill="#FFFED5" fill-rule="nonzero" d="M67.235 159.48l-43.597-.81c0 1.434 0 2.806-.062 4.24l43.659-.81v-2.62z"/>
            <path fill="#491E11" fill-rule="nonzero" d="M49.272 179.626c-.374 1.122 3.056-5.052 3.555-5.302.188-.062.375-.25.5-.374-.936-2.245-2.433-4.241-3.244-6.362-.125 4.241-.312 9.23-.81 12.038z"/>
            <path fill="#754B3F" fill-rule="nonzero" d="M54.574 171.268c1.06-3.243 1.87-6.611 1.497-10.042-.063-.748-.25-1.559-.749-2.058-.312-.312-.873-.187-.998.25a7.133 7.133 0 0 0-.187 2.806l-3.742-.124a98.715 98.715 0 0 0-.312 5.488c.81 2.183 2.308 4.179 3.243 6.362.749-.624.936-1.746 1.248-2.682z"/>
            <path fill="#754B3F" fill-rule="nonzero" d="M51.58 159.355c.125.5.499.936.936 1.123h.124l.063-.062c.124-.375.124-.811 0-1.185.062.25.124.436.25.623a.744.744 0 0 0 .56.312c.063 0 .063 0 .125-.062 0 0 0-.063.063-.125 0-.25 0-.561-.125-.81.062.186.125.373.25.498l.062.063c.062 0 .062-.063.062-.125.062-.5 0-1.06-.312-1.435-.81-1.122-2.931-1.06-3.243.5-.125.56.25 1.184.561 1.683.811 1.06.811-.312.624-.998z"/>
            <path fill="#491E11" fill-rule="nonzero" d="M53.763 166.777c-.125-.748-.312-1.496-.499-2.245-.187-.81-.437-1.684-.624-2.495.312.063 1.123-.062 1.372.187.312.25.125.874.125 1.185 0 .562-.062 1.123-.125 1.747 0 .436-.311 1.185-.25 1.621z"/>
            <path fill="#FFFED5" fill-rule="nonzero" d="M65.987 185.364c-3.617 1.995-7.234 3.929-10.852 5.925-3.617 2.557-6.86 5.177-10.665 7.235.312-.873.561-1.871 1.122-2.745 1.996-6.61 5.8-12.037 8.483-22.39-6.923 2.37-6.923 2.37-13.16 2.183-.437 1.122-.686 2.307-.873 3.43-1.06 8.17-2.745 15.031-.375 26.57 9.668-1.81 18.462-5.8 25.447-12.724.312-1.996.936-5.364.998-7.422-.062-.062-.125-.062-.125-.062z"/>
            <path fill="#CFDBDB" fill-rule="nonzero" d="M55.135 191.226c-3.306 1.81-6.549 3.556-9.854 5.364.062-.312.187-.561.25-.873-.5.873-.812 1.871-1.124 2.744 3.867-2.058 7.173-4.677 10.728-7.235z"/>
            <path fill="#491E11" fill-rule="nonzero" d="M77.214 166.403c-.748.437-1.434.873-2.183 1.31.374.062.81.187 1.185.25.125 0 .25.062.374 0 .063-.063.125-.125.187-.25.25-.499.5-.936.749-1.435-.062.125-.062.188-.125.312"/>
            <path d="M76.965 165.904l-1.123.187"/>
            <path fill="#754B3F" fill-rule="nonzero" d="M79.771 164.158c.25-.561.374-1.185.187-1.747-1.247-.436-2.62.188-3.617.998-.873.686-2.932 3.244-.873 3.743 1.372.311 3.742-1.872 4.303-2.994zM71.663 185.301c-1.621-.374-4.179-.499-5.676 0-.498 3.43-.311 5.863-.81 9.293-.25 1.435 1.684 2.121 2.432.874 1.871-3.119 3.43-6.175 4.054-10.167z"/>
            <path fill="#395FA4" fill-rule="nonzero" d="M104.657 274.179a712.717 712.717 0 0 0-22.453-9.543c4.677 2.994 9.605 5.8 13.908 9.293 3.119.374 6.3.624 9.418.624-.312-.125-.561-.25-.873-.374z"/>
            <path fill="#6D93B4" fill-rule="nonzero" d="M78.96 263.326l-.187-.935h-.062.062c-1.372-7.485.5-15.281.562-22.89 0-2.557-.187-5.052-.749-7.547-.374-1.56-.935-3.118-1.933-4.366-.998-1.247-2.557-2.12-4.241-2.058l-5.676 6.923v.437c-.936 1.372-1.248 3.18-1.497 4.802-.561 4.241-.686 8.545-.125 12.848.437 3.805 1.435 7.547 3.119 10.977.436.811.935 2.495 1.809 2.807 1.496 2.682 4.553 4.054 7.484 5.114 5.987 2.183 12.287 3.68 18.649 4.491-4.304-3.493-9.169-6.3-13.909-9.293-1.123-.437-2.245-.873-3.306-1.31z"/>
            <path fill="#395FA4" fill-rule="nonzero" d="M65.987 229.21c-1.247 1.933-1.808 3.243-3.118 5.239-1.185 1.809-3.119 4.303-4.678 5.8 1.372-.374 2.308-1.372 3.368-2.245.936-.81 2.246-1.31 3.056-2.183 1.809-1.684.187-4.74 1.372-6.611zM103.659 278.045c-1.185.998-2.432 1.996-3.618 2.994-.498.437-.124 1.31.562 1.123a23.29 23.29 0 0 0 3.493-1.248c-.312-.997-.375-1.995-.437-2.869.062-.062.062 0 0 0z"/>
            <path fill="#35485E" fill-rule="nonzero" d="M107.09 273.804c-.125-.187-.313-.25-.5-.312-1.185-.436-3.867-1.808-4.553-.436-.374.748 1.56 4.116 1.684 4.865v-.873.935c0 .936.125 1.934.375 2.87.062 0 .124-.063.124-.063.811-1.31 1.809-2.495 2.87-3.618.062-.935.062-1.87.124-2.744 0-.25 0-.437-.125-.624z"/>
            <circle cx="90.561" cy="82.578" r="2.245" fill="#F5EA61" fill-rule="nonzero"/>
            <circle cx="99.044" cy="82.578" r="2.245" fill="#F8EF89" fill-rule="nonzero"/>
            <circle cx="107.089" cy="82.578" r="2.245" fill="#FAF4B0" fill-rule="nonzero"/>
            <path fill="#395FA4" fill-rule="nonzero" d="M164.532 138.087h-20.52a6.974 6.974 0 0 1-6.985-6.985V94.054a6.974 6.974 0 0 1 6.985-6.985h20.52a6.974 6.974 0 0 1 6.986 6.985v37.048a6.974 6.974 0 0 1-6.986 6.985zM79.397 89.75c-5.114-5.176-11.289-11.6-14.096-15.093.063 0 .125.062.125.062-.312-.25-.561-.561-.873-.81 3.306 7.36 8.545 13.534 14.22 19.21.25-1.123.437-2.246.624-3.369zM46.902 70.416c1.372 5.239 6.237 9.168 10.728 12.411.125.063.187.125.312.187-2.807-4.74-6.55-8.98-11.04-12.598z"/>
            <path fill="#6D93B4" fill-rule="nonzero" d="M84.449 64.553l-14.033.499c-7.173-.5-14.345-.374-21.518.25-.437.062-.81.062-1.185.249-.998.499-1.247 1.871-1.123 2.994.063.623.188 1.247.312 1.87 4.49 3.618 8.233 7.797 11.04 12.662.25.187.499.374.748.499 2.183 1.56 4.304 3.18 6.487 4.74 4.366 3.18 8.731 6.362 13.097 9.543.187-1.56.375-3.181.624-4.74-5.676-5.739-10.915-11.913-14.22-19.21-1.06-.998-2.12-1.996-3.306-2.87 1.31.312 2.183 1.185 2.931 2.059a51.783 51.783 0 0 1-1.247-3.306l.624.624-.624-.624c.374 1.123.81 2.183 1.247 3.306.5.561.936 1.185 1.435 1.684a32.417 32.417 0 0 0 13.784 2.494c1.746-.062 3.555-.311 4.927-1.31.936-.685 1.622-1.746 1.996-2.868.998-2.87.187-6.362-1.996-8.545z"/>
            <g fill="#FFF" fill-rule="nonzero" opacity=".52">
                <path d="M16.59 240.998c-.935.935-1.808 1.808-2.806 2.494 4.428 4.117 4.865 11.352.686 15.842l2.994 2.246c5.114-5.925 4.802-15.219-.874-20.582z"/>
            </g>
            <path fill="#C4DFFF" fill-rule="nonzero" d="M119.5.25c-.935.935-1.808 1.808-2.806 2.494 4.429 4.117 4.865 11.352.686 15.842l2.994 2.246c5.114-5.926 4.803-15.219-.873-20.583z"/>
            <g fill="#FFF" fill-rule="nonzero" opacity=".52">
                <path d="M228.461 192.973c.936.935 1.809 1.809 2.807 2.495-4.428 4.116-4.865 11.35-.686 15.842l-2.994 2.245c-5.052-5.925-4.802-15.218.873-20.582z"/>
            </g>
            <g fill-rule="nonzero">
                <path fill="#CFDBDB" d="M11.227 96.175c0 .623.436 1.185 1.06 1.31 3.68.748 6.362 4.116 6.112 8.045-.25 3.805-3.43 6.985-7.235 7.173-4.428.25-8.108-3.306-8.108-7.672 0-.561.063-1.06.187-1.622.125-.623-.187-1.185-.686-1.496 0 0-.062 0-.062-.063-.749-.374-1.684.063-1.871.936-.25 1.06-.312 2.183-.187 3.368.56 4.99 4.677 8.856 9.73 9.168 5.987.374 10.976-4.428 10.976-10.353 0-4.99-3.555-9.169-8.295-10.167-.81-.124-1.621.5-1.621 1.373z"/>
                <path fill="#6D93B4" d="M11.227 97.36v0h-.437c-3.368 0-6.175 2.12-7.235 5.114.125.062.312.187.437.312-.125-.125-.312-.187-.437-.312-.312.81-.437 1.622-.437 2.557a7.666 7.666 0 0 0 7.672 7.672 7.666 7.666 0 0 0 7.672-7.672c0-4.116-3.244-7.422-7.235-7.671zm-.437 12.598a5.004 5.004 0 0 1-4.99-4.99 5.004 5.004 0 0 1 4.99-4.989 5.004 5.004 0 0 1 4.99 4.99 5.004 5.004 0 0 1-4.99 4.99z"/>
                <path fill="#CFDBDB" d="M12.536 102.162c-.311.499-.25 1.123.063 1.56.499.748.561 1.683.062 2.494-.499.81-1.434 1.123-2.308.998a1.404 1.404 0 0 0-1.434.561c-.5.811-.062 1.871.873 2.059 1.934.374 3.992-.437 5.177-2.183 1.122-1.747.998-3.992-.125-5.614-.624-.686-1.809-.623-2.308.125z"/>
                <g opacity=".64">
                    <path fill="#CFDBDB" d="M45.156 103.098c.125.56.125 1.185.125 1.808-.25 3.867-3.368 6.923-7.235 7.173-4.429.25-8.108-3.306-8.108-7.672 0-.56.062-1.06.187-1.559.124-.624-.125-1.247-.686-1.497 0 0-.063 0-.063-.062-.748-.374-1.684.062-1.87.873a9.758 9.758 0 0 0-.188 3.306c.499 5.052 4.678 8.98 9.73 9.293 5.987.374 10.977-4.428 10.977-10.354 0-.561-.062-1.185-.125-1.746-.125-.81-.935-1.31-1.746-1.06-.686.187-1.123.81-.998 1.497z"/>
                    <path fill="#6D93B4" d="M43.659 102.287c.437-.125.81-.187 1.185-.312-.998-2.931-3.617-5.052-6.798-5.24v0h-.437c-3.368 0-6.175 2.121-7.235 5.115.125.063.312.187.437.312-.125-.125-.312-.187-.437-.312-.312.811-.436 1.622-.436 2.557a7.666 7.666 0 0 0 7.671 7.672 7.666 7.666 0 0 0 7.672-7.672c0-.873-.125-1.621-.375-2.432-.436.125-.81.187-1.247.312zm-6.05 7.048a5.004 5.004 0 0 1-4.99-4.99 5.004 5.004 0 0 1 4.99-4.99 5.004 5.004 0 0 1 4.99 4.99 5.004 5.004 0 0 1-4.99 4.99z"/>
                    <path fill="#CFDBDB" d="M40.54 103.222c-.498.187-.748.686-.748 1.185 0 .437-.125.811-.374 1.185-.5.811-1.435 1.123-2.308.998a1.404 1.404 0 0 0-1.434.562v.062c-.5.81-.063 1.871.873 2.058a4.968 4.968 0 0 0 5.114-2.183c.561-.873.811-1.87.811-2.869 0-.81-.873-1.372-1.622-1.122a.476.476 0 0 1-.312.124z"/>
                </g>
            </g>
            <path fill="#E4AB8F" fill-rule="nonzero" d="M172.765 169.646l1.871 1.248-1.372.312z"/>
            <path fill="#6D93B4" fill-rule="nonzero" d="M154.054 112.89a6.84 6.84 0 0 1-6.86-6.861v-7.484c0-3.743 3.055-6.861 6.86-6.861a6.84 6.84 0 0 1 6.86 6.86v7.485a6.84 6.84 0 0 1-6.86 6.86zM146.008 134.72h16.715a5.031 5.031 0 0 0 5.052-5.053v-3.056c0-2.744-1.31-5.301-3.555-6.86l-4.054-2.87c-.748-.561-1.621-.81-2.557-.81h-6.549c-.935 0-1.809.311-2.557.81l-4.054 2.87c-2.245 1.559-3.555 4.116-3.555 6.86v3.056c.062 2.807 2.308 5.052 5.114 5.052z"/>
            <path fill="#F5EA61" fill-rule="nonzero" d="M106.59 141.455l1.871 3.867 4.18.624-3.12 2.931.687 4.241-3.742-2.058-3.805 1.934.81-4.18-2.993-2.993 4.179-.561zM121.123 141.455l1.808 3.867 4.241.624-3.118 2.931.686 4.241-3.742-2.058-3.805 1.934.749-4.18-2.994-2.993 4.241-.561z"/>
        </g>
        <g>
            <path fill="#FFF" d="M444.211 236.505a.216.216 0 0 1 .338-.028c1.557 1.552 2.535 3.803 2.535 6.306 0 2.499-.975 4.746-2.527 6.3a.216.216 0 0 1-.339-.028l-1.327-1.83a.273.273 0 0 1 .025-.342c.983-1.027 1.597-2.484 1.597-4.1 0-1.62-.617-3.08-1.605-4.106a.28.28 0 0 1-.02-.35l1.323-1.822zM390.05 78.267a.216.216 0 0 1 .337-.028c1.557 1.552 2.535 3.803 2.535 6.306 0 2.499-.975 4.746-2.527 6.3a.216.216 0 0 1-.339-.028l-1.327-1.83a.273.273 0 0 1 .025-.342c.983-1.027 1.597-2.484 1.597-4.1 0-1.62-.617-3.08-1.605-4.106a.28.28 0 0 1-.02-.35l1.323-1.822z" opacity=".212"/>
            <path fill="#F5EA61" d="M464.542 105.549a.644.644 0 0 1-.93.067c-4.28-3.751-6.97-9.192-6.97-15.24 0-6.04 2.68-11.47 6.95-15.225a.644.644 0 0 1 .93.067l3.65 4.421a.599.599 0 0 1-.069.828c-2.703 2.481-4.39 6.002-4.39 9.908 0 3.915 1.696 7.445 4.414 9.923a.615.615 0 0 1 .052.849l-3.637 4.402zM379.146 48.362a.162.162 0 0 1-.253.02c-1.167-1.164-1.901-2.852-1.901-4.73 0-1.874.731-3.559 1.896-4.724a.162.162 0 0 1 .253.02l.995 1.373a.204.204 0 0 1-.018.257c-.738.77-1.197 1.862-1.197 3.075 0 1.215.462 2.31 1.203 3.08a.21.21 0 0 1 .014.262l-.992 1.367z"/>
            <path fill="#5B90F7" d="M154.849 290.135c.226.17.247.472.053.675-2.975 3.114-7.29 5.07-12.087 5.07-4.79 0-9.097-1.95-12.074-5.055a.442.442 0 0 1 .052-.676l3.507-2.654a.506.506 0 0 1 .657.05c1.968 1.966 4.76 3.192 7.858 3.192 3.105 0 5.905-1.233 7.87-3.21a.52.52 0 0 1 .673-.037l3.49 2.645z" opacity=".089"/>
            <path fill="#5B90F7" d="M155.848 52.312a.389.389 0 0 1 .591-.046c2.724 2.587 4.436 6.339 4.436 10.51 0 4.165-1.706 7.91-4.423 10.5a.389.389 0 0 1-.592-.046l-2.322-3.05a.438.438 0 0 1 .043-.57c1.72-1.712 2.794-4.14 2.794-6.834 0-2.7-1.08-5.134-2.808-6.843a.45.45 0 0 1-.034-.585l2.315-3.036z" opacity=".1"/>
            <path fill="#5B90F7" d="M301.405 87.293c.226.17.247.472.053.675-2.975 3.114-7.29 5.07-12.087 5.07-4.79 0-9.097-1.95-12.074-5.055a.442.442 0 0 1 .052-.676l3.507-2.654a.506.506 0 0 1 .657.05c1.968 1.966 4.76 3.192 7.858 3.192 3.105 0 5.905-1.233 7.87-3.21a.52.52 0 0 1 .673-.037l3.49 2.645zM428.845 230.663c.226.17.247.472.053.675-2.975 3.114-7.29 5.07-12.087 5.07-4.79 0-9.097-1.95-12.075-5.055a.442.442 0 0 1 .053-.676l3.507-2.654a.506.506 0 0 1 .657.05c1.968 1.966 4.76 3.192 7.858 3.192 3.105 0 5.905-1.233 7.87-3.21a.52.52 0 0 1 .673-.037l3.49 2.645zM94.637 191.865a.335.335 0 0 1-.04-.507c2.2-2.335 5.389-3.802 8.935-3.802 3.54 0 6.723 1.462 8.924 3.791a.335.335 0 0 1-.04.507l-2.59 1.99a.37.37 0 0 1-.486-.036c-1.455-1.475-3.519-2.395-5.808-2.395-2.295 0-4.365.925-5.817 2.407a.38.38 0 0 1-.498.029l-2.58-1.984z" opacity=".182"/>
        </g>
    </g>
</svg>
