<svg xmlns="http://www.w3.org/2000/svg" width="297" height="441" viewBox="0 0 297 441">
    <g fill="none" fill-rule="evenodd">
        <path fill="#5B90F7" d="M43.071 429.986c.401.31.439.857.095 1.224-5.286 5.644-12.953 9.19-21.477 9.19-8.51 0-16.163-3.533-21.454-9.163a.812.812 0 0 1 .095-1.225l6.23-4.81a.886.886 0 0 1 1.167.089c3.496 3.564 8.458 5.787 13.962 5.787 5.517 0 10.492-2.236 13.983-5.818.314-.322.838-.345 1.196-.069l6.203 4.795z" opacity=".089"/>
        <path fill="#5B90F7" d="M43.856.737a.698.698 0 0 1 1.058-.083c4.873 4.604 7.936 11.282 7.936 18.706 0 7.411-3.051 14.077-7.913 18.685a.698.698 0 0 1-1.059-.082l-4.154-5.426a.776.776 0 0 1 .077-1.017c3.078-3.045 4.998-7.367 4.998-12.16 0-4.806-1.93-9.138-5.024-12.18a.797.797 0 0 1-.06-1.04L43.856.736z" opacity=".1"/>
        <path fill="#5B90F7" d="M309.771 119.186c.401.31.439.857.095 1.224-5.286 5.644-12.953 9.19-21.477 9.19-8.51 0-16.163-3.533-21.454-9.163a.812.812 0 0 1 .095-1.225l6.23-4.81a.886.886 0 0 1 1.167.089c3.496 3.564 8.458 5.787 13.962 5.787 5.517 0 10.492-2.236 13.983-5.818.314-.322.838-.345 1.196-.069l6.203 4.795z" opacity=".182"/>
        <path fill="#F5EA61" d="M138.144 216.047a.645.645 0 0 1-.07-.946A21.372 21.372 0 0 1 154.008 208c6.314 0 11.992 2.73 15.917 7.08a.645.645 0 0 1-.07.947l-4.622 3.718a.638.638 0 0 1-.866-.07 14.187 14.187 0 0 0-10.359-4.472 14.167 14.167 0 0 0-10.374 4.496.655.655 0 0 1-.887.053l-4.603-3.705z"/>
    </g>
</svg>
