<svg xmlns="http://www.w3.org/2000/svg" xmlns:xlink="http://www.w3.org/1999/xlink" width="628" height="237" viewBox="0 0 628 237">
    <defs>
        <path id="a" d="M0 185.625h185.267V.087H0z"/>
    </defs>
    <g fill="none" fill-rule="evenodd">
        <path fill="#FFF" d="M483.47 177.129a.284.284 0 0 1-.438.035c-2.016-1.95-3.282-4.776-3.282-7.918 0-3.137 1.262-5.959 3.272-7.91a.284.284 0 0 1 .438.036l1.718 2.296c.097.13.081.316-.032.43-1.273 1.29-2.067 3.119-2.067 5.148 0 2.034.799 3.868 2.078 5.155a.343.343 0 0 1 .025.44l-1.713 2.288z" opacity=".212"/>
        <path fill="#F5EA61" d="M387.357 142.303a.82.82 0 0 1 1.192-.087c5.497 4.872 8.951 11.938 8.951 19.794 0 7.843-3.442 14.896-8.925 19.773a.82.82 0 0 1-1.193-.087l-4.686-5.742a.784.784 0 0 1 .087-1.076c3.472-3.222 5.637-7.795 5.637-12.868 0-5.085-2.177-9.67-5.666-12.888a.805.805 0 0 1-.068-1.101l4.67-5.718zM451.345 51.415a.286.286 0 0 1 .398-.027c1.832 1.522 2.984 3.73 2.984 6.186 0 2.45-1.148 4.655-2.975 6.178a.286.286 0 0 1-.398-.027l-1.562-1.794a.234.234 0 0 1 .029-.336c1.157-1.007 1.879-2.436 1.879-4.021 0-1.59-.726-3.022-1.889-4.028a.24.24 0 0 1-.022-.344l1.556-1.787zM497.869 215.345a.286.286 0 0 1 .397-.027c1.833 1.522 2.984 3.73 2.984 6.185 0 2.451-1.147 4.655-2.975 6.18a.286.286 0 0 1-.398-.028l-1.562-1.794a.234.234 0 0 1 .03-.337c1.157-1.007 1.878-2.436 1.878-4.02 0-1.59-.725-3.023-1.888-4.028a.24.24 0 0 1-.023-.345l1.557-1.786z"/>
        <path fill="#5B90F7" d="M581.924 211.545a.498.498 0 0 1-.755.06c-3.481-3.29-5.669-8.06-5.669-13.362 0-5.294 2.18-10.055 5.652-13.347a.498.498 0 0 1 .756.059l2.968 3.876c.167.22.14.533-.055.726-2.199 2.175-3.57 5.262-3.57 8.686 0 3.432 1.379 6.527 3.588 8.7a.57.57 0 0 1 .043.743l-2.958 3.86z" opacity=".1"/>
        <path fill="#5B90F7" d="M596.735 125.438a.58.58 0 0 1-.068-.874c3.776-4.031 9.253-6.564 15.34-6.564 6.08 0 11.546 2.524 15.325 6.545a.58.58 0 0 1-.067.875l-4.45 3.436a.633.633 0 0 1-.834-.064c-2.498-2.545-6.042-4.134-9.973-4.134-3.94 0-7.494 1.597-9.988 4.156a.65.65 0 0 1-.854.05l-4.431-3.426zM512.735 7.438a.58.58 0 0 1-.068-.874C516.443 2.533 521.92 0 528.007 0c6.08 0 11.546 2.524 15.325 6.545a.58.58 0 0 1-.067.875l-4.45 3.436a.633.633 0 0 1-.834-.064c-2.498-2.545-6.042-4.134-9.973-4.134-3.94 0-7.494 1.597-9.988 4.156a.65.65 0 0 1-.854.05l-4.431-3.426zM339.326 33.752a.46.46 0 0 1 .05.676 15.266 15.266 0 0 1-11.382 5.072 15.27 15.27 0 0 1-11.37-5.057.46.46 0 0 1 .05-.677l3.302-2.655a.456.456 0 0 1 .619.05 10.133 10.133 0 0 0 7.4 3.194 10.12 10.12 0 0 0 7.41-3.211.468.468 0 0 1 .633-.038l3.288 2.646z" opacity=".182"/>
        <g>
            <path fill="#D7C91B" d="M127.733 31.675L35.1 108.505v108.708h185.268V108.506z"/>
            <g transform="translate(35.1 31.588)">
                <path fill="#F1F2F2" d="M30.234 142.036a1.692 1.692 0 0 1-1.691-1.692V17.589c0-.934.757-1.692 1.691-1.692h124.799c.934 0 1.691.758 1.691 1.692v122.755c0 .934-.757 1.692-1.691 1.692H30.234z"/>
                <path fill="#FFF" d="M155.033 15.897H30.234c-.934 0-1.691.758-1.691 1.691v1.257c0-.935.757-1.693 1.691-1.693h124.799c.934 0 1.691.758 1.691 1.693v-1.257c0-.933-.757-1.69-1.691-1.69"/>
                <mask id="b" fill="#fff">
                    <use xlink:href="#a"/>
                </mask>
                <path fill="#D1D3D4" d="M84.185 38.793h56.368v-6.724H84.185zM84.185 52.07h56.368v-6.723H84.185z" mask="url(#b)"/>
                <path fill="#5B90F7" d="M44.715 65.349h33.28v-33.28h-33.28z" mask="url(#b)"/>
                <path fill="#D1D3D4" d="M84.185 65.349h56.368v-6.725H84.185zM44.715 78.626h95.838v-6.724H44.715zM44.715 105.181h95.838v-6.723H44.715zM44.715 91.903h95.838V85.18H44.715zM44.715 118.46h95.838v-6.725H44.715zM44.715 131.737h95.838v-6.724H44.715z" mask="url(#b)"/>
                <path fill="#EBDF4F" d="M0 76.918l76.818 54.353L0 185.625z" mask="url(#b)"/>
                <path fill="#F5EA61" d="M0 76.918v1.065l75.314 53.288L0 184.561v1.064l76.818-54.354z" mask="url(#b)"/>
                <path fill="#EBDF4F" d="M185.267 76.918l-76.819 54.353 76.82 54.354z" mask="url(#b)"/>
                <path fill="#F5EA61" d="M185.267 76.918v1.065l-75.314 53.288 75.314 53.29v1.064l-76.819-54.354z" mask="url(#b)"/>
                <path fill="#F5EA61" d="M108.513 131.272H76.818v-.046L0 185.625h185.267z" mask="url(#b)"/>
            </g>
            <g fill-rule="nonzero">
                <path fill="#E4AB8F" d="M51.669 110.51v-.786.786c.842-.786 1.965-.562 3.087-.618-.28-1.571-.786-2.975-2.806-2.638-1.797.28-1.853 1.74-1.628 3.312.617 3.705 1.515 7.41 2.47 11.058-.113-3.705-1.01-7.41-1.123-11.114z"/>
                <path fill="#FFCBB3" d="M57.675 124.711c-.393-.056-.842-.056-1.122-.336-.225-.225-.225-.562-.225-.842-.224-3.93-.674-7.803-1.291-11.676-.112-.617-.168-1.291-.28-1.965-1.123.056-2.302-.168-3.088.618.112 3.705 1.01 7.41 1.123 11.114.336 1.291.673 2.582.954 3.873.056.281.168.618.449.786.28.169.561.056.842 0 1.796-.393 3.649-.337 5.445.112-.618-.954-1.684-1.515-2.807-1.684z"/>
                <path fill="#FFFED5" d="M50.378 96.14v.168c1.572 4.154 2.02 8.252 1.796 12.686.73-.112 1.516-.224 2.246-.337-1.01-4.21-2.414-8.42-4.042-12.517z"/>
                <path fill="#CFDBDB" d="M50.322 96.364c-.169 2.47-1.74 4.379-2.47 6.624-.393 1.179-.112 1.347.225 2.414.112.336.505 4.097.449 4.154 1.235-.169 2.413-.337 3.648-.506.169-4.434-.28-8.588-1.852-12.686zM42.52 110.005c-2.527-3.705-5.67-6.624-8.926-9.262-.168.168-.28.336-.449.505-.393.449-1.01 1.179-1.572 1.964l-.449.45.393-.393c-.168.224-.28.393-.449.617l-.056.056c4.435 1.01 8.14 3.48 11.507 6.063z"/>
                <path fill="#FFFED5" d="M31.012 103.942c-1.179 1.404-3.031 3.537-3.649 4.379-1.234 1.571-2.357 3.087-2.862 3.76-.674.899-3.649 5.782-4.66 5.838 3.256-.168 6.456-.393 9.712-.561 2.975-1.572 6.23-2.807 9.093-4.603.056-.056.112-.112.112-.168a21.296 21.296 0 0 0 3.761-2.582c-3.368-2.583-7.072-5.052-11.507-6.063zM50.266 96.477c.168-.842-.73-1.516-1.46-2.021-1.628-1.01-3.312-2.021-5.22-2.021-2.807.056-4.996 2.301-6.68 4.49-1.179 1.516-2.19 2.358-3.368 3.705 3.256 2.639 6.455 5.614 8.925 9.262 4.098-3.312 6.96-8.195 7.803-13.415z"/>
                <path fill="#CECDE3" d="M38.422 75.483l-12.91.393v-5.22l12.854 2.189c.73.112 1.234.73 1.234 1.459 0 .674-.56 1.179-1.178 1.179z"/>
                <path fill="#35485E" d="M25.511 75.876a1.246 1.246 0 0 1-1.235-1.235v-2.807c0-.673.561-1.235 1.235-1.235s1.235.562 1.235 1.235v2.807c-.056.673-.617 1.235-1.235 1.235z"/>
                <path fill="#E4AB8F" d="M16.474 170.965c-2.19-.225-3.593-.505-3.986 1.684-.056.225.112 1.291.28 2.47a14.405 14.405 0 0 1 3.369-1.291l.337-2.863z"/>
                <path fill="#FFCBB3" d="M16.193 173.772c-1.179.28-2.301.73-3.368 1.29.337 2.022.786 4.548.617 4.604.899-.225 1.74-.393 2.639-.618-.113-1.74-.056-3.48.112-5.276z"/>
                <path fill="#35485E" d="M15.407 173.323c.561 0 1.179-.057 1.74-.057.45-13.696 4.547-27.224 11.788-38.787.842-1.348 1.684-2.639 2.47-4.042-5.501 7.578-10.216 15.773-13.191 24.362-1.572 5.613-2.807 12.461-2.807 18.524z"/>
                <path fill="#00307D" d="M23.041 124.543c-2.077 1.291-3.031 5.838-3.873 7.97v.057c.337 6.904-1.291 13.528-1.291 20.208.056.73-3.368 19.759-3.2 20.545 0-.057.786-1.965.786-2.021 6.063-27 10.497-33.343 15.998-40.865.73-1.347 1.347-2.694 1.684-4.154.337-1.796-8.869-2.526-10.104-1.74z"/>
                <path fill="#1752AF" d="M19.168 132.57c-3.312 8.195-5.557 16.84-6.736 25.653a106.735 106.735 0 0 0-.954 15.268c1.347-.056 2.638-.112 3.985-.112 0-5.95 0-3.2.786-10.048-.112-.73 1.684-9.767 1.628-10.44-.056-6.793 1.628-13.417 1.291-20.32z"/>
                <path fill="#CFDBDB" d="M29.496 117.358c1.404-.056 2.751-.168 4.154-.225.281 0 .506-.056.786-.112.056-.056.169-.056.225-.112a5.59 5.59 0 0 0 .617-.561c1.123-1.18 2.246-2.358 3.312-3.593-2.863 1.796-6.118 3.031-9.094 4.603z"/>
                <path fill="#FFCBB3" d="M41.958 87.215c-.505 2.245-.786 4.77-1.01 5.725 1.852.28 3.704.393 5.557.45-.954 0-.954-3.818-1.235-6.793-1.067.505-2.19.73-3.312.618z"/>
                <path fill="#E4AB8F" d="M43.642 83.23c-.73.336-1.291 2.076-1.684 3.985 1.123.056 2.301-.113 3.312-.618-.225-2.133-.618-3.817-1.628-3.368z"/>
                <path fill="#FFFED5" d="M41.172 92.379c.112.112.056.056 0 0zM41.172 92.379c-.112-.112-.056-.056 0 0z"/>
                <path fill="#6D93B4" d="M13.274 122.635c1.347 1.01 2.526 2.189 3.761 3.311.056 0 .112.056.168.056-1.178-1.178-2.02-2.918-3.929-3.367z"/>
                <path fill="#FFFED5" d="M15.239 177.533c-.225-.057-.45-.057-.73-.057-3.593-.224-7.466 4.379-8.42 7.41-.224.73-.337 1.46-.224 2.19.168.729.617 1.403 1.347 1.627 1.122.337 2.245-.561 2.806-1.628l.169-.337c-.674-3.704 1.29-7.634 5.052-9.205z"/>
                <path fill="#CFDBDB" d="M15.239 177.533c-3.761 1.571-5.726 5.5-5.052 9.205.449-.954.673-2.02 1.29-2.862.73-1.01 8.196-5.614 3.762-6.343z"/>
                <path fill="#FFCBB3" d="M39.769 81.657c0 .899.056 1.853.505 2.639 1.01 1.628 3.593 1.684 5.164.561 1.572-1.123 2.47-2.975 3.256-4.771.337-.73.674-1.46 1.01-2.246.562-1.29 1.123-2.582 1.348-3.985.168-1.403-.057-2.919-.955-3.986-6.006-6.904-10.216 8.364-10.328 11.788z"/>
                <path fill="#E7E6FF" d="M38.927 77.56l-11.844.73v-5.22l11.956 1.459c.786.112 1.347.73 1.347 1.515 0 .786-.617 1.46-1.46 1.516z"/>
                <path fill="#FFCBB3" d="M30.338 76.55c.113-.73.113-1.404.113-2.134v-.561c0-.225.393-.28.449-.056.224.505.393 1.066.393 1.684l.168-1.74c0-.056.112-.056.112 0 .113.505.057 1.347.281 1.852 0-.561.337-1.46.505-1.965.113.618.169 1.235.169 1.797.056-.393.168-.73.336-1.123.113-.225.45-.168.45.056.056 1.235-.169 2.47-.786 3.537.561-.281 1.178-.45 1.796-.562.112 0 .28-.056.337.056.168.113.056.337-.056.45-.73.841-1.572 1.571-2.583 2.132-.842.506-2.245.73-2.582-.393-.224-.898.73-2.189.898-3.03z"/>
                <path fill="#6D93B4" d="M27.083 78.29a1.246 1.246 0 0 1-1.235-1.235v-2.807c0-.674.561-1.235 1.235-1.235.673 0 1.235.561 1.235 1.235v2.807c0 .673-.562 1.234-1.235 1.234z"/>
                <path fill="#35485E" d="M34.717 72.283a.767.767 0 0 0-.786.786v1.235c0 .28.168.505.337.674.28-.842.617-1.684.898-2.526-.112-.169-.28-.169-.45-.169z"/>
                <path fill="#6D93B4" d="M35.166 72.395c-.28.842-.618 1.684-.898 2.526.112.113.28.113.449.113.449 0 .786-.337.786-.786v-1.235c.056-.225-.113-.505-.337-.618z"/>
                <path fill="#E4AB8F" d="M46.505 80.422c.28-.28.505-.617.73-.954.168.225.617-.561.842-.337-.45.225-1.123 1.516-1.572 1.797-.337.168-.674.393-1.01.393-.674 0-1.011-.618-.618-1.18.28.618.954.843 1.628.281z"/>
                <path fill="#35485E" d="M46.336 76.325c.562.224 1.18.28 1.797.224.336.898-.562 1.74-.955 2.582-.056.169-.112.337-.056.45.056.224.337.28.562.28.954.056 1.684-.786 2.133-1.628.449-.842.786-1.796 1.571-2.357.562-.393 1.235-.562 1.797-.842.561-.28 1.178-.786 1.178-1.46 0-.449-.28-.898-.224-1.347.056-.449.449-.786.617-1.235.45-1.066-.561-2.245-1.571-2.863-1.628-.954-3.649-1.403-5.558-.954-1.29.28-4.94 2.245-2.806 3.986.898.73 1.628-.225 2.245 1.178.674 1.404-.056 2.975-.73 3.986z"/>
                <path fill="#FFCBB3" d="M32.079 145.48c.28-.617.449-1.29.617-1.964 0-.112.056-.225 0-.337a.676.676 0 0 0-.28-.28 56.775 56.775 0 0 1-4.884-3.256c.112.112.168.337.112.561 1.291 1.909 2.694 3.705 4.435 5.277z"/>
                <path fill="#E4AB8F" d="M27.588 140.204c-.112 1.01-.898 2.975-.225 3.761.842 1.01 3.2 1.684 4.323 2.302.112-.281.224-.506.336-.786-1.684-1.572-3.087-3.368-4.434-5.277z"/>
                <path fill="#FFFED5" d="M31.517 151.824c.337 1.908.898 3.873 2.077 5.557a.379.379 0 0 0 .337.224c.168 0 .28-.112.337-.224.786-1.01.898-2.302.786-3.537-.113-1.234-.45-2.413-.45-3.648 0-.954.169-1.853.45-2.807.28-1.066.73-2.189.449-3.256-.674-2.582-3.48-1.684-3.93.393-.505 2.358-.449 4.884-.056 7.298z"/>
                <path fill="#E4AB8F" d="M18.719 98.048c.674.056 1.066.955 1.684 1.123 2.358-4.21 4.715-8.42 7.073-12.686.393-.73 1.571-2.302 2.47-3.817-4.66 4.266-8.084 9.991-11.227 15.38z"/>
                <path fill="#FFCBB3" d="M27.7 102.034c-2.47-.786-4.94-1.74-7.353-2.75 0-.057.056-.057.056-.113-.618-.225-1.01-1.067-1.684-1.123-.168.28-.337.505-.45.786.17-.28.338-.505.45-.786h-.056.056c3.143-5.332 6.568-11.058 11.227-15.324.673-1.123 1.234-2.19 1.122-2.75-.28-2.246-1.347-.618-2.301.168-1.684 1.403-16.279 19.029-14.314 20.32 1.179.73 2.357 1.46 3.592 2.077 3.593 1.01 7.578 2.919 9.655-.505z"/>
                <path fill="#E4AB8F" d="M27.7 102.034c-2.077 3.48-6.062 1.515-9.598.505a40.746 40.746 0 0 0 12.63 4.154c2.47.393 4.94.561 7.409.73 1.852.112 4.154-.057 4.771-1.797-5.164-.786-10.272-1.964-15.212-3.592z"/>
                <path fill="#FFFED5" d="M37.916 102.595c-3.424-.056-6.792-.561-10.103-1.403-.45 3.255-1.235 6.399-2.47 9.262 3.03.954 6.174 1.066 9.318 1.066 2.806.056 5.725 0 8.195-1.684 1.291-.898 5.95-6.399 4.21-8.7-.954-1.235-7.634 1.515-9.15 1.459z"/>
                <path fill="#CFDBDB" d="M42.351 109.948a21.663 21.663 0 0 0-4.154 1.123c-1.29.505-2.526 1.067-3.873 1.572-2.807 1.01-7.466 1.852-10.44 2.301 1.234-3.2.785-2.413 1.627-4.827-.056 2.02-.168 2.357-.056 3.2.056.28.561-.057.786.056.168.112.393.112.617.112 4.435-.28 8.813-1.291 12.855-3.087M40.106 100.294c-.955.224-1.853.505-2.807.617-.786.112-2.638-.112-3.817-.112-.112.224-.225.449-.393.617.28.225.617.505.73.898 2.638.337 5.725-.617 8.083-1.796.561-.28 1.123-.617 1.628-1.066-1.235.28-2.302.56-3.424.842z"/>
                <path fill="#1752AF" d="M29.553 139.474c-4.603-4.659-10.16-10.44-12.686-13.584.056 0 .112.056.112.056-.28-.224-.505-.505-.786-.73 2.975 6.624 7.69 12.181 12.798 17.29.225-1.01.393-2.021.562-3.032zM.307 122.073c1.235 4.715 5.614 8.252 9.655 11.17.112.057.169.113.28.169-2.525-4.266-5.893-8.083-9.935-11.339z"/>
                <path fill="#00307D" d="M34.1 116.797l-12.63.449c-6.456-.45-12.911-.337-19.366.224-.393.056-.73.056-1.067.225-.898.449-1.123 1.684-1.01 2.694.056.562.168 1.123.28 1.684 4.042 3.256 7.41 7.017 9.936 11.395.224.169.449.337.673.45 1.965 1.403 3.874 2.862 5.838 4.265l11.788 8.589c.169-1.404.337-2.863.562-4.266-5.109-5.165-9.824-10.722-12.799-17.29-.954-.898-1.908-1.796-2.975-2.581 1.179.28 1.965 1.066 2.638 1.852a46.605 46.605 0 0 1-1.122-2.975l.561.561-.561-.561c.337 1.01.73 1.965 1.122 2.975.45.505.842 1.066 1.292 1.515a29.176 29.176 0 0 0 12.405 2.246c1.572-.056 3.2-.28 4.434-1.179.842-.617 1.46-1.572 1.797-2.582.898-2.582.168-5.726-1.797-7.69z"/>
            </g>
            <g fill-rule="nonzero">
                <path fill="#1752AF" d="M245.44 116.3c.393-1.179 1.852-2.077 3.424-2.133-.505-1.684-2.807-2.414-4.66-2.021-1.964.449-3.648 1.684-5.556 2.19-4.94 1.346-10.497-2.078-15.044.224-4.49 2.245-5.164 8.644-8.7 12.124.28.113.505.169.785.281 11.788 4.49 24.138 2.245 29.75-10.665z"/>
                <path fill="#00307D" d="M254.758 119.892c-.337-1.796-1.965-3.255-3.761-3.424-.674-.056-1.46-.056-1.852-.617-.225-.337-.169-.842-.225-1.235 0-.112-.056-.28-.112-.393-1.572.056-3.031.954-3.424 2.133-5.614 12.91-17.963 15.156-29.75 10.665-.281-.112-.506-.224-.787-.28a8.208 8.208 0 0 1-1.066.898c-1.067.73-2.358 1.178-3.424 1.908-3.088 2.021-4.435 6.343-3.031 9.767.56 1.404 1.571 2.75 1.627 4.266.057 2.47-2.301 4.154-4.097 5.782-1.74 1.572-3.256 3.705-3.256 6.062 0 2.358 2.02 4.772 4.378 4.435.786-.112 1.46-.505 2.246-.617 1.066-.225 2.133 0 3.2.392 4.658-2.133 8.588-5.613 10.945-11.282 2.246-6.736 12.35-4.49 19.085-7.298.842-.393 1.965-1.178 2.75-2.189-.28-1.01-.504-1.964-.111-2.863.673-1.571 2.694-2.133 3.48-3.648.842-1.684-.28-3.761.168-5.557 1.067-4.323 8.252-.73 7.017-6.905z"/>
                <path fill="#00235B" d="M241.51 140.998c-6.735 2.807-16.84.562-19.085 7.298-2.357 5.669-6.287 9.15-10.946 11.282 1.235.45 2.414 1.067 3.65 1.516 4.153 1.46 9.542-.225 11.057-4.378.73-1.965.505-4.154 1.347-6.063 1.797-3.985 7.017-4.771 11.395-5.164 2.414-.225 5.445-1.01 5.894-3.368.225-1.123-.224-2.245-.56-3.368-.787 1.067-1.91 1.852-2.751 2.245z"/>
                <path fill="#754B3F" d="M246.282 132.073c-.618-.28-1.291-.617-1.965-.505-.673.112-1.29.842-1.01 1.46.168.336.505.56.842.73 1.29.729 2.582 1.459 3.817 2.132.168-1.74-1.179-3.143-2.414-4.322.112.393.225.73.337 1.123M253.86 142.177c-.618.674-1.291 1.291-2.133 1.684 0 1.628.056 3.256-.225 4.603-.056.225-.112.449 0 .674.169.393.674.449 1.067.505l5.22.168c-1.403-.056-2.919-4.378-3.93-7.634z"/>
                <path fill="#754B3F" d="M253.86 142.177c-.505-1.572-.954-2.919-1.179-3.424-.898 1.347-.954 3.2-.954 5.108.842-.337 1.515-1.01 2.133-1.684z"/>
                <path fill="#6D93B4" d="M236.683 177.99c-.056 0-.056-.056-.112-.056-.169.28 0 .168.112.056z"/>
                <path fill="#6D93B4" d="M236.57 177.934c.057 0 .057.056.113.056.112-.112.112-.225-.112-.056z"/>
                <path fill="#DACE38" d="M250.604 152.45c4.49 8.868 5.782 19.365 3.424 29.076 6.119-.056 12.293-.73 18.243-2.077-.112-.56-.224-1.122-.392-1.684-2.639-2.301-5.726-3.143-8.533-4.883-6.623-5.108-7.185-14.37-12.742-20.433zM274.292 138.81c-.561.28-.842.841-1.74 1.01.505 3.873.786 9.542.73 11.675 1.403-4.21-.225-8.476 1.01-12.686z"/>
                <path fill="#F5EA61" d="M276.65 155.93c.393-5.501-.898-11.844-1.572-17.29-.337 0-.561.057-.73.17-1.29 4.21.393 8.475-.954 12.685 0 .337 0 .618-.056.73h-.225s0 .056-.056.056c0 0 0-.056.056-.056-3.704.112-9.262-.393-13.19-1.572.448 1.179.841 2.414 1.908 3.256-1.628-1.067-2.695-2.694-3.986-4.042-2.077-1.066-3.873-3.312-5.95-3.873-3.48-.954-4.827 2.863-5.5 5.501-1.124 4.49-2.864 9.767-4.772 14.875 2.694-4.827 5.725-9.542 8.532-14.538l.056.056c.056-.056.056-.168.112-.224.113.224.225.505.337.73 5.557 6.062 6.119 15.324 12.799 20.432 2.806 1.74 5.894 2.582 8.532 4.883-1.123-4.771-2.582-9.486-4.435-14.09-1.235-3.143-2.75-6.398-5.5-8.363 4.77 1.403 10.047 2.694 14.594.674z"/>
                <path fill="#DACE38" d="M241.567 166.427c-1.572 4.153-3.312 8.139-4.996 11.507.224-.169.224-.056.112.056.674.28.898.449 1.684.674 3.368-8.589 7.522-18.468 11.732-26.72l-.056-.056c-2.75 4.94-5.782 9.655-8.476 14.539zM261.775 153.909c-1.067-.842-1.46-2.077-1.909-3.256-.505-.168-.954-.28-1.403-.449-.225-.112-.45-.168-.674-.337 1.291 1.348 2.358 2.975 3.986 4.042z"/>
                <path fill="#F0EEA0" d="M241.567 206.562c0 .112-.056.28-.056.393-.281 1.684-.281 3.424-.786 5.108-.618 2.133-2.021 3.985-3.144 5.894-2.638 4.49-3.985 9.767-3.817 14.931.337-.337.674-.617.954-.954 1.067-6.68 4.491-12.462 6.512-18.86.786-2.078.393-4.323.337-6.512zM273.394 234.123c.28-2.47.786-4.94 1.403-7.353-.505-2.47-1.347-4.94-2.245-7.354-.168 4.94-.168 9.936.842 14.707z"/>
                <path fill="#FFFED5" d="M274.854 181.021c-.562-.561-1.123-1.066-1.853-1.347-.842-.337-1.74-.28-2.638-.225-5.164.281-10.834-.224-15.998.057l.056.168c-2.919 2.02-6.904 8.925-7.746 11.451-1.01 3.144-4.547 12.462-5.108 15.38.056 2.19.449 4.435-.337 6.512-2.02 6.4-5.445 12.18-6.512 18.86 3.48-3.536 6.287-7.69 8.14-12.293 2.863-7.016 8.925-11.507 14.033-17.008 5.22-5.613 6.455-8.476 10.048-15.324 3.2 1.179 1.347 3.985 2.806 7.073 3.65 7.69 3.032 16.334 2.751 24.979.898 2.47 1.74 4.883 2.245 7.353 1.684-6.567 4.098-12.966 5.445-19.59 1.965-8.981 1.291-19.534-5.332-26.046z"/>
                <path fill="#F0EEA0" d="M271.373 201.734c.056 2.246-.449 4.49-.449 6.792 0 5.614 1.776 12.374 2.863 16.335.505-8.42.954-16.784 1.46-25.204.112-2.189.224-4.49-.562-6.567-.73-1.909-2.189-3.368-3.592-4.828-1.235-1.29-7.971-5.838-10.104-4.94-1.965.786 1.46 2.358 2.02 4.042 3.312 9.992 8.252 11.676 8.364 14.37z"/>
                <path fill="#35485E" d="M234.157 231.765a23.094 23.094 0 0 0 7.354 2.639c-2.246.842-4.716 1.178-7.13.898-1.066-.113-1.796-1.235-1.403-2.246.056-.168.169-.336.225-.505M274.012 233.28a23.094 23.094 0 0 0 7.353 2.64c-2.245.841-4.659 1.122-7.017.953-1.122-.112-1.852-1.234-1.403-2.301.056-.168.112-.28.168-.45"/>
                <path fill="#754B3F" d="M244.654 128.2c.28 2.19.73 4.378 1.347 6.568.45 1.684 1.067 3.424 2.133 4.827 1.123 1.403 2.807 2.414 4.547 2.301.954-1.684 1.909-3.368 2.358-5.22.785-3.368-.225-6.848-1.235-10.16-.281-.898-.562-1.852-1.235-2.582-1.123-1.179-3.144-1.291-4.603-.45-1.46.843-2.358 2.358-2.75 3.986"/>
                <path fill="#F0EEA0" d="M264.357 192.585a63.259 63.259 0 0 0 2.975-6.961c-.225 3.143-.505 6.23-.898 9.374"/>
                <path fill="#754B3F" d="M235.617 180.348c-.393.112-.842.168-1.235.112-.674-.112-1.235-.674-1.684-1.179-.225-.225-.45-.617-.281-.898.112-.225.45-.28.674-.28 1.74-.113 3.985-.506 5.669-.113 0 1.516-1.965 2.077-3.143 2.358z"/>
                <path fill="#CFDEFF" d="M289.785 101.2s-26.27 26.158-26.551 27.393l1.684 4.771c11.339-1.852 22.734-3.705 34.073-5.332l-9.206-26.832z"/>
                <path fill="#CECDE3" d="M264.862 133.364l.28.73 35.308-1.796-1.46-4.266c-11.394 1.627-22.733 3.48-34.128 5.332z"/>
                <path fill="#CECDE3" d="M263.178 128.593l-4.378 2.357 1.459 4.323 4.884-1.18z"/>
                <path fill="#754B3F" d="M274.685 133.589c.337-.562.898-1.235 1.46-.842.28.168.449.561.449.954 0 1.235-.056 2.414-.225 3.593-.168 1.29-1.123 2.301-2.301 2.47-.562.056-1.18.112-1.628 0 .954-1.91 1.179-4.267 2.245-6.175z"/>
                <path fill="#754B3F" d="M272.945 139.595c-.842-.898-1.516-1.965-2.133-3.087-.225-.45-.393-1.01-.112-1.348.337-.392.954-.056 1.29.337.506.505.955 1.01 1.348 1.628.112.169.225.337.28.561.225.73-.448 1.348-1.01 1.74M246.001 134.824l1.684 1.122-1.235.281z"/>
            </g>
        </g>
        <path stroke="#FFF" stroke-dasharray="3" d="M161 149c12-51.667 45-82.38 99-92.139 54-9.76 87.667-20.38 101-31.861"/>
        <g fill="#F5EA61" fill-rule="nonzero">
            <path d="M386.094 7.012l-23.715 8.57a.572.572 0 0 0-.13 1.01l3.545 2.42 16.09-8.485-13.62 10.17v4.12c0 .28.315.45.55.295l3-1.99 2.955 2.015c.27.185.64.105.815-.175L386.31 7.277c.09-.145-.055-.325-.215-.265z"/>
        </g>
    </g>
</svg>
