<?xml version="1.0" encoding="utf-8"?>
<!-- Generator: Adobe Illustrator 22.0.1, SVG Export Plug-In . SVG Version: 6.00 Build 0)  -->
<svg version="1.1" id="Слой_1" xmlns="http://www.w3.org/2000/svg" xmlns:xlink="http://www.w3.org/1999/xlink" x="0px" y="0px"
	 viewBox="0 0 1440 221" style="enable-background:new 0 0 1440 221;" xml:space="preserve">
<style type="text/css">
	.st0{fill:#00307D;}
	.st1{filter:url(#Adobe_OpacityMaskFilter);}
	.st2{fill:#FFFFFF;}
	.st3{mask:url(#b_1_);}
	.st4{opacity:0.212;fill:#FFFFFF;enable-background:new    ;}
	.st5{fill:#F5EA61;}
	.st6{opacity:0.1;fill:#5B90F7;enable-background:new    ;}
	.st7{opacity:0.182;fill:#5B90F7;enable-background:new    ;}
	.st8{filter:url(#Adobe_OpacityMaskFilter_1_);}
	.st9{mask:url(#b_2_);}
</style>
<g>
	<g>
		<g>
			<path id="a_1_" class="st0" d="M0,0.5h1445v220H0V0.5z"/>
		</g>
		<defs>
			<filter id="Adobe_OpacityMaskFilter" filterUnits="userSpaceOnUse" x="65" y="47" width="416.5" height="173.6">
				<feColorMatrix  type="matrix" values="1 0 0 0 0  0 1 0 0 0  0 0 1 0 0  0 0 0 1 0"/>
			</filter>
		</defs>
		<mask maskUnits="userSpaceOnUse" x="65" y="47" width="416.5" height="173.6" id="b_1_">
			<g class="st1">
				<path id="a_2_" class="st2" d="M0,0.5h1445v220H0V0.5z"/>
			</g>
		</mask>
		<g class="st3">
			<path class="st4" d="M334.7,91.9c0.1-0.1,0.2-0.1,0.4-0.1c0,0,0,0,0,0c1.8,1.7,2.9,4.2,2.9,6.9c0,2.7-1.1,5.2-2.9,6.9
				c-0.1,0.1-0.3,0.1-0.4,0c0,0,0,0,0,0l-1.5-2c-0.1-0.1-0.1-0.3,0-0.4c1.1-1.1,1.8-2.7,1.8-4.5c0-1.8-0.7-3.4-1.9-4.5
				c-0.1-0.1-0.1-0.3,0-0.4L334.7,91.9L334.7,91.9z"/>
			<path class="st5" d="M419.1,122.3c-0.3,0.3-0.7,0.4-1,0.1c0,0,0,0,0,0c-4.9-4.3-7.9-10.4-7.9-17.3c0-6.9,3.1-13,7.9-17.3
				c0.3-0.3,0.8-0.2,1,0.1c0,0,0,0,0,0l4.2,5c0.2,0.3,0.2,0.7-0.1,0.9c-3.1,2.8-5,6.8-5,11.3c0,4.4,1.9,8.5,5,11.3
				c0.3,0.3,0.3,0.7,0.1,1L419.1,122.3L419.1,122.3z M321.9,58.1c-0.1,0.1-0.2,0.1-0.3,0c0,0,0,0,0,0c-1.6-1.4-2.5-3.4-2.5-5.5
				c0-2.2,1-4.2,2.5-5.5c0.1-0.1,0.3-0.1,0.3,0l1.3,1.6c0.1,0.1,0.1,0.2,0,0.3c-2,1.8-2.1,4.9-0.3,6.9c0.1,0.1,0.2,0.2,0.3,0.3
				c0.1,0.1,0.1,0.2,0,0.3L321.9,58.1z"/>
			<path class="st6" d="M67.7,62.6c0.1-0.2,0.4-0.2,0.6-0.1c0,0,0,0,0.1,0c3.1,2.9,5,7.1,5,11.8c0,4.7-1.9,8.9-5,11.8
				c-0.2,0.2-0.5,0.2-0.7-0.1l-2.6-3.4c-0.1-0.2-0.1-0.5,0-0.6c1.9-1.9,3.2-4.6,3.2-7.7c0-3-1.2-5.8-3.2-7.7c-0.2-0.2-0.2-0.5,0-0.7
				L67.7,62.6z"/>
			<path class="st7" d="M234.6,137.2c0.2,0.2,0.3,0.5,0.1,0.7c0,0,0,0,0,0.1c-3.3,3.6-8.1,5.8-13.5,5.8c-5.4,0-10.2-2.2-13.5-5.8
				c-0.2-0.2-0.2-0.5,0-0.7c0,0,0,0,0.1,0l3.9-3.1c0.2-0.2,0.5-0.1,0.7,0.1c2.2,2.3,5.3,3.7,8.8,3.7c3.5,0,6.6-1.4,8.8-3.7
				c0.2-0.2,0.5-0.2,0.8,0L234.6,137.2z M461.4,218.1c-0.2-0.1-0.2-0.4-0.1-0.6c0,0,0,0,0,0c2.5-2.8,6.1-4.6,10-4.6
				c4,0,7.6,1.8,10,4.6c0.2,0.2,0.1,0.4,0,0.6c0,0,0,0,0,0l-2.9,2.4c-0.2,0.1-0.4,0.1-0.5,0c-1.6-1.8-4-2.9-6.5-2.9
				c-2.6,0-4.9,1.1-6.5,2.9c-0.1,0.2-0.4,0.2-0.6,0L461.4,218.1L461.4,218.1z"/>
			<path class="st5" d="M126.7,198.2c-0.2-0.1-0.2-0.4-0.1-0.6c0,0,0,0,0,0c2.5-2.8,6.1-4.6,10-4.6c4,0,7.6,1.8,10,4.6
				c0.2,0.2,0.1,0.4,0,0.6c0,0,0,0,0,0l-2.9,2.4c-0.2,0.1-0.4,0.1-0.5,0c-1.6-1.8-4-2.9-6.5-2.9c-2.6,0-4.9,1.1-6.5,2.9
				c-0.1,0.2-0.4,0.2-0.6,0L126.7,198.2L126.7,198.2z"/>
		</g>
		<defs>
			<filter id="Adobe_OpacityMaskFilter_1_" filterUnits="userSpaceOnUse" x="971" y="3.3" width="485.5" height="151.2">
				<feColorMatrix  type="matrix" values="1 0 0 0 0  0 1 0 0 0  0 0 1 0 0  0 0 0 1 0"/>
			</filter>
		</defs>
		<mask maskUnits="userSpaceOnUse" x="971" y="3.3" width="485.5" height="151.2" id="b_2_">
			<g class="st8">
				<path id="a_3_" class="st2" d="M0,0.5h1445v220H0V0.5z"/>
			</g>
		</mask>
		<g class="st9">
			<path class="st5" d="M1096,89.9c0.2-0.3,0.6-0.3,0.9-0.1c0,0,0,0,0,0c4.2,3.7,6.8,9,6.8,14.8c0,5.9-2.6,11.2-6.8,14.8
				c-0.3,0.2-0.7,0.2-0.9,0c0,0,0,0,0,0l-3.6-4.3c-0.2-0.2-0.2-0.6,0.1-0.8c2.6-2.4,4.3-5.8,4.3-9.7c0-3.8-1.7-7.3-4.3-9.7
				c-0.2-0.2-0.3-0.6-0.1-0.8C1092.4,94.2,1096,89.9,1096,89.9z M1179.3,145c0.1-0.1,0.2-0.1,0.3,0c0,0,0,0,0,0
				c1.4,1.2,2.1,2.9,2.1,4.8c0,1.8-0.8,3.5-2.1,4.7c-0.1,0.1-0.2,0.1-0.3,0c0,0,0,0,0,0l-1.1-1.4c-0.1-0.1-0.1-0.2,0-0.3
				c1.7-1.6,1.8-4.2,0.2-5.9c-0.1-0.1-0.2-0.2-0.2-0.2c-0.1-0.1-0.1-0.2,0-0.3L1179.3,145L1179.3,145z"/>
			<path class="st6" d="M1397.2,141.1c-0.1,0.2-0.4,0.2-0.5,0.1c0,0,0,0,0,0c-2.6-2.5-4.3-6.1-4.3-10.1c0-4,1.7-7.6,4.3-10.1
				c0.1-0.1,0.4-0.1,0.5,0c0,0,0,0,0,0l2.2,2.9c0.1,0.2,0.1,0.4,0,0.6c-1.7,1.6-2.7,4-2.7,6.6c0,2.6,1,4.9,2.7,6.6
				c0.2,0.1,0.2,0.4,0,0.6L1397.2,141.1L1397.2,141.1z"/>
			<path class="st7" d="M1255.4,107.7c-0.2-0.1-0.2-0.4-0.1-0.6c0,0,0,0,0,0c2.8-3.1,7-5,11.6-5c4.6,0,8.7,1.9,11.6,5
				c0.2,0.2,0.2,0.5-0.1,0.7l-3.4,2.6c-0.2,0.1-0.5,0.1-0.6,0c-2-2-4.7-3.2-7.5-3.2c-3,0-5.7,1.2-7.5,3.2c-0.2,0.2-0.5,0.2-0.6,0
				L1255.4,107.7L1255.4,107.7z M988.3,64.1c0.2,0.1,0.2,0.4,0,0.5c-2.1,2.4-5.2,3.9-8.6,3.9c-3.4,0-6.5-1.5-8.6-3.9
				c-0.1-0.1-0.1-0.4,0-0.5c0,0,0,0,0,0l2.5-2.1c0.1-0.1,0.3-0.1,0.5,0c1.4,1.5,3.4,2.5,5.6,2.5c2.2,0,4.2-1,5.6-2.5
				c0.1-0.1,0.3-0.2,0.5,0L988.3,64.1L988.3,64.1z"/>
			<path class="st5" d="M1456.4,5.4c0.2,0.1,0.2,0.4,0,0.5c-2.1,2.4-5.2,3.9-8.6,3.9c-3.4,0-6.5-1.5-8.6-3.9c-0.1-0.1-0.1-0.4,0-0.5
				c0,0,0,0,0,0l2.5-2.1c0.1-0.1,0.3-0.1,0.5,0c1.4,1.5,3.4,2.5,5.6,2.5c2.2,0,4.2-1,5.6-2.5c0.1-0.1,0.3-0.2,0.5,0L1456.4,5.4
				L1456.4,5.4z"/>
		</g>
	</g>
</g>
</svg>
