<svg xmlns="http://www.w3.org/2000/svg" width="92" height="34" viewBox="0 0 92 34">
    <g fill="#FFF" fill-rule="evenodd">
        <path d="M81.81 20.718c1.125 0 2.052-.378 2.784-1.135.759-.785 1.125-1.773 1.125-2.966 0-1.192-.366-2.181-1.125-2.938-.732-.784-1.66-1.163-2.784-1.163-1.125 0-2.053.379-2.784 1.163-.731.757-1.097 1.746-1.097 2.938 0 1.193.366 2.181 1.097 2.966.73.757 1.659 1.135 2.784 1.135zM87.2 7.573h4.298c.21 0 .38.17.38.379v16.914c0 .21-.17.379-.38.379H87.2a.379.379 0 0 1-.38-.38V23.21c-1.345 1.69-3.209 2.519-5.624 2.519-2.313 0-4.28-.863-5.936-2.623-1.622-1.76-2.45-3.934-2.45-6.488 0-2.554.828-4.694 2.45-6.453 1.656-1.76 3.623-2.658 5.936-2.658 2.415 0 4.279.829 5.625 2.52V7.951c0-.21.17-.38.379-.38zM18.613 16.902v8.579a.37.37 0 0 1-.37.37H13.83a.37.37 0 0 1-.37-.37v-8.418c0-2.2-1.658-4.13-3.853-4.265a4.112 4.112 0 0 0-4.372 4.104v8.579a.37.37 0 0 1-.37.37H.425a.367.367 0 0 1-.367-.368V.426C.058.22.224.054.43.054h4.44c.2 0 .364.163.364.364V8.68c0 .016.016.026.03.02 1.233-.607 2.617-1.064 4.082-1.064a9.263 9.263 0 0 1 9.267 9.267M26.561 25.85h-4.917a.13.13 0 0 1-.13-.129V7.655a.13.13 0 0 1 .13-.129h4.917a.13.13 0 0 1 .13.13V25.72a.13.13 0 0 1-.13.13M48.414 7.898v8.362c0 5.104-3.969 9.45-9.07 9.632a9.408 9.408 0 0 1-9.752-9.403V7.898c0-.205.166-.371.371-.371h4.404c.205 0 .371.166.371.371v8.591h.013a4.247 4.247 0 0 0 4.25 4.246c2.351 0 4.25-1.899 4.25-4.246h.017V7.898c0-.205.167-.371.372-.371h4.403c.205 0 .371.166.371.371M48.439 29.196a.348.348 0 0 1 .045.504 12.69 12.69 0 0 1-9.486 4.242 12.694 12.694 0 0 1-9.477-4.23.348.348 0 0 1 .045-.504l2.79-2.24a.352.352 0 0 1 .479.039 8.424 8.424 0 0 0 6.163 2.667 8.412 8.412 0 0 0 6.172-2.68.353.353 0 0 1 .48-.04l2.789 2.242M70.041 7.898v8.362c0 5.104-3.97 9.45-9.07 9.632a9.408 9.408 0 0 1-9.752-9.403V7.898c0-.205.166-.371.371-.371h4.404c.205 0 .37.166.37.371v8.591h.014a4.247 4.247 0 0 0 4.25 4.246c2.351 0 4.25-1.899 4.25-4.246h.017V7.898c0-.205.166-.371.371-.371h4.404c.205 0 .371.166.371.371M70.038 29.174a.382.382 0 0 1 .042.56 12.69 12.69 0 0 1-9.456 4.208 12.694 12.694 0 0 1-9.445-4.195.382.382 0 0 1 .042-.561l2.743-2.203a.379.379 0 0 1 .514.041 8.424 8.424 0 0 0 6.146 2.65 8.412 8.412 0 0 0 6.157-2.664.39.39 0 0 1 .526-.031l2.731 2.195"/>
    </g>
</svg>
