<svg xmlns="http://www.w3.org/2000/svg" width="88" height="33" viewBox="0 0 88 33">
    <g fill="#6A6A6A" fill-rule="evenodd">
        <path d="M77.807 19.718c1.071 0 1.954-.36 2.65-1.08.723-.747 1.07-1.688 1.07-2.823 0-1.134-.347-2.076-1.07-2.796-.696-.747-1.579-1.107-2.65-1.107-1.07 0-1.953.36-2.65 1.107-.695.72-1.043 1.662-1.043 2.796 0 1.135.348 2.076 1.044 2.823.696.72 1.579 1.08 2.65 1.08zm5.13-12.51h4.092c.199 0 .36.16.36.36v16.098c0 .2-.161.36-.36.36h-4.092a.36.36 0 0 1-.36-.36V22.09c-1.281 1.61-3.055 2.398-5.354 2.398-2.201 0-4.073-.822-5.65-2.497-1.543-1.675-2.332-3.744-2.332-6.174 0-2.431.789-4.468 2.333-6.143 1.576-1.675 3.448-2.53 5.649-2.53 2.299 0 4.073.79 5.354 2.399V7.568c0-.2.161-.36.36-.36zM17.66 16.087v8.164a.352.352 0 0 1-.352.352h-4.202a.352.352 0 0 1-.352-.352V16.24c0-2.094-1.577-3.931-3.667-4.06a3.914 3.914 0 0 0-4.16 3.907v8.164a.352.352 0 0 1-.353.352H.35a.35.35 0 0 1-.35-.35V.406C0 .21.158.051.354.051h4.225c.192 0 .347.156.347.347V8.26a.02.02 0 0 0 .03.019c1.172-.577 2.49-1.012 3.884-1.012a8.816 8.816 0 0 1 8.82 8.82M25.225 24.603h-4.68a.123.123 0 0 1-.124-.123V7.286c0-.068.056-.123.123-.123h4.68c.069 0 .124.055.124.123V24.48a.123.123 0 0 1-.123.123M46.023 7.517v7.958c0 4.858-3.777 8.995-8.632 9.168a8.954 8.954 0 0 1-9.282-8.95V7.518c0-.195.158-.353.353-.353h4.192c.195 0 .353.158.353.353v8.177h.012a4.042 4.042 0 0 0 4.045 4.04 4.04 4.04 0 0 0 4.045-4.04h.017V7.517c0-.195.158-.353.353-.353h4.191c.195 0 .353.158.353.353M46.047 27.787a.33.33 0 0 1 .043.48 12.077 12.077 0 0 1-9.03 4.038 12.082 12.082 0 0 1-9.018-4.026.33.33 0 0 1 .043-.48l2.654-2.132a.335.335 0 0 1 .456.037 8.018 8.018 0 0 0 5.866 2.538c2.32 0 4.41-.98 5.874-2.551a.336.336 0 0 1 .457-.037l2.655 2.133M66.607 7.517v7.958c0 4.858-3.778 8.995-8.633 9.168a8.954 8.954 0 0 1-9.282-8.95V7.518c0-.195.159-.353.354-.353h4.19c.196 0 .354.158.354.353v8.177h.012a4.042 4.042 0 0 0 4.046 4.04 4.04 4.04 0 0 0 4.045-4.04h.016V7.517c0-.195.158-.353.353-.353h4.191c.196 0 .354.158.354.353M66.604 27.766a.363.363 0 0 1 .04.534 12.078 12.078 0 0 1-9 4.005c-3.565 0-6.772-1.54-8.99-3.993a.363.363 0 0 1 .04-.534l2.611-2.097a.36.36 0 0 1 .489.04 8.017 8.017 0 0 0 5.85 2.521 8.006 8.006 0 0 0 5.86-2.535.37.37 0 0 1 .5-.03l2.6 2.09"/>
    </g>
</svg>
