<svg xmlns="http://www.w3.org/2000/svg" xmlns:xlink="http://www.w3.org/1999/xlink" width="116" height="39" viewBox="0 0 116 39">
    <defs>
        <path id="a" d="M.14.046h21.426V20.52H.14z"/>
        <path id="c" d="M.028.067h21.47V7.99H.027z"/>
    </defs>
    <g fill="none" fill-rule="evenodd">
        <g transform="translate(93.5 8.327)">
            <mask id="b" fill="#fff">
                <use xlink:href="#a"/>
            </mask>
            <path fill="#FFF" d="M10.16 15.093c1.291 0 2.356-.443 3.195-1.33.871-.922 1.29-2.08 1.29-3.48 0-1.398-.419-2.558-1.29-3.445-.84-.92-1.904-1.364-3.195-1.364-1.29 0-2.356.443-3.195 1.364-.839.887-1.258 2.047-1.258 3.445 0 1.4.42 2.558 1.258 3.48.84.887 1.904 1.33 3.195 1.33M16.31.12h4.83c.235 0 .426.19.426.426v19.005c0 .235-.19.425-.426.425h-4.83a.426.426 0 0 1-.426-.425v-1.863c-1.512 1.9-3.606 2.831-6.32 2.831-2.599 0-4.809-.97-6.67-2.947-1.822-1.977-2.753-4.42-2.753-7.29s.93-5.274 2.754-7.25C4.755 1.053 6.965.045 9.564.045c2.714 0 4.808.931 6.32 2.83V.547c0-.234.19-.425.426-.425" mask="url(#b)"/>
        </g>
        <path fill="#FFF" d="M20.849 18.93v9.64c0 .23-.187.415-.416.415h-4.96a.416.416 0 0 1-.416-.416v-9.458c0-2.471-1.862-4.64-4.33-4.792a4.62 4.62 0 0 0-4.911 4.612v9.638c0 .23-.186.416-.416.416H.413A.413.413 0 0 1 0 28.573V.418C0 .188.187 0 .418 0h4.988a.41.41 0 0 1 .41.41V9.69c0 .018.018.03.034.022 1.385-.681 2.94-1.194 4.586-1.194A10.408 10.408 0 0 1 20.848 18.93M67.595 8.814v9.395c0 5.735-4.46 10.62-10.19 10.823-6.016.213-10.958-4.597-10.958-10.565V8.814c0-.23.187-.417.417-.417h4.778c.23 0 .417.187.417.417v9.653h.014c0 2.637 2.309 5.11 4.946 5.11 2.642 0 4.945-2.473 4.945-5.11h.02V8.814c0-.23.186-.417.416-.417h4.778c.23 0 .417.187.417.417M91.207 8.814v9.395c0 5.735-4.46 10.62-10.191 10.823-6.016.213-10.958-4.597-10.958-10.565V8.814c0-.23.187-.417.417-.417h4.778c.23 0 .417.187.417.417v9.653h.015c0 2.637 2.308 5.11 4.945 5.11 2.642 0 4.946-2.473 4.946-5.11h.019V8.814c0-.23.187-.417.417-.417h4.778c.23 0 .417.187.417.417M67.623 32.744a.39.39 0 0 1 .05.566 14.258 14.258 0 0 1-10.658 4.767c-4.228 0-8.03-1.834-10.647-4.753a.39.39 0 0 1 .05-.567l3.134-2.516a.397.397 0 0 1 .538.043 9.464 9.464 0 0 0 6.925 2.997 9.452 9.452 0 0 0 6.935-3.012.396.396 0 0 1 .54-.044l3.133 2.52z"/>
        <g transform="translate(69.87 30.087)">
            <mask id="d" fill="#fff">
                <use xlink:href="#c"/>
            </mask>
            <path fill="#FFF" d="M21.334 2.632c.199.16.217.441.047.63A14.258 14.258 0 0 1 10.757 7.99c-4.21 0-7.995-1.818-10.612-4.714a.429.429 0 0 1 .046-.63L3.273.17a.425.425 0 0 1 .578.046 9.465 9.465 0 0 0 6.906 2.977c2.73 0 5.19-1.15 6.917-2.993a.437.437 0 0 1 .592-.035l3.068 2.466z" mask="url(#d)"/>
        </g>
        <path fill="#FFF" d="M38.61 16.806c-.565-2.418-2.445-3.591-4.664-3.591-2.595 0-4.362 1.315-4.926 3.591h9.59zm-9.732 4.45c.692 2.562 2.705 3.693 5.567 3.693 1.843 0 3.304-.591 4.317-1.743a.456.456 0 0 1 .571-.095l3.451 1.99a.46.46 0 0 1 .135.677c-1.984 2.607-4.848 3.928-8.556 3.928-3.373 0-6.056-1.017-8.09-3.05-2.032-2.032-3.048-4.593-3.048-7.682 0-3.049 1.016-5.61 3.008-7.642 1.992-2.073 4.594-3.09 7.724-3.09 2.967 0 5.447 1.017 7.358 3.09 1.95 2.073 2.927 4.593 2.927 7.642 0 .485-.04.97-.107 1.484a.917.917 0 0 1-.91.799H28.878z"/>
    </g>
</svg>
