<svg xmlns="http://www.w3.org/2000/svg" width="492" height="303" viewBox="0 0 492 303">
    <defs>
        <radialGradient id="a" cx="49.995%" cy="49.83%" r="370.474%" fx="49.995%" fy="49.83%" gradientTransform="matrix(.09586 0 0 1 .452 0)">
            <stop offset=".513%" stop-color="#CECDE3"/>
            <stop offset="27.42%" stop-color="#D2D2E6" stop-opacity=".73"/>
            <stop offset="57.42%" stop-color="#E0DFED" stop-opacity=".428"/>
            <stop offset="88.82%" stop-color="#F5F5FA" stop-opacity=".112"/>
            <stop offset="100%" stop-color="#FFF" stop-opacity="0"/>
        </radialGradient>
    </defs>
    <g fill="none" fill-rule="evenodd">
        <path fill="#5B90F7" fill-rule="nonzero" d="M259.29 30.24c-7.2 9.27-11.52 20.43-17.73 30.33-14.76 23.67-40.68 40.23-68.76 44.19-14.31 1.98-28.8.9-43.2.63-37.62-.63-78.75 6.84-102.87 34.83-12.96 15.12-19.62 35.37-17.46 55.08s13.5 38.34 30.42 49.32c23.22 15.03 53.55 14.31 80.73 9.09 27.27-5.22 53.91-14.49 81.72-14.76 31.23-.27 61.74 10.71 92.97 10.26 24.57-.36 48.42-7.92 71.1-17.1 19.44-7.83 40.32-19.35 45.36-39.33 4.23-16.65-4.5-34.29-17.01-46.35-12.51-12.06-28.53-19.98-43.47-29.07-7.38-4.5-15.21-10.26-16.65-18.63-1.62-9.63 5.76-18.09 9.99-26.91 6.93-14.31 5.22-32.22-4.14-45.18-9.72-13.32-25.65-19.26-41.85-19.442-15.48-.178-29.88 11.072-39.15 23.042z"/>
        <g>
            <g fill-rule="nonzero" transform="translate(319.5 22.5)">
                <path fill="#B0BABA" d="M89.46 131.22c1.53-11.7 3.15-23.49 5.4-35.19-20.34 35.01-13.14 77.67-19.08 118.53-2.61 16.83-7.29 31.41-11.34 47.43-.63 2.34-1.26 4.59-1.71 7.02 7.29-.09 14.58.09 21.87.18-5.31-45.72-1.08-92.25 4.86-137.97z"/>
                <path fill="#CFDBDB" d="M93.15 52.74c-.99 1.08-1.8 2.25-2.25 3.6-1.53 4.32.54 0 2.25-3.6zM93.15 52.74c.18-.27.45-.45.63-.72.18-.54.36-.99.54-1.44 1.44-3.6.27-.9-1.17 2.16zM94.86 96.12c3.33-17.55 8.01-34.65 15.39-50.67-3.33-4.41-2.97-5.4-6.75-1.35-2.61 2.79-6.75 5.13-9.72 8.01-5.76 15.21-19.8 62.01-22.32 75.78-1.8 9.81-3.96 19.89-6.12 30.24 1.89 7.47 4.68 14.94 2.7 22.5-6.84 24.21-7.11 49.05-1.35 72.63 3.42-12.69 6.93-24.84 9-38.52 6.03-40.95-1.17-83.61 19.17-118.62z"/>
                <path fill="#B0BABA" d="M68.04 180.54c1.98-7.56-.81-15.03-2.7-22.5-5.31 25.29-10.8 51.66-12.06 76.05-.54 10.98-1.71 24.48 2.16 35.19 2.43-.18 4.86-.27 7.29-.27.45-2.34.99-4.68 1.71-7.02.72-3.06 1.53-6.03 2.34-8.91-5.85-23.49-5.58-48.24 1.26-72.54z"/>
                <circle cx="87.32" cy="52.118" r="12.78" fill="#35485E" transform="rotate(-.953 87.32 52.118)"/>
                <path fill="#C7BE4F" d="M122.67 229.41c-1.71 5.49-7.65 8.55-13.05 9.81-15.21 3.69-27.27 10.98-36.99 22.05 1.53.54 3.24.72 4.95.54 3.69-.36 7.2-1.71 10.89-1.8 4.05-.09 8.01 1.26 12.06 1.17 5.76-.09 11.25-3.51 13.86-8.64.81-1.53 1.35-3.15 2.34-4.59 4.14-5.85 13.41-5.04 18.9-9.54 4.41-3.69 5.4-10.89 1.98-15.57-.54-.81-1.26-1.53-1.62-2.52-.72-1.98.45-4.23 2.07-5.67 1.62-1.44 3.6-2.34 5.22-3.69 3.6-3.06 4.86-8.28 4.05-12.96 0-.09-.09-.27-.09-.36-3.6 1.26-7.38 3.42-10.08 5.04-8.82 5.58-11.61 16.47-14.49 26.73z"/>
                <path fill="#F5EA61" d="M138.06 182.79c-1.53-.72-3.42-.63-5.13-.18-4.23 1.08-8.01 4.05-10.08 8.01-1.53 2.97-2.07 6.3-3.69 9.18s-4.95 5.31-8.1 4.23c-2.61-.9-4.14-3.87-6.93-4.32-1.26-.18-2.52.18-3.6.81-8.91 4.95-6.84 20.7-16.02 25.11-3.24 1.53-7.38 1.35-9.9 3.96-3.33 3.51-2.43 9.27-3.33 13.59-.63 3.06-2.34 5.04-3.51 7.74-2.07 4.95.54 8.82 4.77 10.26 9.72-11.07 21.69-18.36 36.99-22.05 5.4-1.26 11.34-4.41 13.05-9.81 2.88-10.26 5.67-21.15 14.58-26.73 2.7-1.53 6.48-3.78 10.08-5.04-.81-4.5-3.33-8.64-6.21-12.15-.72-.99-1.71-1.98-2.97-2.61z"/>
                <path fill="#35485E" d="M96.93 238.05c-9.09 8.55-19.8 14.58-27.9 24.3-1.26 1.53-4.14 4.41-4.68 6.84 2.43 0 4.86-.09 7.29-.09 1.71-3.15 2.88-7.38 4.05-8.82 4.77-5.94 13.05-7.74 18.99-12.6 2.7-2.16 4.86-4.95 7.02-7.65 9.45-12.06 18.99-24.12 28.44-36.18-14.13 7.65-21.6 23.31-33.21 34.2z"/>
                <path fill="#C7BE4F" d="M23.04 246.69c-6.84-2.52-10.62-10.08-13.95-17.1-4.23 2.61-8.91 5.67-8.64 10.44.18 3.42 3.15 6.21 6.39 7.2 3.24 1.08 6.75.72 10.17.45-.09 4.59 2.16 9.09 5.94 11.7 3.69 2.61 8.73 3.33 13.05 1.71 1.62-.63 3.24-1.53 5.04-1.35 2.79.27 4.59 3.06 6.84 4.77 1.71 1.26 3.87 1.71 6.03 1.53-2.43-13.95-18.81-15.48-30.87-19.35z"/>
                <path fill="#F5EA61" d="M58.14 238.23c-.81-1.98-1.71-3.87-3.33-5.31-3.51-3.06-8.91-2.16-13.14-4.14-6.03-2.79-8.1-10.35-12.96-14.94-3.24-3.06-8.19-4.59-12.42-3.06-4.23 1.53-7.02 6.66-5.4 10.8.72 1.89 2.34 3.87 1.35 5.58-.36.72-1.08 1.17-1.8 1.62l-1.35.81c3.33 7.02 7.11 14.58 13.95 17.1 12.06 3.78 28.44 5.4 30.78 19.35 1.35-.09 2.7-.54 3.87-1.26 2.88-1.89 4.41-5.4 3.96-8.82.09.27.27.45.54.54.99-5.49-1.98-13.14-4.05-18.27z"/>
                <path fill="#35485E" d="M52.56 249.75c-5.13-4.32-12.33-4.86-18.54-7.29-5.31-2.07-9.99-5.67-13.41-10.26 2.07 5.13 6.66 8.73 11.43 11.52 4.68 2.88 9.81 5.13 13.95 8.82 3.69 3.24 6.48 7.47 8.1 12.15.36.99 1.08 2.88 1.98 4.5 2.34-.18 4.77-.27 7.11-.27.36-5.31-8.19-17.1-10.62-19.17z"/>
                <path fill="#5B90F7" d="M109.89 25.56c-.27-.27-.54-.54-.9-.81.54 1.26.99 2.43 1.35 3.6l-.45-2.79zM110.34 28.26l.27-.27-.27.27z"/>
                <path fill="#395FA4" d="M104.22 44.01c-.9 1.89-1.8 3.78-2.61 5.58.18 16.83 7.83 33.03 17.28 47.16 6.48 9.72 14.22 19.08 24.84 23.85v-.45c-22.59-18.81-36.27-47.34-39.51-76.14zM122.13 33.57c0 .09 0 .18-.09.27 2.61-.63 5.4-.81 8.28-.9h-.09c.18-.36.36-.63.54-.99.18-.36.27-.72.45-1.08.09-.27.27-.54.36-.81-.09.27-.27.54-.36.81.36-.72.81-1.44 1.26-2.25-3.6.45-7.29 2.43-10.35 4.95z"/>
                <path fill="#5B90F7" d="M162.99 8.55c-13.68-6.03-31.41-.18-38.88 12.78 0-.36 0-.63-.09-.9-.27 4.5-.63 8.91-1.89 13.23 2.97-2.61 6.75-4.5 10.53-4.95.36-.54.72-.99 1.17-1.44-.45.45-.81.99-1.17 1.44.18 0 .36 0 .54-.09 6.93-8.73 20.61-17.55 29.79-20.07z"/>
                <path fill="#5B90F7" d="M131.4 30.87c-.09.27-.27.54-.36.9.63-.99 1.35-2.07 2.16-3.15-.18 0-.36 0-.54.09-.54.72-.9 1.44-1.26 2.16z"/>
                <path fill="#395FA4" d="M28.44 51.75c-1.26 1.35-2.52 2.7-3.69 4.14 24.57 9.27 53.64 5.4 75.06-9.9-21.06 11.52-48.87 15.12-71.37 5.76z"/>
                <path fill="#5B90F7" d="M134.01 52.83c-.81-1.8-1.53-3.6-2.16-5.49-1.89-3.87-2.52-8.1-1.71-12.15.09-.72.27-1.44.45-2.25-.09 0-.09 0-.18-.09-2.88.09-5.67.27-8.28.9-.81.18-1.62.45-2.43.72h.72-.72c.81-.27 1.53-.54 2.43-.72 1.26-4.32 1.62-8.91 1.98-13.5-.54-7.38-6.48-13.68-13.32-16.65C103.68.45 95.58.27 87.84 0c7.29 2.88 17.01 14.94 21.24 24.57.27.27.63.54.9.81l.45 2.79.27-.27.18-.18-.18.18-.27.27-.27.27c-.09.09-.09.09-.09.18 0 0 .09-.09.09-.18l.27-.27c-.36-1.17-.81-2.34-1.35-3.6-3.96-3.6-8.1-7.11-13.14-8.73-5.13-1.62-10.71-1.17-16.11-1.08-11.61.27-23.31-1.26-34.47-4.5 1.98 5.94 6.48 10.62 11.88 13.95 1.26.54 4.91 2.02 6.26 2.29 13.05 1.8 26 3 34.78 5.36h2.88-2.88c.45.18.99.45 1.44.72-.45-.27-.99-.45-1.44-.72-6.3.09-12.42.09-18.72-.45.81.18 1.62.27 2.34.45-19.62-1.89-39.78 5.67-53.64 19.71 22.5 9.36 50.2 8.62 73.24-4.07 23.04-12.69-.61-2.68.11-3.22v.36c.81-.45 1.62-.99 2.43-1.53-.81.54-1.62.99-2.43 1.53-.09 1.62-.18 3.15-.18 4.77.81-1.8 1.71-3.69 2.61-5.58 3.33 28.71 16.92 57.24 39.51 76.14-.18-22.59-2.16-45.63-9.54-67.14z"/>
                <path fill="#395FA4" d="M61.2 25.56c-1.35-.27-2.7-.63-3.96-1.17 1.08.63 2.16 1.26 3.24 1.8 6.03 2.88 12.6 4.23 19.17 5.49 6.3.54 12.33.54 18.72.45-11.79-5.49-24.12-4.77-37.17-6.57z"/>
                <path fill="#5B90F7" d="M130.95 31.95c0-.09.09-.18.09-.18.09-.27.18-.54.36-.9-.18.36-.36.72-.45 1.08zM130.59 33.03c-.27.72-.45 1.44-.54 2.16l.54-2.16zM110.34 28.26l-.27.27c.09 0 .18-.18.27-.27zM130.05 35.19c-.72 4.14-.18 8.28 1.71 12.15-.18-.63-.45-1.26-.63-1.89-.09-.18-.18-.36-.27-.63 0 0 .09 0 .09.09-.81-3.24-1.35-6.48-.9-9.72zM131.94 44.28c-.09-.18-.18-.27-.18-.45.63 1.89 1.44 3.69 2.16 5.49-.9-2.52-1.8-4.95-2.79-7.38.18.63.36 1.26.63 1.89.09.18.18.36.18.45z"/>
                <path fill="#5B90F7" d="M110.34 28.26l-.27.27c.09 0 .18-.09.27-.27zM109.98 28.71c-.09.09-.09.09 0 0z"/>
                <circle cx="107.571" cy="54.279" r="10.35" fill="#35485E" transform="rotate(-.953 107.571 54.28)"/>
                <path fill="#5B90F7" d="M163.62 58.32c5.85 8.73 9 19.53 7.74 29.97-3.42-5.04-6.75-10.08-10.98-14.49-4.14-4.41-9.09-8.19-14.85-10.17-5.04-1.71-10.53-1.98-15.66-3.51-1.8-.54-3.6-1.26-4.77-2.79-4.32-5.31-5.58-20.43 2.52-23.22 7.92-2.7 19.08 6.84 24.57 11.52 4.41 3.78 8.28 8.01 11.43 12.69z"/>
                <path fill="#395FA4" d="M97.38 32.31c-6.12.36-12.06-2.07-18.18-2.61-3.24-.27-6.57-.18-9.72 0 3.51.9 7.2 1.26 10.8 1.98M136.26 61.56c1.62-.18 3.24-.09 4.86.36-1.89-6.84-10.08-16.02-14.22-21.78 3.69 5.67 8.64 15.03 9.45 21.33M110.16 31.5c-.09-2.88-1.71-5.4-3.69-7.47-1.98-2.07-4.23-3.87-5.94-6.12 2.43 1.89 5.58 3.6 7.65 5.85 1.62 1.62 1.89 5.4 1.98 7.74zM123.84 18.9c.18.72.27 1.53.09 2.25-.09.63-.36 1.17-.63 1.71-1.08 2.25-2.34 4.5-3.69 6.66 1.17-1.89 1.62-4.86 2.16-6.93.63-2.43.9-4.77.99-7.2.81.72.9 2.52 1.08 3.51z"/>
            </g>
            <g transform="translate(19.8)">
                <path fill="#CFDBDB" fill-rule="nonzero" d="M111.24 261.09c-5.04-71.82-17.91-143.28-34.02-213.3-6.3.09-9.63.27-15.93.27 2.07 0 8.46 57.06 9.09 62.46v.27c.18 1.17.27 2.25.36 3.42 9.18 15.84 14.58 32.85 17.37 51.39 5.22 32.76 1.35 68.76 23.13 95.49z"/>
                <path fill="#B0BABA" fill-rule="nonzero" d="M111.24 261.09c-21.78-26.73-17.91-62.73-23.04-95.49-2.79-18.54-8.1-35.55-17.37-51.39 4.32 36.36 7.11 72.99 8.37 109.62.63 18.9.99 37.89.72 56.88-.09 4.95-.63 8.01.72 10.08 10.71.63 21.42-.54 32.22-.72-.09-2.34-.18-4.77-.27-7.11-.45-7.29-.81-14.58-1.35-21.87z"/>
                <path fill="#C7BE4F" fill-rule="nonzero" d="M162.72 270.45c-.72 1.44-3.51 2.16-5.67 2.25-14.22-3.78-27.54 3.24-34.83 15.48 8.55-3.06 16.92-8.73 25.65-7.47 4.32.54 11.97 3.69 16.2 4.32 4.32.63 9.45-.54 11.16-4.5 1.71-3.87-.27-9.18 2.7-12.06 1.89-1.8 4.77-1.8 7.29-2.25 3.51-.54 7.02-2.34 8.82-5.49.45-.81.72-1.71.9-2.61-11.7-3.69-23.85 1.08-32.22 12.33z"/>
                <path fill="#F5EA61" fill-rule="nonzero" d="M192.51 251.1c-1.35-.9-3.06-1.26-4.68-1.53-3.87-.72-7.83-1.44-11.7-2.07.63-3.24.45-6.66-.36-9.9-.27-.9-.63-1.89-1.35-2.52-.9-.63-2.07-.63-3.15-.63-6.84.54-13.5 3.42-18.54 8.19-1.53 1.44-2.97 3.15-4.77 4.14-8.01 4.59-8.28-9.81-16.02-3.51-3.96 3.24-7.38 10.44-9.81 15.03-2.97 5.67-18 33.75-5.22 31.41 1.8-.36 3.69-.9 5.49-1.53 7.2-12.33 20.61-19.26 34.83-15.48 2.16 0 4.95-.81 5.67-2.25 8.37-11.34 20.43-16.02 32.4-12.33.27-2.7-.54-5.49-2.79-7.02z"/>
                <circle cx="69.849" cy="75.609" r="11.34" fill="#35485E" fill-rule="nonzero" transform="rotate(-.953 69.849 75.609)"/>
                <circle cx="88.749" cy="78.489" r="8.19" fill="#35485E" fill-rule="nonzero" transform="rotate(-.953 88.75 78.489)"/>
                <g fill-rule="nonzero">
                    <path fill="#C7BE4F" d="M70.38 245.7c-2.79-2.97-9.18-1.71-11.25-4.59-5.49-7.29-.9-18.54-9.9-24.48-5.58-3.69-12.69-3.24-18.27-7.65-6.93-5.22-5.94-15.12-11.43-22.41-4.86-5.76-11.7-7.56-18.9-7.92-.45 1.44-.63 2.88-.54 4.41.36 4.95 4.14 9.36 8.91 10.62 1.62.36 3.24.45 4.77 1.17 3.87 1.8 4.68 7.02 3.96 11.25-.72 4.23-2.43 8.37-1.62 12.6.9 5.04 5.49 8.91 10.53 9.99 5.04 1.08 10.35-.27 14.85-2.79.27 4.95.54 10.08 2.43 14.67 1.89 4.59 5.49 8.82 10.35 9.99 4.32.99 9.27-.36 13.14 1.89 4.05 2.43 4.95 7.92 7.83 11.61 1.62 2.16 4.23 3.78 7.29 4.86-1.44-8.64-6.3-17.46-12.15-23.22z"/>
                    <path fill="#F5EA61" d="M104.67 232.02c.81-5.49-.9-12.06-5.94-14.31-1.62-.72-3.42-.99-4.86-1.89-6.66-3.96-2.07-15.75-7.65-21.06-4.77-4.5-12.87-.99-18.99-3.51-11.16-4.59-8.1-25.11-19.62-28.89-8.01-2.7-15.3 5.4-23.58 7.11-5.58 1.17-11.61-.54-16.92 1.62-3.15 1.35-5.58 4.23-6.66 7.47 7.2.27 13.95 2.16 18.9 7.92 5.49 7.29 4.5 17.19 11.43 22.41 5.58 4.41 12.69 3.96 18.27 7.65 9.09 5.94 4.5 17.19 9.9 24.48 2.07 2.88 8.46 1.71 11.25 4.59 5.85 5.76 10.8 14.58 12.15 23.13 5.4 1.89 12.15 1.98 16.47-.18 8.28-4.05-.99-12.15.99-20.7 1.35-5.31 4.05-10.35 4.86-15.84z"/>
                    <path fill="#35485E" d="M75.87 232.83c-12.69-18.18-27.54-37.8-49.32-41.85 19.35 10.26 34.65 27.09 45.99 45.9 6.93 11.34 12.42 23.49 17.28 35.82 2.34 5.85 3.69 13.95 7.11 19.17 4.14-.18 8.37-.54 12.51-.72-7.56-21.06-20.61-39.87-33.57-58.32z"/>
                </g>
                <path fill="#35485E" fill-rule="nonzero" d="M163.08 248.4c-5.67 6.57-14.31 9.9-21.24 15.21-8.28 6.39-16.02 16.74-20.16 26.01-.27.54-9 1.44-10.08 1.17 2.52-9.81 11.97-20.61 19.53-27.18 9.09-7.74 20.25-13.23 31.95-15.21z"/>
                <path d="M72.18 107.91c.27.09.45.45.36.72"/>
                <g fill-rule="nonzero">
                    <path fill="#C7BE4F" d="M38.79 259.74c-5.76-4.14-13.5-1.17-19.98-4.68-3.15-1.8-4.14-4.77-3.87-8.37-2.43 3.42-2.25 8.73.36 12.15 3.42 4.41 9.63 5.94 15.12 4.95.99-.18 2.07-.45 2.88.09.72.36 1.08 1.17 1.35 1.89 1.17 3.33.54 7.02.99 10.53.45 3.51 2.97 7.38 6.48 7.11 1.44-.09 2.79-.9 4.14-1.62 3.96-2.07 8.46-3.15 12.87-3.15-4.32-1.62-9.09-2.34-12.33-5.49-3.6-3.51-3.69-9.9-8.01-13.41z"/>
                    <path fill="#F5EA61" d="M74.07 260.73c-3.78-3.33-8.1-.72-11.16-4.95-3.33-4.5-1.26-17.46-14.4-14.13-3.51.9-5.13 5.76-8.73 6.39-1.53.27-3.06-.18-4.5-.72-5.85-2.25-12.24-6.03-17.73-3.06-1.08.63-1.98 1.44-2.61 2.43-.27 3.6.72 6.57 3.87 8.37 6.48 3.42 14.22.45 19.98 4.68 4.32 3.51 4.41 9.9 8.01 13.41 3.24 3.15 8.01 3.87 12.33 5.49 1.71 0 3.42.18 5.13.54 6.12 1.26 12.6 2.34 14.4-5.4 1.08-4.95-.99-9.81-4.59-13.05z"/>
                    <path fill="#35485E" d="M70.29 291.87c3.15.09 6.39.18 9.54.18-5.94-8.91-13.14-17.01-20.25-25.02-2.16-2.43-4.32-4.77-6.84-6.66-5.31-3.87-12.69-5.76-19.17-6.3 8.01 3.51 15.12 6.39 21.6 12.6 3.6 3.42 6.84 7.38 9.36 11.7.63 1.26 5.76 13.5 5.76 13.5z"/>
                </g>
                <path fill="#5B90F7" fill-rule="nonzero" d="M71.19 37.44c-2.61.54-5.31 1.08-7.92 1.71 2.43.45 4.77.81 7.2 1.17l.72-2.88zM62.73 39.33c.18 0 .36-.09.45-.09-4.59-.81-9.18-1.62-13.68-1.89C28.98 42.21 11.34 57.69 3.96 77.4c6.3.27 12.69.18 18.99-.63 7.74-17.28 18.36-37.53 39.78-37.44z"/>
                <path fill="#395FA4" fill-rule="nonzero" d="M22.95 76.77c4.59-.63 9.18-1.53 13.5-3.06 2.25-8.01 2.61-16.74 7.47-23.49 4.41-6.03 11.43-9 18.81-10.89-21.42-.09-32.04 20.16-39.78 37.44z"/>
                <path fill="#5B90F7" fill-rule="nonzero" d="M67.2 56c.883 1.06.54-2.915 1.422-1.952l3.828-14.645c-2.65-.386-5.202-.771-7.851-1.253-8.244 2.023-16.096 5.3-21.003 11.852-5.3 7.13-5.692 16.572-8.146 25.148.687-.193 1.374-.482 2.061-.674C49.386 70.14 61.41 67.08 67.2 56z"/>
                <path fill="#395FA4" fill-rule="nonzero" d="M7.29 20.97c14.85 3.78 29.97 7.74 42.66 16.29-.18 0-.27.09-.45.09 4.05.27 8.1.9 12.24 1.62-13.32-14.22-35.1-20.07-54.45-18z"/>
                <path fill="#5B90F7" fill-rule="nonzero" d="M76.32 27.63l-1.62 1.62s1.26-.72 1.62-1.62z"/>
                <path fill="#395FA4" fill-rule="nonzero" d="M11.79 108.09c12.87 4.41 27-2.79 36.99-12.15 1.89-1.8 3.69-3.6 5.4-5.58-10.71 9.18-25.11 14.31-39.51 15.03-.9.9-1.89 1.8-2.88 2.7z"/>
                <path fill="#5B90F7" fill-rule="nonzero" d="M98.28 55.71c11.07 4.68 24.66 2.88 34.11-4.41-13.5-2.25-26.37-7.83-37.17-16.29.09-.09.18-.09.27-.18 1.71-.99 3.42-2.07 4.95-3.24 10.08-7.56 17.19-19.08 19.17-31.59A96.973 96.973 0 0 1 87.3 17.73c-1.44.45-7.92 6.84-10.89 9.9-.36.9-1.62 1.62-1.62 1.62l1.62-1.62c.18-.45.18-.81-.18-1.26C58.14 7.47 28.26 9.9 6.93 20.79c.18 0 .27.09.45.09 19.35-2.07 40.5 4.9 53.82 19.12.54.09 1.62-.94 2.16-.85 2.61-.63 5.31-1.26 7.92-1.71l-.72 2.88-1.98 7.74-1.53 6.03c-.81-.99-1.53-1.98-2.34-2.88-5.31 10.35-15.3 17.82-26.19 21.87-.63.27-1.26.45-1.89.63-.54 1.98-1.26 3.96-2.16 5.85-4.86 9.99-10.08 16.83-19.62 25.83 14.31-.72 28.8-5.85 39.51-15.03 7.47-8.28 13.32-18.09 17.19-28.53 3.06 8.55 9.99 14.58 18.18 18.9 10.17 4.32 21.33 5.04 32.22 3.96-10.71-7.02-18.99-17.28-23.67-28.98z"/>
                <path fill="#395FA4" fill-rule="nonzero" d="M89.55 80.82c4.5 2.43 9.27 4.32 14.04 5.94 7.83 2.61 16.56 4.77 24.12 1.53a77.356 77.356 0 0 1-5.85-3.51c-11.07 1.08-22.14.36-32.31-3.96zM69.75 49.23c-2.61 5.76-2.97 12.51-.99 18.54 1.62-3.42 2.88-5.13 1.98-8.82-.45-2.16-1.98-7.56-.99-9.72zM88.11 38.97c4.14 1.26 7.74 4.05 10.44 7.47 2.7 3.42 4.59 7.38 6.21 11.34-.18-.54-2.7-1.17-3.33-1.35-.81-.27-2.52-.36-3.06-.9-.45-.45-.63-1.8-.9-2.34-.45-1.08-.9-2.07-1.44-3.06-2.07-4.14-4.68-7.92-7.92-11.16zM72.99 35.46c4.5-3.42 10.35-4.14 15.84-4.86 1.8-.27 3.51-.45 5.22-.99 2.52-.72 4.86-2.07 7.02-3.6 8.28-5.76 14.67-14.22 17.91-23.76-1.26 3.69-1.8 7.47-3.51 11.07-1.71 3.6-3.87 7.02-6.39 10.08-2.52 3.06-5.49 5.76-8.82 8.1-1.44.99-3.42 2.61-5.13 3.06-1.71.36-3.87-.54-5.67-.81-5.49-.63-11.16-.09-16.47 1.71z"/>
            </g>
            <g fill-rule="nonzero">
                <path fill="#E4AB8F" d="M224.82 116.91c.27 1.44 1.35 2.43 2.43 3.42 2.52 2.25 4.95 4.5 7.47 6.75-1.17-3.69-2.16-7.38-2.7-11.16-3.78-1.35-7.83-2.25-7.2.99zM196.83 120.06c-.45-5.49-10.08 3.15-11.88 4.59-.9.72-1.8 1.44-2.79 2.16 3.15.72 6.66 1.44 9.54 2.79 1.17-1.89 2.43-3.78 3.6-5.67.81-1.08 1.62-2.43 1.53-3.87zM211.86 145.53c-.27.72-.45 3.51-.72 6.39 4.41-.09 8.28-1.71 11.79-4.14-.81-2.25-1.62-4.59-2.52-6.75-3.87.27-7.38.72-8.55 4.5zM209.43 106.2c.54-1.17 1.62-2.34 1.35-3.96h-.18.18c0-.18-.09-.45-.18-.63.09.18.09.45.18.63 2.07-.09 4.14-.36 6.03-1.35-6.93-4.95-16.38-6.66-21.6 1.53-.54.81-.9 1.71-1.17 2.61 4.14 4.14 10.8 5.49 15.39 1.17z"/>
                <path fill="#FFCBB3" d="M223.65 108.09c-1.53-2.61-3.96-5.13-6.84-7.11-1.89.9-3.96 1.26-6.03 1.35.27 1.62-.81 2.79-1.35 3.96-4.59 4.23-11.25 2.88-15.39-.99-2.79 8.73 2.79 23.13 6.12 29.97 1.62 3.33 3.6 6.66 6.48 9 2.88 2.43 6.66 3.87 10.35 3.24 3.96-.72 7.2-3.69 8.91-7.2 1.8-3.6 2.34-7.65 2.43-11.61.09-7.2-1.08-14.49-4.68-20.61zM209.88 158.76c5.4-.45 10.89-1.35 16.2-2.43-1.26-2.79-2.16-5.76-3.15-8.64-3.51 2.43-7.38 4.05-11.79 4.14-.45 3.42-.81 6.84-1.26 6.93z"/>
                <path fill="#E4AB8F" d="M185.22 174.24c1.44-3.6 2.97-7.2 4.41-10.89a57.811 57.811 0 0 0-8.82-3.78c1.26 4.59 2.88 9.63 2.97 14.49.45.09.9.09 1.44.18z"/>
                <path fill="#FFCBB3" d="M189.63 133.11c.72-1.17 1.44-2.25 2.16-3.42-2.97-1.35-6.39-2.07-9.54-2.79a93.25 93.25 0 0 0-9.72 9.18c-1.89 2.07-20.43 26.01-18 27.54 8.82 5.67 18.9 9.36 29.25 10.53-.18-4.86-1.71-9.9-2.97-14.49a63.026 63.026 0 0 0-11.52-2.7c8.73-5.85 14.67-15.03 20.34-23.85zM252.45 125.82c-4.77-2.97-9.81-5.49-15.03-7.65-.81-.36-3.06-1.44-5.49-2.34.54 3.87 1.53 7.56 2.7 11.16.18.18.36.27.54.45 7.83 7.02 15.93 14.31 25.92 17.46-4.14 1.71-8.01 3.96-11.79 6.3 2.25 4.14 3.6 8.55 4.68 13.23 8.82-3.96 16.74-9.81 23.13-16.92 1.98-2.07-22.23-20.16-24.66-21.69z"/>
                <path fill="#E4AB8F" d="M242.73 155.79c2.34 3.06 5.31 7.2 7.65 10.35 1.26-.45 2.43-.99 3.69-1.53-1.08-4.59-2.43-9.09-4.68-13.23-2.25 1.35-4.5 2.88-6.66 4.41z"/>
                <path fill="#FFCBB3" d="M226.17 155.88c-5.04.72-10.08 1.44-15.03 1.98 2.88 9.18 11.52 16.47 16.83 24.93 5.04-7.11.18-17.55-1.8-26.91z"/>
                <path fill="#F5EA61" d="M238.41 175.32c0-.72.09-1.44.09-2.16.18-.09.36-.09.54-.18 0-.09 0-.09.09-.18 0 .09 0 .09-.09.18 4.59-1.53 9.27-3.06 13.86-4.59-2.79-5.31-5.94-10.44-9.45-15.3-5.76 1.08-11.52 2.07-17.28 2.97 1.98 9.27 1.8 15.03 1.8 26.73.54.45.99.9 1.53 1.35-.54-.45-1.08-.9-1.53-1.35v.18c-.09-.18-.18-.36-.36-.45-7.47-6.57-13.77-15.12-17.64-24.3-7.29.81-14.49 1.53-21.78 1.98l-1.62-.27c-.63 4.95-1.08 9.99-1.26 15.03 4.77.36 9.54 1.17 14.13 2.52 0-.09-.09-.18-.09-.27 0 .09.09.18.09.27.18.09.36.09.63.18.54.18.99 2.07 1.26 4.23 7.02 15.12 20.88 26.1 36.36 32.58.81-.81 1.62-1.71 2.52-2.61-3.78-12.06-4.86-24.75-1.8-36.54z"/>
                <path fill="#E4AB8F" d="M227.7 182.34c-5.4-8.19-13.77-15.39-16.56-24.39-.36 0-.72.09-1.08.09 3.78 9.18 10.17 17.73 17.64 24.3z"/>
                <path fill="#C7BE4F" d="M243.9 199.62c.18.36 1.17 2.52 1.71 3.78-.72-1.35-1.26-2.61-1.89-3.87.09 0 .18 0 .18.09-.18-.27-.27-.45-.45-.72-3.69-7.74-5.4-13.23-5.13-23.67-3.06 11.79-1.98 24.57 1.8 36.36 2.52-2.61 5.04-5.22 7.56-7.92-1.44-1.17-2.7-2.52-3.78-4.05zM201.33 181.62c.36 3.06.54 6.84.81 7.65.81 3.6 1.44 7.38 2.34 10.89 2.16 8.01 7.29 15.03 13.68 20.16 2.61 2.07 5.4 3.78 8.28 5.31l11.16-11.43c-15.39-6.48-29.25-17.46-36.27-32.58z"/>
                <path fill="#395FA4" d="M284.85 197.64c-7.74 3.69-16.11 6.48-24.48 5.76-5.58-.45-7.74 3.33-14.94-2.97-8.37 8.01-14.49 12.24-21.6 20.25 7.02 3.96 14.94 6.21 22.86 7.29 6.12.81 12.33.99 18.36-.45 12.06-2.88 22.14-11.97 30.78-21.78-3.6-2.79-7.29-5.4-10.98-8.1z"/>
                <path fill="#35485E" d="M272.16 207.99c-3.96 8.64 2.43 15.75 9.45 12.87 8.1-3.33 18.63-20.52 24.48-27 1.53-1.71 3.15-3.51 4.86-5.22-6.84 5.58-14.76 9.45-22.68 12.42-5.85 2.07-10.98 5.22-16.11 6.93zM305.46 175.32c2.97 3.15 6.75 5.67 10.53 8.19 1.53-1.53 3.15-3.06 4.77-4.5-4.23-1.44-8.28-3.51-12.24-5.94a45.08 45.08 0 0 0-3.06 2.25z"/>
                <path fill="#30508A" d="M336.06 154.8c-9.63 5.4-18.9 11.52-27.63 18.27 3.96 2.43 8.01 4.5 12.24 5.94 6.93-6.48 14.04-12.69 20.61-18.18-1.44-2.16-3.15-4.23-5.22-6.03zM305.46 175.32c-3.06 2.43-6.12 4.86-9 7.47-7.56 6.57-15.39 13.5-21.69 21.24a22.17 22.17 0 0 0-2.52 3.96c5.13-1.71 10.26-4.86 16.02-6.93 7.92-2.97 15.93-6.93 22.68-12.42 1.62-1.71 3.33-3.42 5.04-5.13-3.87-2.52-7.56-4.95-10.53-8.19z"/>
                <path fill="#395FA4" d="M251.28 201.6c-2.43 2.25-5.4 3.69-2.16 5.49 2.34 1.26 7.2.81 9.81.81 6.57-.18-7.56 22.77-1.62 20.07.81-.36 10.17-9.27 19.71-18.36-4.5-6.21-9.09-12.33-13.68-18.63-4.05 3.42-8.1 7.02-12.06 10.62z"/>
                <path fill="#35485E" d="M206.46 204.57c-18.45-4.23-32.4-9.63-40.14-12.78-22.77-9.09-39.33-19.89-49.95-27.99l40.77 36.18c5.76 5.13 12.24 9.81 19.17 13.86 11.43 6.75 24.21 11.97 37.89 15.48l13.77 3.51c27.45 7.02 56.97 6.57 83.7-1.17.9-.27 1.89-.54 2.79-.81-38.43 2.43-78.12-.81-108-26.28z"/>
                <path fill="#56758F" d="M365.04 180.63c.45-.54.9-1.08 1.26-1.53-18.54 10.62-50.22 26.1-82.98 29.88-29.79 3.42-56.16.27-76.86-4.41 29.88 25.47 69.57 28.71 107.82 26.28 28.17-9 50.4-28.08 63.45-49.23l10.71-21.69c-4.23 4.05-9 8.91-23.4 20.7zm-77.31 34.92c1.98-.36 3.96-.63 5.94-1.08-1.98.45-3.96.81-5.94 1.08z"/>
                <path fill="#395FA4" d="M328.41 195.48c-8.64-11.07-19.62-20.43-31.95-27.18-.72-.36-1.53-.81-2.34-.72-.81.09-1.53.54-2.25 1.08-7.47 5.49-14.76 11.16-21.96 17.01-2.16 1.71-4.23 3.51-6.39 5.31 4.59 6.3 9.18 12.42 13.68 18.63 9.36-8.91 18.99-18 20.97-19.44-.72-.63-1.44-1.26-2.16-1.98.72.63 1.44 1.35 2.16 1.98.45-.36.72-.54.72-.54.63.99 1.26 1.8 1.8 2.61 6.3 5.13 12.69 9.81 19.44 13.5 3.15-3.06 6.03-6.39 8.28-10.26z"/>
                <path fill="#E4AB8F" d="M328.41 195.48c-2.25 3.87-5.13 7.29-8.37 10.35 1.35.72 2.7 1.44 4.14 2.07 2.52-3.24 4.5-6.75 5.49-10.71-.45-.63-.9-1.17-1.26-1.71z"/>
                <path fill="#FFCBB3" d="M337.41 209.07a93.618 93.618 0 0 0-7.74-11.97c-.99 3.96-2.97 7.47-5.49 10.71 3.24 1.53 6.57 2.88 10.08 3.96.54-.27 2.43-2.52 3.15-2.7z"/>
                <path fill="#F5EA61" d="M331.83 212.13h.18v-.09c-.09 0-.09.09-.18.09zM332.01 211.95s0 .09 0 0h.18-.18zM333.45 211.32c.09.63.27 1.17.54 1.71 7.83-1.8 15.21-5.58 21.69-9.9.27-.36.45-.81.72-1.17-8.01 1.71-15.75 4.86-22.77 9.18"/>
                <path fill="#C7BE4F" d="M333.99 213.03c.27.72.72 1.53 1.17 2.16.18.18.36.45.63.54.27.09.63.09.9 0 7.65-1.44 14.67-6.12 18.9-12.69-6.48 4.41-13.77 8.28-21.6 9.99z"/>
                <path fill="#F5EA61" d="M345.42 153.45v.18h.09l1.89-3.06c-.72.9-1.35 1.89-1.98 2.88zM345.33 153.81l.09-.18h-.09v.18zM345.33 153.63c.09 0 .09-.09.09-.18-.09 0-.09.09-.09.18z"/>
                <path fill="#F5EA61" d="M349.92 149.58c2.16-4.5 3.15-8.91 5.04-13.05-.54-.54-1.53-.63-2.07.09-4.32 5.22-6.03 9.99-7.38 16.83.63-.99 1.26-1.89 1.89-2.88l-1.89 3.06c.18.09.36.18.45.27 1.62-.99 2.97-2.79 3.96-4.32z"/>
                <path fill="#C7BE4F" d="M349.92 149.58c-.99 1.53-2.34 3.42-3.96 4.41 1.08.63 2.25.99 3.51 1.08.27 0 .54 0 .81-.09s.45-.45.63-.72c3.87-6.03 4.5-9.45 4.5-16.74 0-.45-.18-.81-.45-.99-1.89 4.14-2.88 8.55-5.04 13.05z"/>
                <path fill="#E4AB8F" d="M336.06 154.8a27.65 27.65 0 0 1 5.22 6.03c.36-.27.63-.54.99-.81-.81-2.52-1.35-5.13-1.53-7.74-1.53.81-3.15 1.71-4.68 2.52z"/>
                <path fill="#FFCBB3" d="M349.38 151.74c-.54-1.8-2.52-2.61-4.14-1.8-1.44.72-2.97 1.53-4.41 2.34.18 2.61.72 5.22 1.53 7.74 2.16-1.8 4.23-3.51 6.12-5.13.9-.72 1.26-1.98.9-3.15z"/>
                <path fill="#35485E" d="M249.75 203.13l-7.2 3.42 5.04-4.77z"/>
                <path fill="#E4AB8F" d="M197.55 129.69c1.44.09 2.79.09 4.23-.09-.99.81-1.89 1.53-2.88 2.34-.09.09-.09.09-.18.09s-.09-.09-.09-.09c-.54-.72-.9-1.53-1.08-2.43"/>
                <path fill="#FFCBB3" d="M190.35 122.04c-.63 0-1.35.09-1.8.54-.27.36-.36.72-.27 1.17 0 1.35.81 2.52 1.8 3.51 1.62 1.53 3.69 2.43 5.85 2.7.72.09 3.51.27 4.14-.09 2.07-1.26-1.26-4.68-2.7-5.94-1.71-1.44-4.95-1.89-7.02-1.89z"/>
                <path fill="#35485E" d="M194.4 120.51c.72 2.7 1.98 5.67 4.59 6.75.99.45 2.25.45 2.88-.27.9-.9.36-2.43-.18-3.6-1.17-2.34-2.43-4.59-3.15-7.11-.72-2.52-.81-5.31.63-7.56.18-.36.45-.63.72-.9.72-.45 1.62-.36 2.43-.27 1.71.09 3.42-.45 4.59-1.71s1.62-3.24.81-4.68c1.89-.63 3.96-.81 5.85-1.53 1.89-.72 3.69-2.07 4.14-4.05.45-2.07-.72-4.23-2.52-5.4s-4.05-1.26-6.12-.99c-4.5.63-8.64 3.33-11.34 6.93-4.86 6.66-5.31 16.56-3.33 24.39z"/>
                <path fill="#E4AB8F" d="M164.07 160.02c3.33-.45 6.57-1.26 9.72-2.34-.99-.27-2.07-.45-3.06-.72-1.26-.27-1.26-.18-2.16.54-1.08.9-3.06 2.34-4.5 2.52zM265.77 144.9c-1.17.63-2.43 1.08-3.69 1.35-1.44.27-2.88.36-4.32.27 1.26.09 2.43-1.17 3.69-1.44 1.26-.36 2.88-.18 4.32-.18z"/>
                <path fill="#395FA4" d="M291.87 180.27c.54 4.05 2.52 7.83 4.95 11.16.09.09.09.18.18.18s.18 0 .27-.09c1.44-.81 2.43-.9 1.08-2.16-.9-.9-1.8-1.8-2.61-2.79-1.35-1.53-3.6-4.23-3.87-6.3z"/>
            </g>
            <path fill="#395FA4" fill-rule="nonzero" d="M92.7 32.04c.99-1.98 2.43-3.78 4.14-5.22-.18.09-2.61-2.25-2.88-2.43-.54 2.43-1.17 4.95-1.26 7.65z"/>
            <ellipse cx="265.59" cy="292.32" fill="url(#a)" fill-rule="nonzero" rx="110.79" ry="10.62"/>
            <path fill="#C4DFFF" fill-rule="nonzero" d="M4.14 235.26c-1.35 1.35-2.61 2.61-4.05 3.6 6.39 5.94 7.02 16.38.99 22.86l4.32 3.24c7.38-8.55 6.93-21.96-1.26-29.7zM168.84 56.16c-1.35 1.35-2.61 2.61-4.05 3.6 6.39 5.94 7.02 16.38.99 22.86l4.32 3.24c7.38-8.55 6.93-21.96-1.26-29.7z"/>
            <path fill="#FFF" fill-rule="nonzero" d="M309.87 123.66c1.35 1.35 2.61 2.61 4.05 3.6-6.39 5.94-7.02 16.38-.99 22.86l-4.32 3.24c-7.29-8.55-6.93-21.96 1.26-29.7z" opacity=".52"/>
        </g>
    </g>
</svg>
