<svg xmlns="http://www.w3.org/2000/svg" xmlns:xlink="http://www.w3.org/1999/xlink" width="484" height="340" viewBox="0 0 484 340">
    <defs>
        <radialGradient id="a" cx="49.995%" cy="49.83%" r="370.474%" fx="49.995%" fy="49.83%" gradientTransform="matrix(.09586 0 0 1 .452 0)">
            <stop offset=".513%" stop-color="#CECDE3"/>
            <stop offset="27.42%" stop-color="#D2D2E6" stop-opacity=".73"/>
            <stop offset="57.42%" stop-color="#E0DFED" stop-opacity=".428"/>
            <stop offset="88.82%" stop-color="#F5F5FA" stop-opacity=".112"/>
            <stop offset="100%" stop-color="#FFF" stop-opacity="0"/>
        </radialGradient>
        <path id="c" d="M201.875 149.375c16.875 1.875 34.375 3.75 50-3.75 21.875-10 39.375-28.75 50-50 15.25-30.5 10.688-63.75 14.688-95.625H78.875c-7.5 0-13.625 6.063-13.625 13.625v128.563c.313-.125.625-.188.938-.313 44.437-14.375 90.062 2.5 135.687 7.5z"/>
        <filter id="b" width="116.2%" height="127.2%" x="-8.2%" y="-12.2%" filterUnits="objectBoundingBox">
            <feMorphology in="SourceAlpha" radius="1" result="shadowSpreadOuter1"/>
            <feOffset dy="2" in="shadowSpreadOuter1" result="shadowOffsetOuter1"/>
            <feGaussianBlur in="shadowOffsetOuter1" result="shadowBlurOuter1" stdDeviation="7.5"/>
            <feColorMatrix in="shadowBlurOuter1" values="0 0 0 0 0 0 0 0 0 0 0 0 0 0 0 0 0 0 0.5 0"/>
        </filter>
        <linearGradient id="f" x1="51.58%" x2="86.877%" y1="50.934%" y2="71.756%">
            <stop offset="0%" stop-color="#FFF" stop-opacity=".1"/>
            <stop offset="30.38%" stop-color="#F0F0F6" stop-opacity=".373"/>
            <stop offset="100%" stop-color="#CECDE3"/>
        </linearGradient>
        <path id="e" d="M357.188 0h-40.625c-4 31.875.562 65.125-14.688 95.625-10.625 21.25-28.125 40-50 50-15.625 7.5-33.125 5.625-50 3.75-45.625-5-91.25-21.875-135.625-7.5-.313.063-.625.188-.938.313v34.25c0 7.5 6.063 13.625 13.626 13.625H357.25c7.5 0 13.625-6.063 13.625-13.625V13.625C370.812 6.062 364.687 0 357.187 0z"/>
        <filter id="d" width="127.2%" height="143.7%" x="-13.6%" y="-16%" filterUnits="objectBoundingBox">
            <feMorphology in="SourceAlpha" radius=".5" result="shadowSpreadOuter1"/>
            <feOffset dy="11" in="shadowSpreadOuter1" result="shadowOffsetOuter1"/>
            <feGaussianBlur in="shadowOffsetOuter1" result="shadowBlurOuter1" stdDeviation="12.5"/>
            <feColorMatrix in="shadowBlurOuter1" values="0 0 0 0 0.33423913 0 0 0 0 0.33423913 0 0 0 0 0.33423913 0 0 0 0.5 0"/>
        </filter>
    </defs>
    <g fill="none" fill-rule="evenodd">
        <path fill="#5B90F6" fill-rule="nonzero" d="M102.063 37.688C87.25 60 84.374 89.188 67 109.624c-10.313 12.125-24.75 19.875-36.625 30.5-25.688 23.063-37.688 62.125-24.5 94 8.688 21 26.813 36.938 46.813 47.563 58.312 31 132.812 19.812 188.187-16.125C253.313 257.5 265.25 248.125 279.5 244c21.813-6.313 45 .688 67.25 5.313 20.125 4.187 40.938 6.5 61.25 3.125 20.313-3.375 40.125-12.688 53.125-28.563 9.75-11.875 15.25-26.688 18.438-41.625 8.187-37.875 2.125-79.313-19.875-111.25-22-31.875-60.563-52.688-99.188-49.938-29.375 2.125-58 17-87.063 12.125-19.375-3.25-36.062-15-53.75-23.562-38-18.5-93.25-8.688-117.625 28.063z"/>
        <g transform="translate(45 50.625)">
            <ellipse cx="76.938" cy="281.125" fill="url(#a)" fill-rule="nonzero" rx="76.938" ry="7.375"/>
            <g fill-rule="nonzero">
                <use fill="#000" filter="url(#b)" xlink:href="#c"/>
                <use fill="#FFF" xlink:href="#c"/>
            </g>
            <g fill-rule="nonzero">
                <use fill="#000" filter="url(#d)" xlink:href="#e"/>
                <use fill="url(#f)" xlink:href="#e"/>
            </g>
            <path fill="#CECDE3" fill-rule="nonzero" d="M141.563 101.875h-39.938a6.562 6.562 0 0 1-6.563-6.563V34.126a6.562 6.562 0 0 1 6.563-6.563h39.938a6.562 6.562 0 0 1 6.562 6.563v61.188a6.562 6.562 0 0 1-6.563 6.562z"/>
            <g fill-rule="nonzero">
                <path fill="#754B3F" d="M93.5 273.688c.938.062 1.875.187 2.75.25.313-1.875.75-3.813 1.063-5.688-1.25.188-2.5.438-3.688.563.063 2.5.375 4.937-.125 4.875z"/>
                <path fill="#491E11" d="M93.688 268.813c1.187-.125 2.437-.375 3.687-.563.313-1.563.5-3.125.625-4.688-3.813-2.062-4.313 1.75-4.313 5.25z"/>
                <path fill="#754B3F" d="M54.813 269.5c-.25 2.813-.25 5.375-.626 5.375.876 0 1.688 0 2.563.063.25 0 .5 0 .75-.125.188-.125.313-.438.375-.688.438-1.5.875-3.063 1.313-4.563-1.5-.125-2.938-.187-4.376-.062z"/>
                <path fill="#491E11" d="M57.75 262.125c-2 .5-2.688 4.125-2.938 7.375 1.438-.188 2.876-.063 4.376 0a308.143 308.143 0 0 0 2-7.188c-1.126-.25-2.313-.437-3.438-.187z"/>
                <path fill="#395FA4" d="M90.563 194c-6.813 0-12.938 4.688-19.75 4.438.062-3.375.062-6.75-.188-10.125 1.313 0 2.688 0 4-.188 2.625-.375 5.125-1.375 7.688-2 1.687-.438 4.312-3.813 5.75-2.375 1.437 1.375 2.562 8.375 2.5 10.25z"/>
                <path fill="#35485E" d="M93.125 263.75c-.563.563-.75 1.438-.938 2.313-.062.312-.062.625-.124.937 1.75-.188 5.5 0 7.25-.188 3.25-8.937 4.624-18.312 7.874-27.25.813-2.125 1.563-4.312 1.75-6.625-.624.875-1.124 1.688-1.5 2.625-3.687 10.688-4.937 20.688-14.312 28.188z"/>
                <path fill="#395FA4" d="M99.375 231.25c.938 1-.375-1.313 0 0z"/>
                <path fill="#395FA4" d="M107.813 226.125c-3.126-9.313-6.813-18.375-11.563-27-4.813-8.75-7.5-12.375-18-9.688.313 3.438 1.438 7.563 3.063 11.938 4.562 8.063 11.5 16.125 14 25.125 1.374 1.813 4 6.563 5.312 7.875-.375-1.313-.313-2.125-1.25-3.125.25.938.313 2.813 0 3.75-5.5 16.438-5.625 18.625-7.188 31.063.126-.875.313-1.75.938-2.313 9.375-7.5 10.625-17.5 14.375-28.125.375-.875.875-1.75 1.5-2.625 0-.25.063-.563.063-.813 0-2.062-.626-4.062-1.25-6.062z"/>
                <path fill="#395FA4" d="M95.313 226.5c-2.5-9.063-9.438-17.063-14-25.125 3.312 8.75 8.812 18.375 14 25.125z"/>
                <path fill="#35485E" d="M60.5 268.313c1.5-10 4.438-19.688 7.75-29.25-4.125 9.812-8.375 19.625-13.125 29.125 1.75.062 3.563.125 5.375.125z"/>
                <path fill="#395FA4" d="M57.125 244.75c-1.375 7.813-2.438 15.625-3.313 23.5h1.25c4.75-9.5 9-19.313 13.126-29.125 5-14.563 12.312-27.688 14.937-42.875.375-2.125-.875-5.625-1.5-7.75-.5-1.688-1.313-2.75-2.375-3.375-9.438 13.25-14.875 28.875-19.188 44.625-1.124 5-2.062 10-2.937 15z"/>
                <path fill="#35485E" d="M70.938 188.813c-2.313 4.562-3.126 10.812-4.563 15.687-2.375 8.375-4.5 16.813-6.313 25.313 4.376-15.75 9.75-31.375 19.188-44.625-2.688-1.563-6.625.25-8.313 3.625z"/>
                <path fill="#491E11" d="M99.375 145c-.25-.188-.563-.375-.875-.563-.313.813-.625 1.625-1 2.438.375-.813.688-1.625 1-2.438-1.625-.875-3.625-1.312-5.375-1.937 0 .063-.063.063-.063.125-1 2.313-1 3 1.188 4.563.375.312 4.938 2.75 5.188 2.062 4.624-12.063 6-25.063 6.812-38-2.313 11-3.563 22.563-7.75 33.188.313.187.625.375.875.562z"/>
                <path fill="#754B3F" d="M103.938 102.125c-1.126 9.313-3.126 18.563-6 27.5a161.381 161.381 0 0 1-4.876 12.938c1.813.625 3.75 1.062 5.376 1.937 4.187-10.563 5.437-22.125 7.75-33.188.187-2.937.312-5.812.5-8.75-.876-.187-1.813-.312-2.75-.437z"/>
                <path fill="#491E11" d="M59.375 173.75a7.96 7.96 0 0 1-1.188.813v1.75c1.688-.5 3.188-1 4.313-1.313 1.625-.438-1.938.438-1.125-1 .375-.688.5-1.5.563-2.313.062-1.687-.376-3.437-1.126-4.937-1.25-2.438-1.687-2.688-3.812-1.625-.188.125-.375.188-.563.313.438 2.937 1.626 5.937 1.75 9.125.438-.25.813-.5 1.188-.813z"/>
                <path fill="#491E11" d="M58.188 174.563c-4.813 3.062-10.5 3.687-15.688 4.812 1.188 0 2.875 0 4.125.5 2.875-.813 7.625-2.375 11.563-3.625a7.617 7.617 0 0 0 0-1.688z"/>
                <path fill="#754B3F" d="M72.875 193.875c-9.25-4.688-17.5-9-26.625-13.875.125 0 .25-.063.375-.125-1.25-.5-2.938-.5-4.125-.5 5.188-1.125 10.938-1.813 15.688-4.813-.126-3.187-1.313-6.187-1.75-9.125-3.188 1.688-6.376 3.875-9.438 5.688-5.125 3.063-9.688 7.125-13.375 11.875 4.5 2.625 9.125 5 13.938 7 8.187 2.688 16.25 5.375 25.062 5.563.125-.5.188-1.125.25-1.688z"/>
                <path fill="#491E11" d="M72.625 195.625c-8.813-.188-16.875-2.938-25.063-5.563 8 3.375 16.313 5.813 24.876 7.313.062-.625.124-1.188.187-1.75zM78.938 146.375c-1.188-3.438-3.75-2.375-3.876.688v2.312c1.563-.188 2.938-1.063 4.188-2.25-.125-.25-.188-.5-.313-.75z"/>
                <path fill="#754B3F" d="M75.063 149.375c0 3.375-.126 9.125-.5 9.188 2.75-.375 5.874-1.25 8.562-1.688-1.25-2.5-2.75-6.313-3.875-9.688-1.188 1.125-2.625 2-4.188 2.188z"/>
                <path fill="#F5EA61" d="M71.25 180c-1.563-.375-2.875-2-3.813-4.063.438 2.25 1.126 4.438 1.626 6.75 1.874 2.625 4.374 4.875 5.937 7.5l13.438-1.625c-4.438-4-10.626-6.5-17.188-8.562z"/>
                <path fill="#C7BE4F" d="M70.188 190.75l4.812-.563c-1.563-2.625-4.063-4.875-5.938-7.5.626 2.375 1.063 5 1.126 8.063z"/>
                <path fill="#F8EF89" d="M83.5 155.313c-.125.187-.188.375-.313.562l-.937.188c-.125.062-.25.125-.313.187.126-.063.25-.125.313-.188l-5.938 1.188c.188.563.188 1.063-.562.125h-.125v-.25l-.188-.188c-2.374 3.563-5.374 6.563-8.187 9.813-.5 3.563-.25 6.438.313 9.188.937 2.062 2.25 3.687 3.812 4.062 6.563 2.063 12.75 4.563 17.188 8.563l1.562-.188c.063-7.938 4.063-15.313 4.625-23.188.125-1.937.063-4 .875-5.75.5-1.125 1.375-2.062 2.125-3a28.539 28.539 0 0 0 4.313-7.437l-4.626-2.563c-3.937 3.625-9.062 6-13.937 8.875z"/>
                <path fill="#F5EA61" d="M91.875 143.375c-4.188 4.938-5.688 7.313-8.375 11.938 4.875-2.813 10-5.188 13.813-8.875l-5.438-3.063z"/>
                <path fill="#F8EF89" d="M57.188 164.938c.874 4.312 2.562 8.437 4.874 12.125 2.25-1.563 4.563-3.125 7.188-3.813 1-.313 2.125-.438 3-1.063.938-.625 1.5-1.687 2.063-2.75 1.75-3.25 7.25-13.812-.75-12.25-2.938.563-6 1.688-8.75 2.875-.938.438-7.876 3.625-7.626 4.875z"/>
                <path fill="#754B3F" d="M78.125 160.938c.875 1.062 1.625 1.75 2.5 2.812 2.5 3.125 4.125 4.625 4.375 5.625-.625-3.75-1.188-7.75-1.25-10-.063-1.375.063-2-.625-3.125-1.25-2-7.188-.063-8.25.75.938 1.375 2.188 2.688 3.25 3.938zM96.75 102.25c-.438.063-.938.25-.938.625s.438.625.876.688c2.687.687 5.312 1.374 8 2.062a.867.867 0 0 0 .562 0c2.125-1-.625-3.125-1.438-3.375-2-.688-5.062-.25-7.062 0z"/>
                <path fill="#F8EF89" d="M101.188 272.375c-.126 0-.188-.063-.313-.063-2.25-.625-6.063-.812-8 .875-.813.688-1.188 1.938-1 2.938 2.5-.625 5.375-.688 7.875-2.313.625-.375 1.063-.875 1.438-1.437z"/>
                <path fill="#C7BE4F" d="M108.563 276.5c-2.25-1.75-4.626-3.313-7.376-4.063-.437.5-.812 1.063-1.437 1.438-2.5 1.625-5.375 1.688-7.875 2.313.125.937.75 1.687 1.875 1.875 1.625.25 2.813-1.625 4.438-1.875 1.562-.25 2.874 1 4.25 1.875 1.812 1.125 4.062 1.437 6.124.937.25-.063.563-.188.75-.375.626-.688-.062-1.625-.75-2.125z"/>
                <path fill="#F8EF89" d="M55.563 278.5c2.437.25 4.562 0 4.374-2.25-.374-3.938-9.062-2.5-11.187-2.375-1.5.125-3 .188-4.375.75-.625.25-1.25.563-1.813.938 4.563-1 8.813.812 13 2.937z"/>
                <path fill="#C7BE4F" d="M42.5 275.625l-.563.375c-.5.313-1 .75-1 1.313 0 .5.438.812.813 1.062 1.375.813 3.063 1 4.563.5 1-.313 1.874-.938 2.874-1.188.938-.25 3.75.563 6.25.813-4.062-2.125-8.312-3.938-12.937-2.875z"/>
                <path fill="#754B3F" d="M75.25 194.75c1.25.063 2.5.5 3.5 1.25.125.063.25.188.188.313 0 .125-.188.187-.376.25a6.828 6.828 0 0 1-2.75-.375c.938.437 1.813 1.187 2.438 2a3.45 3.45 0 0 1-3-1.188c.563.875 1.188 1.75 1.75 2.625-1.25.125-2.313-.813-3.188-1.75.438.813.876 1.625 1.313 2.375-.875.25-1.75-.5-2.375-1.188a23.239 23.239 0 0 1-2.063-2.812c-.062-.125-.124-.25-.124-.375.062-1.375 3.062-2.188 4.124-2.625.5-.188 1.876-1.125 2.376-.813.75.688-1.438 2-1.813 2.313z"/>
                <path fill="#491E11" d="M80 126.25c-.5-.813-.438-.875-1.25-1.25-2.188-1.063-4.75-.25-7.188-.188-1.187.063-2.374.25-3.312.876-1.375.937-2.125 2.187-2.375 3.624 4.688-1.875 9.688-1.875 14.688-1.937-.25-.5-.438-.938-.563-1.125z"/>
                <path fill="#754B3F" d="M80.5 127.375c-5 .125-9.938.063-14.688 1.938-.874 4.75 3.25 11.5 5.626 14.187 1.374 1.563 3.437 2.938 5.374 2.188a4.013 4.013 0 0 0 1.563-1.125c1.313-1.375 2-3.25 2.438-5.125.75-3.125.937-6.375.5-9.563 0-.375-.438-1.563-.813-2.5z"/>
                <path fill="#F8EF89" d="M68.5 138.938l-1.938-1.875a5.546 5.546 0 0 0 1.938 1.875z"/>
                <path fill="#F8EF89" d="M72.063 127.563c4.25-.876 8.374-2.563 12.062-4.876-2.875-1.124-6.188-1.25-9.125-.437-.25.063-.5.125-.75 0-.063-.063-3 .875-3 .813-5 1.124-5.5 4.874-6.188 10.062.126.563.25 1.188.438 1.75.25.75.625 1.5 1.063 2.188l1.937 1.875c-.813-.438-1.438-1.125-1.938-1.875l-.312-.313c1.5 2.563 3.563 4.875 6 6.563-1.25-3.063-2.25-6.188-2.875-9.438.688.75 1.563 1.25 2.5 1.563.25-2.188-.5-4.438-2-6 1.063.312 2.063.562 3.125.875-.063-.938-.375-1.938-.938-2.75z"/>
                <path fill="#F8EF89" d="M65.125 133.5c-.375-1.688-.438-3.438.188-5.063.25-.625.562-1.25.937-1.875.375-.687.813-1.374 1.438-1.874.624-.5 1.374-.876 2.124-1.188.876-.375 1.75-.75 2.688-1.063 1.688-.5 3.5-.687 5.25-.624.813 0 1.688.124 2.438.562-1.813.063-3.5.688-5.188 1.313-1.25.437-2.438.937-3.563 1.624-2.062 1.25-3.687 3.25-4.437 5.563-.75 2.188-.625 4.438-.063 6.625-.874-1.25-1.5-2.625-1.812-4z"/>
                <path fill="#F8EF89" d="M64.375 122.25c-.813 1.875-.688 4.063.25 5.875-2.25.438-4.438 1.188-6.5 2.125 1.75-.125 3.438-.188 5.188-.125-1.626 1.063-2.876 2.688-3.376 4.563.25-.813 2.688-2.188 3.438-2.625.625-.375 1.25-.688 1.875-1 .938-.5.75-.688.75-1.75.063-1.313-.188-1.688-.813-2.75-.75-1.25-1-2.876-.812-4.313z"/>
                <path fill="#35485E" d="M81.5 203.125c.563-1.625 1.188-3.313 1.75-4.938-.375 2.375-.563 4.875-.438 7.25-.374-1-.75-2-1.124-3.062-.063-.125-.126-.25-.188-.188-.125 0 0 .25.063.125M100.375 237.313a4.435 4.435 0 0 0-.813-1.375c-.124-.188-.25-.375-.312-.563 0-.125.063-.313.063-.438.124-.5.124-1 .25-1.437.312.438.312 1.188.437 1.688.063.375.125.687.188 1.062.124.313.062.813.187 1.063z"/>
                <path fill="#C7BE4F" d="M66.438 134.813c-.25.25-.188.687 0 1 .187.312.5.5.812.75.5.312.938.687 1.438 1 .312.25.687.5 1.124.562H70c.125-.063.063-.25 0-.313-.375-.812-.938-1.625-1.563-2.312-.062-.063-.187-.188-.312-.25-.125-.063-.313-.063-.438-.125-.437-.188-.75-.875-1.25-.313z"/>
                <path fill="#754B3F" d="M67.375 133.063c-.25.125-.438.437-.5.687-.25.938.313 1.875.938 2.625.312.375.687.75 1.062 1.125.25.25.5.438.813.563.312.125.687.125.937-.125 1-1-1.75-5.688-3.25-4.875z"/>
            </g>
            <path fill="#CECDE3" fill-rule="nonzero" d="M342.813 171.25h-165a6.562 6.562 0 0 1-6.563-6.563V34.063a6.562 6.562 0 0 1 6.563-6.562H342.75a6.563 6.563 0 0 1 6.563 6.563v130.562a6.485 6.485 0 0 1-6.5 6.625z"/>
            <path fill="#6D93B4" fill-rule="nonzero" d="M233.063 63.313h-12.75a6.562 6.562 0 0 1-6.563-6.563V41.437a6.562 6.562 0 0 1 6.563-6.562h12.75a6.562 6.562 0 0 1 6.562 6.563V56.75a6.562 6.562 0 0 1-6.563 6.563zM266 63.313h-12.75a6.562 6.562 0 0 1-6.563-6.563V41.437a6.562 6.562 0 0 1 6.563-6.562H266a6.562 6.562 0 0 1 6.563 6.563V56.75A6.562 6.562 0 0 1 266 63.313zM298.875 63.313h-12.75a6.562 6.562 0 0 1-6.563-6.563V41.437a6.562 6.562 0 0 1 6.563-6.562h12.75a6.562 6.562 0 0 1 6.563 6.563V56.75c.062 3.625-2.938 6.563-6.563 6.563zM331.813 63.313h-12.75a6.562 6.562 0 0 1-6.563-6.563V41.437a6.562 6.562 0 0 1 6.563-6.562h12.75a6.562 6.562 0 0 1 6.562 6.563V56.75a6.562 6.562 0 0 1-6.563 6.563zM233.625 96.188h-12.75a6.562 6.562 0 0 1-6.563-6.563V74.312a6.562 6.562 0 0 1 6.563-6.562h12.75a6.562 6.562 0 0 1 6.563 6.563v15.312a6.562 6.562 0 0 1-6.563 6.563zM266.563 96.188h-12.75a6.562 6.562 0 0 1-6.563-6.563V74.312a6.562 6.562 0 0 1 6.563-6.562h12.75a6.562 6.562 0 0 1 6.562 6.563v15.312a6.562 6.562 0 0 1-6.563 6.563zM299.438 96.188h-12.75a6.562 6.562 0 0 1-6.563-6.563V74.312a6.562 6.562 0 0 1 6.563-6.562h12.75A6.562 6.562 0 0 1 306 74.313v15.312a6.562 6.562 0 0 1-6.563 6.563zM332.375 96.188h-12.75a6.562 6.562 0 0 1-6.563-6.563V74.312a6.562 6.562 0 0 1 6.563-6.562h12.75a6.562 6.562 0 0 1 6.563 6.563v15.312a6.562 6.562 0 0 1-6.563 6.563zM233.625 130.25h-12.75a6.562 6.562 0 0 1-6.563-6.563v-15.312a6.562 6.562 0 0 1 6.563-6.563h12.75a6.562 6.562 0 0 1 6.563 6.563v15.313a6.562 6.562 0 0 1-6.563 6.562zM266.563 130.25h-12.75a6.562 6.562 0 0 1-6.563-6.563v-15.312a6.562 6.562 0 0 1 6.563-6.563h12.75a6.562 6.562 0 0 1 6.562 6.563v15.313a6.562 6.562 0 0 1-6.563 6.562zM299.438 130.25h-12.75a6.562 6.562 0 0 1-6.563-6.563v-15.312a6.562 6.562 0 0 1 6.563-6.563h12.75a6.562 6.562 0 0 1 6.562 6.563v15.313a6.562 6.562 0 0 1-6.563 6.562zM332.375 130.25h-12.75a6.562 6.562 0 0 1-6.563-6.563v-15.312a6.562 6.562 0 0 1 6.563-6.563h12.75a6.562 6.562 0 0 1 6.563 6.563v15.313a6.562 6.562 0 0 1-6.563 6.562zM233.625 163.688h-12.75a6.562 6.562 0 0 1-6.563-6.563v-15.25a6.562 6.562 0 0 1 6.563-6.563h12.75a6.562 6.562 0 0 1 6.563 6.563v15.313c0 3.562-2.938 6.5-6.563 6.5zM199.938 62.688h-12.75a6.562 6.562 0 0 1-6.563-6.563V40.812a6.562 6.562 0 0 1 6.563-6.562h12.75a6.562 6.562 0 0 1 6.562 6.563v15.312a6.562 6.562 0 0 1-6.563 6.563zM200.5 95.563h-12.75A6.562 6.562 0 0 1 181.187 89V73.687a6.562 6.562 0 0 1 6.563-6.562h12.75a6.562 6.562 0 0 1 6.563 6.563V89a6.562 6.562 0 0 1-6.563 6.563zM200.5 129.625h-12.75a6.562 6.562 0 0 1-6.563-6.563V107.75a6.562 6.562 0 0 1 6.563-6.563h12.75a6.562 6.562 0 0 1 6.563 6.563v15.313a6.562 6.562 0 0 1-6.563 6.562zM200.5 163.063h-12.75a6.562 6.562 0 0 1-6.563-6.563v-15.25a6.562 6.562 0 0 1 6.563-6.563h12.75a6.562 6.562 0 0 1 6.563 6.563v15.313c0 3.562-2.938 6.5-6.563 6.5zM266.563 163.688h-12.75a6.562 6.562 0 0 1-6.563-6.563v-15.25a6.562 6.562 0 0 1 6.563-6.563h12.75a6.562 6.562 0 0 1 6.562 6.563v15.313c0 3.562-2.938 6.5-6.563 6.5zM299.438 163.688h-12.75a6.562 6.562 0 0 1-6.563-6.563v-15.25a6.562 6.562 0 0 1 6.563-6.563h12.75a6.562 6.562 0 0 1 6.562 6.563v15.313c0 3.562-2.938 6.5-6.563 6.5zM332.375 163.688h-12.75a6.562 6.562 0 0 1-6.563-6.563v-15.25a6.562 6.562 0 0 1 6.563-6.563h12.75a6.562 6.562 0 0 1 6.563 6.563v15.313c0 3.562-2.938 6.5-6.563 6.5z"/>
            <g fill-rule="nonzero" transform="translate(76.25 10)">
                <circle cx="3.875" cy="4.25" r="3.875" fill="#F5EA61"/>
                <circle cx="18.5" cy="4.25" r="3.875" fill="#F8EF89"/>
                <circle cx="32.375" cy="4.25" r="3.875" fill="#FAF4B0"/>
            </g>
            <g fill-rule="nonzero">
                <path fill="#35485E" d="M233.313 79.5h-12.438a1.52 1.52 0 0 1-1.5-1.5c0-.813.688-1.5 1.5-1.5h12.438c.812 0 1.5.688 1.5 1.5 0 .875-.688 1.5-1.5 1.5zM225.875 85.438h2.375v4.75h-2.375z"/>
                <path fill="#56758F" d="M221.125 74.75v2.688c0 2.5.938 4.874 2.563 6.75l2.187 2.437h2.375l2.188-2.438c1.625-1.874 2.562-4.25 2.562-6.75V74.75l-3.563-4.125h-4.75l-3.562 4.125zM233.625 93.75H220a5.308 5.308 0 0 1 5.313-5.313h2.937c2.938 0 5.375 2.376 5.375 5.313z"/>
            </g>
            <g fill-rule="nonzero">
                <path fill="#35485E" d="M332.313 48h-12.125a1.414 1.414 0 0 1-1.438-1.438c0-.812.625-1.437 1.438-1.437h12.125c.812 0 1.437.625 1.437 1.438 0 .812-.625 1.437-1.438 1.437zM325.125 53.813h2.313v4.625h-2.313z"/>
                <path fill="#56758F" d="M320.5 46c0 2.438.875 4.75 2.5 6.563l2.125 2.374h2.313l2.125-2.374a9.768 9.768 0 0 0 2.5-6.563v-2.563L329.125 40a1.79 1.79 0 0 0-1.375-.625h-3c-.5 0-1 .25-1.375.625l-1.25 1.438c-1.063 1.25-1.625 2.874-1.625 4.562zM332.625 61.875h-13.25a5.175 5.175 0 0 1 5.188-5.188h2.875c2.812 0 5.187 2.313 5.187 5.188z"/>
            </g>
            <g fill-rule="nonzero">
                <path fill="#35485E" d="M299.188 146.75h-12.125a1.414 1.414 0 0 1-1.438-1.438c0-.812.625-1.437 1.438-1.437h12.125c.812 0 1.437.625 1.437 1.438 0 .812-.625 1.437-1.438 1.437zM292 152.563h2.313v4.625H292z"/>
                <path fill="#35485E" d="M287.375 144.75c0 2.438.875 4.75 2.5 6.563l2.125 2.375h2.313l2.125-2.375a9.768 9.768 0 0 0 2.5-6.563v-2.563L296 138.75a1.79 1.79 0 0 0-1.375-.625h-3c-.5 0-1 .25-1.375.625l-1.25 1.438c-1.063 1.25-1.625 2.875-1.625 4.562z"/>
                <path fill="#56758F" d="M299.5 160.625h-13.25a5.175 5.175 0 0 1 5.188-5.188h2.875c2.812 0 5.187 2.313 5.187 5.188z"/>
            </g>
            <g fill-rule="nonzero">
                <path fill="#35485E" d="M233.438 146.875h-13.125a1.547 1.547 0 0 1-1.563-1.563c0-.875.688-1.562 1.563-1.562h13.125c.875 0 1.562.688 1.562 1.563s-.688 1.562-1.563 1.562z"/>
                <path fill="#56758F" d="M225.625 153.125h2.5v5h-2.5z"/>
                <path fill="#56758F" d="M220.625 144.688c0 2.625.938 5.125 2.688 7.125l2.312 2.562h2.5l2.313-2.563c1.75-1.937 2.687-4.5 2.687-7.125 0-1.812-.625-3.562-1.813-4.937l-.312-.375c-1.063-1.188-2.563-1.875-4.125-1.875-1.563 0-3.125.688-4.125 1.875l-.313.375c-1.187 1.375-1.812 3.125-1.812 4.938zM233.75 161.875h-14.375c0-3.125 2.5-5.625 5.625-5.625h3.125c3.125 0 5.625 2.5 5.625 5.625z"/>
            </g>
            <g fill-rule="nonzero">
                <path fill="#35485E" d="M334.063 146.875h-13.125a1.547 1.547 0 0 1-1.563-1.563c0-.875.688-1.562 1.563-1.562h13.125c.875 0 1.562.688 1.562 1.563s-.688 1.562-1.563 1.562zM326.25 153.125h2.5v5h-2.5z"/>
                <path fill="#56758F" d="M321.25 141.875v2.813c0 2.625.938 5.125 2.688 7.125l2.312 2.562h2.5l2.313-2.563c1.75-1.937 2.687-4.5 2.687-7.125v-2.812L330 137.5h-5l-3.75 4.375zM334.375 161.875H320c0-3.125 2.5-5.625 5.625-5.625h3.125c3.125 0 5.625 2.5 5.625 5.625z"/>
            </g>
            <g fill-rule="nonzero">
                <path fill="#56758F" d="M186.875 44.375h14.375V57.5h-14.375z"/>
                <path fill="#35485E" d="M188.125 44.375c0 2.438.813 4.813 2.313 6.688l2.062 2.687h3.125l2.063-2.688c1.5-1.937 2.312-4.25 2.312-6.687h-11.875z"/>
                <path fill="#56758F" d="M200.625 44.375H186.25h.625c0-4.5 3.188-8.125 7.188-8.125 3.937 0 7.187 3.625 7.187 8.125h-.625z"/>
                <path fill="#35485E" d="M200.625 60.625H187.5a4.348 4.348 0 0 1 4.375-4.375h4.375a4.348 4.348 0 0 1 4.375 4.375z"/>
                <path fill="#35485E" d="M192.5 53.125h3.125V57.5H192.5z"/>
            </g>
            <g fill-rule="nonzero">
                <path fill="#35485E" d="M286.25 77.5h14.375v13.125H286.25z"/>
                <path fill="#56758F" d="M287.5 77.5c0 2.438.813 4.813 2.313 6.688l2.062 2.687H295l2.063-2.688c1.5-1.937 2.312-4.25 2.312-6.687H287.5z"/>
                <path fill="#35485E" d="M300 77.5h-14.375.625c0-4.5 3.188-8.125 7.188-8.125 3.937 0 7.187 3.625 7.187 8.125H300z"/>
                <path fill="#56758F" d="M300 93.75h-13.125a4.348 4.348 0 0 1 4.375-4.375h4.375A4.348 4.348 0 0 1 300 93.75z"/>
                <path fill="#56758F" d="M291.875 86.25H295v4.375h-3.125z"/>
            </g>
            <g fill-rule="nonzero">
                <path fill="#35485E" d="M268.125 151.875l-14.375 5V145h14.375z"/>
                <path fill="#56758F" d="M255 145c0 2.438.813 4.813 2.313 6.688l2.062 2.687h3.125l2.063-2.688c1.5-1.937 2.312-4.25 2.312-6.687H255z"/>
                <path fill="#35485E" d="M267.5 145h-14.375.625c0-4.5 3.188-8.125 7.188-8.125 3.937 0 7.187 3.625 7.187 8.125h-.625zM267.5 161.25h-13.125a4.348 4.348 0 0 1 4.375-4.375h4.375a4.348 4.348 0 0 1 4.375 4.375z"/>
                <path fill="#56758F" d="M260.938 158.125a1.547 1.547 0 0 1-1.563-1.563v-2.812h3.125v2.813c0 .875-.688 1.562-1.563 1.562z"/>
            </g>
            <g fill-rule="nonzero" transform="translate(252.5 68.75)">
                <path fill="#35485E" d="M6.25 17.5h3.125v3.75H6.25zM13.438 11.875H1.562a.961.961 0 0 1-.937-.938c0-.5.438-.937.938-.937h11.874c.5 0 .938.438.938.938 0 .5-.438.937-.938.937z"/>
                <circle cx="6.563" cy="3.438" r="3.438" fill="#56758F"/>
                <path fill="#56758F" d="M1.875 8.75v5l4.375 5h3.125l3.75-5V9.375L10 5l-5.063.813z"/>
                <path fill="#35485E" d="M13.125 9.375H1.875v-1.25A4.348 4.348 0 0 1 6.25 3.75h2.5a4.348 4.348 0 0 1 4.375 4.375v1.25z"/>
                <path fill="#56758F" d="M16.25 26.25H0C0 22.812 2.813 20 6.25 20H10c3.438 0 6.25 2.813 6.25 6.25z"/>
            </g>
            <g fill-rule="nonzero" transform="translate(319.375 104.375)">
                <path fill="#35485E" d="M5.5 16h2.75v3.313H5.5zM11.875 11.063h-10.5a.827.827 0 0 1-.813-.813c0-.438.375-.813.813-.813h10.5c.438 0 .813.376.813.813 0 .438-.313.813-.813.813z"/>
                <circle cx="5.813" cy="3.563" r="3.063" fill="#35485E"/>
                <path fill="#35485E" d="M1.688 8.25v1.688c0 1.75.625 3.437 1.812 4.812l2.063 2.375h2.75l1.874-2.5c.938-1.25 1.438-2.813 1.438-4.375V8.812l-2.75-3.874-4.438.75-2.75 2.562z"/>
                <path fill="#56758F" d="M11.625 8.813H1.687v-.626a4.348 4.348 0 0 1 4.375-4.374H7.25a4.348 4.348 0 0 1 4.375 4.374v.626zM14.375 23.75H0c0-3.063 2.5-5.5 5.5-5.5h3.313c3.062 0 5.562 2.438 5.562 5.5z"/>
            </g>
            <g fill-rule="nonzero" transform="translate(219.375 105)">
                <path fill="#35485E" d="M6.25 14.375h3.125v3.75H6.25zM13.438 8.75H1.562a.961.961 0 0 1-.937-.938c0-.5.438-.937.938-.937h11.874c.5 0 .938.438.938.938 0 .5-.438.937-.938.937z"/>
                <circle cx="1.875" cy="1.875" r="1.875" fill="#35485E"/>
                <circle cx="13.75" cy="1.875" r="1.875" fill="#35485E"/>
                <path fill="#56758F" d="M1.875 5.625v.063c0 3.187 1.125 6.25 3.25 8.625l1.125 1.312h3.125l1.125-1.5a13.246 13.246 0 0 0 2.625-7.875L10 1.875l-5.063.813-3.062 2.937z"/>
                <path fill="#35485E" d="M13.125 6.25H1.875V5A4.348 4.348 0 0 1 6.25.625h2.5A4.348 4.348 0 0 1 13.125 5v1.25z"/>
                <path fill="#56758F" d="M16.25 23.125H0c0-3.438 2.813-6.25 6.25-6.25H10c3.438 0 6.25 2.813 6.25 6.25z"/>
            </g>
            <g fill-rule="nonzero">
                <path fill="#35485E" d="M258.125 120h3.75v3.125h-3.75z"/>
                <path fill="#56758F" d="M253.75 115l4.375 5.625h3.75L266.25 115l-1.25-6.25h-9.375z"/>
                <path fill="#35485E" d="M253.75 107.25V115l1.875-5.625H265l1.25 5.625v-7.75a2.867 2.867 0 0 0-2.875-2.875h-6.813c-1.562 0-2.812 1.25-2.812 2.875z"/>
                <path fill="#56758F" d="M266.875 128.125h-13.75v-1.375c0-2.375 1.938-4.25 4.25-4.25h5.25c2.375 0 4.25 1.938 4.25 4.25v1.375z"/>
            </g>
            <g fill-rule="nonzero">
                <path fill="#35485E" d="M324.375 86.25h3.75v3.125h-3.75z"/>
                <path fill="#56758F" d="M320 81.25l4.375 5.625h3.75l4.375-5.625-1.25-6.25h-9.375z"/>
                <path fill="#35485E" d="M320 73.5v7.75l1.875-5.625h9.375l1.25 5.625V73.5a2.867 2.867 0 0 0-2.875-2.875h-6.813c-1.562 0-2.812 1.25-2.812 2.875z"/>
                <path fill="#56758F" d="M333.125 94.375h-13.75V93c0-2.375 1.938-4.25 4.25-4.25h5.25c2.375 0 4.25 1.938 4.25 4.25v1.375z"/>
            </g>
            <g fill-rule="nonzero">
                <path fill="#35485E" d="M192.5 85.625h3.75v3.125h-3.75z"/>
                <path fill="#35485E" d="M188.125 80.625l4.375 5.625h3.75l4.375-5.625-1.25-6.25H190z"/>
                <path fill="#56758F" d="M188.125 72.875v7.75L190 75h9.375l1.25 5.625v-7.75A2.867 2.867 0 0 0 197.75 70h-6.813c-1.562 0-2.812 1.25-2.812 2.875zM201.25 93.75H187.5v-1.375c0-2.375 1.938-4.25 4.25-4.25H197c2.375 0 4.25 1.938 4.25 4.25v1.375z"/>
            </g>
            <g fill-rule="nonzero">
                <path fill="#35485E" d="M258.125 53.125h3.75v3.125h-3.75z"/>
                <path fill="#35485E" d="M253.75 48.125l4.375 5.625h3.75l4.375-5.625-1.25-6.25h-9.375z"/>
                <path fill="#56758F" d="M253.75 40.375v7.75l1.875-5.625H265l1.25 5.625v-7.75a2.867 2.867 0 0 0-2.875-2.875h-6.813c-1.562 0-2.812 1.25-2.812 2.875zM266.875 61.25h-13.75v-1.375c0-2.375 1.938-4.25 4.25-4.25h5.25c2.375 0 4.25 1.938 4.25 4.25v1.375z"/>
            </g>
            <g fill-rule="nonzero">
                <path fill="#35485E" d="M221.25 45.625V47.5l5 6.875h2.5l5.625-6.875v-1.875L232.5 41.25 223.125 40z"/>
                <path fill="#56758F" d="M222.5 36.875c-.688 0-1.25.563-1.25 1.25v7.5h1.25V42.5h10.625v3.125h1.25v-7.5c0-.688-.563-1.25-1.25-1.25h-2.5"/>
                <path fill="#35485E" d="M226.25 54.375h2.5V57.5h-2.5z"/>
                <path fill="#56758F" d="M234.375 61.25h-13.75V59c0-1.563 1.25-2.75 2.75-2.75h8.188c1.562 0 2.75 1.25 2.75 2.75v2.25h.062z"/>
            </g>
            <g fill-rule="nonzero">
                <path fill="#35485E" d="M187.5 113.125h13.75v2.5H187.5z"/>
                <path fill="#35485E" d="M188.75 112.5v3.125l4.375 5.625h3.125l3.75-5.625V112.5l-1.25-5h-8.125l-1.25.625z"/>
                <path fill="#56758F" d="M188.75 106.875l13.125-3.75L200 112.5h-1.25v-4.375H190l.625 4.375h-1.875zM201.25 127.5h-12.5v-3a2.08 2.08 0 0 1 2.063-2.063h8.437a2.08 2.08 0 0 1 2.063 2.063v3h-.063z"/>
                <path fill="#35485E" d="M194.688 124.375a1.547 1.547 0 0 1-1.563-1.563v-2.187h3.125v2.188c0 .874-.688 1.562-1.563 1.562z"/>
            </g>
            <g fill-rule="nonzero">
                <path fill="#35485E" d="M287.5 49.375h11.25c.688 0 1.25-.563 1.25-1.25 0-.688-.563-1.25-1.25-1.25H287.5c-.688 0-1.25.563-1.25 1.25 0 .688.563 1.25 1.25 1.25z"/>
                <path fill="#35485E" d="M298.75 46.25v3.125L294.375 55h-3.125l-3.75-5.625V46.25l1.25-5h8.125l1.25.625z"/>
                <path fill="#56758F" d="M298.75 40.625L289 37.812c-1.563-.437-3 .938-2.688 2.5l1.188 5.938h1.25v-4.375h8.75l-.625 4.375h1.875v-5.625zM286.25 61.25h12.5v-3a2.08 2.08 0 0 0-2.063-2.063h-8.437a2.08 2.08 0 0 0-2.063 2.063v3h.063z"/>
                <path fill="#35485E" d="M292.813 58.125c.875 0 1.562-.688 1.562-1.563v-2.187h-3.125v2.188c0 .874.688 1.562 1.563 1.562z"/>
            </g>
            <g fill-rule="nonzero">
                <path fill="#35485E" d="M300.625 128.125h-15c0-3.125 2.5-5.625 5.625-5.625H295c3.125 0 5.625 2.5 5.625 5.625zM286.938 115l-1.313 6.25H300l-1.25-6.875"/>
                <path fill="#35485E" d="M285 112.5h15v2.5h-15z"/>
                <path fill="#56758F" d="M286.938 111.875l-.063 5.625 4.375 3.125h3.125l4.375-3.75V112.5l-4.375-5-3.125.625z"/>
                <path fill="#35485E" d="M286.875 112.5h5l1.25-4.375L295 112.5h3.75l-1.875-6.25-5.625-1.875-3.75 3.125z"/>
                <path fill="#56758F" d="M294.375 125a3.095 3.095 0 0 1-3.125-3.125V120h3.125v5z"/>
            </g>
            <g fill-rule="nonzero">
                <path fill="#56758F" d="M202.5 160h-15c0-3.125 2.5-5.625 5.625-5.625h3.75c3.125 0 5.625 2.5 5.625 5.625zM188.813 146.875l-1.313 6.25h14.375l-1.25-6.875"/>
                <path fill="#35485E" d="M200.625 146.875h-12.5c-.688 0-1.25-.563-1.25-1.25 0-.688.563-1.25 1.25-1.25h12.5c.688 0 1.25.563 1.25 1.25 0 .688-.563 1.25-1.25 1.25z"/>
                <path fill="#35485E" d="M188.813 143.75v1.125c-.063 2.813 1.312 5.5 3.625 7.125l.687.5h3.125l1.375-1.188c1.875-1.625 3-4 3-6.5v-.437l-4.375-5-3.125.625-4.313 3.75z"/>
                <path fill="#56758F" d="M188.75 144.375h5L195 140l1.875 4.375h3.75l-1.875-6.25-5.625-1.875-3.75 3.125z"/>
                <path fill="#35485E" d="M196.25 156.875a3.095 3.095 0 0 1-3.125-3.125v-1.875h3.125v5z"/>
            </g>
            <path fill="#35485E" fill-rule="nonzero" d="M329.375 142.5h-6.25a2.507 2.507 0 0 1-2.5-2.5c0-1.375 1.125-2.5 2.5-2.5h11.25c0 2.75-2.25 5-5 5z"/>
            <path fill="#56758F" fill-rule="nonzero" d="M191.875 83.75h5L195 81.875h-1.25z"/>
            <path fill="#35485E" fill-rule="nonzero" d="M225 148.125l-2.563 2.563 3.188 3.687h2.5l3.125-3.75-3.125-2.5z"/>
            <path fill="#56758F" fill-rule="nonzero" d="M225 150.625h3.75v1.25H225z"/>
            <path fill="#35485E" fill-rule="nonzero" d="M326.25 82.5l-5 3.125 5-1.875 4.375 1.875zM332 43.438h-8.063a4.615 4.615 0 0 1-4.625-4.626h8.063A4.615 4.615 0 0 1 332 43.438z"/>
            <path fill="#56758F" fill-rule="nonzero" d="M255.625 42.5l1.875 3.125 1.875-3.125 1.25 2.5 1.875-3.125-5.625-1.25-1.25 2.188M300 143.125h-13.125c0-3.125 2.375-5.625 5.375-5.625h1.813c2.937 0 5.375 2.5 5.375 5.625H300z"/>
            <path fill="#6D93B4" fill-rule="nonzero" d="M119.063 61.25h-15.25c-2.126 0-3.876-1.75-3.876-3.875v-19.75c0-2.125 1.75-3.875 3.876-3.875h15.25c2.124 0 3.874 1.75 3.874 3.875v19.75c-.062 2.125-1.75 3.875-3.874 3.875z"/>
            <path fill="#EFF8FF" fill-rule="nonzero" d="M142.938 37.188h-15.313a1.414 1.414 0 0 1-1.438-1.438c0-.813.626-1.438 1.438-1.438h15.313c.812 0 1.437.626 1.437 1.438 0 .813-.625 1.438-1.438 1.438zM142.938 43h-15.313a1.414 1.414 0 0 1-1.438-1.438c0-.812.626-1.437 1.438-1.437h15.313c.812 0 1.437.625 1.437 1.438 0 .812-.625 1.437-1.438 1.437zM142.313 48.75H132a1.414 1.414 0 0 1-1.438-1.438c0-.812.625-1.437 1.438-1.437h10.313c.812 0 1.437.625 1.437 1.438 0 .812-.625 1.437-1.438 1.437z"/>
            <path fill="#35485E" fill-rule="nonzero" d="M326.625 113.813l1.5-3.813.563 3.813"/>
            <path stroke="#6D93B4" stroke-width="1.25" d="M110.188 95.625h-7.313c-1.25 0-2.313-1-2.313-2.313V86c0-1.25 1-2.313 2.313-2.313h7.313c1.25 0 2.312 1 2.312 2.313v7.313c0 1.312-1 2.312-2.313 2.312zM125.313 95.625H118c-1.25 0-2.313-1-2.313-2.313V86c0-1.25 1-2.313 2.313-2.313h7.313c1.25 0 2.312 1 2.312 2.313v7.313a2.307 2.307 0 0 1-2.313 2.312zM140.438 95.625h-7.313c-1.25 0-2.313-1-2.313-2.313V86c0-1.25 1-2.313 2.313-2.313h7.313c1.25 0 2.312 1 2.312 2.313v7.313a2.307 2.307 0 0 1-2.313 2.312z"/>
            <g fill-rule="nonzero">
                <path fill="#EFF8FF" d="M117.125 59h-11.063v-2.375a2.08 2.08 0 0 1 2.063-2.063h7a2.08 2.08 0 0 1 2.063 2.063V59h-.063z"/>
                <path fill="#CECDE3" d="M111.313 56.188c-.75 0-1.376-.626-1.376-1.376V52.5h2.75v2.313c0 .812-.624 1.374-1.374 1.374zM116 48.438h-10a1.12 1.12 0 0 1-1.125-1.126c0-.624.5-1.124 1.125-1.124h10c.625 0 1.125.5 1.125 1.124 0 .626-.5 1.126-1.125 1.126z"/>
                <path fill="#EFF8FF" d="M106 45.688v2.75l3.063 3.937a2.634 2.634 0 0 0 2.124 1.063c.876 0 1.75-.438 2.25-1.188l2.5-3.813v-2.75l-1.124-4.437h-7.188l-1.125.563-.5 3.874z"/>
                <path fill="#CECDE3" d="M106 40.688l10-2.876c.75-.187 1.5.438 1.313 1.25L116 45.688a1.12 1.12 0 0 1-1.125-1.126v-.687a2.107 2.107 0 0 0-2.125-2.125h-3.25c-1.25 0-2.25 1.125-2.063 2.375l.063.25c.125.688-.438 1.25-1.125 1.25H106v-4.938z"/>
            </g>
            <path fill="#F5EA61" fill-rule="nonzero" d="M106.5 67.375l1.688 3.688 4 .624-2.938 2.75.625 4-3.5-1.937-3.625 1.813.75-3.938-2.813-2.875 3.938-.5zM121.438 67.375l1.75 3.688 3.937.624-2.875 2.75.625 4-3.563-1.937-3.562 1.813.688-3.938-2.813-2.875 4-.5zM136.875 67.375l1.688 3.688 4 .624-2.938 2.75.625 4-3.5-1.937-3.625 1.813.75-3.938-2.813-2.875L135 71z"/>
            <g fill-rule="nonzero">
                <path fill="#CFDBDB" d="M117.5 150.188c0 .75.5 1.375 1.25 1.562 4.25.875 7.438 4.75 7.125 9.313-.313 4.437-3.938 8.062-8.375 8.312-5.125.25-9.438-3.813-9.438-8.875 0-.625.063-1.25.188-1.875.125-.688-.188-1.375-.813-1.688-.062 0-.062-.062-.124-.062-.876-.438-1.938.125-2.126 1.063-.25 1.25-.374 2.562-.187 3.937.625 5.75 5.5 10.313 11.25 10.688 7 .375 12.75-5.125 12.75-12.063 0-5.813-4.125-10.688-9.625-11.813-.938-.25-1.875.5-1.875 1.5z"/>
                <path fill="#6D93B4" d="M117.5 151.563V151.561h-.5c-3.875 0-7.188 2.5-8.375 5.938.188.125.375.188.563.313-.188-.125-.376-.25-.563-.313a9.35 9.35 0 0 0-.5 2.938c0 4.937 4 8.937 8.938 8.937 4.937 0 8.937-4 8.937-8.938-.125-4.75-3.813-8.625-8.5-8.875zm-.5 14.625a5.735 5.735 0 0 1-5.75-5.75 5.735 5.735 0 0 1 5.75-5.75 5.735 5.735 0 0 1 5.75 5.75 5.735 5.735 0 0 1-5.75 5.75z"/>
                <path fill="#CFDBDB" d="M119.063 157.188c-.376.562-.313 1.25.062 1.812.563.875.625 2 .063 2.875-.563.938-1.626 1.313-2.626 1.188-.624-.125-1.312.125-1.624.687v.063a1.585 1.585 0 0 0 1 2.375c2.25.437 4.687-.5 6-2.5 1.312-2.063 1.187-4.625-.188-6.5-.813-1-2.125-.938-2.688 0z"/>
                <g opacity=".64">
                    <path fill="#CFDBDB" d="M140 167.75a8.618 8.618 0 0 1-1.188-1.75c-2.062-4-.75-8.938 2.938-11.438 4.25-2.875 10.063-1.562 12.625 2.813.313.563.563 1.125.75 1.688.25.687.875 1.125 1.563 1.062h.125c.937-.125 1.625-1.063 1.312-2-.375-1.188-1-2.313-1.813-3.438-3.5-4.687-10-6.187-15.25-3.437-6.187 3.25-8.312 11-4.75 16.875.375.563.75 1.125 1.188 1.625.625.688 1.75.75 2.375 0 .563-.563.625-1.438.125-2z"/>
                    <path fill="#6D93B4" d="M141.938 167.625c-.375.375-.688.688-1 1.063 2.687 2.312 6.625 2.875 9.937 1.125-.313-.563-.688-1.125-1.063-1.75.375.625.75 1.187 1.063 1.75.125-.063.313-.125.438-.25a8.905 8.905 0 0 0 4.125-9.438h-.625.625a9.64 9.64 0 0 0-1.063-2.813c-2.5-4.187-8-5.625-12.25-3.062-4.188 2.5-5.625 8-3.063 12.25.5.813 1.125 1.563 1.813 2.188.375-.375.75-.688 1.063-1.063zm1.875-10.688c2.75-1.625 6.25-.75 7.937 2 1.625 2.75.75 6.25-2 7.938-2.75 1.625-6.25.75-7.938-2-1.625-2.75-.75-6.25 2-7.938z"/>
                    <path fill="#CFDBDB" d="M144.5 164.813c.375-.438.375-1.125.063-1.625a2.74 2.74 0 0 1-.375-1.438c.062-1.063.75-2 1.687-2.375.625-.25 1.063-.75 1.063-1.375v-.063c.062-1.125-1.063-1.875-2.125-1.5-2.125.813-3.688 2.813-3.75 5.25-.063 1.25.312 2.375.937 3.313.5.813 1.688.875 2.25.125.063-.125.125-.188.25-.313z"/>
                </g>
            </g>
            <path fill="#FFF" fill-rule="nonzero" d="M37.688 104.438c-1.126 1.124-2.25 2.312-3.5 3.124 5.562 5.188 6.062 14.25.874 19.876l3.75 2.812c6.376-7.438 6-19.063-1.124-25.813zM126.688 201.313c1.124 1.125 2.25 2.312 3.5 3.125-5.563 5.187-6.063 14.25-.875 19.875l-3.75 2.812c-6.376-7.438-6-19.063 1.124-25.813z" opacity=".52"/>
        </g>
    </g>
</svg>
