<svg xmlns="http://www.w3.org/2000/svg" xmlns:xlink="http://www.w3.org/1999/xlink" width="459" height="438" viewBox="0 0 459 438">
    <defs>
        <radialGradient id="a" cx="49.995%" cy="49.83%" r="370.474%" fx="49.995%" fy="49.83%" gradientTransform="matrix(.09586 0 0 1 .452 0)">
            <stop offset=".513%" stop-color="#CECDE3"/>
            <stop offset="27.42%" stop-color="#D2D2E6" stop-opacity=".73"/>
            <stop offset="57.42%" stop-color="#E0DFED" stop-opacity=".428"/>
            <stop offset="88.82%" stop-color="#F5F5FA" stop-opacity=".112"/>
            <stop offset="100%" stop-color="#FFF" stop-opacity="0"/>
        </radialGradient>
        <path id="c" d="M53.1 40.5c3.6 14.4 23.4 14.4 37.8 15.3 19.8 1.08 39.6.36 59.4-.99V16.2c0-8.91-7.29-16.2-16.2-16.2H15.39C7.56.36 1.17 6.3.18 13.95c20.7-.99 45.54 1.8 52.92 26.55z"/>
        <filter id="b" width="127%" height="172.8%" x="-13.3%" y="-32.8%" filterUnits="objectBoundingBox">
            <feMorphology in="SourceAlpha" radius="1" result="shadowSpreadOuter1"/>
            <feOffset dy="2" in="shadowSpreadOuter1" result="shadowOffsetOuter1"/>
            <feGaussianBlur in="shadowOffsetOuter1" result="shadowBlurOuter1" stdDeviation="7.5"/>
            <feColorMatrix in="shadowBlurOuter1" values="0 0 0 0 0 0 0 0 0 0 0 0 0 0 0 0 0 0 0.5 0"/>
        </filter>
        <linearGradient id="d" x1="47.511%" x2="52.037%" y1="69.964%" y2="30.526%">
            <stop offset="0%" stop-color="#CECDE3"/>
            <stop offset="69.62%" stop-color="#F0F0F6" stop-opacity=".373"/>
            <stop offset="100%" stop-color="#FFF" stop-opacity=".1"/>
        </linearGradient>
        <linearGradient id="e" x1="24.015%" x2="94.28%" y1="40.788%" y2="68.452%">
            <stop offset="0%" stop-color="#CECDE3"/>
            <stop offset="69.62%" stop-color="#F0F0F6" stop-opacity=".373"/>
            <stop offset="100%" stop-color="#FFF" stop-opacity=".1"/>
        </linearGradient>
        <path id="g" d="M82.26 53.19C58.59 63.63 26.28 53.73 0 57.24c.18 8.82 7.29 15.93 16.2 15.93h117.9c8.1 0 14.85-5.94 16.02-13.77.09-.81.18-1.62.18-2.43V16.2c0-1.62-.27-3.24-.72-4.77-23.49-.36-45.72 5.31-53.28 26.55-2.34 6.75-7.47 12.33-14.04 15.21z"/>
        <filter id="f" width="127.2%" height="166.4%" x="-13.5%" y="-30%" filterUnits="objectBoundingBox">
            <feMorphology in="SourceAlpha" radius="1" result="shadowSpreadOuter1"/>
            <feOffset dy="2" in="shadowSpreadOuter1" result="shadowOffsetOuter1"/>
            <feGaussianBlur in="shadowOffsetOuter1" result="shadowBlurOuter1" stdDeviation="7.5"/>
            <feColorMatrix in="shadowBlurOuter1" values="0 0 0 0 0 0 0 0 0 0 0 0 0 0 0 0 0 0 0.5 0"/>
        </filter>
        <path id="i" d="M225.9 103.5c0-8.91-7.29-16.2-16.2-16.2H90.99c-2.07 23.58 7.83 48.6 35.01 49.5 30.6 0 64.8-18.9 92.7 2.7 2.7 2.16 5.04 4.59 7.02 7.2.09-.81.18-1.62.18-2.43V103.5z"/>
        <filter id="h" width="130.3%" height="163.7%" x="-15.2%" y="-31.1%" filterUnits="objectBoundingBox">
            <feMorphology in="SourceAlpha" radius="1" result="shadowSpreadOuter1"/>
            <feOffset dy="2" in="shadowSpreadOuter1" result="shadowOffsetOuter1"/>
            <feGaussianBlur in="shadowOffsetOuter1" result="shadowBlurOuter1" stdDeviation="7.5"/>
            <feColorMatrix in="shadowBlurOuter1" values="0 0 0 0 0 0 0 0 0 0 0 0 0 0 0 0 0 0 0.5 0"/>
        </filter>
        <linearGradient id="j" x1="0%" x2="100.006%" y1="50.001%" y2="50.001%">
            <stop offset="0%" stop-color="#FFF" stop-opacity=".1"/>
            <stop offset="30.38%" stop-color="#F0F0F6" stop-opacity=".373"/>
            <stop offset="100%" stop-color="#CECDE3"/>
        </linearGradient>
    </defs>
    <g fill="none" fill-rule="evenodd">
        <g fill-rule="nonzero">
            <path fill="#5B90F6" d="M78.128 74.16c-30.922 9.81-56.353 32.94-68.684 61.2-12.33 28.26-11.56 61.02.867 89.19 13.68 30.96 44.408 57.42 80.243 58.05 27.262.45 55.583-13.5 80.725-3.78 10.596 4.14 18.977 11.97 28.032 18.45 28.995 20.97 67.527 29.16 103.843 24.57 36.317-4.59 70.321-21.42 96.812-45.09 37.087-33.21 59.821-80.91 58.569-128.97-1.253-48.06-27.262-95.58-69.743-122.58-37.28-23.67-123.399-42.39-153.358 1.08-15.509 22.5-23.311 32.4-54.522 37.26-34.101 5.31-69.55.09-102.784 10.62z"/>
            <ellipse cx="328.29" cy="427.32" fill="url(#a)" rx="110.79" ry="10.62"/>
        </g>
        <path fill="#CECDE3" fill-rule="nonzero" d="M261.42 272.7c.63-.18 1.35.81 1.98.9.45 0 .54-.36.9 0 .63.54.72.99.63 1.8-.36 2.16-.81 4.32-1.35 6.48-.27.9-1.98 6.12-1.98 6.12s-.81-7.11-.81-8.19c0-2.34.18-4.77.63-7.11z"/>
        <path fill="#35485E" fill-rule="nonzero" d="M344 323.78c1.8-7.2-9.9-9.9-14.4-16.2-8.1-9 0-21.6-9.9-30.6-7.2-5.76-15.48-9.18-22.68-14.4 2.34 4.5 8.55 8.1 10.98 11.79 4.41 6.84 2.7 15.03 1.71 22.59-.9 7.38-.45 16.29 5.76 20.43 2.97 1.98 6.57 2.43 9.99 3.42 3.42.99 6.93 2.79 8.19 6.12.63 1.8.54 3.78.36 5.67-.72 7.29-2.25 15.39 2.07 21.33 2.07 2.88 5.22 4.77 8.19 6.66 3.87 2.34 7.74 4.68 12.15 5.76 4.14.99 8.73.81 12.33-1.53-14.31-11.52-29.16-18.81-24.75-41.04z"/>
        <path fill="#6D93B4" fill-rule="nonzero" d="M336.8 299.48c0 2.7 1.8 7.2 4.5 9.9 6.39 4.32 13.23 7.56 19.08 11.61-5.4-6.12-11.7-11.7-14.4-19.44-2.52-7.38-1.17-15.66-2.97-23.31-1.89-7.83-7.11-14.49-14.13-18.45-2.97-1.71-13.77-6.75-22.23-7.65 18.09 7.47 30.78 25.74 30.15 47.34z"/>
        <path fill="#56758F" fill-rule="nonzero" d="M372.62 342.05c-2.43-7.11-6.21-13.86-11.07-19.62-.36-.45-.72-.9-1.17-1.35-5.76-4.14-12.6-7.38-19.08-11.61-2.7-2.7-4.5-7.2-4.5-9.9.63-21.6-12.06-39.87-30.06-47.16-5.85-.63-10.53.72-10.62 6.66 0 1.26.36 2.43.9 3.6 7.2 5.22 15.48 8.73 22.68 14.4 9.9 9 1.8 21.6 9.9 30.6 4.5 6.3 16.2 9 14.4 16.2-4.41 22.23 10.44 29.52 24.66 40.95.18-.09.36-.27.63-.45 6.39-4.86 5.94-14.76 3.33-22.32z"/>
        <g fill-rule="nonzero">
            <g transform="translate(234.6 115.2)">
                <use fill="#000" filter="url(#b)" xlink:href="#c"/>
                <use fill="#FFF" xlink:href="#c"/>
            </g>
            <path fill="url(#d)" d="M90.9 55.8c-14.4-.9-34.2-.9-37.8-15.3C45.72 15.75 20.88 12.96.18 14.04.09 14.76 0 15.48 0 16.2v40.77c0 8.91 7.29 16.2 16.2 16.2h117.9c8.1 0 14.85-5.94 16.02-13.77.09-.81.18-1.62.18-2.43v-2.16c-19.8 1.35-39.6 2.07-59.4.99z" transform="translate(234.6 115.2)"/>
            <g transform="translate(243.6 125.1)">
                <circle cx="4.05" cy="4.05" r="4.05" fill="#F5EA61"/>
                <circle cx="19.26" cy="4.05" r="4.05" fill="#F8EF89"/>
                <circle cx="33.75" cy="4.05" r="4.05" fill="#FAF4B0"/>
            </g>
        </g>
        <path fill="url(#e)" fill-rule="nonzero" d="M94.5 45c4.86-27 29.25-33.93 55.08-33.57C147.6 4.86 141.39 0 134.1 0H15.39C7.56.36 1.17 6.3.18 13.95c-.09.72-.18 1.44-.18 2.16V57.15C31.14 53.1 70.92 67.77 94.5 45z" transform="translate(53.7 64.8)"/>
        <g fill-rule="nonzero" transform="translate(53.7 64.8)">
            <use fill="#000" filter="url(#f)" xlink:href="#g"/>
            <use fill="#FFF" xlink:href="#g"/>
        </g>
        <g fill-rule="nonzero" transform="translate(62.7 74.7)">
            <circle cx="4.05" cy="4.05" r="4.05" fill="#F5EA61"/>
            <circle cx="19.26" cy="4.05" r="4.05" fill="#F8EF89"/>
            <circle cx="33.75" cy="4.05" r="4.05" fill="#FAF4B0"/>
        </g>
        <path fill="#FFCBB3" fill-rule="nonzero" d="M287.03 273.11c.45.27.99.54 1.44.72 2.52.9 5.85.54 7.38-1.71.99-1.53.99-3.51.99-5.4 0-2.34.09-4.59.54-6.93.45-2.7 1.35-5.4 1.35-8.19.18-8.82-12.87-15.57-15.66-5.22-1.53 5.85-1.26 23.22 3.96 26.73z"/>
        <path fill="#FFCBB3" fill-rule="nonzero" d="M292.56 256.32c.09-1.44-.45-1.62 0 0zM288.87 272.844c-1.71 3.817-3.42 7.829-3.24 8.67 3.87.518 7.74.841 11.7.906-1.08-3.624-1.71-7.312-1.98-11-1.98.776-4.14 1.359-6.48 1.424z"/>
        <path fill="#FFCBB3" fill-rule="nonzero" d="M286.17 281.43c.09-.9.27-1.71.36-2.61-.36.81-.45 1.71-.36 2.61zM287.97 277.65c-.81.36-1.71.81-2.43 1.35.81-.18 1.62-.45 2.34-.81l.09-.54zM274.29 274.23s.09 0 0 0c.09-.09.09-.09 0 0zM258.27 270.72c0-.09-.09-.27-.09-.36-.72-.18-1.44-.36-2.16-.45.09.36.18.72.18 1.08-.09-.36-.18-.72-.18-1.08-.9-.18-1.8-.36-2.52-.72.72.36 1.62.54 2.52.72-2.52-12.33-5.49-25.29-.18-37.62.36-1.62.81-3.24 1.44-4.77-2.25-.72-1.08-1.44-3.33-2.16-5.22 14.4-7.29 29.88-5.94 45.09.09 1.08.18 2.25.72 3.24 4.05 2.52 8.73 3.15 12.69 5.04.72-1.89 1.53-4.05 2.7-5.76-1.8-.9-3.69-1.71-5.85-2.25z"/>
        <path fill="#E4AB8F" fill-rule="nonzero" d="M256.02 269.82c.72.18 1.53.27 2.16.45-2.97-12.51-5.31-25.74-2.43-38.07-5.22 12.42-2.25 25.38.27 37.62zM264.03 272.97c-1.17 1.8-1.98 3.87-2.7 5.76.09 0 .18.09.27.09-.09-.09-.18-.09-.27-.09-.09.27-.18.45-.27.72.09-.18.18-.45.27-.72-3.87-1.89-8.64-2.52-12.69-5.04.09.18.18.27.27.45.81 1.35 10.44 6.03 15.21 8.1.63-2.79 1.08-5.67 1.62-8.46-.63-.27-1.17-.54-1.71-.81z"/>
        <path fill="#E7E6FF" fill-rule="nonzero" d="M272.76 330.39c-.18 1.62-.18 2.61.09 2.7-.63 1.35 11.79 1.8 11.16 3.24 7.83-.63 2.52-.36 10.35-.63-.54-2.52.81-22.23 3.42-36.36-4.95 12.78-13.23 23.85-25.02 31.05zM284.01 279.27v-.18h-.18c-.99 0-1.98-.09-3.06-.27-3.33-.54-12.69-4.95-15.57-6.21-.36 1.35-.72 3.69-.99 4.95 6.57 1.44 12.96 3.6 19.8 1.71z"/>
        <path fill="#FFF" fill-rule="nonzero" d="M313.98 279.09c-5.13-2.52-11.61-4.32-17.64-3.78-.09 3.42-1.08 6.93-3.78 9-2.7 1.26-5.4 1.44-7.74-.63-.9-1.26-.9-2.88-.81-4.32-6.75 1.89-13.23-.36-19.8-1.62-.72 2.88-1.44 5.85-1.98 8.73-.09.36-.18.72-.27 1.17 3.42 1.53 13.05 5.04 16.74 5.94-.18.9-.36 1.71-.54 2.52.09 0-4.59 25.83-5.31 34.29 11.79-7.2 20.07-18.36 25.02-31.05.81-4.23 1.71-8.01 2.7-10.62 11.52 3.87 13.5 6.03 17.55 8.73 1.98-2.79 5.67-7.65 7.74-10.53-3.78-2.97-7.65-5.76-11.88-7.83z"/>
        <path fill="#FFCBB3" fill-rule="nonzero" d="M284.82 283.59c2.34 2.07 5.04 1.89 7.74.63 2.7-2.07 3.69-5.58 3.78-9-1.89.18-3.69.63-5.4 1.26-1.17.45-2.16 1.08-3.15 1.53-.72.36-1.44.63-2.34.81-.45.09-.99.18-1.53.18.09 1.62-.09 3.33.9 4.59zm1.71-4.77c-.09.9-.18 1.71-.36 2.61-.09-.9 0-1.8.36-2.61z"/>
        <path fill="#E4AB8F" fill-rule="nonzero" d="M333.24 302.4c-.54-3.06-6.84-5.22-11.25-7.74-.09.18-.18.45-.18.63.09-.18.18-.45.18-.63-.27-.18-.54-.27-.81-.45.27.18.54.27.81.45.9-2.61 2.25-5.22 4.23-7.2-.18-.18-.36-.36-.54-.45-2.07 2.88-4.32 5.58-6.3 8.37 2.79 1.89 5.49 4.05 8.1 6.21 1.26 1.08 2.61 2.16 3.33 3.6.54 1.17.72 2.43.81 3.69.72 7.83.72 15.66 0 23.49 2.34-9.9 3.15-20.16 1.62-29.97z"/>
        <path fill="#FFCBB3" fill-rule="nonzero" d="M341.34 301.86c-.18-.81-.9-1.44-1.53-1.98-4.59-4.14-8.91-8.55-13.68-12.51-1.98 1.98-3.33 4.59-4.23 7.2 4.41 2.52 10.71 4.68 11.25 7.74 1.53 9.81.63 20.07-1.71 29.88-.09.63-.09 1.26-.18 1.8 1.26.45 2.61.81 3.87 1.26 1.98-10.53 4.05-21.06 6.03-31.68.27-.45.36-1.08.18-1.71z"/>
        <path fill="#35485E" fill-rule="nonzero" d="M321.9 415.8c-5.85-6.57-13.14-11.7-20.25-15.93 5.85 4.68 10.71 10.17 15.12 16.29 3.06 1.35 6.12 2.61 9.09 3.96-.72-.81-1.98-2.07-3.96-4.32zM346.2 419.4c-1.89-2.61-8.01-11.61-10.17-14.04-6.03-1.35-11.7-4.23-17.37-6.93 7.74 4.95 19.44 16.83 27.54 20.97z"/>
        <path fill="#395FA4" fill-rule="nonzero" d="M297.6 372.78c0 1.08.09 2.16.09 3.24 0-.99 0-2.16-.09-3.24-.81-.54-1.53-.99-2.34-1.53.81.54 1.62 1.08 2.34 1.53-.45-11.97 1.17-22.68 1.62-34.2.18-4.5-1.71-8.64-4.77-11.88-.09-.09-.18-.18-.18-.27-7.83.27-13.5-.63-21.33.09-8.01 18-14.22 37.8-13.41 57.42.09 1.17.09 2.34.72 3.24.54.81 1.35 1.35 2.16 1.89 16.29 10.53 36.09 19.17 54.27 27-4.41-6.12-9.27-11.61-15.12-16.29-11.52-6.84-22.68-11.43-26.82-15.66-.72-.81-1.53-1.62-1.8-2.7s-.09-2.25.18-3.33c2.7-11.7 4.59-23.22 9.09-34.38.45 12.15 2.97 24.3 4.14 36.45.09 1.08.27 2.16.99 2.97.63.72 1.62.99 2.52 1.17 10.35 2.79 19.62 8.19 28.62 14.04 5.67 2.7 11.34 5.49 17.37 6.93-10.8-12.69-24.3-23.4-38.25-32.49zM326.4 420.3l-.54-.27c1.89 1.89.54-.09.54.27z"/>
        <path fill="#FFFED5" fill-rule="nonzero" d="M322.26 416.7c.18.09.27.09.45.18.09-.09.09-.18.18-.27l-.63.09zM325.95 418.59c-1.08-.63-2.16-1.26-3.33-1.71-1.89 3.24-3.96 6.3-6.12 9.27 3.6-1.98 6.84-4.5 9.45-7.56z"/>
        <path fill="#6D93B4" fill-rule="nonzero" d="M316.5 426.15c-.09.18-.27.36-.36.54 4.95-.18 9.9-1.8 13.86-4.77-1.17-1.26-2.61-2.34-4.05-3.33-2.61 3.06-5.85 5.58-9.45 7.56z"/>
        <path fill="#FFFED5" fill-rule="nonzero" d="M341.52 410.58c.18.09.27.09.45.18.09-.09.09-.18.18-.27l-.63.09zM346.02 417.24c-.18-.09-.27-.18-.45-.18-1.98 3.42-4.23 6.66-6.57 9.81h.45c1.71-.09 3.51-.36 5.22-.81 1.17-2.79 1.89-5.67 1.35-8.82z"/>
        <path fill="#6D93B4" fill-rule="nonzero" d="M348.81 418.77c-.9-.54-1.89-1.08-2.79-1.53.63 3.15-.09 6.03-1.44 8.73 2.97-.81 5.76-2.16 8.28-3.96-1.26-1.17-2.61-2.34-4.05-3.24z"/>
        <path fill="#FFCBB3" fill-rule="nonzero" d="M331.8 334.35c-.99 1.08-1.98 2.07-3.06 2.97h3.06c-.45 1.26-.81 2.52-.99 3.78.54.09 1.08-.09 1.53-.54-.36.54.18 1.35.81 1.26.63-.09 1.08-.81.81-1.44.36.63.99 1.26 1.53.9.36-.27.36-.72.36-1.17-.09-1.62-.18-3.24-.27-4.77 0-.36 0-.63-.27-.9-.36-.45-1.08-.45-1.71-.36-.9.09-1.71.27-2.61.36"/>
        <g fill-rule="nonzero" transform="translate(53.7 64.8)">
            <use fill="#000" filter="url(#h)" xlink:href="#i"/>
            <use fill="#FFF" xlink:href="#i"/>
        </g>
        <path fill="url(#j)" fill-rule="nonzero" d="M218.7 139.5c-27.9-21.6-62.1-2.7-92.7-2.7-27.27-.81-37.08-25.83-35.01-49.5-8.55.45-15.39 7.47-15.39 16.2v40.77c0 8.91 7.29 16.2 16.2 16.2h117.9c8.1 0 14.85-5.94 16.02-13.77a40.775 40.775 0 0 0-7.02-7.2z" transform="translate(53.7 64.8)"/>
        <path fill="#FFCBB3" fill-rule="nonzero" d="M294.95 261.95c-.09.54.09 1.17.54 1.53.36.27.9.36 1.35.27.45-.09.9-.36 1.26-.63 1.08-.72 1.89-1.71 2.52-2.88.99-1.8-.72-3.33-2.52-2.52-1.53.63-2.97 2.7-3.15 4.23z"/>
        <path fill="#E4AB8F" fill-rule="nonzero" d="M297.02 263.66c-.72.72-1.62 1.26-2.61 1.62.81.09 1.62.18 2.43.18.09-.45.09-.99.18-1.44 0-.18.09-.45.27-.45"/>
        <path fill="#FFCBB3" fill-rule="nonzero" d="M260.07 215.28c-.72-.18-1.17.63-1.44 1.35-.9 2.61-1.8 5.31-2.7 7.92-2.52-.18-5.13 0-7.65.54.99 2.25 2.34 4.5 3.78 6.48.18.27.45.63.81.72 4.59 1.44 7.65-16.92 7.2-17.01z"/>
        <g fill-rule="nonzero" transform="translate(139.2 161.1)">
            <circle cx="4.05" cy="4.05" r="4.05" fill="#F5EA61"/>
            <circle cx="19.26" cy="4.05" r="4.05" fill="#F8EF89"/>
            <circle cx="33.75" cy="4.05" r="4.05" fill="#FAF4B0"/>
        </g>
        <path fill="#35485E" fill-rule="nonzero" d="M279.33 351.9c.09-6.39.36-12.78.9-19.17-.09 3.51.54 7.92 2.07 11.07.18.36 0 0 0 .36-1.44 4.14-1.89 5.13-2.97 7.74zM297.33 380.16c.72-1.98 1.53-3.96 2.34-5.94-1.62-1.26-2.07-1.8-2.25.63-.18 1.53.36 3.96-.09 5.31zM270.96 379.8c-.72-.81-1.53-1.53-2.25-2.34 1.35.81 2.79 1.26 4.32 1.53-.54-.09-.27 2.61-.09 2.88-.63-.72-1.35-1.35-1.98-2.07z"/>
        <path fill="#E7E6FF" fill-rule="nonzero" d="M301.11 288.72c-1.71-.36-3.51-.63-5.22-.72 1.26.72 2.43 1.53 3.69 2.25.09.09.18.09.27.09.09 0 .18-.09.18-.18M280.59 287.55c-1.53 1.62-3.15 3.24-4.14 5.31.36.09 1.89.9 2.16.63.27-.18.36-1.53.45-1.89.36-1.44.81-2.79 1.53-4.05z"/>
        <path fill="#F5EA61" fill-rule="nonzero" d="M247.29 197.91l1.98 4.05 4.32.72-3.24 2.97.72 4.41-3.87-2.16-3.96 2.07.81-4.41-3.15-3.15 4.41-.54zM262.41 197.91l1.98 4.05 4.32.72-3.24 2.97.72 4.41-3.87-2.16-3.96 2.07.81-4.41-3.15-3.15 4.41-.54z"/>
        <path stroke="#CFDEFF" stroke-width="3.6" d="M190.05 209.7h-13.14c-2.52 0-4.5-1.98-4.5-4.5v-13.5c0-2.52 1.98-4.5 4.5-4.5h13.14c2.52 0 4.5 1.98 4.5 4.5v13.5c0 2.52-1.98 4.5-4.5 4.5z"/>
        <path stroke="#E7E6FF" stroke-width="3.6" d="M81.15 119.7H68.01c-2.52 0-4.5-1.98-4.5-4.5v-13.5c0-2.52 1.98-4.5 4.5-4.5h13.14c2.52 0 4.5 1.98 4.5 4.5v13.5c0 2.52-1.98 4.5-4.5 4.5z"/>
        <path fill="#CFDEFF" fill-rule="nonzero" d="M160.62 189h-21.33c-1.08 0-1.98-.81-1.98-1.8s.9-1.8 1.98-1.8h21.33c1.08 0 1.98.81 1.98 1.8s-.9 1.8-1.98 1.8zM265.02 190.8h-21.33c-1.08 0-1.98-.81-1.98-1.8s.9-1.8 1.98-1.8h21.33c1.08 0 1.98.81 1.98 1.8s-.9 1.8-1.98 1.8zM160.62 198h-21.33c-1.08 0-1.98-.81-1.98-1.8s.9-1.8 1.98-1.8h21.33c1.08 0 1.98.81 1.98 1.8s-.9 1.8-1.98 1.8zM139.38 203.4c-1.08 0-1.98.81-1.98 1.8s.9 1.8 1.98 1.8h8.82c.99 0 1.8-.81 1.8-1.8s-.81-1.8-1.8-1.8h-8.82zM227.22 190.8h-21.33c-1.08 0-1.98-.81-1.98-1.8s.9-1.8 1.98-1.8h21.33c1.08 0 1.98.81 1.98 1.8s-.9 1.8-1.98 1.8zM227.22 199.8h-21.33c-1.08 0-1.98-.81-1.98-1.8s.9-1.8 1.98-1.8h21.33c1.08 0 1.98.81 1.98 1.8s-.9 1.8-1.98 1.8zM205.98 205.2c-1.08 0-1.98.81-1.98 1.8s.9 1.8 1.98 1.8h8.82c.99 0 1.8-.81 1.8-1.8s-.81-1.8-1.8-1.8h-8.82z"/>
        <path stroke="#CFDEFF" stroke-width="3.6" d="M338.55 171.9h-13.14c-2.52 0-4.5-1.98-4.5-4.5v-13.5c0-2.52 1.98-4.5 4.5-4.5h13.14c2.52 0 4.5 1.98 4.5 4.5v13.5c0 2.52-1.98 4.5-4.5 4.5z"/>
        <g fill-rule="nonzero">
            <path fill="#F5EA61" d="M357.99 160.11l1.98 4.05 4.32.72-3.24 2.97.72 4.41-3.87-2.16-3.96 2.07.81-4.41-3.15-3.15 4.41-.54zM373.11 160.11l1.98 4.05 4.32.72-3.24 2.97.72 4.41-3.87-2.16-3.96 2.07.81-4.41-3.15-3.15 4.41-.54z"/>
            <path fill="#CFDEFF" d="M375.72 153h-21.33c-1.08 0-1.98-.81-1.98-1.8s.9-1.8 1.98-1.8h21.33c1.08 0 1.98.81 1.98 1.8s-.9 1.8-1.98 1.8z"/>
        </g>
        <g fill-rule="nonzero">
            <path fill="#F5EA61" d="M174.39 108.81l1.98 4.05 4.32.72-3.24 2.97.72 4.41-3.87-2.16-3.96 2.07.81-4.41-3.15-3.15 4.41-.54zM189.51 108.81l1.98 4.05 4.32.72-3.24 2.97.72 4.41-3.87-2.16-3.96 2.07.81-4.41-3.15-3.15 4.41-.54z"/>
            <path fill="#CFDEFF" d="M192.12 101.7h-21.33c-1.08 0-1.98-.81-1.98-1.8s.9-1.8 1.98-1.8h21.33c1.08 0 1.98.81 1.98 1.8s-.9 1.8-1.98 1.8z"/>
        </g>
        <g fill="#E7E6FF" fill-rule="nonzero">
            <path d="M156.12 101.7h-21.33c-1.08 0-1.98-.81-1.98-1.8s.9-1.8 1.98-1.8h21.33c1.08 0 1.98.81 1.98 1.8s-.9 1.8-1.98 1.8zM156.12 110.7h-21.33c-1.08 0-1.98-.81-1.98-1.8s.9-1.8 1.98-1.8h21.33c1.08 0 1.98.81 1.98 1.8s-.9 1.8-1.98 1.8zM134.88 116.1c-1.08 0-1.98.81-1.98 1.8s.9 1.8 1.98 1.8h8.82c.99 0 1.8-.81 1.8-1.8s-.81-1.8-1.8-1.8h-8.82z"/>
        </g>
        <g fill="#CFDEFF" fill-rule="nonzero">
            <path d="M310.02 153h-21.33c-1.08 0-1.98-.81-1.98-1.8s.9-1.8 1.98-1.8h21.33c1.08 0 1.98.81 1.98 1.8s-.9 1.8-1.98 1.8zM310.02 162h-21.33c-1.08 0-1.98-.81-1.98-1.8s.9-1.8 1.98-1.8h21.33c1.08 0 1.98.81 1.98 1.8s-.9 1.8-1.98 1.8zM288.78 167.4c-1.08 0-1.98.81-1.98 1.8s.9 1.8 1.98 1.8h8.82c.99 0 1.8-.81 1.8-1.8s-.81-1.8-1.8-1.8h-8.82z"/>
        </g>
        <g fill="#E7E6FF" fill-rule="nonzero">
            <path d="M121.92 101.7h-21.33c-1.08 0-1.98-.81-1.98-1.8s.9-1.8 1.98-1.8h21.33c1.08 0 1.98.81 1.98 1.8s-.9 1.8-1.98 1.8zM100.68 107.1c-1.08 0-1.98.81-1.98 1.8s.9 1.8 1.98 1.8h8.82c.99 0 1.8-.81 1.8-1.8s-.81-1.8-1.8-1.8h-8.82z"/>
        </g>
        <path fill="#E4AB8F" fill-rule="nonzero" d="M282.35 253.13c4.32.45 8.82-2.25 10.44-6.3-.54 1.44-5.85 1.89-7.2 1.98-.99.09-2.34-.36-2.97.36-.63.63-.36 3.06-.27 3.96z"/>
        <path fill="#56758F" fill-rule="nonzero" d="M294.5 240.71c-2.07-1.35-4.59-2.07-7.02-1.53-2.88.63-6.3 3.87-6.48 7.2 2.7-4.23 8.37-6.39 13.5-5.67z"/>
        <path fill="#6D93B4" fill-rule="nonzero" d="M300.08 251.06c-.36-3.24-1.53-6.48-3.69-8.82-.54-.54-1.17-1.08-1.8-1.53-5.13-.72-10.8 1.44-13.5 5.67 0 .45 0 .9.09 1.35.99 3.96 6.93 3.6 9.63 1.26-.36 1.71.63 3.51 2.16 4.41 1.53.9 3.33 1.08 5.04.81.45-.09.9-.18 1.35-.45.72-.54.81-1.71.72-2.7z"/>
        <path fill="#E4AB8F" fill-rule="nonzero" d="M297.83 257.81c-.81.36-1.62.72-2.43.99.9-.72 1.89-1.44 2.79-2.25-.09.45-.18.9-.36 1.26"/>
        <path fill="#FFF" fill-rule="nonzero" d="M364.56 255.87c1.35-1.35 2.61-2.61 4.05-3.6-6.48-5.94-7.02-16.38-1.08-22.86l-4.32-3.24c-7.38 8.55-6.84 21.96 1.35 29.7zM102.84 238.77c-1.35-1.35-2.61-2.61-4.05-3.6 6.48-5.94 7.02-16.38 1.08-22.86l4.32-3.24c7.38 8.55 6.84 21.96-1.35 29.7zM235.86 67.86c1.35 1.35 2.61 2.61 4.05 3.6-6.48 5.94-7.02 16.38-1.08 22.86l-4.32 3.24c-7.29-8.55-6.84-21.96 1.35-29.7z" opacity=".52"/>
        <path fill="#C4DFFF" fill-rule="nonzero" d="M233.34 365.76c-1.35 1.35-2.61 2.61-4.05 3.6 6.39 5.94 7.02 16.38.99 22.86l4.32 3.24c7.38-8.55 6.93-21.96-1.26-29.7z"/>
        <g fill-rule="nonzero">
            <path fill="#CFDBDB" d="M317.4 69.48c0 .9.63 1.71 1.53 1.89 5.31 1.08 9.18 5.94 8.82 11.61-.36 5.49-4.95 10.08-10.44 10.35-6.39.36-11.7-4.77-11.7-11.07 0-.81.09-1.53.27-2.34.18-.9-.27-1.71-.99-2.16 0 0-.09 0-.09-.09-1.08-.54-2.43.09-2.7 1.35-.36 1.53-.45 3.15-.27 4.86.81 7.2 6.75 12.78 14.04 13.23 8.64.54 15.84-6.39 15.84-14.94 0-7.2-5.13-13.23-11.97-14.67-1.17-.18-2.34.72-2.34 1.98z"/>
            <path fill="#6D93B4" d="M317.4 71.19v0h-.63c-4.86 0-8.91 3.06-10.44 7.38.18.09.45.27.63.45-.18-.18-.45-.27-.63-.45-.45 1.17-.63 2.34-.63 3.69 0 6.12 4.95 11.07 11.07 11.07s11.07-4.95 11.07-11.07c0-5.94-4.68-10.71-10.44-11.07zm-.63 18.18c-3.96 0-7.2-3.24-7.2-7.2s3.24-7.2 7.2-7.2 7.2 3.24 7.2 7.2c-.09 3.96-3.24 7.2-7.2 7.2z"/>
            <path fill="#CFDBDB" d="M319.29 78.12c-.45.72-.36 1.62.09 2.25.72 1.08.81 2.43.09 3.6-.72 1.17-2.07 1.62-3.33 1.44-.81-.18-1.62.18-2.07.81-.72 1.17-.09 2.7 1.26 2.97 2.79.54 5.76-.63 7.47-3.15 1.62-2.52 1.44-5.76-.18-8.1-.9-.99-2.61-.9-3.33.18z"/>
            <g opacity=".64">
                <path fill="#CFDBDB" d="M366.36 79.47c.18.81.18 1.71.18 2.61-.36 5.58-4.86 9.99-10.44 10.35-6.39.36-11.7-4.77-11.7-11.07 0-.81.09-1.53.27-2.25.18-.9-.18-1.8-.99-2.16 0 0-.09 0-.09-.09-1.08-.54-2.43.09-2.7 1.26-.36 1.53-.45 3.15-.27 4.77.72 7.29 6.75 12.96 14.04 13.41 8.64.54 15.84-6.39 15.84-14.94 0-.81-.09-1.71-.18-2.52-.18-1.17-1.35-1.89-2.52-1.53-.99.27-1.62 1.17-1.44 2.16z"/>
                <path fill="#6D93B4" d="M364.2 78.3c.63-.18 1.17-.27 1.71-.45-1.44-4.23-5.22-7.29-9.81-7.56v0h-.63c-4.86 0-8.91 3.06-10.44 7.38.18.09.45.27.63.45-.18-.18-.45-.27-.63-.45-.45 1.17-.63 2.34-.63 3.69 0 6.12 4.95 11.07 11.07 11.07s11.07-4.95 11.07-11.07c0-1.26-.18-2.34-.54-3.51-.63.18-1.17.27-1.8.45zm-8.73 10.17c-3.96 0-7.2-3.24-7.2-7.2s3.24-7.2 7.2-7.2 7.2 3.24 7.2 7.2-3.24 7.2-7.2 7.2z"/>
                <path fill="#CFDBDB" d="M359.7 79.65c-.72.27-1.08.99-1.08 1.71 0 .63-.18 1.17-.54 1.71-.72 1.17-2.07 1.62-3.33 1.44-.81-.18-1.62.18-2.07.81v.09c-.72 1.17-.09 2.7 1.26 2.97 2.79.54 5.76-.63 7.38-3.15.81-1.26 1.17-2.7 1.17-4.14 0-1.17-1.26-1.98-2.34-1.62-.09.09-.27.18-.45.18z"/>
            </g>
        </g>
    </g>
</svg>
