<svg xmlns="http://www.w3.org/2000/svg" width="853" height="394" viewBox="0 0 853 394">
    <defs>
        <linearGradient id="a" x1="26.993%" x2="82.664%" y1="24.475%" y2="80.684%">
            <stop offset="0%" stop-color="#FFF" stop-opacity=".1"/>
            <stop offset="30.38%" stop-color="#F0F0F6" stop-opacity=".373"/>
            <stop offset="100%" stop-color="#CECDE3"/>
        </linearGradient>
        <linearGradient id="b" x1="-.174%" x2="99.653%" y1="50.087%" y2="50.087%">
            <stop offset="0%" stop-color="#FFF" stop-opacity=".1"/>
            <stop offset="30.38%" stop-color="#F0F0F6" stop-opacity=".373"/>
            <stop offset="100%" stop-color="#CECDE3"/>
        </linearGradient>
        <linearGradient id="c" x1="0%" x2="99.826%" y1="49.74%" y2="49.74%">
            <stop offset="0%" stop-color="#FFF" stop-opacity=".1"/>
            <stop offset="30.38%" stop-color="#F0F0F6" stop-opacity=".373"/>
            <stop offset="100%" stop-color="#CECDE3"/>
        </linearGradient>
        <linearGradient id="d" x1="26.976%" x2="71.074%" y1="29.659%" y2="71.97%">
            <stop offset="0%" stop-color="#CECDE3"/>
            <stop offset="69.62%" stop-color="#F0F0F6" stop-opacity=".373"/>
            <stop offset="100%" stop-color="#FFF" stop-opacity=".1"/>
        </linearGradient>
        <filter id="e" width="150.9%" height="167.3%" x="-25.5%" y="-33.6%" filterUnits="objectBoundingBox">
            <feGaussianBlur in="SourceGraphic" stdDeviation="11"/>
        </filter>
    </defs>
    <g fill="none" fill-rule="evenodd">
        <path fill="#FFF" d="M83.432 77.773a.24.24 0 0 1-.375.03c-1.73-1.724-2.817-4.226-2.817-7.007 0-2.776 1.083-5.273 2.808-7a.24.24 0 0 1 .376.032l1.474 2.032c.084.115.07.28-.027.381-1.092 1.14-1.774 2.76-1.774 4.555 0 1.8.685 3.424 1.783 4.563a.311.311 0 0 1 .021.39l-1.47 2.024zM143.612 253.593a.24.24 0 0 1-.375.03c-1.73-1.724-2.817-4.226-2.817-7.007 0-2.776 1.083-5.273 2.808-7a.24.24 0 0 1 .376.032l1.474 2.032c.084.115.07.28-.027.381-1.092 1.14-1.774 2.76-1.774 4.555 0 1.8.685 3.423 1.783 4.563a.311.311 0 0 1 .021.39l-1.47 2.024z" opacity=".212"/>
        <path fill="#F5EA61" d="M60.843 223.28a.716.716 0 0 1 1.032-.075c4.756 4.168 7.745 10.213 7.745 16.934 0 6.71-2.978 12.743-7.723 16.915a.715.715 0 0 1-1.033-.074l-4.054-4.912a.665.665 0 0 1 .075-.92c3.004-2.757 4.878-6.67 4.878-11.01 0-4.35-1.884-8.272-4.904-11.025a.683.683 0 0 1-.058-.942l4.042-4.892zM22.386.08a.18.18 0 0 1 .282-.023c1.297 1.294 2.112 3.17 2.112 5.256 0 2.082-.812 3.955-2.106 5.25a.18.18 0 0 1-.282-.024l-1.106-1.524a.227.227 0 0 1 .02-.286c.82-.855 1.331-2.07 1.331-3.416 0-1.35-.514-2.568-1.337-3.422a.233.233 0 0 1-.016-.293L22.386.081zM155.726 286.82a.18.18 0 0 1 .282-.023c1.297 1.294 2.112 3.17 2.112 5.256 0 2.082-.812 3.955-2.106 5.25a.18.18 0 0 1-.282-.024l-1.106-1.524a.227.227 0 0 1 .02-.286c.82-.855 1.331-2.07 1.331-3.416 0-1.35-.514-2.568-1.337-3.422a.233.233 0 0 1-.016-.293l1.102-1.518z"/>
        <path fill="#5B90F7" d="M404.946 18.184a.492.492 0 0 1-.06-.75c3.306-3.46 8.1-5.634 13.43-5.634 5.322 0 10.108 2.166 13.417 5.617a.492.492 0 0 1-.06.75l-3.895 2.95a.562.562 0 0 1-.73-.055c-2.186-2.185-5.29-3.548-8.731-3.548-3.45 0-6.561 1.37-8.744 3.566a.577.577 0 0 1-.748.043l-3.88-2.94z" opacity=".089"/>
        <path fill="#5B90F7" d="M403.836 282.431a.432.432 0 0 1-.657.051c-3.027-2.874-4.929-7.043-4.929-11.678 0-4.627 1.895-8.789 4.915-11.666a.432.432 0 0 1 .657.051l2.58 3.388a.486.486 0 0 1-.048.635c-1.912 1.901-3.104 4.6-3.104 7.592 0 3 1.2 5.705 3.12 7.604a.5.5 0 0 1 .037.65l-2.571 3.373z" opacity=".1"/>
        <path fill="#5B90F7" d="M242.106 243.564a.492.492 0 0 1-.06-.75c3.306-3.46 8.1-5.634 13.431-5.634 5.321 0 10.107 2.166 13.416 5.617a.492.492 0 0 1-.06.75l-3.895 2.95a.562.562 0 0 1-.73-.055c-2.186-2.185-5.29-3.548-8.731-3.548-3.45 0-6.561 1.37-8.744 3.566a.577.577 0 0 1-.748.043l-3.88-2.94zM100.506 84.264a.492.492 0 0 1-.06-.75c3.306-3.46 8.1-5.634 13.431-5.634 5.321 0 10.107 2.166 13.416 5.617a.492.492 0 0 1-.06.75l-3.895 2.95a.562.562 0 0 1-.73-.055c-2.186-2.185-5.29-3.548-8.731-3.548-3.45 0-6.561 1.37-8.744 3.566a.577.577 0 0 1-.748.043l-3.88-2.94zM19.908 130.912a.372.372 0 0 1 .044.563c-2.444 2.595-5.987 4.225-9.927 4.225-3.933 0-7.47-1.624-9.916-4.212a.372.372 0 0 1 .043-.564l2.88-2.212a.41.41 0 0 1 .54.042c1.616 1.638 3.909 2.66 6.453 2.66 2.55 0 4.85-1.028 6.463-2.674a.422.422 0 0 1 .553-.032l2.867 2.204zM471.848 127.372a.372.372 0 0 1 .044.563c-2.444 2.595-5.987 4.225-9.927 4.225-3.933 0-7.47-1.624-9.916-4.212a.372.372 0 0 1 .043-.564l2.88-2.212a.41.41 0 0 1 .54.042c1.616 1.638 3.909 2.66 6.453 2.66 2.55 0 4.85-1.028 6.463-2.674a.422.422 0 0 1 .553-.032l2.867 2.204z" opacity=".182"/>
        <g fill="#5B90F7">
            <path d="M689.054 308.816c.251.19.275.525.06.75-3.306 3.46-8.1 5.634-13.43 5.634-5.322 0-10.108-2.166-13.417-5.617a.492.492 0 0 1 .06-.75l3.895-2.95a.562.562 0 0 1 .73.055c2.186 2.185 5.29 3.548 8.731 3.548 3.45 0 6.561-1.37 8.744-3.566a.577.577 0 0 1 .748-.043l3.88 2.94z" opacity=".089"/>
            <path d="M690.164 44.569a.432.432 0 0 1 .657-.051c3.027 2.874 4.929 7.043 4.929 11.678 0 4.627-1.895 8.789-4.915 11.666a.432.432 0 0 1-.657-.051l-2.58-3.388a.486.486 0 0 1 .048-.635c1.912-1.901 3.104-4.6 3.104-7.592 0-3-1.2-5.705-3.12-7.604a.5.5 0 0 1-.037-.65l2.571-3.373z" opacity=".1"/>
            <path d="M851.894 83.436c.251.19.275.525.06.75-3.306 3.46-8.1 5.634-13.431 5.634-5.321 0-10.107-2.166-13.416-5.617a.492.492 0 0 1 .06-.75l3.895-2.95a.562.562 0 0 1 .73.055c2.186 2.185 5.29 3.548 8.731 3.548 3.45 0 6.561-1.37 8.744-3.566a.577.577 0 0 1 .748-.043l3.88 2.94zM622.152 199.628a.372.372 0 0 1-.044-.563c2.444-2.595 5.987-4.225 9.927-4.225 3.933 0 7.47 1.624 9.916 4.212.16.17.142.421-.043.564l-2.88 2.212a.41.41 0 0 1-.54-.042c-1.616-1.638-3.909-2.66-6.453-2.66-2.55 0-4.85 1.028-6.463 2.674a.422.422 0 0 1-.553.032l-2.867-2.204z" opacity=".182"/>
        </g>
        <g>
            <path fill="#5B90F7" fill-rule="nonzero" d="M380.687 148.98c-35.352 19.324-77.67 19.174-117.518 25.615-20.223 3.296-41.12 8.913-55.875 23.07-13.407 12.957-20.148 31.607-22.096 50.108-3.52 32.656 7.116 66.96 30.11 90.329s58.422 34.604 90.18 26.59c31.458-7.94 56.624-32.657 88.082-40.297 31.458-7.64 65.238 2.697 96.771-4.569 15.879-3.67 30.484-11.684 43.517-21.421 11.61-8.688 22.395-19.25 28.237-32.507 5.842-13.257 6.142-29.66-2.097-41.57-3.82-5.467-9.437-10.26-10.486-16.852-1.273-7.565 3.97-14.605 8.913-20.447 17.377-20.598 36.85-43.592 35.278-70.481-1.273-20.523-14.905-38.274-30.784-51.307-15.504-12.733-34.23-22.395-54.228-24.267-30.26-2.846-50.782 11.384-63.74 36.626-14.53 28.686-35.577 55.725-64.264 71.38z"/>
            <g transform="translate(224.446 54.231)">
                <path fill="url(#a)" fill-rule="nonzero" d="M91.378 47.936v27.413c0 15.505-12.508 28.088-28.013 28.163l-63.365.3v45.464c0 11.909 9.662 21.57 21.571 21.57H198.71c11.909 0 21.57-9.661 21.57-21.57V21.72H117.594c-14.456 0-26.215 11.76-26.215 26.215z"/>
                <g fill-rule="nonzero">
                    <path fill="url(#b)" d="M198.71 170.772h.224c11.76 0 21.347-9.587 21.347-21.347v-.224c-.075 11.909-9.737 21.571-21.571 21.571z"/>
                    <path fill="url(#c)" d="M0 149.276v.224c0 11.76 9.587 21.347 21.346 21.347h.225C9.662 170.772 0 161.11 0 149.276z"/>
                    <path fill="url(#d)" d="M198.86 0H21.345C9.587 0 0 9.587 0 21.346v82.465l63.365-.3c15.505-.074 28.013-12.657 28.013-28.162V47.936c0-14.456 11.76-26.215 26.215-26.215h102.613v-.375C220.206 9.587 210.619 0 198.859 0z"/>
                </g>
                <path fill="#35485E" fill-rule="nonzero" d="M243.425 134.071h-115.87c-2.547 0-4.719-2.097-4.719-4.719V44.94c0-4.943 4.045-8.988 8.988-8.988h115.945c2.547 0 4.644 2.097 4.644 4.644v84.487c0 4.943-4.045 8.988-8.988 8.988z" filter="url(#e)" opacity=".61"/>
                <path fill="#CECDE3" fill-rule="nonzero" d="M237.433 128.828H122.836c-4.943 0-8.988-4.045-8.988-8.988V37.45c0-4.943 4.045-8.988 8.988-8.988h114.597c4.943 0 8.988 4.045 8.988 8.988v82.39c0 4.943-4.045 8.988-8.988 8.988z"/>
                <path fill="#56758F" fill-rule="nonzero" d="M65.912 78.645H23.968c-2.846 0-5.243-2.322-5.243-5.243V44.191c0-2.846 2.322-5.243 5.243-5.243h41.944c2.846 0 5.243 2.322 5.243 5.243v29.211a5.21 5.21 0 0 1-5.243 5.243zM71.155 98.868v-4.494c0-2.846-2.322-5.243-5.243-5.243H23.968c-2.846 0-5.243 2.322-5.243 5.243v8.014c17.452-.674 36.027 1.648 52.43-3.52z"/>
                <path fill="#6D93B4" fill-rule="nonzero" d="M18.725 102.388v21.272c0 2.846 2.322 5.243 5.243 5.243h41.944c2.846 0 5.243-2.322 5.243-5.243V98.868c-16.403 5.168-34.978 2.846-52.43 3.52zM65.912 143.134H23.968c-2.846 0-5.243 2.322-5.243 5.243v21.796c17.377.899 34.903.824 52.43.599v-22.47c0-2.846-2.322-5.168-5.243-5.168z"/>
                <circle cx="17.676" cy="13.107" r="3.745" fill="#F5EA61" fill-rule="nonzero"/>
                <circle cx="32.057" cy="13.107" r="3.745" fill="#F8EF89" fill-rule="nonzero"/>
                <circle cx="45.689" cy="13.107" r="3.745" fill="#FAF4B0" fill-rule="nonzero"/>
                <path fill="#FFF" fill-rule="nonzero" d="M166.727 207.773c-1.123 1.123-2.172 2.172-3.37 2.996 5.318 4.943 5.842 13.631.824 19.024l3.595 2.697c6.142-7.116 5.767-18.276-1.049-24.717zM279.602 132.873c1.123 1.123 2.172 2.172 3.37 2.996-5.318 4.943-5.842 13.631-.824 19.024l-3.595 2.697c-6.067-7.116-5.767-18.276 1.049-24.717z" opacity=".52"/>
                <path fill="#C4DFFF" fill-rule="nonzero" d="M299.076 278.179c1.123 1.123 2.172 2.172 3.37 2.996-5.318 4.943-5.842 13.631-.824 19.024l-3.595 2.697c-6.067-7.116-5.767-18.276 1.049-24.717z"/>
                <path fill="#56758F" fill-rule="nonzero" d="M250.69 317.501c-.45-.674-1.198-1.198-2.097-1.273-4.344-.225-4.419 16.478-4.344 20.073 3.295-4.27 2.022-10.336 4.793-15.879.45-.899.9-2.097 1.648-2.92z"/>
                <path fill="#35485E" fill-rule="nonzero" d="M250.915 317.8c-.075-.074-.15-.224-.225-.299-.749.899-1.198 2.022-1.648 2.921-2.77 5.543-1.498 11.61-4.793 15.879v.225c0 .599 0 1.273.3 1.797.224.525.823 1.049 1.423.974.898 0 1.423-.899 1.722-1.723 1.199-2.846 1.948-5.917 2.697-8.913.674-2.621 1.273-5.318 1.198-8.014-.075-1.049-.225-2.022-.674-2.846z"/>
                <path fill="#FFCBB3" fill-rule="nonzero" d="M265.82 305.143c1.873 2.546 3.745 5.018 5.543 7.564 1.348-.374 2.771-.749 4.12-1.123a61.468 61.468 0 0 0-2.023-7.265c-2.547.3-5.168.599-7.64.824z"/>
                <path fill="#E4AB8F" fill-rule="nonzero" d="M264.771 303.794c.375.45.675.9 1.05 1.423l7.714-.823c-.45-1.424-.974-2.772-1.498-4.195-2.247 1.423-4.57 2.697-7.266 3.595zM238.332 311.434c.374.45.749.899 1.048 1.348 2.697-.374 5.618-.15 8.24-.599-.45-1.423-.974-2.771-1.499-4.194-2.621 1.123-5.243 2.172-7.79 3.445z"/>
                <path fill="#FFCBB3" fill-rule="nonzero" d="M239.38 312.782c1.723 2.098 3.446 4.12 5.168 6.217.9 1.049 2.472 1.198 3.446.3l.15-.15a2.527 2.527 0 0 0 .898-2.547l-1.348-4.494c-2.696.525-5.617.3-8.314.674z"/>
                <path fill="#56758F" fill-rule="nonzero" d="M275.557 311.734c-.45-.674-1.198-1.199-2.097-1.274-4.344-.224-4.42 16.478-4.344 20.074 3.295-4.27 2.022-10.337 4.793-15.88.45-.898.9-2.021 1.648-2.92z"/>
                <path fill="#35485E" fill-rule="nonzero" d="M275.782 312.033c-.075-.075-.15-.224-.225-.3-.749.9-1.198 2.023-1.648 2.922-2.771 5.542-1.498 11.61-4.793 15.879v.224c0 .6 0 1.274.3 1.798.299.524.823 1.049 1.422.974.9 0 1.423-.9 1.723-1.723 1.198-2.846 1.947-5.917 2.696-8.913.675-2.622 1.274-5.318 1.199-8.014-.075-.974-.225-1.948-.674-2.847z"/>
                <path d="M269.19 325.44c-.074.9-.074 1.798.225 2.697.3.824 1.049 1.648 1.948 1.723 1.348.15 2.396-1.274 2.92-2.472 1.649-3.595 2.547-7.49 2.472-11.46 0-1.198-.074-2.397-.374-3.595-.375-1.423-1.648-3.445-3.445-2.622-1.199.525-1.274 2.173-1.573 3.221-1.199 4.045-1.948 8.164-2.172 12.508z"/>
                <path fill="#B7B6C9" fill-rule="nonzero" d="M213.016 189.272c.224-1.123 1.048-2.397 1.198-3.52.15-.674.524-.899.749-1.498.225-.749-.3-1.723-.075-2.472.3-.749.45-1.573.45-2.397-.824.974-1.723 1.948-2.472 2.922-1.423 1.872-2.996 4.194-3.745 6.366.3.15 3.82.6 3.895.6z"/>
                <g fill-rule="nonzero">
                    <path fill="#35485E" d="M242.526 225.599l.15.15c3.37 4.494 8.988 6.666 14.456 5.467 5.467-1.123 9.812-5.393 11.01-10.86l.075-.225-25.69 5.468z"/>
                    <path fill="#30508A" d="M244.174 187.999c-.6-1.273-5.318-4.494-10.336-5.168 0 .749 0 1.423.15 2.172l8.538 40.67 2.397-.524c.674-12.433.974-24.941-.749-37.15z"/>
                    <path fill="#395FA4" d="M251.065 179.61c-1.648-3.97-5.917-6.217-10.112-5.318a8.998 8.998 0 0 0-7.115 8.464c5.018.674 9.737 3.97 10.336 5.168 1.723 12.209 1.423 24.717.749 37.076l23.294-4.869-17.152-40.52z"/>
                    <path fill="#FFFED5" d="M251.14 209.345l2.022 15.205c.225 1.498 1.648 2.547 3.146 2.247 1.573-.3 2.471-2.022 1.947-3.52l-5.318-14.53c-.374-1.124-2.022-.6-1.797.598zM262.225 205.975l13.557 10.56c1.797 1.424.674 4.345-1.648 4.12l-5.917-.524-5.992-14.156z"/>
                </g>
                <path fill="#56758F" fill-rule="nonzero" d="M270.838 301.622c.375-.224.75-.45 1.124-.749-5.543-14.53-14.156-28.087-17.002-43.367-1.349-7.265-.15-15.43-3.82-21.87-7.266-12.584-8.539-13.483-15.954-13.333-6.367.075-12.059 5.767-12.284 12.06.15-.9 2.098-1.124 2.247-1.948l4.944 2.172c3.37 1.498 5.393 5.093 4.718 8.688-.074.375-.074.6 0 .674 2.322 6.442-1.647 4.045 4.195 23.893.899 2.996 2.921 5.543 4.868 8.09 8.464 9.062 15.58 20.672 26.964 25.69z"/>
                <path fill="#35485E" fill-rule="nonzero" d="M243.8 276.006c.224.375.524.675.748 1.05 6.741 9.137 13.482 18.35 20.223 27.487 2.247-.674 4.195-1.722 6.067-2.92-11.384-5.019-18.5-16.629-27.039-25.617z"/>
                <path fill="#56758F" fill-rule="nonzero" d="M238.332 289.189c-2.023-4.12-4.12-8.389-5.243-12.883-.3-1.273-1.274-5.243-1.274-5.243s2.098-10.037 5.243-29.286c.375-8.913-.898-17.377-2.321-25.84-5.618.45-7.49 3.22-9.513 8.988-1.722 4.943-4.569 11.534-5.093 16.702-.749 6.891-1.648 13.707-2.621 20.598-.824 5.617-1.798 11.46-.525 17.002 1.274 5.468 4.494 10.261 7.865 14.755 4.569 6.217 9.362 12.21 14.306 18.126 2.546-1.273 5.168-2.322 7.864-3.52-2.546-6.516-5.468-12.883-8.688-19.4z"/>
                <path fill="#35485E" fill-rule="nonzero" d="M230.767 232.19a30.023 30.023 0 0 0 5.318 16.628s-1.199 6.067-1.348 6.74c-2.547-7.34-3.895-15.578-3.97-23.368z"/>
                <path fill="#E4AB8F" fill-rule="nonzero" d="M231.366 173.993c.225-3.596.3-7.79-3.37-5.917-1.873.973-3.146 3.894-3.895 6.666 2.397.524 5.018.45 7.265-.75z"/>
                <path fill="#C7BE4F" fill-rule="nonzero" d="M234.961 155.492c-.15 1.349-.45 2.697-.824 4.045-.374 1.423-.898 2.921-.449 4.344.45 1.423 2.172 2.622 3.82 2.097-.225 1.349.824 2.697 2.322 3.071 1.423.3 2.996-.224 3.895-1.198 2.247-5.168-2.622-10.336-8.764-12.359z"/>
                <path fill="#F5EA61" fill-rule="nonzero" d="M218.708 143.808c-.075-.15-2.247 2.247-1.498 5.992.3 1.648 3.22 2.547 3.445 1.723.75-2.921 1.798-6.142 3.37-8.24-2.246-.299-3.744-1.123-5.317.525z"/>
                <path fill="#F5EA61" fill-rule="nonzero" d="M249.567 149.725c1.198-.674 1.273-2.247.599-3.296-.749-1.048-2.022-1.647-3.22-2.247.673-1.123.374-2.621-.675-3.445-1.048-.899-2.771-1.049-4.194-.524.45-1.124-.15-2.472-1.348-3.071-1.199-.6-2.922-.45-3.97.374 0-1.348-1.648-2.247-3.22-2.172-1.574.15-2.847 1.049-3.896 2.023-3.82-1.873-13.931 1.423-8.988 5.542-1.273.3-2.322 1.124-2.621 2.097 1.498-.973 3.445-1.423 5.318-1.348 1.048-.899 2.397-1.498 3.895-1.498 1.123 0 2.097.3 2.92.824 1.349.824 2.397 2.247 2.997 3.67 1.198 2.697 1.348 5.693 1.048 8.614 6.142 2.097 10.936 7.19 8.764 12.358 0-.075.074-.075.074-.15l.15-.15c1.199 1.499 4.27 1.124 5.543-.449 1.198-1.573.749-3.67-.674-5.018 1.947.225 3.82-1.348 4.044-3.071.225-1.648-.824-3.22-2.172-4.42 2.247-.673 2.023-3.969-.374-4.643z"/>
                <path fill="#35485E" fill-rule="nonzero" d="M236.759 236.684l.824.374c-.375-.524-.6-.599-.824-.374z"/>
                <path fill="#CFDEFF" fill-rule="nonzero" d="M234.212 212.566c.375-7.64-.15-14.68 1.274-21.87v-.225c-.3-3.596-.45-7.34-2.098-10.486-1.423-2.622-4.344-4.644-7.19-4.42l.225.75c-2.098 1.498-4.27 2.996-6.367 4.494-2.097 1.498-4.27 2.996-5.617 5.168-1.948 2.996-2.098 6.89-1.423 10.41.674 3.521 2.097 6.817 3.145 10.262 1.798 5.917 5.468 14.306 8.314 19.774l.375.075c4.943-3.596 8.988-8.689 9.362-13.932z"/>
                <path fill="#B7B6C9" fill-rule="nonzero" d="M234.212 212.566c-.374 5.243-4.344 10.261-9.437 13.932l.374.074c4.42 0 8.839-.449 13.183-1.423.824-.15 5.168-.449 5.168-.449s.075.674 0 0c-1.498-11.984-6.966-23.444-7.94-34.005-1.498 7.19-.973 14.231-1.348 21.871z"/>
                <path d="M223.427 196.388c-.225 0-.525.075-.75.075"/>
                <path fill="#E4AB8F" fill-rule="nonzero" d="M227.172 142.834c-3.745-.3-5.094 1.348-6.741 7.64 3.295-1.348 6.74-4.494 6.74-7.64z"/>
                <path fill="#E4AB8F" fill-rule="nonzero" d="M232.19 150.549a6.27 6.27 0 0 0 2.322-2.322c-.075-.225-.225-.45-.3-.6-1.123-2.096-2.996-3.969-5.243-4.568a7.26 7.26 0 0 0-1.722-.225c0 1.423-.75 2.846-1.798 4.045.824 2.696 3.52 4.569 6.741 3.67z"/>
                <path fill="#FFCBB3" fill-rule="nonzero" d="M234.512 148.227c-.524.899-1.273 1.648-2.322 2.322-3.22.899-5.917-.974-6.741-3.67-1.273 1.573-3.146 2.846-4.943 3.595-.9 3.745-.974 7.94-.9 10.336.076 2.921.45 5.992 2.023 8.539 1.573 2.546 4.494 4.344 7.415 3.895 2.322-.375 4.195-2.172 5.318-4.195 1.124-2.022 1.498-4.419 1.723-6.74.45-4.794.524-9.813-1.573-14.082zM224.026 174.742a84.573 84.573 0 0 0-1.049 4.269c2.846-.225 7.116.225 9.962 0-.6.075-1.723-2.696-1.573-5.018-2.247 1.198-4.868 1.273-7.34.749z"/>
                <path fill="#FFCBB3" fill-rule="nonzero" d="M234.961 158.413c.824-.599 1.798-.973 2.846-1.123.75-.15 1.798 0 2.023.749.075.3 0 .674-.075 1.049-.375 1.348-.974 2.696-2.172 3.445-1.199.749-3.071.524-3.67-.749-.674-1.423.524-3.07 1.647-4.194"/>
                <path fill="#F5EA61" fill-rule="nonzero" d="M226.498 145.231c-.15 1.049.374 2.172 1.198 2.846.824.674 1.947 1.049 2.996 1.049 1.947.075 4.12-1.049 4.494-2.921.3-1.423-.45-2.921-1.648-3.82-1.123-.899-2.621-1.273-4.12-1.423-1.572-.15-3.22-.075-4.718.45-1.573.598-5.468 3.52-4.794 5.617 1.124 3.07 5.618-.225 6.592-1.798z"/>
                <path d="M203.578 217.584c.45-.224.974-.449 1.423-.674M222.378 207.773c0 .15 0 .3.075.524"/>
                <path fill="#E4AB8F" fill-rule="nonzero" d="M192.568 132.648c-3.22.45.225.15-3.071.374 0 .075 0 .15-.075.15-.15.524-.3 1.124-.524 1.648 1.198.824 2.471 1.273 3.745 1.872.075-1.123 0-2.471-.075-4.044z"/>
                <path fill="#FFCBB3" fill-rule="nonzero" d="M192.568 157.215l.225-2.022c.898-9.438.3-12.583 0-18.426-1.274-.599-2.547-1.048-3.745-1.872-.15.374-.225.749-.375 1.198-2.921 10.037-5.468 20.972-7.04 31.758.449-.15.898-.3 1.273-.45-.45.15-.899.3-1.274.45-.224 1.423-.374 2.846-.599 4.27.525-.076 1.049-.226 1.498-.3 4.42-4.045 7.79-9.063 10.037-14.606z"/>
                <path fill="#E4AB8F" fill-rule="nonzero" d="M192.568 157.215a40.315 40.315 0 0 1-9.962 14.606c2.397-.45 4.794-.974 7.19-1.349.525-1.797 1.05-3.595 1.424-5.318a70.264 70.264 0 0 0 1.348-7.939z"/>
                <path fill="#CFDEFF" fill-rule="nonzero" d="M221.63 186.052l1.946-8.015c-11.984-1.797-24.192-2.097-36.251-.824a61.134 61.134 0 0 0 2.472-6.74c-2.922.449-5.843 1.123-8.764 1.647-.374 3.146-.674 6.292-.824 9.363-.075 1.722 1.049 3.22 2.697 3.595.899.225 2.172.524 4.12.899 2.096.45 13.331 2.396 21.945 2.771 1.723-2.921 4.569-6.367 5.992-8.763-.375 2.546-1.498 6.516-2.247 9.512 2.696.075 5.318-1.648 6.142-1.648 21.87-.15-4.045-1.423 2.771-1.797zM223.277 216.012l-19.399 2.022"/>
                <path fill="#B7B6C9" fill-rule="nonzero" d="M187.55 176.914l-5.094 2.022 5.992-4.419z"/>
                <path fill="#E4AB8F" fill-rule="nonzero" d="M236.31 162.907c-1.124.15-2.173.45-3.071 1.05.674.224 1.348.374 2.022.598.075 0 .225.075.3 0 .15-.075.224-.15.224-.3.15-.374.225-.748.3-1.123 0-.15-.075-.374-.225-.3"/>
                <path fill="#C7BE4F" fill-rule="nonzero" d="M234.362 147.703c.974-.674 1.723-1.798 1.873-2.996a8.996 8.996 0 0 1-1.049 5.393c-.075-.824-.45-1.648-.899-2.322"/>
                <g fill-rule="nonzero">
                    <path fill="#CFDEFF" d="M271.737 189.946c-1.423-1.273-3.146-2.172-4.793-3.07-8.015-4.12-27.264-8.39-36.477-7.79-2.322.15.15 3.07.525 6.217.374 3.295-3.071 3.37-.3 3.82 1.348.224 2.846.449 4.569.748-.524-1.722-1.648-2.92-1.273-4.943 10.036 3.595 19.923 5.917 29.51 9.887h.075c.674.075 1.423.075 1.947.45.225.15.45.449.6.673.075 0 .075 0 .15.075-.075 0-.075 0-.15-.075.075.15.224.3.3.525l1.347 2.247c2.547-1.498 5.094-2.996 7.565-4.494-1.048-1.573-2.172-3.071-3.595-4.27z"/>
                    <path fill="#B7B6C9" d="M235.186 189.871c9.138 1.648 22.47 4.57 28.237 4.944-9.512-3.97-19.399-6.292-29.51-9.887-.375 2.022.749 3.22 1.273 4.943z"/>
                    <path fill="#E4AB8F" d="M275.332 194.216c-2.546 1.498-5.093 2.996-7.565 4.494a207.758 207.758 0 0 0 2.472 4.194c2.322-2.397 3.67-5.318 5.693-7.94-.225-.15-.45-.449-.6-.748z"/>
                    <path fill="#FFCBB3" d="M270.164 202.979c4.045 7.04 8.164 14.081 12.209 21.047 1.872-.15 2.472.3 4.045-.674-2.472-9.438-5.169-19.474-10.262-27.788-.075-.15-.224-.3-.3-.524-1.947 2.621-3.37 5.542-5.692 7.939z"/>
                    <path fill="#B7B6C9" d="M272.187 196.238c-1.049 1.423-3.296 1.423-4.644 2.621-.525-.898-1.648-2.247-1.798-3.295.75-.075 6.292.899 6.442.674z"/>
                    <path fill="#FFCBB3" d="M289.189 232.64c.3-.076.524-.375.6-.75 0-.3-.076-.674-.226-.973-.824-2.172-2.247-9.213-5.542-8.689-2.622.375-3.146 6.142-1.274 7.266.75-.75.9-2.023 1.349-2.996 2.322 1.273 2.771 4.643 5.093 6.141z"/>
                </g>
                <path fill="#FFCBB3" fill-rule="nonzero" d="M224.176 189.122c3.22-2.92 6.441-5.842 8.838-9.437.075-.15.15-.3.15-.45 0-.15-.15-.224-.225-.299-2.921-2.397-6.591-3.595-9.662-1.423.225-.15-.524.749-.225.674.075 3.745-.749 7.415 1.124 10.935zM184.404 130.4c-.3-.149-.75-.598-.45-.898.15-.15.3-.15.525-.15 1.947.075 3.82.15 5.767.3 1.049.075 2.172.075 3.22-.15.75-.15 1.499-.45 2.248-.674a23.974 23.974 0 0 1 7.265-1.348c.45 0 .749.45.524.824-.3.524-.973.973-1.573 1.198-3.145 1.348-6.366 2.472-9.662 3.22-3.295.75-5.018-.823-7.864-2.321z"/>
                <path fill="#35485E" fill-rule="nonzero" d="M226.872 281.699c1.947-2.172 3.97-4.27 6.142-6.217a18.92 18.92 0 0 1-1.124-4.943c0 .224-.374.749-.449.973.075-.074.15-.074.15-.15-.45 1.723-1.573 3.446-2.322 5.094a162.634 162.634 0 0 1-2.397 5.243z"/>
                <path fill="#FFAB6A" fill-rule="nonzero" d="M265.146 237.807c0-2.471-2.322-4.344-4.794-3.82-1.198.3-2.097 1.05-2.546 2.023 2.397 3.37 4.868 6.516 7.34 9.812v-8.015z"/>
                <path fill="#FFF35A" fill-rule="nonzero" d="M257.806 236.085c-.525 1.123-.6 2.397.075 3.595l7.34 13.482v-7.34a303.459 303.459 0 0 1-7.415-9.737z"/>
                <path fill="#6D93B4" fill-rule="nonzero" d="M174.891 102.613h-41.27a7.864 7.864 0 0 1-7.864-7.865v-47.86a7.864 7.864 0 0 1 7.865-7.865h41.27a7.864 7.864 0 0 1 7.864 7.864v47.861a7.864 7.864 0 0 1-7.865 7.865z"/>
                <g fill-rule="nonzero">
                    <path fill="#35485E" d="M169.05 63.74h-30.485a3.005 3.005 0 0 1-2.996-2.996v-1.049a3.005 3.005 0 0 1 2.996-2.996h30.484a3.005 3.005 0 0 1 2.996 2.996v1.049a3.005 3.005 0 0 1-2.996 2.996z"/>
                    <path fill="#56758F" d="M150.998 77.746h5.617v11.235h-5.617z"/>
                    <path fill="#56758F" d="M139.763 58.796c0 5.843 2.172 11.535 6.067 15.954l5.168 5.767h5.618l5.168-5.767c3.895-4.419 6.067-10.036 6.067-15.954 0-4.044-1.423-8.014-4.12-11.085l-.674-.749a12.24 12.24 0 0 0-9.287-4.269 12.24 12.24 0 0 0-9.288 4.27l-.674.748c-2.547 3.071-4.045 7.04-4.045 11.085zM170.772 97.37h-30.185a4.347 4.347 0 0 1-4.344-4.344v-1.049c0-4.044 3.296-7.265 7.265-7.265h19.849c4.044 0 7.265 3.295 7.265 7.265v5.393h.15z"/>
                    <path fill="#35485E" d="M149.575 66.511l-5.692 5.693 7.115 8.313h5.618l6.966-8.388-6.966-5.618z"/>
                    <path fill="#56758F" d="M149.575 72.129h8.389V74.9h-8.389z"/>
                </g>
                <path fill="#6D93B4" fill-rule="nonzero" d="M234.062 46.438h-40.446c-1.423 0-2.621-1.198-2.621-2.622v-1.498c0-1.423 1.198-2.621 2.621-2.621h40.446c1.424 0 2.622 1.198 2.622 2.621v1.498c0 1.424-1.198 2.622-2.622 2.622zM233.313 58.422h-23.968c-1.423 0-2.621-1.198-2.621-2.622v-1.498c0-1.423 1.198-2.621 2.621-2.621h23.968c1.424 0 2.622 1.198 2.622 2.621V55.8c0 1.424-1.198 2.622-2.622 2.622zM233.313 70.406h-23.968c-1.423 0-2.621-1.198-2.621-2.622v-1.498c0-1.423 1.198-2.621 2.621-2.621h23.968c1.424 0 2.622 1.198 2.622 2.621v1.498c0 1.424-1.198 2.622-2.622 2.622z"/>
                <path fill="#56758F" fill-rule="nonzero" d="M154.444 122.087h-2.023c-3.894 0-7.115-3.22-7.115-7.116 0-3.894 3.22-7.115 7.115-7.115h2.023c3.895 0 7.115 3.22 7.115 7.115s-3.22 7.116-7.115 7.116z"/>
                <path fill="#35485E" fill-rule="nonzero" d="M146.804 84.637l6.741 23.219-10.486-23.219zM160.061 84.637l-6.516 23.219 10.486-23.219z"/>
                <g fill="#35485E" fill-rule="nonzero">
                    <path d="M152.796 111.601h2.022v6.741h-2.022z"/>
                    <path d="M152.796 111.601l-2.247 2.247h2.996z"/>
                </g>
                <path fill="#6D93B4" fill-rule="nonzero" d="M61.343 56.325L56.1 56.25c-.749 0-1.423.6-1.423 1.348 0 .75.6 1.348 1.348 1.348l5.318.075c.824 0 1.498-.749 1.348-1.573-.075-.599-.674-1.123-1.348-1.123zM63.59 96.77l-5.243-.074c-.749 0-1.423.6-1.423 1.348 0 .75.6 1.348 1.348 1.348l5.318.075c.824 0 1.498-.749 1.348-1.573-.075-.599-.674-1.123-1.348-1.123z"/>
                <path fill="#56758F" fill-rule="nonzero" d="M64.34 154.444l-5.244-.075c-.749 0-1.423.6-1.423 1.348 0 .75.6 1.348 1.348 1.348l5.318.075c.824 0 1.498-.749 1.348-1.573-.075-.599-.674-1.123-1.348-1.123z"/>
                <g fill="#6D93B4" fill-rule="nonzero">
                    <path d="M46.213 48.31l17.152.15M61.942 48.31l-14.38-.15c-.75 0-1.349-.599-1.349-1.422 0-.75.6-1.349 1.423-1.349l14.381.15c.75 0 1.348.6 1.348 1.423 0 .75-.599 1.423-1.423 1.348z"/>
                </g>
                <g fill="#6D93B4" fill-rule="nonzero">
                    <path d="M46.213 53.553l17.152.15M61.942 53.553l-14.38-.15c-.75 0-1.349-.599-1.349-1.422 0-.75.6-1.349 1.423-1.349l14.381.15c.75 0 1.348.6 1.348 1.423 0 .75-.599 1.423-1.423 1.348z"/>
                </g>
                <g fill="#56758F" fill-rule="nonzero">
                    <path d="M47.711 105.983l17.152.15M63.44 105.983l-14.38-.15c-.75 0-1.349-.599-1.349-1.422 0-.75.6-1.349 1.423-1.349l14.381.15c.75 0 1.348.6 1.348 1.423 0 .75-.599 1.423-1.423 1.348z"/>
                </g>
                <g fill="#56758F" fill-rule="nonzero">
                    <path d="M48.46 152.421l17.152.15M64.19 152.421l-14.382-.15c-.749 0-1.348-.599-1.348-1.422 0-.75.6-1.349 1.423-1.349l14.381.15c.75 0 1.348.6 1.348 1.423 0 .75-.599 1.423-1.423 1.348z"/>
                </g>
                <g fill="#56758F" fill-rule="nonzero">
                    <path d="M48.46 162.158l17.152.15M64.19 162.158l-14.382-.15c-.749 0-1.348-.599-1.348-1.422 0-.75.6-1.349 1.423-1.349l14.381.15c.75 0 1.348.6 1.348 1.423 0 .75-.599 1.423-1.423 1.348z"/>
                </g>
                <g fill-rule="nonzero">
                    <path fill="#6D93B4" d="M36.027 59.92l-8.689-.075c-1.123 0-2.022-.899-2.022-1.947l.075-11.01c0-.525.225-1.05.6-1.349.374-.374.898-.524 1.422-.524l8.689.075c1.123 0 2.022.899 2.022 1.947l-.075 11.01c0 .525-.225 1.05-.599 1.349-.375.3-.824.524-1.423.524zm-8.539-13.407c-.15 0-.224.075-.3.075-.074.075-.15.15-.15.3l-.074 11.01c0 .224.15.374.374.374l8.689.075c.15 0 .225-.075.3-.075.074 0 .15-.15.15-.3l.074-11.01c0-.224-.15-.374-.374-.374l-8.689-.075z"/>
                    <g transform="translate(29.96 47.936)">
                        <circle cx="1.562" cy="2.132" r="1.423" fill="#56758F" transform="rotate(-89.499 1.562 2.132)"/>
                        <path fill="#6D93B4" d="M1.872 4.194c-.524 0-1.048-.224-1.348-.599C.15 3.221 0 2.771 0 2.247c0-.524.225-.974.6-1.348.374-.375.898-.525 1.347-.525 1.049 0 1.948.9 1.948 1.948 0 .524-.225.974-.6 1.348-.449.3-.898.524-1.423.524zm0-2.546c-.15 0-.3.075-.449.15-.15.074-.15.224-.15.449 0 .15.075.3.15.45.075.15.225.15.45.15.15 0 .3-.076.449-.15.15-.076.15-.225.15-.45 0-.3-.3-.6-.6-.6z"/>
                    </g>
                    <path fill="#56758F" d="M34.304 56.475l-5.692-.075c-.075 0-.225-.075-.225-.225v-.3c0-1.647 1.348-2.996 3.071-2.996 1.648 0 2.996 1.349 2.996 3.071v.3c.075.15 0 .225-.15.225z"/>
                    <path fill="#6D93B4" d="M34.304 57.149l-5.692-.075a.85.85 0 0 1-.6-.225.85.85 0 0 1-.224-.6v-.299c0-.973.374-1.947 1.123-2.621.674-.674 1.648-1.049 2.622-1.049 2.022 0 3.67 1.723 3.67 3.745v.3c0 .45-.375.824-.899.824zM29.136 55.8l4.719.075c-.075-1.198-1.124-2.172-2.322-2.247-.674 0-1.199.225-1.648.674-.45.375-.674.9-.749 1.498z"/>
                </g>
                <g fill-rule="nonzero">
                    <path fill="#6D93B4" d="M27.114 97.07c0-.15.075-.224.15-.3.074-.074.15-.074.3-.074l8.688.075c.224 0 .374.15.374.374l-.075 5.468H38.2l.075-5.468c0-1.048-.899-1.947-2.022-1.947l-8.689-.075c-.524 0-1.048.225-1.423.524-.374.375-.6.824-.6 1.348l-.074 5.543h1.648V97.07z"/>
                    <path fill="#56758F" d="M36.551 102.613l-.075 5.543c0 .15-.075.224-.15.3-.074.074-.15.149-.3.074l-8.688-.075c-.224 0-.374-.15-.374-.374l.075-5.468H25.39l-.075 5.468c0 1.048.899 1.947 2.022 1.947l8.689.075c.524 0 1.048-.225 1.423-.524.374-.375.6-.824.6-1.349l.074-5.542c-.524-.075-1.123-.075-1.573-.075z"/>
                    <g transform="translate(29.96 98.119)">
                        <circle cx="1.564" cy="2.132" r="1.423" fill="#56758F" transform="rotate(-89.499 1.564 2.132)"/>
                        <path fill="#6D93B4" d="M1.872 4.194c-.524 0-1.048-.224-1.348-.599C.15 3.221 0 2.771 0 2.247c0-.524.225-.974.6-1.348.374-.375.898-.525 1.347-.525 1.049 0 1.948.9 1.948 1.948 0 .524-.225.974-.6 1.348-.449.3-.898.524-1.423.524zm0-2.546c-.15 0-.3.075-.449.15-.15.074-.15.224-.15.449 0 .15.075.3.15.45.075.15.225.15.45.15.15 0 .3-.076.449-.15.15-.076.15-.225.15-.45 0-.3-.3-.6-.6-.6z"/>
                    </g>
                    <g>
                        <path fill="#6D93B4" d="M34.304 106.658l-5.692-.075c-.075 0-.225-.075-.225-.225v-.3c0-1.647 1.348-2.996 3.071-2.996 1.648 0 2.996 1.349 2.996 3.071v.3c.075.15 0 .225-.15.225z"/>
                        <path fill="#56758F" d="M34.304 107.332l-5.692-.075a.85.85 0 0 1-.6-.225.85.85 0 0 1-.224-.6v-.299c0-.973.374-1.947 1.123-2.621.674-.674 1.648-1.049 2.622-1.049 2.022 0 3.67 1.723 3.67 3.745v.3c0 .45-.375.824-.899.824zm-5.168-1.349l4.719.075c-.075-1.198-1.124-2.172-2.322-2.247-.674 0-1.199.225-1.648.674-.45.375-.674.9-.749 1.498z"/>
                    </g>
                </g>
                <g fill-rule="nonzero">
                    <g fill="#56758F">
                        <path d="M27.114 150.998c0-.15.075-.224.15-.3.074-.074.15-.074.3-.074l8.688.075c.224 0 .374.15.374.374l-.075 5.468H38.2l.075-5.468c0-1.048-.899-1.947-2.022-1.947l-8.689-.075c-.524 0-1.048.225-1.423.524-.374.375-.6.824-.6 1.348l-.074 5.543h1.648v-5.468zM36.551 156.541l-.075 5.543c0 .15-.075.224-.15.3-.074.074-.15.149-.3.074l-8.688-.075c-.224 0-.374-.15-.374-.374l.075-5.468H25.39l-.075 5.468c0 1.048.899 1.947 2.022 1.947l8.689.075c.524 0 1.048-.225 1.423-.524.374-.375.6-.824.6-1.349l.074-5.542c-.524-.075-1.123-.075-1.573-.075z"/>
                    </g>
                    <g transform="translate(29.96 152.047)">
                        <circle cx="1.566" cy="2.132" r="1.423" fill="#6D93B4" transform="rotate(-89.499 1.566 2.132)"/>
                        <path fill="#56758F" d="M1.872 4.194c-.524 0-1.048-.224-1.348-.599C.15 3.221 0 2.771 0 2.247c0-.524.225-.974.6-1.348.374-.375.898-.525 1.347-.525 1.049 0 1.948.9 1.948 1.948 0 .524-.225.974-.6 1.348-.449.3-.898.524-1.423.524zm0-2.546c-.15 0-.3.075-.449.15-.15.074-.15.224-.15.449 0 .15.075.3.15.45.075.15.225.15.45.15.15 0 .3-.076.449-.15.15-.076.15-.225.15-.45 0-.3-.3-.6-.6-.6z"/>
                    </g>
                    <path fill="#6D93B4" d="M34.304 160.586l-5.692-.075c-.075 0-.225-.075-.225-.225v-.3c0-1.647 1.348-2.996 3.071-2.996 1.648 0 2.996 1.349 2.996 3.071v.3c.075.15 0 .225-.15.225z"/>
                    <path fill="#56758F" d="M34.304 161.26l-5.692-.075a.85.85 0 0 1-.6-.225.85.85 0 0 1-.224-.6v-.299c0-.973.374-1.947 1.123-2.621.674-.674 1.648-1.049 2.622-1.049 2.022 0 3.67 1.723 3.67 3.745v.3c0 .45-.375.824-.899.824zm-5.168-1.349l4.719.075c-.075-1.198-1.124-2.172-2.322-2.247-.674 0-1.199.225-1.648.674-.45.375-.674.9-.749 1.498z"/>
                </g>
                <path stroke="#6D93B4" stroke-width="1.498" d="M33.93 74.9h-5.618a2.094 2.094 0 0 1-2.097-2.097v-5.618c0-1.123.899-2.097 2.097-2.097h5.618c1.123 0 2.097.899 2.097 2.097v5.618C35.952 74 35.053 74.9 33.93 74.9zM48.16 74.9h-5.617a2.094 2.094 0 0 1-2.097-2.097v-5.618c0-1.123.899-2.097 2.097-2.097h5.618c1.123 0 2.097.899 2.097 2.097v5.618C50.183 74 49.284 74.9 48.16 74.9zM62.392 74.9h-5.618a2.094 2.094 0 0 1-2.097-2.097v-5.618c0-1.123.899-2.097 2.097-2.097h5.618c1.123 0 2.097.899 2.097 2.097v5.618C64.414 74 63.515 74.9 62.392 74.9z"/>
                <path stroke="#56758F" stroke-width="1.498" d="M48.16 123.585h-5.617a2.094 2.094 0 0 1-2.097-2.097v-5.618c0-1.123.899-2.097 2.097-2.097h5.618c1.123 0 2.097.899 2.097 2.097v5.618c-.075 1.198-.974 2.097-2.097 2.097zM62.392 123.585h-5.618a2.094 2.094 0 0 1-2.097-2.097v-5.618c0-1.123.899-2.097 2.097-2.097h5.618c1.123 0 2.097.899 2.097 2.097v5.618c-.075 1.198-.974 2.097-2.097 2.097z"/>
                <g stroke="#6D93B4" stroke-width="2.247">
                    <path d="M235.186 119.465h-6.666a2.494 2.494 0 0 1-2.472-2.471v-6.666a2.494 2.494 0 0 1 2.472-2.472h6.666a2.494 2.494 0 0 1 2.472 2.472v6.666a2.494 2.494 0 0 1-2.472 2.471zM218.408 119.465h-6.666a2.494 2.494 0 0 1-2.471-2.471v-6.666a2.494 2.494 0 0 1 2.471-2.472h6.666a2.494 2.494 0 0 1 2.472 2.472v6.666a2.494 2.494 0 0 1-2.472 2.471zM201.63 119.465h-6.665a2.494 2.494 0 0 1-2.472-2.471v-6.666a2.494 2.494 0 0 1 2.472-2.472h6.666a2.494 2.494 0 0 1 2.471 2.472v6.666a2.494 2.494 0 0 1-2.471 2.471z"/>
                </g>
                <g fill="#F5EA61" fill-rule="nonzero">
                    <path d="M214.963 87.783l2.022 4.194 4.644.674-3.37 3.221.749 4.644-4.12-2.172-4.12 2.097.824-4.569-3.37-3.296 4.644-.674zM198.934 87.933l2.098 4.194 4.568.674-3.37 3.22.824 4.645-4.12-2.247-4.194 2.172.824-4.57-3.296-3.295 4.57-.674zM230.917 87.633l2.022 4.194 4.644.674-3.37 3.221.748 4.644-4.12-2.172-4.119 2.097.75-4.569-3.296-3.295 4.643-.6z"/>
                </g>
            </g>
        </g>
    </g>
</svg>
