<svg xmlns="http://www.w3.org/2000/svg" xmlns:xlink="http://www.w3.org/1999/xlink" width="542" height="464" viewBox="0 0 542 464">
    <defs>
        <path id="b" d="M370 169c-45 0-91-1-136 0-11 0-25 2-28 15-8 37 13 91-25 110-18.1 9.5-39.9 4.8-61 4v.1h1v21.1c0 2.6 2.1 4.8 4.8 4.8h272.1c2.6 0 4.8-2.1 4.8-4.8L402 169v-.1c-10.7-.4-21.9.1-32 .1z"/>
        <filter id="a" width="128.3%" height="151.5%" x="-14.1%" y="-24.4%" filterUnits="objectBoundingBox">
            <feOffset dy="2" in="SourceAlpha" result="shadowOffsetOuter1"/>
            <feGaussianBlur in="shadowOffsetOuter1" result="shadowBlurOuter1" stdDeviation="13"/>
            <feColorMatrix in="shadowBlurOuter1" values="0 0 0 0 0 0 0 0 0 0 0 0 0 0 0 0 0 0 0.5 0"/>
        </filter>
        <linearGradient id="c" x1="50.081%" x2="49.489%" y1="60.493%" y2="3.804%">
            <stop offset="0%" stop-color="#FFF" stop-opacity=".383"/>
            <stop offset="100%" stop-color="#F0EFFF"/>
        </linearGradient>
        <radialGradient id="d" cx="49.995%" cy="49.83%" r="370.474%" fx="49.995%" fy="49.83%" gradientTransform="matrix(.09586 0 0 1 .452 0)">
            <stop offset=".513%" stop-color="#CECDE3"/>
            <stop offset="27.42%" stop-color="#D2D2E6" stop-opacity=".73"/>
            <stop offset="57.42%" stop-color="#E0DFED" stop-opacity=".428"/>
            <stop offset="88.82%" stop-color="#F5F5FA" stop-opacity=".112"/>
            <stop offset="100%" stop-color="#FFF" stop-opacity="0"/>
        </radialGradient>
    </defs>
    <g fill="none" fill-rule="evenodd">
        <path fill="#5B90F7" fill-rule="nonzero" d="M497 196.9c25.3-29.6 35-71.2 24.8-108.4s-40.2-68.9-77.7-81.6c-37.5-12.7-81.5-5.8-112.5 18.2-21.4 16.5-36 39.6-53.5 59.9-21.1 24.4-49.2 42.7-82.7 44.4-37.6 2-76.8-9-112.2 4.1-32.1 11.9-54.8 42-68.2 73.9-18 43-21.6 94.5.9 135.2 26.6 48.2 85.8 71.8 139.9 65.3 28.8-3.4 56.5-14.1 85.4-15.7 55.8-3.1 111.5 27.8 165.7 14.4 43.2-10.7 77-50.4 84.1-94.9 3.6-22.5 1.1-46.2 8.5-67.7 6.6-19.3 20.7-35.1 30.1-53.2 11-21.1 15.4-46.6 8-69.2-4.2-12.7-11.8-24-20.5-34-21.7-24.8-52.3-49.7-84.6-54.8-32.3-5.1-64.3-8.4-89 13.4 2.1-1 2.4 16.6 4.5 15.6"/>
        <g fill-rule="nonzero">
            <use fill="#000" filter="url(#a)" xlink:href="#b"/>
            <use fill="#FFF" xlink:href="#b"/>
        </g>
        <path fill="url(#c)" fill-rule="nonzero" d="M396.9 140H124.8c-2.6 0-4.8 2.1-4.8 4.8V298c21.1.8 42.9 5.5 61-4 38-19 17-73 25-110 3-13 17-15 28-15 45-1 91 0 136 0 10.1 0 21.3-.5 32-.1l-.4-24.2c0-2.6-2.1-4.7-4.7-4.7z"/>
        <ellipse cx="124.1" cy="451.8" fill="url(#d)" fill-rule="nonzero" rx="123.1" ry="11.8"/>
        <ellipse cx="349.1" cy="449.8" fill="url(#d)" fill-rule="nonzero" rx="123.1" ry="11.8"/>
        <g fill-rule="nonzero">
            <path fill="#CFDBDB" d="M44 284.2c0 1 .7 1.9 1.7 2.1 5.9 1.2 10.2 6.6 9.8 12.9-.4 6.1-5.5 11.2-11.6 11.5-7.1.4-13-5.3-13-12.3 0-.9.1-1.7.3-2.6.2-1-.3-1.9-1.1-2.4 0 0-.1 0-.1-.1-1.2-.6-2.7.1-3 1.5-.4 1.7-.5 3.5-.3 5.4.9 8 7.5 14.2 15.6 14.7 9.6.6 17.6-7.1 17.6-16.6 0-8-5.7-14.7-13.3-16.3-1.3-.2-2.6.8-2.6 2.2z"/>
            <path fill="#6D93B4" d="M44 286.1v0h-.7c-5.4 0-9.9 3.4-11.6 8.2.2.1.5.3.7.5-.2-.2-.5-.3-.7-.5-.5 1.3-.7 2.6-.7 4.1 0 6.8 5.5 12.3 12.3 12.3 6.8 0 12.3-5.5 12.3-12.3 0-6.6-5.2-11.9-11.6-12.3zm-.7 20.2c-4.4 0-8-3.6-8-8s3.6-8 8-8 8 3.6 8 8c-.1 4.4-3.6 8-8 8z"/>
            <path fill="#CFDBDB" d="M46.1 293.8c-.5.8-.4 1.8.1 2.5.8 1.2.9 2.7.1 4-.8 1.3-2.3 1.8-3.7 1.6-.9-.2-1.8.2-2.3.9-.8 1.3-.1 3 1.4 3.3 3.1.6 6.4-.7 8.3-3.5 1.8-2.8 1.6-6.4-.2-9-1-1.1-2.9-1-3.7.2z"/>
            <g opacity=".64">
                <path fill="#CFDBDB" d="M98.4 295.3c.2.9.2 1.9.2 2.9-.4 6.2-5.4 11.1-11.6 11.5-7.1.4-13-5.3-13-12.3 0-.9.1-1.7.3-2.5.2-1-.2-2-1.1-2.4 0 0-.1 0-.1-.1-1.2-.6-2.7.1-3 1.4-.4 1.7-.5 3.5-.3 5.3.8 8.1 7.5 14.4 15.6 14.9 9.6.6 17.6-7.1 17.6-16.6 0-.9-.1-1.9-.2-2.8-.2-1.3-1.5-2.1-2.8-1.7-1.1.3-1.8 1.3-1.6 2.4z"/>
                <path fill="#6D93B4" d="M96 294c.7-.2 1.3-.3 1.9-.5-1.6-4.7-5.8-8.1-10.9-8.4v0h-.7c-5.4 0-9.9 3.4-11.6 8.2.2.1.5.3.7.5-.2-.2-.5-.3-.7-.5-.5 1.3-.7 2.6-.7 4.1 0 6.8 5.5 12.3 12.3 12.3 6.8 0 12.3-5.5 12.3-12.3 0-1.4-.2-2.6-.6-3.9-.7.2-1.3.3-2 .5zm-9.7 11.3c-4.4 0-8-3.6-8-8s3.6-8 8-8 8 3.6 8 8-3.6 8-8 8z"/>
                <path fill="#CFDBDB" d="M91 295.5c-.8.3-1.2 1.1-1.2 1.9 0 .7-.2 1.3-.6 1.9-.8 1.3-2.3 1.8-3.7 1.6-.9-.2-1.8.2-2.3.9v.1c-.8 1.3-.1 3 1.4 3.3 3.1.6 6.4-.7 8.2-3.5.9-1.4 1.3-3 1.3-4.6 0-1.3-1.4-2.2-2.6-1.8-.1.1-.3.2-.5.2z"/>
            </g>
        </g>
        <path fill="#FFCBB3" fill-rule="nonzero" d="M398.2 99.1l-3.1.3c.7.4 1.5.8 2.2 1 .3-.4.6-.9.9-1.3z"/>
        <path fill="#543229" fill-rule="nonzero" d="M403.4 95.7c-1.6 2.2-3.1 4.6-4 7.3 1.6.6 3.2 1.1 4.9 1.4-.4-2.7-.4-5.1-.4-8.1-.3-.2-.4-.4-.5-.6z"/>
        <path fill="#754B3F" fill-rule="nonzero" d="M410.4 104.7c1.8-.1 3.1-1.7 2.8-3.5-.9-5.4-3.1-10.5-6.1-15-1.2-1.7-2.5-3.4-3.9-5-3.6-4.4-7.6-9-13.1-10.5l-1.2 2.4c5.4 3.9 9 9.8 12.5 15.5 1.8 2.9 3.6 6 3.7 9.4-.4-.6-.9-1.2-1.3-1.8 0 2.9 0 5.4.4 8.1 2 .4 4.1.6 6.2.4z"/>
        <path fill="#F8EF89" fill-rule="nonzero" d="M398.4 90.6c-2.6-2-5.5-3.5-9.9-2.4-.6.1-.5-.9-.9-.4-.2.2-.2.5-.2.8-.5 4 1 10.7 4.4 12.7h1.1c-2.3 3.9.3-.4 0 0-.7-.2-.4.4-1.1 0 2.1 1.8 1.1 0 7.6 4.4.9-2.7 2.3-7.7 3.9-10-1.4-1.9-3-3.6-4.9-5.1z"/>
        <g fill-rule="nonzero">
            <path fill="#543229" d="M386.44 85.967c-2.3-3.785-5.7-8.895-7.7-7.822-1.5.82-.4 5.236.5 8.642 2.4.505 4.9.063 7.2-.82z"/>
            <path fill="#754B3F" d="M386.44 86c-2.2.88-4.8 1.32-7.2.88.5 1.761.9 3.27.9 3.837.3 0 6.3 3.522 8.4 3.27 2.1-.251.3-4.214.3-4.276-.5-.44-1.3-1.95-2.4-3.711z"/>
        </g>
        <g fill-rule="nonzero">
            <path fill="#35485E" d="M313.435 81.102c0 .2-.1.4-.1.6-1.4 7.1 1.6 13.5 8.7 16.8 2.9 1.4 6.6 2.3 10.8 2.3 1.6 0 3.3-.2 4.9-.4-12.7-2.5-22.1-9.7-24.3-19.3z"/>
            <path fill="#56758F" d="M362.435 81.002c-2.8-10.4-4.7-21.6-1.5-32.2l-2.5-.3c-1.4 0-2.9.1-4.5.4-2.5.4-5.2 1-7.7 1.9-6.7 2.3-12.8 6-17.9 10-7.8 6.3-13.4 13.6-15.1 20.5 2.2 9.6 11.7 16.7 24.3 19.3.5-.1 1.1-.2 1.6-.3 10.2-4.2 20.6-8.2 23.3-19.3z"/>
            <path fill="#35485E" d="M363.735 49.102l-2.8-.4c-3.3 10.6-1.4 21.8 1.5 32.2 0-.2.1-.4.1-.6 0 .2-.1.4-.1.6 0 .2.1.4.1.5 0-.2-.1-.4-.1-.5-2.7 11.1-13.1 15.1-23.2 19.2 3.6-.7 7.3-1.9 10.8-3.4 1.9-.8 3.8-1.8 5.6-2.8 7-4 12.6-9.1 17.2-14.2 3-3.3 5.6-6.7 7-10.1.7-1.7 1-3.3 1.1-4.9-2.6-6.8-8.7-12.4-17.2-15.6z"/>
            <path fill="#754B3F" d="M374.635 78.202c1.2 2.1 3 4.4 5.7 4.5 3 0 4.9-2.9 5.8-5.5 1-3 1.6-6 2.1-9.1.6-4 .8-8.2-.3-12.1-1.1-3.9-3.7-7.7-7.6-9.7-2.2-1.1-4.8-1.6-7.1-.8-5.9 2-6 9.8-6 14.4-.2 6 4.3 13 7.4 18.3z"/>
            <path fill="#56758F" d="M376.035 59.602c.3-3.6.5-7.1.4-10.7.8 2.7 1.7 5.4 2.5 8.1 2.7-1.7 5.4-3.4 8.1-5l.3-.3c0-.1 0-.2-.1-.3-1-2.5-2.6-4.7-4.7-6.3-2.1-1.6-4.9-2.4-7.5-2-2.8.5-5.2 2.3-6.7 4.6-1.6 2.3-2.4 5.1-2.7 7.8-.3 3.1 0 6.3.7 9.3 1.3-.3 9.7-3.9 9.7-5.2z"/>
        </g>
        <path fill="#C7BE4F" fill-rule="nonzero" d="M395.5 125.2c-1.5.3-2.9.6-4.3.9-.2.1-.3.1-.5.2.2-.1.3-.1.5-.2-3.7.9-7 1.8-8.6 2.6l5.5-.9c-2.7 2.1 5.3.4 5.8 3.7.6 3.6 4.9 5.3 8.6 5.2 3-.1 6-1.1 8.9-2 .9-.3 2-.5 3.1-.8-.2-2-.5-4-1-6-6.5 2.4-11.8-2.7-18-2.7z"/>
        <path fill="#F8EF89" fill-rule="nonzero" d="M413.6 127.9c-.4-1.9-.9-3.7-1.6-5.5l-2.4.3c-2.6.4-8.4 1.3-14.1 2.5 6.2 0 11.5 5.1 18.1 2.7z"/>
        <path fill="#754B3F" fill-rule="nonzero" d="M431.8 124.1c-.8-1.1-1.8-2.2-3-2.8-2-1-4.4-.7-6.6-.4-3 .4-6 .8-9 1.3 1.7 3.1 2.6 6.7 3.6 9.6 2.6 0 4.5 0 6.7.5.3-.1.7-.2 1-.3 0-.1-.1-.2-.1-.3 0 .1.1.2.1.3.2-.1.4-.1.6-.2 0 .3 0 .6.1.9.1 0 .2.1.3.1-.1 0-.2-.1-.3-.1 0 .3 0 .6.1.9 5.5 13.6 4 28 13.3 40.5.8-.1 1.6-.2 2.3 0-.6-13.6-1.7-27.3-5.1-40.5-.9-3.3-2-6.7-4-9.5z"/>
        <path fill="#543229" fill-rule="nonzero" d="M438.6 174.1c0 .1 0 .1 0 0 0 .1 0 .1 0 0-.3 0-.7.1-1 .1.3 0 .6 0 1-.1-9.3-12.5-7.8-26.9-13.3-40.5.7 9.9.9 18.9 4.7 28.1 2.4 5.7 5.5 11.3 6.6 17.4 1.5 0 3-.2 4.4-.8-.1-1.4-.1-2.9-.2-4.3-.7 0-1.4.1-2.2.1zM413.033 122.2c-.41.1-.923.1-1.333.2 1.436 3.8 2.256 7.6 2.667 11.5 2.974-.6 6.461-1 9.333-1.6-2.359-.5-4.308-.5-6.872-.5-1.128-2.9-2.051-6.5-3.795-9.6zM389.6 140.952c.7.384 0 2.82 5.9 1.666 5.2-1.025 17.2 1.923 22.4 1.154-7.9-4.999-16.6-3.205-25.4-4.87.4 1.665-4.2 1.153-2.9 2.05zM403.3 185.5l-.6 1.8.6-1.8c-.2-.1-.4-.3-.6-.4.2.1.4.2.6.4 2.3-6.8 3.4-13.7 4.3-21.1-3.1 7.9-5.4 16.1-6.9 24.5 1.1 1.2 2.2 2.3 3.3 3.5.6-.9 1.1-1.8 1.7-2.8-.4-1.6-1.2-3.2-2.4-4.1z"/>
        <path fill="#754B3F" fill-rule="nonzero" d="M425.4 137.4c-.6-1.2-1.8-1.8-3-2.3-6.5-2.9-13.4-4.7-20.5-5.3-2.1-.2-9-1.4-10.7 0-1.9 1.7.5 8 1.2 10 8.8 1.3 17.6-.1 25.4 3.8-5 6.5-11.6 13.3-10.3 20.7-.9 7.4-2 14.3-4.3 21.1 1.2.9 2 2.5 2.4 4.1 9.3-15.3 18.4-31.3 20.1-49 .2-1 .2-2.1-.3-3.1zM364 63.7c-.9.4-1 1.8-.6 2.7.3.7.8 1.4 1.3 1.9 1.5 1.4 3.9 2 6 1.7 4.5-.6-3.9-7.6-6.7-6.3z"/>
        <path fill="#FFFED5" fill-rule="nonzero" d="M393 126c.5-8.6 5.3-20.9 4.3-29-.4-3.4-1.2-3.8-3.3-6.5-1.8-2.4-10.5-3.8-13.5-2.7-.7.2-1.2.5-1.5.8 1.9 12.2 3 28.7 14 37.4z"/>
        <path fill="#F8EF89" fill-rule="nonzero" d="M386.7 117.3c-5.1-8.6-6.2-19.6-7.7-28.8-.9.7-1.6 2.7-2 4.7 3.6 7.6.1 19.5 9.7 24.1z"/>
        <path fill="#F8EF89" fill-rule="nonzero" d="M376.967 93.3c-.461 1.8-.577 3.7-.461 4.8 1.384 7 2.998 12.1 1.268 18.2 2.192 0 4.498-.6 6.69-1.1-6.344-5.5-3.806-15.4-7.497-21.9z"/>
        <path fill="#F8EF89" fill-rule="nonzero" d="M383.5 115.1c-1.9.415-3.9 1.14-5.8 1.14-.1.622-.3 1.14-.5 1.762 3.5 1.554 6.9 1.036 10.4.932-.3-.518-.7-1.036-1-1.554-1.2-.622-2.2-1.347-3.1-2.28z"/>
        <path fill="#F8EF89" fill-rule="nonzero" d="M387.602 118.805c-3.498.202-6.897.604-10.395-.905-.2.604-.4 1.207-.7 1.911-1.5 3.722-4.498 6.941-5.198 10.864-.2 1.408-.3 2.817-.1 4.225 4.298-6.438 13.894-8.953 21.891-8.55v-1.207c-2.1-1.912-3.898-4.024-5.498-6.338z"/>
        <path fill="#F8EF89" fill-rule="nonzero" d="M371.5 134.6c0 .1-.1.1-.1.2.3 2.6 1.4 5.1 3.5 6.7 2.7 2 6.5 2.1 9.9 2 6.3-.1 12.7-.3 19.1-.4l.6-5.7c-10.9 1.2-26.4 10.2-33-2.8z"/>
        <path fill="#FFFED5" fill-rule="nonzero" d="M393.2 126.3v-.1c-7.9-.3-17.4 2.1-21.8 8.4 6.6 13 22.2 4.1 32.9 2.7.3-2.7.5-5.5.8-8.2-3.9-1.1-7.9-2.1-11.9-2.8z"/>
        <path fill="#754B3F" fill-rule="nonzero" d="M369.9 70.1l4.5.7-3.2 1.3z"/>
        <path fill="#543229" fill-rule="nonzero" d="M417.9 143.7l3.3-1-5.5 4.8zM378.8 114.4c0-2 0-4 1.7-6-.1 0-.1 0-.2-.1-.3-.1-.6-.2-.8-.1-.3.1-.5.3-.7.5-1.8 2-3.2 4.3-3.9 6.9 5.2 1.7 10.7 2.1 16.2 1.5 5.4-.6 8.7-1 13.9-2.7 1.5-.5 3.2-1.1 5-1.9-10.1 1.4-20.2 4.9-31.2 1.9z"/>
        <path fill="#754B3F" fill-rule="nonzero" d="M423.1 101c-.8-.4-2 .8-2.6 1.2-4.1 3.1-8.8 5-13.8 6-5.7 1.1-11.5 1.2-17.4 1.1-3 0-6-.1-8.9-1-1.7 2-1.7 4-1.7 6 11 3 20.3.2 30.3-1.3 2.6-1.1 5.9-2.9 7.7-4.2 2-1.4 4.2-3.5 5.8-5.4.7-.5 1.9-1.8.6-2.4z"/>
        <path fill="#FFFED5" fill-rule="nonzero" d="M365 104.4c-.6 5.9 3.4 12.2 9.2 13.5 2.3-3.6 3.4-6.8 5.6-10.1-4.4-1.4-4.2-5.7-3.3-10.3.3-1.5 2.8-6.5.3-7.1-1.4-.3-3.9 1.9-5 2.7-3 2.6-6.4 7.3-6.8 11.3z"/>
        <path fill="#754B3F" fill-rule="nonzero" d="M391.4 70.5c-.7-.5-1.6-.9-2.4-.8-.4 0-.8.2-.9.5-.1.4.3.8.6 1-.5.1-1 .2-1.4.5-.4.3-.7.8-.6 1.3.4.1.9.2 1.3.4-.4.4-1.1.5-1.2 1-.1.3.2.7.5.8.3.1.7.1 1 .1-.5.2-.9.5-1.1 1-.1.1-.1.3-.1.4.1.3.5.4.8.4 1.4.1 2.9-.2 4.3.3.7.2 1.3.6 1.9.8.7.2 1.5.2 2-.3.6-.6.4-1.7.1-2.5-1.1-2-2.9-3.8-4.8-4.9z"/>
        <g transform="translate(435 53)">
            <path fill="#6D93B4" fill-rule="nonzero" d="M13.9 33c13.3-.5 21.1-13.3 24-25.7L17.9.1c-.7-.3-1.5.1-1.8.8L5 31.7c2.7 1.3 5.8 1.7 8.9 1.3z"/>
            <path fill="#395FA4" fill-rule="nonzero" d="M44.6 9.7l-6.8-2.4c-2.9 12.4-10.7 25.2-24 25.7-3.1.4-6.1 0-8.9-1.3L.3 44.4c-.3.7.1 1.5.8 1.8l26.8 9.6c.7.3 1.5-.1 1.8-.8l15.6-43.5c.4-.7 0-1.5-.7-1.8z"/>
            <path stroke="#CFDEFF" d="M21.9 18.5l-6-2.2c-.8-.3-1.2-1.1-.9-1.9l3-8.2c.3-.8 1.1-1.2 1.9-.9l6 2.2c.8.3 1.2 1.1.9 1.9l-3 8.2c-.2.7-1.1 1.1-1.9.9z"/>
            <path fill="#395FA4" fill-rule="nonzero" stroke="#6D93B4" d="M17.5 49l-3.9-1.4c-.8-.3-1.2-1.1-.9-1.9l1.5-4.3c.3-.8 1.1-1.2 1.9-.9l3.9 1.4c.8.3 1.2 1.1.9 1.9l-1.5 4.3c-.3.8-1.1 1.2-1.9.9zM8.2 45.6l-3.9-1.4c-.8-.3-1.2-1.1-.9-1.9L4.9 38c.3-.8 1.1-1.2 1.9-.9l3.9 1.4c.8.3 1.2 1.1.9 1.9l-1.5 4.3c-.3.8-1.1 1.2-1.9.9zM26.9 52.4L23 51c-.8-.3-1.2-1.1-.9-1.9l1.5-4.3c.3-.8 1.1-1.2 1.9-.9l3.9 1.4c.8.3 1.2 1.1.9 1.9l-1.5 4.3c-.3.7-1.1 1.2-1.9.9z"/>
            <g fill="#CFDEFF" fill-rule="nonzero">
                <path d="M31.1 9.8l9.8 3.6M40.2 13.7l-8.8-3.2c-.3-.1-.4-.4-.3-.7.1-.3.4-.4.7-.3l8.8 3.2c.3.1.4.4.3.7-.1.2-.4.4-.7.3z"/>
            </g>
            <g fill="#CFDEFF" fill-rule="nonzero">
                <path d="M28.9 15.7l9.9 3.6M38.1 19.6l-8.8-3.2c-.3-.1-.4-.4-.3-.7.1-.3.4-.4.7-.3l8.8 3.2c.3.1.4.4.3.7-.1.2-.4.4-.7.3z"/>
            </g>
            <g fill="#CFDEFF" fill-rule="nonzero">
                <path d="M30 12.8l5.9 2.1M35.2 15.2l-4.9-1.8c-.3-.1-.4-.4-.3-.7.1-.3.4-.4.7-.3l4.9 1.8c.3.1.4.4.3.7-.1.3-.4.4-.7.3z"/>
            </g>
            <g fill="#CFDEFF" fill-rule="nonzero">
                <path d="M10.8 26.1L26 31.6M25 32l-13.7-4.9c-.4-.1-.6-.6-.5-1 .1-.4.6-.6 1-.5l13.7 4.9c.4.1.6.6.5 1-.1.5-.6.7-1 .5z"/>
            </g>
            <g fill="#CFDEFF" fill-rule="nonzero">
                <path d="M9.5 29.8l15.2 5.4M23.7 35.7L10 30.8c-.4-.1-.6-.6-.5-1 .1-.4.6-.6 1-.5l13.7 4.9c.4.1.6.6.5 1-.1.4-.6.7-1 .5z"/>
            </g>
            <g fill="#CFDEFF" fill-rule="nonzero">
                <path d="M12.1 22.4l9.2 3.3M20.3 26.2l-7.6-2.8c-.4-.1-.6-.6-.5-1 .1-.4.6-.6 1-.5l7.6 2.8c.4.1.6.6.5 1-.2.4-.6.6-1 .5z"/>
            </g>
            <circle cx="21.957" cy="9.616" r="1.3" fill="#6D93B4" fill-rule="nonzero" stroke="#395FA4" transform="rotate(-70.221 21.957 9.616)"/>
            <path fill="#6D93B4" fill-rule="nonzero" stroke="#395FA4" d="M22 16.6l-5-1.8c-.2-.1-.4-.4-.3-.6l.1-.3c.5-1.5 2.2-2.3 3.7-1.7l.5.2c1.5.5 2.3 2.2 1.7 3.7l-.1.3c0 .1-.3.3-.6.2z"/>
        </g>
        <g transform="translate(415 51)">
            <path fill="#EFF8FF" fill-rule="nonzero" d="M9.5 32.4C21.9 27.6 25 12.8 23.6.2L2.3 0C1.5 0 .9.6.9 1.4L.6 34.1c3.1.4 6.1-.3 8.9-1.7z"/>
            <path fill="#E7E6FF" fill-rule="nonzero" d="M30.8.3L23.6.2C25 12.8 21.9 27.6 9.5 32.4c-2.8 1.4-5.8 2-8.9 1.7L.5 47.6c0 .8.6 1.4 1.4 1.4l28.5.2c.8 0 1.4-.6 1.4-1.4l.4-46.2c0-.7-.6-1.3-1.4-1.3z"/>
            <path stroke="#CFDEFF" d="M12.3 16H6c-.8 0-1.5-.7-1.5-1.5l.1-8.7c0-.8.7-1.5 1.5-1.5l6.4.1c.8 0 1.5.7 1.5 1.5l-.1 8.7c0 .8-.7 1.4-1.6 1.4z"/>
            <path fill="#E7E6FF" fill-rule="nonzero" stroke="#6D93B4" d="M18.2 46.3H14c-.8 0-1.5-.7-1.5-1.5v-4.6c0-.8.7-1.5 1.5-1.5h4.2c.8 0 1.5.7 1.5 1.5v4.6c0 .9-.6 1.5-1.5 1.5zM8.3 46.2H4.1c-.8 0-1.5-.7-1.5-1.5v-4.6c0-.8.7-1.5 1.5-1.5h4.2c.8 0 1.5.7 1.5 1.5v4.6c0 .9-.6 1.5-1.5 1.5zM28.2 46.4H24c-.8 0-1.5-.7-1.5-1.5v-4.6c0-.8.7-1.5 1.5-1.5h4.2c.8 0 1.5.7 1.5 1.5v4.6c0 .8-.6 1.5-1.5 1.5z"/>
            <g fill="#CFDEFF" fill-rule="nonzero">
                <path d="M18.1 4.9l10.4.1M28 5.5l-9.4-.1c-.3 0-.5-.2-.5-.5s.2-.5.5-.5l9.4.1c.3 0 .5.2.5.5s-.2.5-.5.5z"/>
            </g>
            <g fill="#CFDEFF" fill-rule="nonzero">
                <path d="M18.1 11.1l10.4.1M28 11.7l-9.4-.1c-.3 0-.5-.2-.5-.5s.2-.5.5-.5l9.4.1c.3 0 .5.2.5.5s-.3.5-.5.5z"/>
            </g>
            <g fill="#CFDEFF" fill-rule="nonzero">
                <path d="M18.1 8l6.2.1M23.8 8.6h-5.2c-.3 0-.5-.2-.5-.5s.2-.5.5-.5h5.2c.3 0 .5.2.5.5s-.2.5-.5.5z"/>
            </g>
            <g fill="#CFDEFF" fill-rule="nonzero">
                <path d="M4.4 26.9l16.1.2M19.7 27.8l-14.6-.1c-.4 0-.8-.4-.8-.8s.4-.8.8-.8l14.6.1c.4 0 .8.4.8.8 0 .5-.3.8-.8.8z"/>
            </g>
            <g fill="#CFDEFF" fill-rule="nonzero">
                <path d="M4.3 30.8l16.2.2M19.7 31.7l-14.6-.1c-.4 0-.8-.4-.8-.8s.4-.8.8-.8l14.6.1c.4 0 .8.4.8.8 0 .5-.4.8-.8.8z"/>
            </g>
            <g fill="#CFDEFF" fill-rule="nonzero">
                <path d="M4.4 23l9.7.1M13.3 23.9l-8.1-.1c-.4 0-.8-.4-.8-.8s.4-.8.8-.8l8.1.1c.4 0 .8.4.8.8s-.4.8-.8.8z"/>
            </g>
            <circle cx="9.518" cy="7.645" r="1.3" fill="#EFF8FF" fill-rule="nonzero" stroke="#395FA4" transform="rotate(-89.499 9.518 7.645)"/>
            <path fill="#EFF8FF" fill-rule="nonzero" stroke="#395FA4" d="M11.8 14.2H6.5c-.3 0-.5-.2-.5-.5v-.3c0-1.6 1.3-2.9 2.9-2.8h.5c1.6 0 2.9 1.3 2.8 2.9v.3c.1.2-.1.4-.4.4z"/>
        </g>
        <path fill="#35485E" fill-rule="nonzero" d="M398.7 191.3c-1.1 2.5.3 4.1 1.6 6 2.8 4.2 1.2 10 3.1 14.7.4 1 1.3 2.1 2.3 1.7.6-.2.9-.9 1.1-1.6.1-.3.2-.7.2-1.1-5.3-6.1-2.6-15.3-5.5-22-1.3.2-2.3 1.2-2.8 2.3z"/>
        <path fill="#56758F" fill-rule="nonzero" d="M407 200.8c-.3-3.1-.8-10.5-4.6-11.7-.3-.1-.6-.1-.9-.1 2.9 6.7.2 16 5.5 22 .6-3.3.3-6.8 0-10.2z"/>
        <path fill="#35485E" fill-rule="nonzero" d="M441.9 179.7V177h-.1c-1.4-.3-2.9-.4-4.1.4-1.2.8-.8 1.1-1.3 2.4l.1-1.8c-.9.9-.8 2.5 0 3.5s2 1.5 3.3 1.8c1.2.3 2.5.3 3.7.6 3.5.9 6.3 3.7 9.7 5-2.9-4-7.3-6.9-11.3-9.2z"/>
        <path fill="#56758F" fill-rule="nonzero" d="M457.3 188.8c.7-.6.5-1.8.1-2.6-.8-1.4-2.2-2.4-3.5-3.3-3.7-2.5-7.6-5.1-12-6v2.7c4.1 2.3 8.4 5.3 11.3 9 .7.3 1.4.5 2.2.6.7.1 1.4.1 1.9-.4z"/>
        <path fill="#754B3F" fill-rule="nonzero" d="M423.5 96.4c.3-.7.6-1.5 1-2.2.1-.2.3-.5.6-.6.4-.1.8.1.9.5.2.3.2.7.2 1.1-.1 1.6-.4 3.2-.9 4.8 1.5.1 4.7.2 5.8.2 1.5 0 2.2 0 3-.1.2 0 .4.3.3.5 0 .2-.2.3-.3.4-2.6 1.4-5.2 2.8-8 3.4-1.6.4-5.6 1.4-5.6-1.2 0-.8 1-1.9 1.4-2.6.5-1.4 1-2.8 1.6-4.2z"/>
        <g fill-rule="nonzero">
            <path fill="#E4AB8F" d="M134.473 275.105c-.215 1.1-1.398 4-2.473 10.3 2.15 2.3 6.667 7.8 10 8.1-.43-2.5-2.366-10.3-2.473-12.8-.108-3.4-.323-6.3-5.054-5.6z"/>
            <path fill="#FFCBB3" d="M129.115 295.5c-.1.9-.7 6.5 2.3 0 .5-1.1.7-1.9 1.4-.9 2.7 3.9 4.2 8.7 4.3 13.5 1.3-5.1 3.2-10 5.6-14.7-.9-2.2-1.6-4.5-2.1-6.9-3.1-.1-5.9-1.3-8-3.5-1.3 4.6-3 9.5-3.5 12.5z"/>
            <path fill="#FFCBB3" d="M141.8 301.1c4.6-2.6 6.2-7.9 6.8-13.7-3.2.7-5.9 1.5-9.1.6-3.2-.9-5.9-1.8-9.1.1-.9.5-1.8 1.3-2.8 1.5 2.7 6.7 8 14.6 14.2 11.5zM94.8 241.7c.2-.3.3-.7.5-1-1.4-2.9-2.7-5.7-4-8.6l-3.6 1.2c.1.5.2 1 .4 1.5 1.7 3 4.1 5 6.7 6.9z"/>
            <path fill="#E4AB8F" d="M94.8 241.7c-2.6-1.9-5-3.9-6.7-6.9 1.1 4.8 2.4 9.2 3.9 13.4.7-2.3 1.8-4.4 2.8-6.5z"/>
            <path fill="#B0BABA" d="M156.1 285.8c1.6-13.4 7.4-30.5 7.8-44.5-6.2 19.9-8.7 31-14.1 45.7 0 .1-.1.1-.1.2-.1 0-.3.1-.4.1-.2 0-.4.1-.6.1 2.5-.3 4.9-1.9 7.4-1.6z"/>
            <path fill="#CFDBDB" d="M164.4 238.2c-.4 2.2-.8 4.4-1.3 6.7-.4 14.1-5.4 27.6-7 41 .3 0 .5.1.8.2-.3-.1-.5-.1-.8-.2-.1 1.2-.3 2.4-.3 3.7.1-1.2.2-2.4.3-3.7-2.5-.4-5 1.3-7.4 1.5h-.1c-.5 5.8-2.1 11.1-6.8 13.7-6.2 3.1-11.5-4.8-14.2-11.5-.3.1-.6.1-.9 0-.8-.1-1.4-.6-2-1-8.2-6.4-13.2-15.9-17.9-25.1-3.9-7.5-7.8-15.1-11.5-22.7-1.2 2.3-2.5 4.9-3.4 7.5 3.2 9.2 7.2 17.2 11.7 25.4 13.3 15.8 23.3 32.8 28.9 53 2.3 8 1.6 10.2 10.3 10.2 4.9-19.3 17.2-49.8 17.4-50.9 2.7-13.7 5.5-26.8 8.2-40.5-1-2.6-2.4-5.1-4-7.3z"/>
            <path fill="#B0BABA" d="M132.5 326.7c-5.6-20.2-15.6-37.2-28.9-53 1.2 2.2 2.4 4.4 3.7 6.7 3.7 6.5 7.1 13.2 10.2 20 1.3 2.8 2.6 5.7 3.2 8.8.8 3.8-2.8 28.8-3.3 32.6 9.9 1.2 17.4 10.3 27.3 9.1.7-2.3-4.1-8.8-3.1-12.8-6.8-2.5-6.8-3.4-9.1-11.4z"/>
            <path fill="#FFCBB3" d="M172.1 227.2c-1.9-.3-3.8-.7-5.6-1.4-.5 3.1-1.1 6.3-1.6 9.5-.2 1-.3 2-.5 2.9.4.5.7 1.1 1.1 1.6 2.3-2.7 4-6.2 5.9-9.1.2-1.2.5-2.4.7-3.5z"/>
            <path fill="#E4AB8F" d="M165.5 239.8c1.1 1.8 2.2 3.7 3 5.6l2.7-13.5c.1-.4.2-.9.3-1.3-2 3-3.7 6.5-6 9.2z"/>
            <path fill="#FFCBB3" d="M129 261.6v-2.9c-.1 1-.1 1.9 0 2.9z"/>
            <path fill="#E4AB8F" d="M123.1 262.2c1-.1 2.2-.6 3.1-1.2v.5c.4-1.8.5-3.5.5-5.3-1.2 2.4-2.4 3.6-3.6 6zM129.026 262.936c.8-7.8 8.6-11.8 15.6-14-.8-1.4-1.8-2.6-3.1-3.6-2.4-1.9-5.7-2.8-8.7-2.1-3.9 5.4-3.9 12.9-3.8 19.7z"/>
            <path fill="#FFCBB3" d="M146.726 255.136c-.3-2.2-1.1-4.3-2.2-6.2-7 2.2-14.8 6.2-15.6 14v2.9c-.1-1-.1-2 0-2.9-.1-6.8-.1-14.3 3.8-19.7-.7.2-1.3.4-2 .7-3.6 1.8-5.4 6-5.6 10.1-.1 2.3 1.4 5.7-.9 7-1.3.7-2.5.3-3.3 1.8-.5 1-.6 2.2.3 3 .5.5 1.2.6 1.8.6 1.2-2.3 2.4-3.6 3.6-6 0 1.8 0 3.5-.5 5.3.4 5.6 3 11 7.1 14.7 1.2 1.1 2.7 2.1 4.3 1.8 1.4-.2 2.4-1.3 3.2-2.4 2.9-3.8 4.3-8.6 5.2-13.3 1-3.8 1.4-7.7.8-11.4z"/>
            <path fill="#C7BE4F" d="M152.426 227.336c-.9-.4-1.9-.5-2.9-.4 1 3.5 1.8 7.6-.4 9.8-6.7 3.7-13 8.8-15.6 15 2.4-3.3 6.5-4.6 10.1-6.4 3.4-1.7 6.6-4 9.2-6.8 1.3-1.4 2.6-3 2.9-4.9.5-2.4-1-5.2-3.3-6.3z"/>
            <path fill="#F8EF89" d="M136.526 228.036c-1.3 0-2.7.6-3.6 1.6-1.4 1.5-2 3.6-2.8 5.5-1.2 2.8-3 5.2-4.7 7.7-1.7 2.6-3.2 5.7-3.5 8.8.6-1.9 1.7-3.6 2.3-5 5.9-4.8 11-11.3 12.3-18.6z"/>
            <path fill="#F5EA61" d="M149.526 226.936c-1.6.2-3.1 1-4.1 2.2.1-1.8-1.4-3.6-3.3-3.7-1.8-.1-3.6 1.4-3.7 3.3-.6-.5-1.2-.7-1.9-.7-1.3 7.3-6.4 13.7-12.2 18.6-.7 1.4-1.7 3.1-2.3 5-.2 2.2.2 4.4 1.6 6.5 1.4 2 2.7 3.5 3.7 5.7.7 1.7 1.9 6.6 4.6 6.2.6-.1 1.2-.5 1.5-1.1.9-1.3.9-3.1.5-4.7-.4-.9-.7-1.8-.9-2.7-.3-.9-.7-1.8-.9-2.7-.5-2.5.1-5.1 1.5-7.2 2.6-6.2 8.8-11.3 15.6-15 2-2.1 1.3-6.2.3-9.7z"/>
            <path fill="#F5EA61" d="M133.6 259.8c-.2-.8-.5-1.6-.9-2.3.2.9.5 1.8.9 2.7.1-.1.1-.2 0-.4z"/>
            <path fill="#FFCBB3" d="M91.9 227.5c-.3-2.7-1.1-5.4-2.3-7.8-.3-.7-1-1.5-1.7-1.1.3 2.9.6 5.7.9 8.6-.4-2.7-1.6-5-3.4-7.3-.5 1.1.7 6.5 1.9 9.5-.3-2.5-2.5-6-4-8-.2-.3-.6-.6-.9-.4.2 3.1 2.3 7.3 4 9.8-1.1-1.9-2.3-3.7-3.8-5.3-.4-.4-1-.1-1 .4.3 4.2 5.4 9.9 9.4 7.9 2.5-1.2 3.8-6.8 3.3-9.9-.1-.4-.6-.6-.9-.2-.7 1.2-1.6 2.9-1.5 3.8zM164.4 221.2c1.2.7 2.1 1.8 2.6 3.1-.1-3 0-6 .4-9 .1-.6.3-1.2.9-1.2.6 0 .8.9.8 1.5-.1 3-.1 5.9-.2 8.9.6-3.3 1.5-6.6 2.5-9.9.8.6.8 1.8.7 2.8-.3 2.6-.7 5.1-1.1 7.7 1-3.2 2.1-6.4 3.4-9.6.6.7.5 1.7.2 2.6-.6 2.4-1.1 4.8-1.7 7.1.9-2.8 2.3-5.4 4.2-7.6.5.6.4 1.5.2 2.2-1 4-3.4 7.6-5.7 11-.5.7-.9 1.3-1.6 1.8-2.6 1.5-4-1.1-4.3-3.2-.4-2.6-1.1-5.1-1.8-7.7-.2-.4.2-.7.5-.5z"/>
            <path fill="#35485E" d="M145.2 388.5c5.2 16.8 7.8 35 5.4 52.6 2.4.2 4.8.4 7.3.6.1-1 .1-2 .2-3-.4-29.7-12-57.5-25.8-82.5 6.6 13.3 8 16.4 12.9 32.3zM96.9 417.5c-3.1 2.1-5.4 5.9-8.9 6.3-3.5 5.1-7.3 9.8-11.2 13.9-.2 2.7 4.5 4.2 4.5 4.2s3.9-3.9 5.9-5.5c5.6-4.6 10.3-10.4 14.4-16.6.5-.7.9-1.4 1.4-2.1-1.9-1-4-1.3-6.1-.2z"/>
            <path fill="#35485E" d="M131.2 354.2c.3.7.7 1.3 1 1.9 1.3 2.3 2.5 4.6 3.7 6.9-.4-6.6-1.7-13.2-4.2-19.5 0 3.3-.1 7-.5 10.7z"/>
            <path fill="#395FA4" d="M158.8 402c-1.3-.7-2.5-1.6-3.5-2.9-6.1-7.5-5.1-18.3-.6-26.4-.7-2.8-1.5-5.5-2.5-8.2-3.3-9.4-4.1-20.7-9.3-29-9.3.4-15.7-.1-24.8 0v.7c-1.2 0-2 1-2.5 2.1-2 4.1-1.6 8.9-.9 13.2.3 1.7.6 3.3.9 5-4.5 23.8-14.3 48.3-27.4 67.2 3.6-.5 5.8-4.3 8.9-6.3 2.1-1 4.2-.8 6 .3 3.3-5 6.5-9.9 9.4-14.7-.2-10.4 2.9-23.1 12.8-25.3 2.3-5.9 4-11.9 5-17.9-.3 1.1-.6 2.1-1 3.1.4-1 .7-2 1-3.1.3-2 .6-3.9.8-5.9-.2-.3-.3-.6-.5-.9.2.3.3.6.5.9v-.2c.1.2.2.3.3.5.4-3.7.4-7.3.4-10.7-.4-1-.8-1.9-1.2-2.9.4 1 .9 1.9 1.2 2.9v-.4.4c2.5 6.4 3.8 12.9 4.2 19.5 12.1 23.2 21.8 48.6 22.1 75.6.6-12.2 1.2-24.5.7-36.6z"/>
            <g fill="#395FA4">
                <path d="M112.3 403c5.1-8.5 9.5-16.9 12.8-25.3-9.8 2.3-12.9 15-12.8 25.3zM154.7 372.7c-4.5 8.1-5.5 18.9.6 26.4 1 1.3 2.2 2.2 3.5 2.9-.5-10-1.6-19.8-4.1-29.3z"/>
            </g>
            <path fill="#CECDE3" d="M84.3 442.2l-.6-.9c5.6-4.3 10.5-9.5 14.7-15.4.5-.7.2-1.8-.6-2.1-.2-.1-.4-.2-.5-.2-1.7-.8-3.7-.1-4.8 1.5-2.3 3.3-5.3 5.3-9.3 3.2-.4.6-.8 1.1-1.2 1.7-1.1 2.6-2 5.6-3.4 8.5 2 .9 4 2.2 5.7 3.7z"/>
            <path fill="#B7B6C9" d="M84.3 442.2c-1.7-1.5-3.7-2.8-5.8-3.8 1.4-3 2.3-5.9 3.4-8.5-2 2.6-4.4 4.9-7.3 6.4 3 5.7 8.4 9.9 14.3 11.5-.5-.8-1-1.5-1.6-2.3-1.1-1-2.1-2.1-3-3.3z"/>
            <path fill="#CECDE3" d="M87.4 445.4c.6.7 1.1 1.5 1.6 2.3 1.4.4 2.8.6 4.3.7-2.2-.5-4.2-1.6-5.9-3z"/>
            <path fill="#B7B6C9" d="M152.2 446.8c.1.3.1.6.2.9-.1-.3-.1-.6-.2-.9-.3 0-.5-.1-.8-.1.3 0 .5 0 .8.1-.6-3.8-.9-7.6-1.8-11-.1 0-.2.1-.4.1.2 4.1 0 8.2-1.7 12 7.1 2.8 14.1 2.9 20.5-.2h-.2c-4.9 1.5-10.8-.1-16.4-.9z"/>
            <path fill="#CECDE3" d="M168.7 447.7c-2.3.6-6.7-1-10.4-2.2 1.7-7.1 2.3-14.5 1.9-21.9 0-.9-.9-1.5-1.8-1.2-.2.1-.3.1-.5.2-1.8.6-2.9 2.5-2.8 4.4.3 4-.8 7.5-4.8 8.6 1 3.4 1.2 7.2 1.8 11 5.7 1 11.6 2.6 16.6 1.1z"/>
            <path fill="#35485E" d="M115.6 356.7l1.2 7.4-2.3-3.1z"/>
        </g>
        <path fill="#56758F" fill-rule="nonzero" d="M292.2 252.1h-67.1c-3.4 0-6.2-2.8-6.2-6.2v-31.2c0-3.4 2.8-6.2 6.2-6.2h67.1c3.4 0 6.2 2.8 6.2 6.2v31.2c-.1 3.4-2.8 6.2-6.2 6.2z"/>
        <path fill="#5B90F7" fill-rule="nonzero" d="M382.5 252.1h-67.1c-3.4 0-6.2-2.8-6.2-6.2v-31.2c0-3.4 2.8-6.2 6.2-6.2h67.1c3.4 0 6.2 2.8 6.2 6.2v31.2c-.1 3.4-2.8 6.2-6.2 6.2z"/>
        <path fill="#395FA4" fill-rule="nonzero" d="M292.2 305.4h-67.1c-3.4 0-6.2-2.8-6.2-6.2V268c0-3.4 2.8-6.2 6.2-6.2h67.1c3.4 0 6.2 2.8 6.2 6.2v31.2c-.1 3.4-2.8 6.2-6.2 6.2z"/>
        <path fill="#56758F" fill-rule="nonzero" d="M382.5 305.4h-67.1c-3.4 0-6.2-2.8-6.2-6.2V268c0-3.4 2.8-6.2 6.2-6.2h67.1c3.4 0 6.2 2.8 6.2 6.2v31.2c-.1 3.4-2.8 6.2-6.2 6.2z"/>
        <g fill-rule="nonzero">
            <path fill="#E4AB8F" d="M262.8 375.9c3.4-1.3 7-2.5 5.6-4.9-1.8-2.9-8.2-8.5-12-11.6-1.5-1.2-2.8-2.6-3.6-4.4.7 4.2 2.6 8.2 5.1 11.5 0 2.1-1 3.4-2.1 4.6 1.3 1.8 2.6 3.5 3.6 4.8 3.2 4.2.1.1 4.9 2.4.6.5-2.3-2.1-1.5-2.4zM252.3 332.9c.1-3.3.2-5.9.2-6.6.9-9.1 1.4 3.8 2.3-5.3-2-.3-4-.3-5.9-.1-.4 1.8-.9 3.8-1.3 5.8 1.9 2 3.4 4.1 4.7 6.2z"/>
            <path fill="#FFCBB3" d="M252.8 355c-.6-1.5-.6-14.1-.4-22.1-1.4-2.1-2.8-4.2-4.7-6.1-1.6 8.2-2.9 17.9-2.6 25.2.1 4.2 6 12.8 10.7 19.2 1.2-1.2 2.1-2.5 2.1-4.6-2.5-3.4-4.4-7.4-5.1-11.6 0 .1 0 0 0 0z"/>
            <path fill="#395FA4" d="M301.33 353.407c5.2-.6 11.1 1.5 14.1 4.5 15.2 14.1 40.3 18.5 52.2 1.1 5.3-6.2 7-15.3 2.2-22-3.1-.1-6.3.9-9.2 2-5.4 2.2-10.7 5.2-14.5 9.7-4 4.7-7 11.2-13 12.5-5 1.1-9.9-2.2-13.4-6-5.7-6.1-13.9-16.6-23.1-12.7 3.8 2.3 4.7 6.2 4.7 10.9z"/>
            <path fill="#35485E" d="M375.63 338.707c-1.7-1.2-3.7-1.7-5.7-1.7 4.9 6.7 3.2 15.8-2.2 22-12 17.4-37 13.1-52.2-1.1-3-3-8.9-5.1-14.1-4.5v0c-.4 0-.7.1-1.1.2.4-.1.7-.1 1.1-.2 0-4.7-.9-8.6-4.7-10.9-1 .4-2 1-3 1.7-3.7 2.8-3.7 6.4.6 8.6 5.3 2.7 11.4 2.5 16.9 4.1 7.8 2.2 6.3 7.6 13.1 12 5 3.2 16.7 4.8 22.6 4.8 5.9 0 12.1-.6 17.3-3.6 3.1-1.8 5.7-4.3 8.1-6.9 3.2-3.4 6.2-7.3 7.3-11.8 1.1-4.6-.1-10-4-12.7z"/>
            <path fill="#E4AB8F" d="M286.93 348.207c-2.1-1.9-4.4-3.9-5.5-6.4-2 2.2-3.2 5.4-3.8 8.9 3.3 1.2 7 .2 9.3-2.5z"/>
            <path fill="#FFCBB3" d="M294.63 348.307c-.5-4.3-3.5-10.1-8.8-9.1-1.7.3-3.2 1.2-4.4 2.5 1.1 2.5 3.4 4.5 5.5 6.4 1.2-1.4 2.1-3.2 2.4-5.4-.3 2.2-1.2 4-2.4 5.4.8.7 1.7 1.5 2.4 2.2-.7-.7-1.5-1.4-2.4-2.2-2.4 2.7-6 3.8-9.4 2.5-1 5.4-.5 11.4.8 14.5.9 2.1 2.6 4.2 4.8 4.6 3.1.6 5.8-2 7.4-4.7 3.2-4.8 4.7-10.9 4.1-16.7z"/>
            <path fill="#395FA4" d="M278.43 343.307c-1.1 1.8-1.2 4.3.2 5.8 1.2 1.4 3.4 1.7 5.2 1.2 1.8-.5 3.3-1.8 4.5-3.1-2.1.6-3.5 3-3.1 5.2.4 2.2 2.4 3.9 4.6 4.2 2.2.3 4.5-.8 5.9-2.5 1.4-1.7 2-4 1.8-6.2-.2-2.9-1.8-5.6-4.1-7.3-4.4-3.1-12-2-15 2.7z"/>
            <path fill="#FFCBB3" d="M291.43 358.607c.9-.8 2-1.3 3.2-1.3.5 0 .9.1 1.3.4.2.2.3.6.3.9.1 1.7-1.5 3.1-3.2 3.4-.6.1-1.3.1-1.7-.4-.2-.3-.3-.7-.4-1-.1-.5-.1-1 0-1.5s.6-.9 1-.9"/>
            <path fill="#E4AB8F" d="M292.33 362.107l-3 .2 1.9 1.9z"/>
            <path fill="#5B90F7" d="M263 305c8.7-1.6 8.6-11.9 10.2-21.1l-42.6-8.1c-3.3-.6-6.6 1.6-7.2 4.9l-3.3 17.3c14.5 3.8 28.3 7.9 42.9 7z"/>
            <path fill="#56758F" d="M296.5 288.3l-23.3-4.4c-1.6 9.2-1.5 19.5-10.2 21.1-14.6.9-28.4-3.2-42.9-6.9l-2.5 13.4c-.6 3.3 1.6 6.6 4.9 7.2l65.9 12.5c3.3.6 6.6-1.6 7.2-4.9l5.8-30.7c.7-3.4-1.5-6.7-4.9-7.3z"/>
            <path fill="#FFCBB3" d="M279.5 372.25c2.965.063 6.035.125 9 .25 0-1.625 0-3.313-.106-5-2.118.688-4.659 1.125-7.2 1.25-.847 1.938-1.376 3.563-1.694 3.5zM316.9 345.3c-1.2-3.7-2.4-7.5-3.6-11.2-2.7-8.5-5.6-17.3-11.4-24.1-1 .5-1.9 1.1-2.9 1.6 5.5 11.8 9.7 24.1 12.6 36.8.5 2.3 1 4.8 0 6.9-.5 1.2-1.5 2.1-2.4 3-1 .9-1.6 1.4-2.7 2.4 1.8 1.5 4.1 2.4 5.9 3.3 3.9-5.5 5-11.8 4.5-18.7z"/>
            <path fill="#E4AB8F" d="M317.8 348.2l-.9-3c.5 6.9-.6 13.2-4.5 18.7.3.2.7.3 1 .5-.3-.2-.6-.3-1-.5-.4.5-.8 1-1.2 1.6.4-.5.8-1 1.2-1.6-1.8-.8-4.1-1.8-5.9-3.3-.9.8-2.1 1.9-4 3.7 2.7 2.3 6.5 3.2 9.3 5.6 2.1-3.2 3.9-6.5 5.5-10 .9-2 1.8-4.1 1.8-6.3-.1-1.8-.7-3.6-1.3-5.4zM361.6 355.1l-4.8-3.6c-.9 1-2.1 1.8-3.4 2.2 2.6 3.5 5.2 7 7.9 10.5.1-3 .3-6.1.3-9.1z"/>
            <path fill="#35485E" d="M373.3 379.4c-.4.3-2.2 1.3-4.5 2.5 2.4 0 5 .2 7.3.7-.7-1-1.5-2.3-2.8-3.2z"/>
            <path fill="#E4AB8F" d="M423.8 411c-8 1.4-15.7 2.5-23.2 3.1 7.9.2 15.8 1 23.5 2.3 0-1.8-.1-3.6-.3-5.4z"/>
            <path fill="#56758F" d="M402.3 414.8c-.1-.2-.3-.4-.4-.7-.4 0-.8 0-1.2-.1-6.9.6-13.6.9-20.2.8l-5.1.6 5.1-.6c-16.2-.2-31.5-2.5-46.7-7.3 19.9-1.9 41-10 50.1-24.6.4-.7.8-1.4.8-2.2 0-.9-.5-1.8-1.1-2.5-4.9-6.8-10.5-13.1-16.8-18.7-1.2 2.2-2.7 4.2-4.2 6.4 3.5 4.5 7 8.9 10.7 13.2 0 0 0 .1-.1.1 1.2 1 2 2.3 2.8 3.2.5.1 1 .2 1.4.4-.5-.2-.9-.3-1.4-.4.1.1.2.3.4.4-.1-.1-.2-.3-.4-.4-2.3-.5-4.9-.7-7.3-.7-4.7 2.4-11.3 5.7-12.3 6-5.9 2.2-12 3.8-18.3 4.8-6.1.9-6.4-3.2-15.5-1.7-5.3.9-9.4 1.5-11.4 6.2-.2.5-.3.9-.4 1.4-1-.5-2.1-1-3.1-1.5-2-1-3.4.6-5.6 1.2-1.3.4-2.3 1.4-3.4 2.2-4.9 3.5-5.4 11.9 3.6 15.1 30.3 11 52.8 14.2 76.7 11.7 8.9-2.5 16.9-6.1 23.3-12.3z"/>
            <path fill="#35485E" d="M402.3 414.8c-6.4 6.2-14.4 9.8-23.1 12.4 8.6-.9 17.4-2.5 26.8-4.8-.9-2.6-2.1-5.2-3.7-7.6z"/>
            <path fill="#FFCBB3" d="M424.2 416.4c-7.4-1.3-14.9-2-22.4-2.2 1.8 2.6 3.2 5.4 4.1 8.3 5.8-1.4 11.9-3 18.3-4.9.1-.4 0-.8 0-1.2zM361.6 355.1c0 3-.2 6.1-.2 9.1.5.6.9 1.2 1.4 1.8 1.5-2.2 3-4.2 4.2-6.4l-5.4-4.5zM289.3 371.51c-1.467-.345-2.933-.574-4.295-.804-2.515-.23-4.82.345-6.705 1.492.629 2.524 1.886 5.049 2.724 7.459 3.562-2.295 6.076-5.164 8.276-8.147z"/>
            <path fill="#CECDE3" d="M320.5 390.2c0-.1.1-.1.1-.2-4.8-2.1-10.8-3.8-16.4-5.9-1.7 2.5-3.6 4.8-6.1 6.4 7.2.8 15-.7 22.4-.3zM275.6 387.9c2.3 3.2 4.8 6.5 7.4 9.7 6.5 8.2 13.2 15.5 17.8 17.4.3.1.8.4 1.6.9 2.5-2.3 4.8-4.8 7-7.5 2.4-2.9 4.5-6.1 6.5-9.3-13.3-4.2-30 .8-40.3-11.2z"/>
            <path fill="#E7E6FF" d="M298.1 390.5c2.5-1.7 4.4-4 6.1-6.4-3.9-1.5-7.6-3.3-10.4-5.5-1.9-1.5.4-5.2-1.8-6.5-.9-.3-1.8-.5-2.7-.7-2.2 2.7-4.6 5.2-8 7.2-.7-2.2-2-4.4-2.6-6.5-5.2 3-7.4 10.2-3.3 15.7 0 .1.1.1.1.2 10.3 11.9 27 7 40.2 11.2 1.7-2.9 3.3-5.9 4.7-9-7.3-.4-15.1 1.1-22.3.3z"/>
            <path fill="#E7E6FF" d="M305.2 361.4c.7.7-12.6 9.5-13.9 10.1-.4.2-.9.4-1.4.6-.7 1.8-1.7 3.5-2.8 5.2 1 1.6 2.8 3.2 3.7 4 2.5 2 5.6 3.1 8.6 4.2.4.2.9.3 1.4.3.5-.1.9-.4 1.2-.7 5.4-4.1 10.3-9 14.5-14.3-4-2.8-7.8-5.9-11.3-9.4z"/>
            <path fill="#FFFED5" d="M278 389.6c-.1.1 0 .1 0 0z"/>
            <path fill="#E7E6FF" d="M276.5 373.7c-3.1-3.2-8.8-5.6-12.6-8.1-.2-.2-.5-.3-.8-.3-.3 0-.5.2-.7.4-2 2-4 4-6 6.1 5.3 5.6 12.4 9.1 16.9 14.9.9.5 1.7.9 2.3 1.2 1.8 1 2.2 1.5 2.2 1.7 0-.2.4-.6 2.6-1.2 1.3-.2-2.6-13.4-3.9-14.7z"/>
            <path fill="#CECDE3" d="M256.5 371.8c-.9 1-1.9 1.9-2.8 2.9 2.5 4 13.8 9 19.8 12-4.6-5.8-11.6-9.3-17-14.9z"/>
            <path fill="#E7E6FF" d="M362.2 341.8c-.1-1.6-.3-3.2-1.3-4.4-.2-.3-.5-.6-.9-.6-.7-.1-1.2.6-1.4 1.2-.1.2-.2.4-.2.5 1.4 5.9 1.1 11.9-.1 17.6.1-.1.2-.1.4-.2 1.3-.9 2.1-2.2 2.7-3.6 1.1-3.3 1.1-7 .8-10.5z"/>
            <path fill="#EFF8FF" d="M358.3 338.5c-1.8 4.5-.4 9-3.9 12.9-1.1 1.2-2.1 1.8-1.5 3.6.8 2.2 3.5 2.2 5.3 1.2 1.3-5.8 1.5-11.8.1-17.7z"/>
            <path fill="#E7E6FF" d="M424.4 410.5c-2.2 1.3-4.1 4.6-2.3 6.7 1.3 1.6 2.6.8 4.4.2 6.1-1.9 9.7 2.4 15.5 2.5.5 0 1.1-.1 1.6-.4-5.8-2.6-11.2-6.1-16.1-10-1.1.1-2.1.4-3.1 1z"/>
            <path fill="#CECDE3" d="M444 419c.2-.4.1-.9 0-1.3-.6-1.7-2.1-2.8-3.5-3.7-3.3-2.1-6.8-4.2-10.8-4.5-.7-.1-1.4 0-2.1 0 4.9 3.9 10.3 7.4 16.1 10 0-.1.2-.3.3-.5z"/>
            <path fill="#35485E" d="M319.3 409.9c3.1 1.6 6.8 2.1 10.3 1.9 3.5-.2 6.9-1.3 10.2-2.6-1.3.5-4.9-1.6-6-2.2l.3.3c-4 2.2-10.3 3-14.8 2.6z"/>
            <path fill="#CECDE3" d="M276.5 373.3c-1.1 1.3-1.8 3-2 4.7-.3-2.3-.5-4.5-.8-6.8 1.4 1 2.8 2.1 4.3 3.1"/>
            <path fill="#FFCBB3" d="M292.8 306.2c1-.5 1.7.7 2.4 1.4.9.9 1.9 1.8 3 2.4-1.6-1.5-3.7-4.4-4.4-6.5 1.1-1.1 3.9 4.4 5.4 5.4-1.3-1.5-4.4-6.5-3.3-6.5.5 0 1.2 1.2 1.5 1.6 1.1 1.1 2.1 2.4 2.9 3.7-1-1.6-1.7-3.4-1.9-5.2.7-1.1 2.5 3.3 3.2 5.2.1-1.1.5-2.2 1-3.2.4 0 .5.5.5.9.1 2.8-.3 5.6-1 8.3 0 .2-.1.4-.3.4-.1.1-.3.1-.5.1-2.1-.2-3.1-1.6-4.5-2.9-1.4-1.6-4.1-4.6-4-5.1z"/>
            <path fill="#E7E6FF" d="M421.6 415.7l-1.2-3.1c-.3-.9.2-1.9 1.2-1.9 1.8-.2 3.5-.5 5.2-1-.6 1.5-1.2 2.9-2.1 4.2-.8 1.3-1.9 2.5-3.3 3.3.7-.3.4-.9.2-1.5z"/>
            <path fill="#35485E" d="M334.8 392.5l6.9 2.4-2.6-2.4z"/>
        </g>
        <circle cx="132.8" cy="156.3" r="5.3" fill="#F5EA61" fill-rule="nonzero"/>
        <circle cx="152.8" cy="156.3" r="5.3" fill="#F8EF89" fill-rule="nonzero"/>
        <circle cx="171.7" cy="156.3" r="5.3" fill="#FAF4B0" fill-rule="nonzero"/>
        <path fill="#CECDE3" fill-rule="nonzero" d="M335.6 187H223.5c-1.9 0-3.5-1.6-3.5-3.5v-.1c0-1.9 1.6-3.5 3.5-3.5h112.1c1.9 0 3.5 1.6 3.5 3.5v.1c-.1 2-1.6 3.5-3.5 3.5zM302.4 201h-79c-1.8 0-3.3-1.5-3.3-3.3 0-1.8 1.5-3.3 3.3-3.3h79c1.8 0 3.3 1.5 3.3 3.3 0 1.8-1.5 3.3-3.3 3.3z"/>
        <path fill="#CFDEFF" fill-rule="nonzero" d="M257.5 229.5h-32c-1.4 0-2.5-1.1-2.5-2.5s1.1-2.5 2.5-2.5h32c1.4 0 2.5 1.1 2.5 2.5s-1.1 2.5-2.5 2.5zM225.5 215c-1.5 0-2.6 1.3-2.5 2.8.1 1.3 1.3 2.2 2.6 2.2h18.9c1.4 0 2.5-1.1 2.5-2.5s-1.1-2.5-2.5-2.5h-19zM350.5 282.5h-32c-1.4 0-2.5-1.1-2.5-2.5s1.1-2.5 2.5-2.5h32c1.4 0 2.5 1.1 2.5 2.5s-1.1 2.5-2.5 2.5zM318.5 268c-1.5 0-2.6 1.3-2.5 2.8.1 1.3 1.3 2.2 2.6 2.2h18.9c1.4 0 2.5-1.1 2.5-2.5s-1.1-2.5-2.5-2.5h-19zM346.5 268c-1.5 0-2.6 1.3-2.5 2.8.1 1.3 1.3 2.2 2.6 2.2h8.9c1.4 0 2.5-1.1 2.5-2.5s-1.1-2.5-2.5-2.5h-9zM319.5 225.5c-1.5 0-2.6 1.3-2.5 2.8.1 1.3 1.3 2.2 2.6 2.2h13.9c1.4 0 2.5-1.1 2.5-2.5s-1.1-2.5-2.5-2.5h-14zM319.5 216c-1.5 0-2.6 1.3-2.5 2.8.1 1.3 1.3 2.2 2.6 2.2h18.9c1.4 0 2.5-1.1 2.5-2.5s-1.1-2.5-2.5-2.5h-19zM286.7 229.4h-5.8c-2.1 0-3.8-1.7-3.8-3.8v-5.3c0-2.1 1.7-3.8 3.8-3.8h5.8c2.1 0 3.8 1.7 3.8 3.8v5.3c0 2.1-1.7 3.8-3.8 3.8zM377.7 228.4h-5.8c-2.1 0-3.8-1.7-3.8-3.8v-5.3c0-2.1 1.7-3.8 3.8-3.8h5.8c2.1 0 3.8 1.7 3.8 3.8v5.3c0 2.1-1.7 3.8-3.8 3.8zM377.7 281.4h-5.8c-2.1 0-3.8-1.7-3.8-3.8v-5.3c0-2.1 1.7-3.8 3.8-3.8h5.8c2.1 0 3.8 1.7 3.8 3.8v5.3c0 2.1-1.7 3.8-3.8 3.8z"/>
        <g fill="#F5EA61" fill-rule="nonzero">
            <path d="M366.5 290.5l1.5 3.1 3.4.6-2.5 2.4.5 3.4-3.1-1.7-3.1 1.6.7-3.4-2.5-2.5 3.5-.4zM378.4 290.5l1.5 3.1 3.4.6-2.5 2.4.5 3.4-3-1.7-3.2 1.6.7-3.4-2.5-2.5 3.5-.4z"/>
        </g>
        <g fill="#F5EA61" fill-rule="nonzero">
            <path d="M273.9 237.5l1.5 3.2 3.4.5-2.5 2.4.5 3.5-3.1-1.7-3.1 1.6.7-3.4-2.5-2.5 3.5-.5zM285.8 237.5l1.5 3.2 3.4.5-2.5 2.4.5 3.5-3.1-1.7-3.1 1.6.7-3.4-2.5-2.5 3.5-.5z"/>
        </g>
        <g fill="#F5EA61" fill-rule="nonzero">
            <path d="M364.8 237.8l1.5 3.2 3.4.5-2.5 2.4.5 3.5-3-1.7-3.1 1.6.6-3.4-2.5-2.5 3.5-.5zM352.8 237.8l1.5 3.2 3.5.5-2.6 2.4.6 3.5-3.1-1.7-3.1 1.6.6-3.4-2.4-2.5 3.4-.5zM376.7 237.8l1.5 3.2 3.4.5-2.5 2.4.5 3.5-3-1.7-3.1 1.6.6-3.4-2.5-2.5 3.5-.5z"/>
        </g>
        <path fill="#CFDEFF" fill-rule="nonzero" d="M230.3 290.7c-1.4-.3-2.8.7-3 2.2-.1 1.3.9 2.5 2.1 2.7l13.6 2.7c1.3.3 2.6-.6 2.9-1.9.3-1.3-.6-2.7-1.9-2.9l-13.7-2.8zM232.1 281.4c-1.4-.3-2.8.7-3 2.2-.1 1.3.9 2.5 2.1 2.7l18.5 3.7c1.4.3 2.7-.6 2.9-2 .3-1.4-.6-2.7-2-2.9l-18.5-3.7zM286.7 305.1l-5.7-1.2c-2.1-.4-3.4-2.4-3-4.5l1-5.2c.4-2.1 2.4-3.4 4.5-3l5.7 1.2c2.1.4 3.4 2.4 3 4.5l-1 5.2c-.4 2.1-2.4 3.4-4.5 3z"/>
        <g fill="#F5EA61" fill-rule="nonzero">
            <path d="M272.2 311.8l.9 3.3 3.2 1.3-2.9 1.8-.2 3.5-2.7-2.2-3.3.9 1.3-3.2-1.9-3 3.4.3zM260.5 309.4l.8 3.4 3.3 1.2-3 1.8-.1 3.5-2.7-2.2-3.3.9 1.3-3.2-2-2.9 3.5.2zM283.9 314.1l.8 3.4 3.3 1.2-3 1.9-.1 3.5-2.7-2.3-3.3.9 1.3-3.2-2-2.9 3.5.2z"/>
        </g>
    </g>
</svg>
