<svg xmlns="http://www.w3.org/2000/svg" xmlns:xlink="http://www.w3.org/1999/xlink" width="491" height="490" viewBox="0 0 491 490">
    <defs>
        <linearGradient id="a" x1="49.882%" x2="49.185%" y1="20.222%" y2="96.888%">
            <stop offset="0%" stop-color="#FFF" stop-opacity=".1"/>
            <stop offset="4.024%" stop-color="#F9F9FB" stop-opacity=".136"/>
            <stop offset="19.51%" stop-color="#E6E5F1" stop-opacity=".276"/>
            <stop offset="37.42%" stop-color="#D8D7E9" stop-opacity=".437"/>
            <stop offset="59.73%" stop-color="#D0CFE4" stop-opacity=".637"/>
            <stop offset="100%" stop-color="#CECDE3"/>
        </linearGradient>
        <path id="c" d="M33.276.944l-7.788.118c1.77 13.688-1.298 29.736-14.632 35.164-2.95 1.534-6.254 2.36-9.558 2.006l.118 14.632c0 .826.708 1.534 1.534 1.534l30.916-.354c.826 0 1.534-.708 1.534-1.534l-.472-50.15c-.118-.708-.826-1.416-1.652-1.416z"/>
        <filter id="b" width="246.6%" height="193.5%" x="-73.3%" y="-43%" filterUnits="objectBoundingBox">
            <feOffset dy="2" in="SourceAlpha" result="shadowOffsetOuter1"/>
            <feGaussianBlur in="shadowOffsetOuter1" result="shadowBlurOuter1" stdDeviation="8"/>
            <feColorMatrix in="shadowBlurOuter1" values="0 0 0 0 0 0 0 0 0 0 0 0 0 0 0 0 0 0 0.5 0"/>
        </filter>
    </defs>
    <g fill="none" fill-rule="evenodd">
        <path fill="#5B90F6" fill-rule="nonzero" d="M490.024 237.879c-2.472-15.657-7.954-30.242-13.65-44.827-9.459-24.236-18.594-48.473-23.754-74.103-3.976-19.518-7.416-39.036-13.435-58.125-14.724-46.542-69.862-73.03-115.648-55.014-16.552 6.434-32.03 14.906-47.936 22.52-17.197 8.258-35.146 13.835-54.17 15.443-18.165 1.609-36.436 1.609-54.6 3.11-25.15 2.038-48.796 8.687-70.185 22.092-41.487 26.06-66.315 62.092-65.993 116.141-.43 4.826.538 12.977 1.612 21.127 3.332 23.593 10.426 46.113 20.1 67.776 16.014 35.497 37.08 67.347 68.679 90.94 37.94 28.312 80.395 38.178 126.934 27.347 22.893-5.362 41.595-18.339 59.437-32.923 15.8-12.87 31.061-26.382 48.043-37.749 22.034-14.692 47.077-21.877 72.12-28.955 14.724-4.182 29.664-7.936 43.314-15.228 16.337-8.687 22.034-21.234 19.132-39.572z"/>
        <path fill="#FFF" d="M83.432 135.773a.24.24 0 0 1-.375.03c-1.73-1.724-2.817-4.226-2.817-7.007 0-2.776 1.083-5.273 2.808-7a.24.24 0 0 1 .376.032l1.474 2.032c.084.115.07.28-.027.381-1.092 1.14-1.774 2.76-1.774 4.555 0 1.8.685 3.423 1.783 4.563a.311.311 0 0 1 .021.39l-1.47 2.024zM143.612 311.593a.24.24 0 0 1-.375.03c-1.73-1.724-2.817-4.226-2.817-7.007 0-2.776 1.083-5.273 2.808-7a.24.24 0 0 1 .376.032l1.474 2.032c.084.115.07.28-.027.381-1.092 1.14-1.774 2.76-1.774 4.555 0 1.8.685 3.423 1.783 4.563a.311.311 0 0 1 .021.39l-1.47 2.024z" opacity=".212"/>
        <path fill="#F5EA61" d="M60.843 281.28a.716.716 0 0 1 1.032-.075c4.756 4.168 7.745 10.213 7.745 16.934 0 6.71-2.978 12.743-7.723 16.915a.715.715 0 0 1-1.033-.074l-4.054-4.912a.665.665 0 0 1 .075-.92c3.004-2.757 4.878-6.67 4.878-11.01 0-4.35-1.884-8.272-4.904-11.025a.683.683 0 0 1-.058-.942l4.042-4.892zM22.386 58.08a.18.18 0 0 1 .282-.023c1.297 1.294 2.112 3.17 2.112 5.256 0 2.082-.812 3.955-2.106 5.25a.18.18 0 0 1-.282-.024l-1.106-1.524a.227.227 0 0 1 .02-.286c.82-.855 1.331-2.07 1.331-3.416 0-1.35-.514-2.568-1.337-3.422a.233.233 0 0 1-.016-.293l1.102-1.517zM155.726 344.82a.18.18 0 0 1 .282-.023c1.297 1.294 2.112 3.17 2.112 5.256 0 2.082-.812 3.955-2.106 5.25a.18.18 0 0 1-.282-.024l-1.106-1.524a.227.227 0 0 1 .02-.286c.82-.855 1.331-2.07 1.331-3.416 0-1.35-.514-2.568-1.337-3.422a.233.233 0 0 1-.016-.293l1.102-1.518z"/>
        <path fill="#5B90F7" d="M404.946 76.184a.492.492 0 0 1-.06-.75c3.306-3.46 8.1-5.634 13.43-5.634 5.322 0 10.108 2.166 13.417 5.617a.492.492 0 0 1-.06.75l-3.895 2.95a.562.562 0 0 1-.73-.055c-2.186-2.185-5.29-3.548-8.731-3.548-3.45 0-6.561 1.37-8.744 3.566a.577.577 0 0 1-.748.043l-3.88-2.94z" opacity=".089"/>
        <path fill="#5B90F7" d="M403.836 340.431a.432.432 0 0 1-.657.051c-3.027-2.874-4.929-7.043-4.929-11.678 0-4.627 1.895-8.789 4.915-11.666a.432.432 0 0 1 .657.051l2.58 3.388a.486.486 0 0 1-.048.635c-1.912 1.901-3.104 4.6-3.104 7.592 0 3 1.2 5.705 3.12 7.604a.5.5 0 0 1 .037.65l-2.571 3.373z" opacity=".1"/>
        <path fill="#5B90F7" d="M242.106 301.564a.492.492 0 0 1-.06-.75c3.306-3.46 8.1-5.634 13.43-5.634 5.322 0 10.108 2.166 13.417 5.617a.492.492 0 0 1-.06.75l-3.895 2.95a.562.562 0 0 1-.73-.055c-2.186-2.185-5.29-3.548-8.731-3.548-3.45 0-6.561 1.37-8.744 3.566a.577.577 0 0 1-.748.043l-3.88-2.94zM100.506 142.264a.492.492 0 0 1-.06-.75c3.306-3.46 8.1-5.634 13.43-5.634 5.322 0 10.108 2.166 13.417 5.617a.492.492 0 0 1-.06.75l-3.895 2.95a.562.562 0 0 1-.73-.055c-2.186-2.185-5.29-3.548-8.731-3.548-3.45 0-6.561 1.37-8.744 3.566a.577.577 0 0 1-.748.043l-3.88-2.94zM19.908 188.912a.372.372 0 0 1 .044.563c-2.444 2.595-5.987 4.225-9.927 4.225-3.933 0-7.47-1.624-9.916-4.212a.372.372 0 0 1 .043-.564l2.88-2.212a.41.41 0 0 1 .54.042c1.616 1.638 3.909 2.66 6.453 2.66 2.55 0 4.85-1.028 6.463-2.674a.422.422 0 0 1 .553-.032l2.867 2.204zM471.848 185.372a.372.372 0 0 1 .044.563c-2.444 2.595-5.987 4.225-9.927 4.225-3.933 0-7.47-1.624-9.916-4.212a.372.372 0 0 1 .043-.564l2.88-2.212a.41.41 0 0 1 .54.042c1.616 1.638 3.909 2.66 6.453 2.66 2.55 0 4.85-1.028 6.463-2.674a.422.422 0 0 1 .553-.032l2.867 2.204z" opacity=".182"/>
        <g>
            <path fill="#491E11" fill-rule="nonzero" d="M303.85 458.728c6.726 4.366 15.93 7.906 19.116 8.732.118-.944.118-1.888.236-2.832-6.136-1.062-12.036-3.894-16.638-8.26-1.062.708-1.888 1.652-2.714 2.36z"/>
            <path fill="#754B3F" fill-rule="nonzero" d="M323.32 461.56c-.236-.354-.708-.354-1.062-.59-4.72-1.77-8.024-5.074-11.8-7.67-2.242-1.534-13.57-7.906-14.16-4.72-.59 3.54 2.95 7.08 7.67 10.148.826-.826 1.652-1.652 2.596-2.36-.236-.236-.59-.472-.826-.826.236.236.59.472.826.826.472-.354.944-.59 1.534-.826-.59.236-1.062.472-1.534.826 4.602 4.248 10.502 7.198 16.638 8.26.118-.826.118-1.652.236-2.36-.118-.236 0-.472-.118-.708z"/>
            <path fill="#491E11" fill-rule="nonzero" d="M343.262 419.316c-5.192 5.074 3.776 5.664 7.316 5.9.944.118 1.888.118 2.832.118-.59-2.36-1.298-4.72-2.478-6.608-2.832-.708-5.428-1.652-7.67.59z"/>
            <path fill="#754B3F" fill-rule="nonzero" d="M351.05 418.726h-.236c1.18 2.006 1.888 4.366 2.478 6.608 3.894.118 7.788-.354 11.564-1.298.118 0 .354-.118.354-.236.118-.118.118-.354.118-.472.236-1.298.354-2.596.59-3.776-4.956.708-9.912.354-14.868-.826z"/>
            <path fill="#FFCBB3" fill-rule="nonzero" d="M194.346 210.81c1.652-.118 3.422-.236 5.074-.59v-9.44c0-.236 0-.472-.118-.59a.901.901 0 0 0-.59-.236c-2.478-.354-5.192-.826-5.428 2.242-.118.826.944 8.732 1.062 8.614z"/>
            <path fill="#3C567C" fill-rule="nonzero" d="M175.82 101.66c-3.422 1.298-5.428 4.956-6.372 8.732 4.838-1.18 16.284.59 21.83.59-2.124-4.248-10.266-11.328-15.458-9.322z"/>
            <path fill="#35485E" fill-rule="nonzero" d="M187.266 112.516c-.944-.944-1.652-2.242-2.36-3.658-5.546.944-11.21 2.714-16.048 5.31-.118 1.652-.118 3.304.118 4.484 1.18 6.608 6.254 14.396 6.608 21.122 2.124 36.58 6.608 46.728 15.812 61.95-.236-4.956-1.534-9.676-3.658-14.042-5.546-16.756-9.912-33.394-11.092-50.032 5.31 0 12.744-1.416 16.874-4.72.472-7.67-.59-14.75-6.254-20.414z"/>
            <path fill="#35485E" fill-rule="nonzero" d="M184.788 108.74c-5.428 0-10.502.472-15.34 1.652-.354 1.298-.472 2.596-.59 3.776 4.838-2.596 10.502-4.366 16.048-5.31 0-.118-.118-.118-.118-.118z"/>
            <path fill="#3C567C" fill-rule="nonzero" d="M192.222 162.076c-1.652-9.086.944-19.47 1.416-29.146-4.13 3.304-11.682 4.72-16.874 4.72 1.062 16.638 5.546 33.394 11.092 50.032 2.124 4.366 3.304 9.086 3.658 14.042 1.888 0 3.894.118 5.782.118.59 0 1.18 0 1.652-.354.59-.354.708-1.18.708-1.888 1.416-12.862-5.074-24.78-7.434-37.524z"/>
            <path fill="#FFCBB3" fill-rule="nonzero" d="M212.4 79.83c-.472-.708-.236-.354 0 0zM212.4 79.83c.236.354.472.59 0 0zM249.452 106.97c-6.254-6.726-16.284-8.614-23.6-14.16-1.888-1.416-6.372-5.664-9.794-9.204-1.062 1.77-1.77 3.776-2.36 5.664 11.328 6.726 22.774 14.042 35.636 17.936 0 0 0-.118.118-.236z"/>
            <path fill="#E4AB8F" fill-rule="nonzero" d="M213.698 89.388l-.354 1.062c11.092 7.552 22.656 14.868 35.164 19.352.236-.826.59-1.652.826-2.478-12.862-3.776-24.308-11.21-35.636-17.936zM212.4 79.83c.472.59.236.354 0 0-2.596 2.36-1.298 4.956-3.304 7.788 1.416.944 2.832 2.006 4.366 2.95.59-2.36 1.416-4.602 2.714-6.844-1.77-1.652-3.068-3.068-3.776-3.894z"/>
            <path fill="#FFCBB3" fill-rule="nonzero" d="M164.61 182.962c0 .118.118.118.118.236h.236c1.534-.354 3.068-.826 4.484-1.652a41.314 41.314 0 0 1-1.416-7.788c0 .59-4.956.944-5.428 2.478-.59 2.006 1.416 5.074 2.006 6.726z"/>
            <path fill="url(#a)" fill-rule="nonzero" d="M66.906 81.302l120.006.236c7.434 0 11.918 8.142 8.024 14.396l-52.628 86.73-6.49 75.874c-.236 2.242-2.124 4.012-4.366 4.012h-5.31c-2.242 0-4.13-1.77-4.366-4.012l-6.136-75.874L59 96.052c-4.13-6.372.354-14.75 7.906-14.75z" transform="translate(126.26 27.32)"/>
            <path stroke="#FFF" stroke-width="1.18" d="M197.886 108.622l120.006.236c7.434 0 11.918 8.142 8.024 14.396l-52.628 86.73-6.372 75.52c-.236 2.478-2.242 4.366-4.72 4.366h-4.602c-2.478 0-4.484-1.888-4.72-4.366l-6.136-75.52-56.758-86.612c-4.13-6.372.354-14.75 7.906-14.75z"/>
            <g transform="translate(207.68 111.1)">
                <path fill="#6D93B4" fill-rule="nonzero" d="M28.084 42.244c7.788-12.154 1.18-27.022-8.024-37.288L1.18 18.29c-.708.472-.826 1.416-.354 2.124l20.532 28.91c2.95-1.652 5.074-4.13 6.726-7.08z"/>
                <path fill="#395FA4" fill-rule="nonzero" d="M26.432.472L20.06 4.956c9.204 10.266 15.812 25.134 8.024 37.288-1.534 2.95-3.776 5.428-6.726 7.08l8.496 11.918c.472.708 1.416.826 2.124.354L57.23 43.778c.708-.472.826-1.416.354-2.124L28.674.708C28.084.118 27.14 0 26.432.472z"/>
                <path stroke="#CFDEFF" stroke-width="1.18" d="M20.06 26.078l-5.428 3.776c-.826.59-1.888.354-2.478-.472l-5.31-7.434c-.59-.826-.354-1.888.472-2.478l5.428-3.776c.826-.59 1.888-.354 2.478.472l5.31 7.434c.472.826.236 1.888-.472 2.478z"/>
                <path fill="#395FA4" fill-rule="nonzero" stroke="#6D93B4" stroke-width="1.18" d="M44.368 48.97l-3.422 2.478c-.826.59-1.888.354-2.478-.472L35.754 47.2c-.59-.826-.354-1.888.472-2.478l3.422-2.478c.826-.59 1.888-.354 2.478.472l2.714 3.776c.59.826.354 1.888-.472 2.478zM35.636 55.224l-3.422 2.478c-.826.59-1.888.354-2.478-.472l-2.714-3.776c-.59-.826-.354-1.888.472-2.478l3.422-2.478c.826-.59 1.888-.354 2.478.472l2.714 3.776c.472.708.354 1.888-.472 2.478zM53.218 42.716l-3.422 2.478c-.826.59-1.888.354-2.478-.472l-2.714-3.776c-.59-.826-.354-1.888.472-2.478l3.422-2.478c.826-.59 1.888-.354 2.478.472l2.714 3.776c.59.826.354 1.888-.472 2.478z"/>
                <g fill="#CFDEFF" fill-rule="nonzero">
                    <path d="M18.172 12.508l9.204-6.49M27.258 6.726l-8.26 5.9c-.236.236-.59.118-.826-.118s-.118-.59.118-.826l8.26-5.9c.236-.236.59-.118.826.118.118.354.118.708-.118.826z"/>
                </g>
                <g fill="#CFDEFF" fill-rule="nonzero">
                    <path d="M22.066 18.054l9.204-6.49M31.152 12.272l-8.26 5.9c-.236.236-.59.118-.826-.118s-.118-.59.118-.826l8.26-5.9c.236-.236.59-.118.826.118.236.354.118.708-.118.826z"/>
                </g>
                <g fill="#CFDEFF" fill-rule="nonzero">
                    <path d="M20.06 15.34l5.546-4.012M25.488 12.154l-4.602 3.304c-.236.236-.59.118-.826-.118s-.118-.59.118-.826l4.602-3.304c.236-.236.59-.118.826.118.236.354.118.708-.118.826z"/>
                </g>
                <g fill="#CFDEFF" fill-rule="nonzero">
                    <path d="M20.06 40.592l14.278-10.148M34.102 31.624L21.24 40.71c-.354.236-.944.236-1.18-.236-.236-.354-.236-.944.236-1.18l12.862-9.086c.354-.236.944-.236 1.18.236s.118.944-.236 1.18z"/>
                </g>
                <g fill="#CFDEFF" fill-rule="nonzero">
                    <path d="M22.42 44.014l14.396-10.03M36.58 35.164L23.718 44.25c-.354.236-.944.236-1.18-.236-.236-.354-.236-.944.236-1.18l12.862-9.086c.354-.236.944-.236 1.18.236.236.354.118.826-.236 1.18z"/>
                </g>
                <g fill="#CFDEFF" fill-rule="nonzero">
                    <path d="M17.582 37.17l8.614-6.136M25.96 32.214l-7.198 5.074c-.354.236-.944.236-1.18-.236-.236-.354-.236-.944.236-1.18l7.198-5.074c.354-.236.944-.236 1.18.236s.118.944-.236 1.18z"/>
                </g>
                <circle cx="12.245" cy="20.466" r="1.416" fill="#6D93B4" fill-rule="nonzero" stroke="#395FA4" stroke-width="1.18" transform="rotate(-35.291 12.245 20.466)"/>
                <path fill="#6D93B4" fill-rule="nonzero" stroke="#395FA4" stroke-width="1.18" d="M18.526 24.78l-4.602 3.304c-.236.236-.59.118-.826-.118-1.062-1.534-.708-3.658.826-4.72 1.534-1.062 3.658-.708 4.72.826.118.118.118.472-.118.708z"/>
            </g>
            <g transform="translate(250.16 65.08)">
                <path fill="#EFF8FF" fill-rule="nonzero" d="M10.856 36.226C24.19 30.68 27.258 14.75 25.488 1.062L2.36 1.298c-.826 0-1.534.708-1.534 1.534l.354 35.4c3.422.354 6.726-.472 9.676-2.006z"/>
                <g fill-rule="nonzero">
                    <use fill="#000" filter="url(#b)" xlink:href="#c"/>
                    <use fill="#E7E6FF" xlink:href="#c"/>
                </g>
                <path stroke="#CFDEFF" stroke-width="1.18" d="M13.452 18.408l-6.608.118c-.944 0-1.77-.826-1.77-1.77l-.118-9.204c0-.944.826-1.77 1.77-1.77l6.608-.118c.944 0 1.77.826 1.77 1.77l.118 9.204c0 .944-.826 1.77-1.77 1.77z"/>
                <path fill="#E7E6FF" fill-rule="nonzero" stroke="#6D93B4" stroke-width="1.18" d="M20.414 51.094h-4.248c-.944 0-1.77-.826-1.77-1.77v-4.602c0-.944.826-1.77 1.77-1.77h4.248c.944 0 1.77.826 1.77 1.77v4.602c0 .944-.826 1.77-1.77 1.77zM9.676 51.212H5.428c-.944 0-1.77-.826-1.77-1.77V44.84c0-.944.826-1.77 1.77-1.77h4.248c.944 0 1.77.826 1.77 1.77v4.602c0 .944-.826 1.77-1.77 1.77zM31.27 50.976h-4.248c-.944 0-1.77-.826-1.77-1.77v-4.602c0-.944.826-1.77 1.77-1.77h4.248c.944 0 1.77.826 1.77 1.77v4.602c0 .944-.826 1.77-1.77 1.77z"/>
                <g fill="#CFDEFF" fill-rule="nonzero">
                    <path d="M19.588 6.136l11.328-.118M30.326 6.608l-10.148.118c-.354 0-.59-.236-.59-.59s.236-.59.59-.59l10.148-.118c.354 0 .59.236.59.59s-.236.59-.59.59z"/>
                </g>
                <g fill="#CFDEFF" fill-rule="nonzero">
                    <path d="M19.706 12.98l11.21-.118M30.444 13.452l-10.148.118c-.354 0-.59-.236-.59-.59s.236-.59.59-.59l10.148-.118c.354 0 .59.236.59.59-.118.354-.354.59-.59.59z"/>
                </g>
                <g fill="#CFDEFF" fill-rule="nonzero">
                    <path d="M19.588 9.558h6.844M25.842 10.03h-5.664c-.354 0-.59-.236-.59-.59s.236-.59.59-.59h5.664c.354 0 .59.236.59.59s-.236.59-.59.59z"/>
                </g>
                <g fill="#CFDEFF" fill-rule="nonzero">
                    <path d="M5.192 30.326l17.464-.118M21.83 31.034l-15.812.118a.807.807 0 0 1-.826-.826c0-.472.354-.826.826-.826l15.812-.118c.472 0 .826.354.826.826a.807.807 0 0 1-.826.826z"/>
                </g>
                <g fill="#CFDEFF" fill-rule="nonzero">
                    <path d="M5.192 34.574l17.464-.118M21.83 35.282L6.018 35.4a.807.807 0 0 1-.826-.826c0-.472.354-.826.826-.826l15.812-.118c.472 0 .826.354.826.826a.807.807 0 0 1-.826.826z"/>
                </g>
                <g fill="#CFDEFF" fill-rule="nonzero">
                    <path d="M5.074 26.078l10.502-.118M14.75 26.904l-8.85.118a.807.807 0 0 1-.826-.826c0-.472.354-.826.826-.826l8.85-.118c.472 0 .826.354.826.826 0 .354-.354.826-.826.826z"/>
                </g>
                <circle cx="10.244" cy="9.431" r="1.416" fill="#EFF8FF" fill-rule="nonzero" stroke="#395FA4" stroke-width="1.18" transform="rotate(-.58 10.244 9.431)"/>
                <path fill="#EFF8FF" fill-rule="nonzero" stroke="#395FA4" stroke-width="1.18" d="M12.862 16.402H7.198c-.354 0-.59-.236-.59-.59 0-1.888 1.534-3.422 3.304-3.422 1.888 0 3.422 1.534 3.422 3.304.118.472-.118.708-.472.708z"/>
            </g>
            <path fill="#35485E" fill-rule="nonzero" d="M166.262 176.118c.826-.118 1.652-.354 2.478-.59l2.478-.708c-2.006-11.918-5.546-23.01-4.484-34.928-4.838 11.446-2.95 24.19-.472 36.226z"/>
            <path fill="#3C567C" fill-rule="nonzero" d="M201.19 116.646c-1.416-7.67-6.844-8.496-14.396-7.67-4.838.59.472.354-4.366 1.062-12.98 2.124-31.388 12.508-33.158 19.706-.826 3.54-.59 7.788 0 11.328 2.124 12.272 5.9 24.426 11.092 36.108 1.888-.236 3.776-.59 5.664-.944-2.478-12.036-4.366-24.898.354-36.226 0-.354 0-.826.118-1.18.118-1.062.236-2.242 1.062-3.186.944-1.18 6.136-2.242 7.906-2.478 19.942-2.006 23.6-6.136 25.252-14.278.236-.708.59-1.416.472-2.242z"/>
            <path fill="#FFFED5" fill-rule="nonzero" d="M173.342 103.194c-.118.118-.118.118 0 0zM173.46 103.076c0 .118-.118.118-.118.118l.118-.118z"/>
            <path fill="#FFF" fill-rule="nonzero" d="M207.444 78.178c.59-2.36 1.18-4.838 1.062-7.198-.118-2.478-1.18-4.956-3.068-6.372-2.242-1.534-5.192-1.534-7.906-1.77-6.136-.59-15.812-6.844-19.824.708-2.006 3.776-1.18 8.378.59 12.272 1.18 2.714 2.95 5.31 2.95 8.26s-5.9 16.638-7.788 18.88c0 0 3.658.118 4.484.472 3.186 1.298 5.9 2.242 12.862 5.31 2.95-9.794 6.254-19.234 14.396-25.606l.118-.118c.944-1.77 1.652-2.714 2.124-4.838z"/>
            <path fill="#CFDBDB" fill-rule="nonzero" d="M190.688 108.858c2.478 1.062 5.546 2.478 9.44 4.248-1.652-6.726-2.124-18.408 1.77-24.19 1.062-1.534 2.242-4.012 3.186-5.664-8.142 6.372-11.446 15.93-14.396 25.606z"/>
            <path fill="#E4AB8F" fill-rule="nonzero" d="M199.138 55.92c.2-.213.399-.427.2-.569-.2-.213-.797-.356-1.195-.427-2.19-.427-5.177-.64-7.566-.284.996 1.636.797 3.485-.597 5.264 1.792.64 3.783 1.21 6.172 1.636.398-1.92 1.394-3.841 2.986-5.62z"/>
            <path fill="#FFCBB3" fill-rule="nonzero" d="M197.54 64.336c-1.092-.94-1.274-2.023-1.274-3.034v-.578c-2.001-.362-4.002-.94-5.64-1.662-1.091 1.806-3.093 3.612-5.276 5.202-1.092.794.182 1.734 2.547 1.806 2.365.072 4.73.072 7.096.072 2.365 0 3.638-.94 2.547-1.806z"/>
            <g fill-rule="nonzero">
                <path fill="#E4AB8F" d="M201.858 39.002c-.354-.354-.708-.826-1.062-1.18.354.354.708.708 1.062 1.18 0 0 .118-.118 0 0 .118-.118 0 0 0 0 1.062 1.298 2.124 2.832 2.714 4.484-.118-2.006-.472-4.012-1.534-5.9-.59-1.062-1.298-2.006-2.478-2.596-.826-.354-1.652-.472-2.596-.472-3.54-.118-8.614 1.298-11.682 3.776 4.602 4.838 10.502 3.658 15.576.708z"/>
                <path fill="#FFCBB3" d="M201.858 39.002c-5.074 3.068-11.092 4.13-15.458-.708-1.416 1.18-2.36 2.596-2.596 4.13-.472 5.074 5.31 11.918 9.322 15.34.826.708 1.888 1.416 3.186 1.534 1.298.118 2.596-.472 3.54-1.18 2.95-2.242 3.894-5.782 4.366-9.086.236-1.888.472-3.776.354-5.546-.59-1.77-1.534-3.186-2.714-4.484z"/>
                <path fill="#F5EA61" d="M188.642 50.212c-2.006-3.422-2.242-7.552-1.18-11.328 3.186 1.77 12.036-.236 14.042-3.304 1.062 2.006 1.534 1.062 2.714 5.546 0 .236.59-.708 0 0-.236.236-.118.472.118.236 1.888-2.36 2.124-5.782 0-8.024.708-.472 2.006-1.416 2.478-2.006-1.298-.354-2.714-.826-4.012-1.18.118-.944.236-1.888.236-2.832-1.534.944-3.186 1.888-4.72 2.832-.354.236-.708.354-1.062.472-.472.118-.944 0-1.416-.118-3.422-.708-7.08.59-10.03 2.36-1.298.826-2.596 1.652-3.54 2.832-4.602 6.018.826 12.272 6.372 14.514z"/>
                <path fill="#FFCBB3" d="M188.052 48.088a25.532 25.532 0 0 0-4.248 0c-.826 0-1.77.236-2.006 1.062-.236.472.118 1.062.472 1.534.472.354.944.59 1.534.708.944.354 2.006.59 2.95.944.708.236 1.534.472 2.242.472.826 0 1.534-.472 1.888-1.18.472-.944-.118-2.124-.944-2.596-.826-.59-1.888-.708-2.95-.826"/>
            </g>
            <path fill="#CFDBDB" fill-rule="nonzero" d="M178.77 181.9c-.118-.236-.472-.472-.826-.59-1.888-.944-3.894-1.652-5.782-2.596-.826-.472-1.652-.826-2.242-.59 0 3.658 0 7.316.118 10.974a6.762 6.762 0 0 1 1.298-1.298c2.36-1.888 6.372-2.596 7.434-5.074.118-.354.118-.59 0-.826z"/>
            <path fill="#FFF" fill-rule="nonzero" d="M169.92 178.124c-.354.118-.708.472-.708 1.298-.118 1.416-.944 3.068-2.714 3.304-.708.118-1.416 0-2.006.118-1.888.354-2.36 2.124-2.95 3.422-.472 1.298-1.416 2.478-2.478 3.422-.708.59-1.534 1.18-2.124 1.888-1.298 1.534-1.416 3.658-.236 5.192.118.236.236.354.59.472.236.118.59 0 .826-.118 4.602-1.416 8.732-4.012 11.446-7.316.236-.236.472-.59.708-.826-.354-3.54-.354-7.198-.354-10.856z"/>
            <path fill="#CFDBDB" fill-rule="nonzero" d="M203.078 206.444c-.118 0-.236-.118-.354-.118-1.534-.59-2.832-1.062-2.95.826-.118 1.416-.708 3.068-2.478 3.422-.708.118-1.416.118-2.006.236-1.888.472-2.242 2.242-2.714 3.658-.472 1.298-1.18 2.478-2.36 3.658-.708.708-1.416 1.298-2.006 2.006-1.18 1.652-1.18 3.658 0 5.192 6.372-4.956 11.8-11.092 14.868-18.88z"/>
            <path fill="#FFF" fill-rule="nonzero" d="M209.568 209.158c-.118-.236-.472-.472-.826-.59-1.888-.708-3.776-1.298-5.664-2.124-2.95 7.788-8.378 13.924-14.75 18.88.118.118.354.354.59.354.236.118.59 0 .826-.118 4.602-1.77 8.496-4.602 10.974-7.906.59-.826 1.062-1.652 1.888-2.36 2.124-2.006 6.254-2.95 7.08-5.546-.118-.118 0-.472-.118-.59zM215.35 81.6a52.538 52.538 0 0 1-3.894-6.018c-1.652-2.714-2.714-7.198-4.956-9.322-2.36 2.714-4.012 7.08-4.602 10.62-.59 3.894.472 8.26 3.658 10.502 1.062.708 2.006 1.416 3.068 2.124 2.242-2.832 4.13-5.664 6.726-7.906z"/>
            <path fill="#E4AB8F" fill-rule="nonzero" d="M181.13 78.06c-.472-.708-7.67 3.894-6.962 5.782.236.59 3.186 2.36 3.776 2.95l.236.236c1.416-2.242 3.186-4.248 4.484-6.49-.472-.944-1.062-1.77-1.534-2.478z"/>
            <path fill="#FFF" fill-rule="nonzero" d="M170.51 69.328c-1.77 5.31-.354 11.564 3.186 15.93l4.248-3.894c.944-.826 4.13-3.658 4.248-4.956.118-.708.59.59 0 0-2.242-2.242-3.304-3.304-2.95-8.614.118-2.478 2.36-5.074 2.242-7.434-4.602-.826-9.676 5.074-10.974 8.968z"/>
            <path fill="#CFDBDB" fill-rule="nonzero" d="M184.316 75.818c-.708-.472-1.298-1.298-1.77-2.006-1.062-1.534-2.124-3.186-2.006-5.074 1.652 2.714 3.304 5.546 5.782 7.552-.944.354-4.012 2.124-4.956 2.478-.59.236.472-.354 0 0 .236-.354 2.832-3.068 2.95-2.95zM188.446 97.766c-2.95-2.36-5.428-5.192-7.434-8.378a35.537 35.537 0 0 1 4.956 3.186c1.534 1.062 2.832 2.36 4.248 3.54.944.826 6.844 4.838 3.776 5.9-1.18.354-4.484-3.422-5.546-4.248z"/>
            <path fill="#FFCBB3" fill-rule="nonzero" d="M200.718 98.946c-6.962-5.074-13.098-11.446-18.054-18.526-1.298 2.36-3.068 4.366-4.484 6.49l4.602 4.248c6.254 5.782 12.862 11.21 20.178 15.576 4.956 2.95 10.384 5.546 14.396 9.794a11.49 11.49 0 0 1 1.77-2.832c-4.72-6.372-12.036-10.148-18.408-14.75z"/>
            <path fill="#FFCBB3" fill-rule="nonzero" d="M218.536 131.396c.118.354.236.708.59.826s.708-.118.944-.354.236-.708.236-1.062c0-3.186.118-6.254.118-9.44 3.068-2.478 5.31-3.658 4.248-3.658-.236 0 .708.472.708.354s0-.236-.118-.354c-.59-1.652-1.652-3.304-3.186-4.13-1.298-.708-3.186-.944-4.484 0s-.944 3.186-.944 4.72c0 4.248.59 8.732 1.888 13.098zM250.514 111.926c1.298.826 2.832 1.298 4.13 2.124 1.77 1.062 3.304 2.832 5.31 2.95.354-.59.236-1.416-.118-2.006-.354-.59-.944-1.062-1.416-1.534-1.77-1.416-3.54-2.95-5.31-4.366-.708-.59-1.416-1.18-1.652-2.124-.236-1.18.472-2.36.236-3.422-1.416-.354-2.832 0-4.012.944-.236.118-.354.354-.472.59-.118.472.472.826.826 1.298.826.826.826 1.888.59 2.95-.236.826-.472.59.118 1.298.472.472 1.18.944 1.77 1.298z"/>
            <path fill="#491E11" fill-rule="nonzero" d="M280.958 328.338c-.708 1.18-2.596 2.95-2.242 4.484.118.59 3.658 3.54 3.894 3.068 1.18-2.006 2.242-4.012 3.186-6.254a39.995 39.995 0 0 1-4.602-2.124c.118.354 0 .59-.236.826z"/>
            <path fill="#754B3F" fill-rule="nonzero" d="M296.062 301.67c1.062-2.95 2.006-5.9 2.596-8.968.472-2.242.59-4.484.59-6.726 0-1.062-.59-2.596-1.652-2.242-2.36 11.682-6.844 22.656-11.328 33.63-1.416 3.54-2.95 7.08-4.838 10.384l4.602 2.124c1.534-3.304 2.714-6.844 3.894-10.266 2.006-6.018 4.012-12.036 6.136-17.936z"/>
            <path fill="#491E11" fill-rule="nonzero" d="M242.844 328.81c-4.012-7.198-6.726-15.222-8.024-23.364-.118 9.44 1.652 18.88 4.366 28.32 1.77-1.298 1.416-3.776 3.658-4.956z"/>
            <path fill="#754B3F" fill-rule="nonzero" d="M234.702 305.446l-.708-5.31c.118 1.416-4.602 3.186-4.602 4.72 0 1.416.59 4.602 1.298 6.962 1.888 6.254 7.906 24.898 7.906 22.184.118-.118.236-.118.354-.236-2.596-9.44-4.366-18.88-4.248-28.32z"/>
            <path fill="#754B3F" fill-rule="nonzero" d="M245.912 279.25a81.933 81.933 0 0 0-2.95-1.062c-1.062 2.596-2.006 4.956-3.54 7.316-4.838 7.552-8.496 12.626-9.912 19.588 1.77-.236 3.54-.118 5.31-.118 3.658-8.496 7.434-17.11 11.092-25.724z"/>
            <path fill="#F5EA61" fill-rule="nonzero" d="M277.89 264.618l2.124 4.484 4.838.826-3.54 3.304.708 4.956-4.248-2.36-4.484 2.242.944-4.838-3.54-3.54 4.956-.708zM294.41 264.854l2.124 4.484 4.956.826-3.658 3.304.826 4.956-4.366-2.36-4.484 2.242.944-4.838-3.54-3.54 4.956-.708z"/>
            <path fill="#754B3F" fill-rule="nonzero" d="M243.67 269.102c.708.354 1.18 1.062 1.416 1.888.236.826.118 1.652 0 2.478l-.354 4.956c0 .472.118 1.062.59 1.062.118 0 .236-.118.354-.236.826-.59 1.534-1.298 2.36-2.006.354.236.236.708.118 1.062-.826 2.124-2.242 4.012-4.012 5.428-.236.236-.59.354-.826.354-2.832 0-1.416-4.72-1.18-6.018 0-.826 1.652-8.968 1.534-8.968zM297.478 269.81c-.708.354-1.298 1.062-1.534 1.888-.236.826-.118 1.652-.118 2.478.118 1.652.118 3.304.236 4.956 0 .472-.118 1.062-.59 1.062-.118 0-.236-.118-.354-.236-.826-.708-1.534-1.298-2.242-2.006-.354.118-.236.708-.118 1.062.708 2.124 2.124 4.13 3.894 5.546.236.236.59.472.826.472 2.832.118 1.534-4.72 1.416-6.018-.118-.944-1.534-9.086-1.416-9.204z"/>
            <path fill="#C4DFFF" fill-rule="nonzero" d="M288.156 423.092l-1.062-1.77c-.944-2.006-1.416-4.248-1.888-6.372-2.124-9.44-3.304-16.756-5.31-26.196 4.366 2.36 8.85 4.012 13.452 5.192-1.652-6.844-4.248-13.334-7.67-19.116-1.18-1.888-3.304-2.95-5.546-2.478-4.484.826-9.086 2.006-12.862 4.484-5.31 3.422-7.434 8.614-7.67 14.632 3.894 27.966 23.836 50.976 46.964 66.08.236-.236.826-.708 1.652-1.18-3.186-10.856-12.744-17.582-17.936-27.848-.59-1.77-1.534-3.54-2.124-5.428z"/>
            <path fill="#8CADD4" fill-rule="nonzero" d="M290.634 426.514c-.826-1.062-1.652-2.124-2.36-3.304.59 1.77 1.534 3.54 2.124 5.428 5.074 10.266 14.75 16.992 17.936 27.848 1.652-1.062 3.894-2.596 4.484-3.068-4.838-9.558-15.104-17.936-22.184-26.904zM259.6 391.468c-.59 13.098 8.024 29.618 13.806 37.878 8.26 11.918 19.234 21.712 30.798 30.444.708-.826 1.534-1.534 2.36-2.36-23.128-14.986-43.07-37.996-46.964-65.962z"/>
            <path fill="#E7E6FF" fill-rule="nonzero" d="M318.954 422.148c.354 0 .59.118.944.118-8.85-3.54-16.52-9.44-23.718-16.048 6.49 6.726 13.688 12.39 22.774 15.93z"/>
            <path fill="#8CADD4" fill-rule="nonzero" d="M297.242 406.336c-5.074-4.602-9.794-9.676-14.75-14.632 2.714 4.012 5.546 8.024 7.906 12.154 2.95 5.074 6.49 10.03 11.564 13.098 3.658 2.124 7.788 3.186 11.918 4.012 2.006.472 4.13.826 6.136 1.18-8.968-3.54-16.166-9.204-22.774-15.812z"/>
            <path fill="#C4DFFF" fill-rule="nonzero" d="M309.396 398.312c-2.478-7.788-7.198-14.868-13.334-20.178-4.484-3.894-12.508-5.782-18.29-4.484l1.652 15.222c.708.944 1.298 1.888 2.006 2.832 4.838 4.956 9.676 9.912 14.75 14.632-5.664-5.664-10.738-12.036-16.048-18.29 5.31 6.136 10.384 12.508 16.048 18.29 7.198 6.608 14.868 12.39 23.718 16.048 8.142 1.416 16.402 2.242 24.544 3.186.472 0 .944.118 1.298-.118.472-.236.59-.944.708-1.416.118-.826.354-1.652.472-2.478-9.558-10.266-38.114-7.788-37.524-23.246z"/>
            <path fill="#8CADD4" fill-rule="nonzero" d="M314.942 406.1c-1.062-.354-2.242-.708-3.068-1.534-1.062-1.062-1.416-2.596-1.77-4.012a51.795 51.795 0 0 0-.708-2.242c-.59 15.458 27.966 12.98 37.406 23.128.354-1.652.59-3.186.944-4.838-10.856-3.54-21.83-6.962-32.804-10.502z"/>
            <path fill="#CFDBDB" fill-rule="nonzero" d="M254.88 349.46c-8.378-6.49-16.048-15.34-21.24-25.134 1.534 3.776 3.776 8.614 4.13 9.204 5.546 10.03 6.726 10.03 11.682 16.166-.236 6.254.118 12.39 1.18 18.526.354 1.77.708 3.54 1.062 5.428h.118c.118 1.062.472 2.124.826 3.068.59 1.534 1.18 2.95 1.77 4.366-2.714-10.384-2.714-21.24.472-31.624zM265.5 347.1c3.186-6.372 10.974-8.85 12.626-16.048-1.652 2.124-3.422 4.13-5.31 5.9-2.596 2.832-5.9 5.074-9.44 6.608.236 1.534.826 2.832 2.124 3.54z"/>
            <path fill="#FFF" fill-rule="nonzero" d="M269.158 352.174c-.118.118-.236.236-.354.236.118 0 .236-.118.354-.236 5.9-4.956 11.8-10.856 16.166-16.756a18.005 18.005 0 0 1-1.888-1.298c-1.534-1.18-3.068-2.596-4.602-4.012-.236.236-.472.59-.59.826-1.652 7.198-9.44 9.794-12.626 16.048-1.298-.708-1.888-2.006-2.124-3.54h-.118c-.59-.59-.826-1.18-.944-1.888-3.304 0-6.49-.708-7.906-1.416-3.658-1.77-11.092-14.514-15.576-22.302-3.068 1.77-3.304.944-6.726 2.242 0 .354.59 2.006 1.534 4.13 5.192 9.794 12.862 18.644 21.24 25.134-3.186 10.384-3.186 21.24-.59 31.624 1.18 3.304 2.242 6.49 4.13 9.676 9.676-4.248 20.65-9.794 29.382-16.52-8.614-5.546-16.992-12.508-18.762-21.948z"/>
            <path fill="#491E11" fill-rule="nonzero" d="M257.948 332.704c.118-.708-.354-2.95.118-3.54.354-.472 3.54-.472 3.658-.59-.354 1.77-.236 3.54-.118 5.31-1.298.236-2.596.354-3.894.472.118-.59.236-1.18.236-1.652z"/>
            <path fill="#491E11" fill-rule="nonzero" d="M261.606 333.766c.118.944.236 1.77.354 2.714.354 2.36.708 4.602 1.062 6.962-2.596-.236-5.074-1.062-7.198-2.596.944-2.124 1.534-4.366 1.888-6.726 1.298 0 2.596-.118 3.894-.354z"/>
            <path fill="#754B3F" fill-rule="nonzero" d="M260.947 336.868c-.708.59-1.534 1.062-2.478 1.062-1.416 0-2.714-1.18-3.304-2.478-.59-1.298-.59-2.832-.708-4.366-1.18 0-2.832-.236-3.068-1.416-.118-.354 0-.708.118-1.062.472-2.006.354-4.13.354-6.136 0-2.006.236-4.13 1.298-5.9 1.062-1.77 3.068-3.186 5.074-2.832 1.77.236 3.186 1.652 4.012 3.304.826 1.652 1.416.118 1.652 1.888 0-.708.59 1.534.826.826.236-.59 0-.472.59-.354.354.118.59.236.826.472 1.18 1.062 2.124 2.596 2.36 4.13.708 3.422-2.596 3.068-4.012 5.31-1.298 2.36-1.062 5.428-3.54 7.552z"/>
            <path fill="#F5EA61" fill-rule="nonzero" d="M323.487 313.622c-4.366-2.36-7.552-7.08-12.508-8.024-2.832-.472-5.546.354-8.26 1.298-6.844 2.124-14.042 3.894-21.004 2.36-3.658-.826-6.962-2.36-10.502-3.54-3.54-1.062-7.434-1.652-10.974-.354s-6.372 4.72-7.316 8.378c-.354 1.298-.826 4.13 1.298 4.13 1.77 0 2.832-3.54 5.074-2.124 1.77 1.062 1.298 6.726 2.714 8.142.59-1.652 1.888-4.956 3.304-4.012 1.534.944 2.006 3.068 1.18 4.602-.826 1.534-2.714 2.36-4.366 2.124 1.062 2.36 3.894 2.596 6.726 1.652.472-.118-4.248 1.416.472 0 7.67-2.124 13.688-6.136 16.52-10.738 3.658 10.384 17.7 14.396 27.966 12.036 1.416-.472 2.832-.944 4.248-1.534.118-.118.236-.118.472-.236-.118.118-.236.118-.472.236.354-.118.826-.354 1.18-.472a82.69 82.69 0 0 1-11.918-5.192c4.248.118 8.378.354 12.626.236 3.658-.118 7.316-.354 10.856-1.416 3.54-1.062 6.726-3.186 8.732-6.254-5.31.708-11.21 1.298-16.048-1.298z"/>
            <path fill="#CECDE3" fill-rule="nonzero" d="M319.78 469.466c.118.354.118.708.236.944.354 2.36.708 4.72 1.534 6.962.708 1.77 1.652 3.54 3.068 4.956.472.472 1.416.472 1.77-.236.944-1.652 1.416-3.54 1.534-5.428-2.95-2.006-5.782-4.366-8.142-7.198z"/>
            <path fill="#CFDEFF" fill-rule="nonzero" d="M323.674 460.144c-1.416-.354-3.068.472-3.894 1.77-1.416 2.124-.472 5.074.118 7.552 2.36 2.832 5.192 5.192 8.142 7.316.118-1.298 0-2.596-.236-3.894-.236-1.534-.708-3.186-.118-4.72.118-.354.354-.708.472-1.18.118-.59-.118-1.18-.354-1.652-.708-2.242-1.888-4.72-4.13-5.192z"/>
            <path fill="#CECDE3" fill-rule="nonzero" d="M366.508 429.228c1.652 1.77 3.186 3.54 5.074 4.956 1.534 1.18 3.304 2.124 5.192 2.478.708.118 1.416-.472 1.416-1.18 0-.826-.118-1.534-.354-2.36-5.074-2.832-10.03-6.372-15.34-8.378 1.062 1.652 2.832 3.186 4.012 4.484z"/>
            <path fill="#CFDEFF" fill-rule="nonzero" d="M363.912 418.608a3.865 3.865 0 0 0-2.36 3.54c0 .944.354 1.77.826 2.596 5.31 2.124 10.266 5.546 15.34 8.378-.59-2.242-2.006-4.484-3.658-6.254-1.062-1.18-2.36-2.36-2.596-3.894-.118-.354-.118-.826-.236-1.18-.236-.59-.708-.944-1.18-1.298-1.652-1.298-4.012-2.714-6.136-1.888z"/>
            <path fill="#FFF" fill-rule="nonzero" d="M131.688 83.252c-1.77 1.77-3.422 3.422-5.31 4.72 8.378 7.788 9.204 21.476 1.298 29.972l5.664 4.248c9.676-11.21 9.086-28.792-1.652-38.94z" opacity=".52"/>
            <path fill="#C4DFFF" fill-rule="nonzero" d="M239.068 450.232c-1.77 1.77-3.422 3.422-5.31 4.72 8.378 7.788 9.204 21.476 1.298 29.972l5.664 4.248c9.676-11.21 9.086-28.792-1.652-38.94z"/>
            <path fill="#FFF" fill-rule="nonzero" d="M342.554 259.072c1.77 1.77 3.422 3.422 5.31 4.72-8.378 7.788-9.204 21.476-1.298 29.972l-5.664 4.248c-9.558-11.21-9.086-28.792 1.652-38.94z" opacity=".52"/>
            <g fill-rule="nonzero">
                <path fill="#CFDBDB" d="M307.98 33.456c0 1.18.826 2.242 2.006 2.478 6.962 1.416 12.036 7.788 11.564 15.222-.472 7.198-6.49 13.216-13.688 13.57-8.378.472-15.34-6.254-15.34-14.514 0-1.062.118-2.006.354-3.068.236-1.18-.354-2.242-1.298-2.832 0 0-.118 0-.118-.118-1.416-.708-3.186.118-3.54 1.77-.472 2.006-.59 4.13-.354 6.372 1.062 9.44 8.85 16.756 18.408 17.346 11.328.708 20.768-8.378 20.768-19.588 0-9.44-6.726-17.346-15.694-19.234-1.534-.236-3.068.944-3.068 2.596z"/>
                <path fill="#6D93B4" d="M307.98 35.698v0h-.826c-6.372 0-11.682 4.012-13.688 9.676.236.118.59.354.826.59-.236-.236-.59-.354-.826-.59-.59 1.534-.826 3.068-.826 4.838 0 8.024 6.49 14.514 14.514 14.514s14.514-6.49 14.514-14.514c0-7.788-6.136-14.042-13.688-14.514zm-.826 23.836c-5.192 0-9.44-4.248-9.44-9.44 0-5.192 4.248-9.44 9.44-9.44 5.192 0 9.44 4.248 9.44 9.44-.118 5.192-4.248 9.44-9.44 9.44z"/>
                <path fill="#CFDBDB" d="M310.458 44.784c-.59.944-.472 2.124.118 2.95.944 1.416 1.062 3.186.118 4.72-.944 1.534-2.714 2.124-4.366 1.888-1.062-.236-2.124.236-2.714 1.062-.944 1.534-.118 3.54 1.652 3.894 3.658.708 7.552-.826 9.794-4.13 2.242-3.304 1.888-7.552-.236-10.62-1.18-1.298-3.422-1.18-4.366.236z"/>
                <g opacity=".64">
                    <path fill="#CFDBDB" d="M372.172 46.554c.236 1.062.236 2.242.236 3.422-.472 7.316-6.372 13.098-13.688 13.57-8.378.472-15.34-6.254-15.34-14.514 0-1.062.118-2.006.354-2.95.236-1.18-.236-2.36-1.298-2.832 0 0-.118 0-.118-.118-1.416-.708-3.186.118-3.54 1.652a18.462 18.462 0 0 0-.354 6.254c.944 9.558 8.85 16.992 18.408 17.582 11.328.708 20.768-8.378 20.768-19.588 0-1.062-.118-2.242-.236-3.304-.236-1.534-1.77-2.478-3.304-2.006-1.298.354-2.124 1.534-1.888 2.832z"/>
                    <path fill="#6D93B4" d="M369.34 45.02c.826-.236 1.534-.354 2.242-.59-1.888-5.546-6.844-9.558-12.862-9.912v0h-.826c-6.372 0-11.682 4.012-13.688 9.676.236.118.59.354.826.59-.236-.236-.59-.354-.826-.59-.59 1.534-.826 3.068-.826 4.838 0 8.024 6.49 14.514 14.514 14.514s14.514-6.49 14.514-14.514c0-1.652-.236-3.068-.708-4.602-.826.236-1.534.354-2.36.59zm-11.446 13.334c-5.192 0-9.44-4.248-9.44-9.44 0-5.192 4.248-9.44 9.44-9.44 5.192 0 9.44 4.248 9.44 9.44 0 5.192-4.248 9.44-9.44 9.44z"/>
                    <path fill="#CFDBDB" d="M363.44 46.79c-.944.354-1.416 1.298-1.416 2.242 0 .826-.236 1.534-.708 2.242-.944 1.534-2.714 2.124-4.366 1.888-1.062-.236-2.124.236-2.714 1.062v.118c-.944 1.534-.118 3.54 1.652 3.894 3.658.708 7.552-.826 9.676-4.13 1.062-1.652 1.534-3.54 1.534-5.428 0-1.534-1.652-2.596-3.068-2.124a.901.901 0 0 1-.59.236z"/>
                </g>
            </g>
            <g transform="translate(233.64 168.92)">
                <path fill="#EFF8FF" fill-rule="nonzero" d="M19.234 29.382c5.428-8.26.826-18.526-5.428-25.606L.826 12.98c-.472.354-.59.944-.236 1.416L14.632 34.22c2.006-1.18 3.54-2.832 4.602-4.838z"/>
                <path fill="#E7E6FF" fill-rule="nonzero" d="M18.172.708l-4.366 3.068c6.372 7.08 10.856 17.228 5.428 25.606-1.062 2.006-2.596 3.776-4.602 4.838l5.782 8.26c.354.472.944.59 1.416.236l17.346-12.272c.472-.354.59-.944.236-1.416L19.588.944c-.236-.472-.944-.59-1.416-.236z"/>
                <path stroke="#CFDEFF" stroke-width="1.18" d="M13.334 18.526l-2.832 2.006c-.826.59-1.888.354-2.478-.472l-2.95-4.248c-.59-.826-.354-1.888.472-2.478l2.832-2.006c.826-.59 1.888-.354 2.478.472l2.95 4.248c.472.826.354 2.006-.472 2.478z"/>
                <path fill="#E7E6FF" fill-rule="nonzero" stroke="#6D93B4" stroke-width="1.18" d="M30.09 34.338L28.556 35.4c-.826.59-1.888.354-2.478-.472l-1.18-1.652c-.59-.826-.354-1.888.472-2.478l1.534-1.062c.826-.59 1.888-.354 2.478.472l1.18 1.652c.472.826.236 1.888-.472 2.478zM24.072 38.586l-1.534 1.062c-.826.59-1.888.354-2.478-.472l-1.18-1.652c-.59-.826-.354-1.888.472-2.478l1.534-1.062c.826-.59 1.888-.354 2.478.472l1.18 1.652c.472.826.236 1.888-.472 2.478zM36.108 29.972l-1.534 1.062c-.826.59-1.888.354-2.478-.472l-1.18-1.652c-.59-.826-.354-1.888.472-2.478l1.534-1.062c.826-.59 1.888-.354 2.478.472l1.18 1.652c.59.826.354 2.006-.472 2.478z"/>
                <g fill="#CFDEFF" fill-rule="nonzero">
                    <path d="M12.508 8.968l6.372-4.484M18.762 5.074l-5.664 4.012c-.118.118-.472.118-.59-.118-.118-.118-.118-.472.118-.59l5.664-4.012c.118-.118.472-.118.59.118.118.118 0 .472-.118.59z"/>
                </g>
                <g fill="#CFDEFF" fill-rule="nonzero">
                    <path d="M15.222 12.744l6.254-4.484M21.476 8.85l-5.664 4.012c-.118.118-.472.118-.59-.118-.118-.118-.118-.472.118-.59l5.664-4.012c.118-.118.472-.118.59.118 0 .236 0 .472-.118.59z"/>
                </g>
                <g fill="#CFDEFF" fill-rule="nonzero">
                    <path d="M13.806 10.856L17.7 8.142M17.582 8.732l-3.186 2.242c-.118.118-.472.118-.59-.118-.118-.118-.118-.472.118-.59l3.186-2.242c.118-.118.472-.118.59.118s0 .472-.118.59z"/>
                </g>
                <g fill="#CFDEFF" fill-rule="nonzero">
                    <path d="M13.806 28.202l9.794-6.844M23.482 22.066l-8.85 6.254c-.236.236-.59.118-.826-.118s-.118-.59.118-.826l8.85-6.254c.236-.236.59-.118.826.118.118.354.118.708-.118.826z"/>
                </g>
                <g fill="#CFDEFF" fill-rule="nonzero">
                    <path d="M15.458 30.562l9.794-6.844M25.134 24.544l-8.85 6.254c-.236.236-.59.118-.826-.118s-.118-.59.118-.826l8.85-6.254c.236-.236.59-.118.826.118s.118.59-.118.826z"/>
                </g>
                <g fill="#CFDEFF" fill-rule="nonzero">
                    <path d="M12.036 25.842l5.9-4.13M17.818 22.538l-4.956 3.54c-.236.236-.59.118-.826-.118s-.118-.59.118-.826l4.956-3.54c.236-.236.59-.118.826.118s.118.59-.118.826z"/>
                </g>
                <circle cx="8.523" cy="14.388" r="1" fill="#EFF8FF" fill-rule="nonzero" stroke="#395FA4" stroke-width="1.18" transform="rotate(-35.238 8.523 14.388)"/>
                <path fill="#EFF8FF" fill-rule="nonzero" stroke="#395FA4" stroke-width="1.18" d="M12.744 17.346l-3.186 2.242c-.118.118-.472.118-.59-.118-.708-1.062-.472-2.478.59-3.186 1.062-.708 2.478-.472 3.186.59.236.118.118.354 0 .472z"/>
            </g>
            <g transform="translate(262.96 134.7)">
                <path fill="#FFF" fill-rule="nonzero" d="M12.098 24.662c10.03 1.652 17.818-6.962 21.83-15.812L19.886.472c-.472-.354-1.18-.118-1.416.354L5.608 22.42c1.888 1.416 4.13 2.124 6.49 2.242z"/>
                <path fill="#FFFED5" fill-rule="nonzero" d="M38.648 11.8l-4.72-2.832c-4.012 8.85-11.8 17.346-21.83 15.812-2.36-.236-4.602-.944-6.49-2.36l-5.31 8.85c-.354.472-.118 1.18.354 1.416l18.762 11.21c.472.354 1.18.118 1.416-.354l18.172-30.326c.236-.472.118-1.18-.354-1.416z"/>
                <path stroke="#CFDEFF" stroke-width="1.18" d="M19.768 14.632L16.7 12.744c-.826-.472-1.062-1.534-.59-2.478l2.832-4.72c.472-.826 1.534-1.062 2.478-.59l3.068 1.888c.826.472 1.062 1.534.59 2.478l-2.832 4.72c-.59.826-1.652 1.062-2.478.59z"/>
                <path fill="#FFFED5" fill-rule="nonzero" stroke="#6D93B4" stroke-width="1.18" d="M11.862 36.934l-1.652-1.062c-.826-.472-1.062-1.534-.59-2.478l1.18-1.888c.472-.826 1.534-1.062 2.478-.59l1.652 1.062c.826.472 1.062 1.534.59 2.478l-1.18 1.888c-.472.826-1.534 1.062-2.478.59zM5.372 33.04L3.72 31.978c-.826-.472-1.062-1.534-.59-2.478l1.18-1.888c.472-.826 1.534-1.062 2.478-.59l1.652 1.062c.826.472 1.062 1.534.59 2.478L7.85 32.45c-.472.826-1.652 1.062-2.478.59zM18.47 40.828l-1.652-1.062c-.826-.472-1.062-1.534-.59-2.478l1.18-1.888c.472-.826 1.534-1.062 2.478-.59l1.652 1.062c.826.472 1.062 1.534.59 2.478l-1.18 1.888c-.59.826-1.652 1.062-2.478.59z"/>
                <g fill="#CFDEFF" fill-rule="nonzero">
                    <path d="M28.382 9.794l6.844 4.13M34.754 14.042l-6.136-3.658c-.236-.118-.236-.354-.118-.59s.354-.236.59-.118l6.136 3.658c.236.118.236.354.118.59-.236.236-.472.236-.59.118z"/>
                </g>
                <g fill="#CFDEFF" fill-rule="nonzero">
                    <path d="M26.022 13.924l6.844 4.13M32.276 18.172l-6.136-3.658c-.236-.118-.236-.354-.118-.59s.354-.236.59-.118l6.136 3.658c.236.118.236.354.118.59s-.354.236-.59.118z"/>
                </g>
                <g fill="#CFDEFF" fill-rule="nonzero">
                    <path d="M27.202 11.918l4.13 2.478M30.742 14.514l-3.422-2.006c-.236-.118-.236-.354-.118-.59s.354-.236.59-.118l3.422 2.006c.236.118.236.354.118.59-.118.118-.354.236-.59.118z"/>
                </g>
                <g fill="#CFDEFF" fill-rule="nonzero">
                    <path d="M10.8 18.998l10.62 6.372M20.594 25.606l-9.558-5.782c-.236-.118-.354-.59-.236-.826s.59-.354.826-.236l9.558 5.782c.236.118.354.59.236.826-.118.354-.472.354-.826.236z"/>
                </g>
                <g fill="#CFDEFF" fill-rule="nonzero">
                    <path d="M9.266 21.594l10.62 6.372M19.06 28.202L9.502 22.42c-.236-.118-.354-.59-.236-.826s.59-.354.826-.236l9.558 5.782c.236.118.354.59.236.826s-.472.354-.826.236z"/>
                </g>
                <g fill="#CFDEFF" fill-rule="nonzero">
                    <path d="M12.334 16.52l6.372 3.776M17.88 20.532l-5.31-3.186c-.236-.118-.354-.59-.236-.826s.59-.354.826-.236l5.31 3.186c.236.118.354.59.236.826s-.472.354-.826.236z"/>
                </g>
                <circle cx="21.684" cy="8.359" r="1" fill="#EFF8FF" fill-rule="nonzero" stroke="#395FA4" stroke-width="1.18" transform="rotate(-59.082 21.684 8.359)"/>
                <path fill="#EFF8FF" fill-rule="nonzero" stroke="#395FA4" stroke-width="1.18" d="M20.594 13.57l-3.422-2.006c-.236-.118-.236-.354-.118-.59.708-1.18 2.124-1.534 3.304-.826 1.18.708 1.534 2.124.826 3.304-.118.118-.354.236-.59.118z"/>
            </g>
            <path stroke="#FFF" stroke-width="1.18" d="M325.68 122.9l-126.26.59"/>
        </g>
    </g>
</svg>
