<svg xmlns="http://www.w3.org/2000/svg" width="602" height="440" viewBox="0 0 602 440">
    <defs>
        <linearGradient id="a" x1="39.44%" x2="69.687%" y1="33.631%" y2="103.101%">
            <stop offset="0%" stop-color="#FFF" stop-opacity=".1"/>
            <stop offset="100%" stop-color="#CECDE3"/>
        </linearGradient>
    </defs>
    <g fill="none" fill-rule="evenodd">
        <g fill-rule="nonzero">
            <path fill="#5B90F6" d="M393.1 35.3c-27.7-8.2-53.1-24.5-81.2-31.2-60.8-14.4-126 21.2-160.3 77.1-43.6 71.3-39.4 170.6 4.5 241.7s122.9 113.3 202.2 116c22.9.8 46.1-1.6 67.5-10.4 24.9-10.3 46.1-29.3 62.7-51.7 13.9-18.9 24.8-40.6 30.3-64 6-25.6 5.5-52.9 14.5-77.5 14.4-39.1 50.7-65.6 63.4-105.4 8.8-27.7 4.4-60-11.5-83.8-8.8-13.1-29.1-20.2-45.1-19-11.5.9-53 13-72 16-37.8 5.8-38.6 3-75-7.8z"/>
            <path fill="url(#a)" d="M359.2 342.9l-33.7-28c5.3-13.3 8.1-27.9 8-43.1l-.7-90.5c-.5-63.2-51.9-114.6-114.3-114.202C156.2 67.4 105.6 119.4 106.1 182.6l.7 90.5c.5 63.2 51.9 114.6 114.3 114.202 28.6-.202 54.8-11.202 74.6-29.202l60.7-5.8c4.6-.6 6.4-6.4 2.8-9.4z" transform="translate(120)"/>
        </g>
        <path stroke="#FFF" stroke-width="2" d="M229 205.7l5.1-57.2c4.6-51.2 51.5-90.3 107.3-89.6 59.2.8 106.2 46 104.4 100.5l-1.9 57.2"/>
        <path fill="#E4AB8F" fill-rule="nonzero" d="M375.1 322.1c-.3-.1-.5-.2-.8-.3.6 4.3 1.1 8.4 1.7 12.7 1.4.6 2.8 1.1 4.3 1.6.7.2 1.3.5 2 .7.2-3.9.1-7.8.5-11.7-2.6-1-5.1-2-7.7-3z"/>
        <g fill-rule="nonzero">
            <path fill="#E4AB8F" d="M391.4 328.3c-2.5-.9-5-1.9-7.4-2.8-.4-.2-.8-.3-1.2-.5-.3 3.9-.3 7.8-.5 11.7 8.8 3 17.9 5.3 27 7.3.2.1.5.1.7.2-6.2-2.6-14.5-5.8-21-8.2.5-2.5 1.6-5.1 2.4-7.7zM432.6 347c.4 0 .8 0 1.1-.1.1-.9.3-1.9.4-2.8-3.5-1.2-7-2.5-10.5-3.8 3.3 1.9 6.3 4.1 9 6.7z"/>
            <path fill="#FFCBB3" d="M423.6 340.3c-10.3-3.7-20.8-7.7-31.2-11.6.6 2.9.6 6.3.6 6.3 7.2 2.6 13.6 6.2 20 9.8.3.1.6.1 1 .2 6.2 1.2 12.5 2.4 18.7 2-2.8-2.6-5.8-4.8-9.1-6.7z"/>
        </g>
        <path fill="#FFCBB3" fill-rule="nonzero" d="M389 336c6.5 2.4 14.8 5.6 21 8.2 1 .2 1.9.4 2.9.6-6.3-3.6-12.7-7.3-20-9.8 0 0 0-3.4-.6-6.3-.1 0-.2-.1-.2-.1-.3-.1-.5-.2-.8-.3-.7 2.6-1.8 5.2-2.3 7.7z"/>
        <path fill="#E4AB8F" fill-rule="nonzero" d="M373.3 379l3.9-.3c.2-6.2 1.2-12.7 2.7-19.3-2.2 6-4.3 11.9-6.8 17.6.1.7.1 1.4.2 2z"/>
        <path fill="#FFCBB3" fill-rule="nonzero" d="M393 311c-3.5.3-6.9 1.7-10.4 1.1-.2.9-.4 1.8-.7 2.7-.6 1.8-1.1 3.7-1.7 5.6-.5 1.6-.9 3.1-1.3 4.7-2.8 10.1-4.9 20.3-5.8 30.7-.6 7.1-.7 14.3.1 21.4 2.6-5.7 4.6-11.7 6.8-17.6 1.9-8.3 4.6-16.5 7.5-23.7 0-.1.1-.2.2-.4.8-2 2-5 3.3-8.3-.7-5.7 2-10.5 2-16.2zm-11.4 14.7c1.9.5 3.8.9 5.7 1.4-1.9-.5-3.8-1-5.7-1.4zm8.7-10.5c.2.8.4 1.6.4 2.4 0-.8-.1-1.6-.4-2.4z"/>
        <path fill="#E4AB8F" fill-rule="nonzero" d="M399.7 299c-3.4-3.6-11.2-.3-13.7 3-1.2 1.6-1.9 3.9-2.5 6.2-.3 1.3-.6 2.7-.9 3.9 3.5.6 6.9-.8 10.4-1.1h1-1c0 5.7-2.7 10.4-2.1 16 3.2-8.1 7.1-18.6 8.3-23.4.4-1.7.8-3.1 1.1-4.3-.2 0-.4-.1-.6-.3z"/>
        <path fill="#FFCBB3" fill-rule="nonzero" d="M374.2 321.8c0-.1.1-.2.1-.3-.1-.8-.2-1.7-.3-2.5.1.9.2 1.7.3 2.5.8-2.2 2.2-5.7 3.7-9.4-4.9 1.4-10.2.4-15.4.7-1 3.8-1.6 7.7-2 11.5-.1.9-.1 1.8.4 2.6.5.7 1.3 1.1 2 1.6 3.7 2 7.6 3.7 11.5 5.3l1.5.6c-.6-4.2-1.1-8.3-1.7-12.7 0 .1 0 .1-.1.1zM400.3 299.3c.5.1 1-.3 1-1 .4-5.4 1.5-9.2-1 1zM383.5 298.5c-.1.2-.2.5-.3.7.5 1.7 1.2-3.3.3-.7z"/>
        <path fill="#E4AB8F" fill-rule="nonzero" d="M378 312.2c2-4.8 4.1-9.9 5.2-13 0-.1-.1-.3-.1-.5-.4-2.9-2.5-5.8-5.8-6.5-2.8-.6-5.7.6-7.5 2.5-3.3 3.5-4.7 9.3-6 13.7-.5 1.5-.9 3-1.3 4.5 5.4-.4 10.6.6 15.5-.7z"/>
        <path fill="#6D93B4" fill-rule="nonzero" d="M371 220c-3.9.5-11 13.7-12.7 16.6-6.5 11.4-13.2 22.7-20.1 33.9-.4.7-.9 1.5-1.3 2.2.3.3.5.6.8.9 9.9-6.1 15-17.1 23.2-25.7 3-5.2 5.9-10.2 8.8-15.1 1.8-3.2 8.4-13.6 1.3-12.8z"/>
        <g fill-rule="nonzero">
            <path fill="#FFCBB3" d="M254.9 361.9c-1.7.7-3.6 2-4.9 2.8 1.3 1.1 2.5 2.3 3.5 3.6.3-.3.7-.6 1.1-.9.3-1.8.4-3.6.3-5.5z"/>
            <path fill="#E4AB8F" d="M256.3 361.5c-.4.1-.9.2-1.4.4.1 1.9-.1 3.7-.3 5.5 1.2-.9 2.6-1.5 4.1-1.9-.3-1.7-.1-4.4-2.4-4z"/>
            <path fill="#FFCBB3" d="M293.7 362.7c1.5 1.3 2.6 3 3.3 4.9 1.7-1.3 3.3-2.7 4.9-4.2-1.4-1.2-2.8-2.2-4.4-2.8-1 .8-3.4 2.4-3.8 2.1z"/>
            <path fill="#E4AB8F" d="M301.2 360c-.9-2.3-1.8-.7-3.2.4-.1 0-.2.1-.4.3 1.6.6 3.1 1.6 4.4 2.8.4-.3.8-.7 1.2-1-1.1-.4-1.6-1.5-2-2.5z"/>
            <path fill="#35485E" d="M292.5 297.9c1.7 4 6.1 14.4 8 18.4.2-.4.3-.8.5-1.2l6.5 2.8c-.6-7.5-2.5-14.8-5.8-21.6-2.6 1-6.9.3-9.2 1.6z"/>
            <path fill="#395FA4" d="M341.1 321.4c-.1-1-.8-1.9-1.4-2.7-8.6-10.9-20.3-19.5-33.6-24.7l-3.3 1.3c-.3.4-.7.6-1.2.9 3.2 6.8 5.2 14.2 5.8 21.6l19.8 8.4v-1.1 1.1l.6.2c-.2.2-.4.5-.6.7-.5 13.8-14.7 19.9-22.4 30.2-.9 1.8-2 3.6-2.8 5.6.1.2.2.3.4.5 18.2-6.5 33-21.8 38.4-39.6.2-.8.4-1.6.3-2.4z"/>
            <path fill="#35485E" d="M327.2 327.2c-8.9 10.9-18.2 21.5-27.9 31.9 1.5 2.2 1.5 2.1 2.7 3.9.8-1.9 1.9-3.7 2.8-5.6 7.7-10.3 21.9-16.5 22.4-30.2z"/>
            <path fill="#395FA4" d="M281.6 309.9c.2-3.4.5-7 2.6-9.6.6-.8 1.4-1.4 2.4-1.7 1-.2 2.1 0 2.7.9.5.8.5 1.8.4 2.7-.7 11-2.1 21.9-4.3 32.6-.4 1.8-.9 5.1-2.8 6-1.5-4.6-1.1 13.2-1.2 8.4 0-5.1 0-34.1.2-39.3z"/>
            <path fill="#395FA4" d="M293.6 294c-1.8 2.1-4 3.9-6.4 5.3-.3.2-.4.1-.8 0-1.7 19-6.6 56.3-6.4 56.4h-.3c1.3 1.9 2.6 3.5 3.4 6 .1 0 .2.1.3.1-.1 0-.2-.1-.3-.1.1.3.2.7.3 1-.1-.4-.2-.7-.3-1-7.6-3-15.8-3.4-24.1-1.8-.8.3-1.5.6-2.3.9.4 1.8.7 3.6.9 5.4 8 .3 16 .3 24.1-.1 1.3-.1 2.7-.2 3.7-.9s1.6-1.8 2.1-2.9c9.8-19.7 15.2-45.3 15.5-66.7-3.1-3.1-6.4 1.6-9.4-1.6z"/>
            <path fill="#35485E" d="M283.1 361.7c-.8-2.5-2.1-4.1-3.4-6-6.4 1-13.3 1.5-20.6 4.2 8.2-1.6 16.4-1.1 24 1.8z"/>
            <path fill="#6D93B4" d="M254.9 366.7c-1.5-2.7-4.1-3-5.6-1.7 3.2 5.6 3.5 12.4 1.6 18.2.6-.7 1.1-1.6 1.5-2.4 1.8-3.5 2.8-7.3 3-11.2 0-1 0-2-.5-2.9z"/>
            <path fill="#35485E" d="M249.3 365c-.8.7-1.4 1.8-1.3 3.4.1 1.7.9 3 .6 4.9-.5 2.5-2.4 4-3.7 6-.9 1.3-1.4 3.1-.6 4.5.9 1.5 3.1 1.8 4.7 1 .7-.4 1.3-.9 1.9-1.6 1.9-5.9 1.6-12.6-1.6-18.2zM293.1 364.2c-2.1 4-3 12.2-3.2 13.5-.3 2.1-.7 4.4.3 6.3.6 1.2 2.2 2.2 3.3 1.4.4-.3.6-.7.8-1.1.5-1 .9-2.1 1.3-3.1-.5-3.5-1.3-7-2.4-10.5-.6-2.1-.4-4.3-.1-6.5z"/>
            <path fill="#6D93B4" d="M297 362.6c-1.6-1.2-2.8-.3-3.8 1.6-.4 2.2-.5 4.4 0 6.5 1.1 3.5 1.9 7 2.4 10.5.9-2.6 1.3-5.2 1.7-7.9.2-2.2 1.9-9.1-.3-10.7z"/>
        </g>
        <g fill-rule="nonzero">
            <path fill="#E4AB8F" d="M366.25 199.427c.2.5.5.9.8 1.3.2.3.4.5.7.5.5 0 .7-.6.8-1.1.4-2.1.1-5.8-2.2-6.9-2.7-1.2-.6 5.2-.1 6.2z"/>
            <path fill="#C7BE4F" d="M393.75 218.327c-2.8-1.1-5.3-3.1-7.4-5.7.6 3.8 1 7.7 2.6 11.1 1.4 3 3.6 5.5 6 7.8 2.2 2 4.6 3.8 7.5 4.7 2.8.9 6.2.6 8.5-1.2 2.2-1.7 3.5-4.8 6.1-5.7.7-.3 1.5-.3 2.2-.3-.6-1.2-1.4-2.3-2.4-3.4-6.6-6.9-15.1-4-23.1-7.3z"/>
            <path fill="#F8EF89" d="M433.65 211.327c-3.3-3.2-8.7-1.6-13.3-1.6-6.6 0-12.9-4.5-15.2-10.6-.7-1.9-1.1-3.9-1.5-6-2.4 12.8 10.1 16.8 19.9 21.5 4.3 1.8 7.2 5.7 8.7 10.4 2-2.2 3.3-5 3.3-7.9.2-2.1-.4-4.3-1.9-5.8z"/>
            <path fill="#F5EA61" d="M423.75 214.727c-9.9-4.7-22.4-8.7-19.9-21.5-.7-3.7-1.5-7.4-4.4-9.7-2.6-2.1-6.2-2.4-9.5-1.8-3.2.5-6.7 2.2-7.6 5.4-.9 3.3 1.5 6.5 4 8.8l-8.9-3.2c4.1 4.6 7 10.3 8.3 16.4.3 1.2.5 2.4.6 3.6 2.1 2.6 4.6 4.6 7.4 5.7 7.9 3.4 16.5.4 23.1 7.2 1 1.1 1.8 2.3 2.4 3.4 1.2 0 2.5.2 3.7.3 3.5.2 7-1.5 9.4-4.1-1.4-4.9-4.4-8.7-8.6-10.5z"/>
            <path fill="#FFCBB3" d="M367.55 209.927c1.3 4.2 5.2 8 9.6 7.7 2.9-.2 5.4-2 7.1-4.3 1.6-2.3 2.4-5.2 2.9-8 .7-4.1.8-8.3.4-12.4-.3-3-1-6.2-3.1-8.5-4.9-5.3-13.7-2.1-16.1 4.1-2.1 5.6-2.5 16-.8 21.4z"/>
            <path fill="#F8EF89" d="M381.95 178.627c-3.5-1-7.4-.9-10.3 1-2.2 1.4-3.5 4.1-3.8 6.8 3.5-4.2 8.7-6.7 14.1-7.8z"/>
            <path fill="#F5EA61" d="M381.95 178.627c-5.4 1-10.6 3.5-14.1 7.8-.4 4.4 1.9 8.6 7.5 6.9 2.3-.7 4.1-2.3 5.8-4-1.3 1.5-1.8 3.6-1.4 5.5.4 1.9 1.8 3.6 3.6 4.4.7.3 1.6.6 2.4.5 2-.1 3.7-1.8 4.6-3.7 1.9-3.7 1.7-8.3-.5-11.8-1.6-2.6-4.6-4.6-7.9-5.6z"/>
            <path fill="#C7BE4F" d="M397.15 190.027c-.4 6.5-4.4 12.7-10.2 15.6 1-.5.6-3.5 1-4.4.7-1.4 1.4-1.5 2.6-2.4 3.1-2.5 5.2-4.9 6.6-8.8z"/>
            <path fill="#FFCBB3" d="M390.65 203.427c-.8.7-3.9 2.9-4.7 1.7-.6-.8.5-3.6 1.2-4.4 2.3-2.6 6.5-.1 3.5 2.7z"/>
            <path fill="#E4AB8F" d="M384.25 206.427c.8 0 1.5.2 2.3.4.1 0 .2.1.3 0l.1-.1c.3-.7.3-1-.4-.9-.9 0-1.7.3-2.3.6z"/>
        </g>
        <path fill="#FFCBB3" fill-rule="nonzero" d="M317.3 230.4c-1.5 3.8-2.8 7-3.9 8.9L309 246c2.5 1.2 8.2 3.1 12 2 7.2-12.2 11.9-38 14-52-.2-.1-.4-.2-.5-.2-8 10.7-10.8 23.3-17.2 34.6z"/>
        <path fill="#E4AB8F" fill-rule="nonzero" d="M330 195c-2.9 6.1-8.2 23.8-12.7 35.4 6.4-11.3 9.2-23.9 17.1-34.6-1.8-.8-2.3.3-4.4-.8zM310.9 234.1c-2 .5-2.5 3.6-2.7 5.2-.2 2.1-.1 4.2.2 6.2 0 .3.1.5.3.7.2.2.4.3.6.3 1.5.5 3 .8 4.6.9h.1c-.1-4.4-.5-8.8-1.4-13.2-.9 0-1.5-.1-1.7-.1z"/>
        <path fill="#FFCBB3" fill-rule="nonzero" d="M312.5 234.4c.9 4.4 1.2 8.8 1.4 13.2.1 0 .3 0 .4-.1.1-.1.2-.2.2-.4 1.2-3.6 2-7.3 2.3-11.1 0-.3-2.5-1.2-4.3-1.6zM384.1 291.1c-.2.1-.3.1-.5.2-.4 3.2-.8 6.7-1.2 10.2.4-.7.8-1.4 1.1-2l.6-8.4z"/>
        <path fill="#FFCBB3" fill-rule="nonzero" d="M384.1 291.1c-.1 2.8-.3 5.6-.5 8.5 3.7-6.9 4.9-10.5.5-8.5z"/>
        <path fill="#FFCBB3" fill-rule="nonzero" d="M389 285.6c-1.2 5-2.5 9.9-3.8 14.9 4-.9 6.1-13.9 3.8-14.9zM392.3 288.8c-.3-.1-.6-.1-1 .1.1.7.3 1.5.4 2.2.2-.8.4-1.6.6-2.3zM283.7 223.2c-.2 4.5-.5 8.2-1.3 8.4 4.2-.8 8.8-3.9 13.1-3.7-.3-1.1-1.1-4.3-2.2-8-2.6 2.4-6 3.8-9.6 3.3zM262 248.5c-11.9-8.1-21.8-19.1-28.5-31.8l-2.4 1.8c4.6 9.9 9.5 19.6 14.9 28.9 2.5 3.1 5.1 6 7.8 8.9.7.7 1.4 1.4 2.3 1.9 1.1.6 2.3.8 3.5.9.9.1 1.8.1 2.7 0 2.3-.9 4.5-1.9 6.6-3.2-.7-3.7-1-7.4-3-10.6-1.4 1-2.7 2.1-3.9 3.2z"/>
        <path fill="#E4AB8F" fill-rule="nonzero" d="M275.8 249.2c-.7-3.1-1-6.7-3.1-9.5-2.4 1.8-4.7 3.6-7 5.5 2 3.2 2.3 6.9 3 10.6 2.7-1.7 5.1-3.8 7.1-6.6zM228.5 220.4c4.8 9.6 10.7 18.6 17.5 27-5.4-9.3-10.3-18.9-14.9-28.9-.9.6-1.8 1.2-2.6 1.9z"/>
        <path fill="#E4AB8F" fill-rule="nonzero" d="M284.6 231.4c-4 2.6-8 5.4-11.8 8.3 2.1 2.7 2.4 6.3 3.1 9.5l.2-.2-.2.2c.1.3.1.5.2.8-.1-.3-.1-.5-.2-.8-3.5 4.9-8.3 7.9-13.6 9.9 8.8-.8 17.9-9.4 26.9-14.9-1.1-5.6-2-7.7-4.6-12.8z"/>
        <path fill="#FFCBB3" fill-rule="nonzero" d="M292.6 244.1c1.6-5.2 3.5-10.8 3.3-16.4-5-.7-9.1-.2-13.1 1.6 2.6 5.3 5.4 10.8 9.8 14.8z"/>
        <path fill="#F8EF89" fill-rule="nonzero" d="M283 301c1.8.1 4.2-1 6-1-.4-11.6-3.9-34.9-6.5-46.3.2 10.3-.6 38.8.5 47.3zM310.5 247.6c-3.2-.8-6.3-1.6-9.5-1.6 3.8 1.6 6.4 3.1 8.9 4.3l.6-2.7z"/>
        <path fill="#FFFED5" fill-rule="nonzero" d="M312 233c-2-2-14.3-5-15.8-5.3-.1 0-.2 0-.4-.1.2 5.6-1.7 11.2-3.3 16.4-3.8-3.5-6.5-8.1-8.8-12.8-6.7 3-12.9 7.2-18.8 11.1l-.3.3c3.3 4.6 5.8 9.8 7.6 15.3 3.4-2.7 6.5-5.4 9.5-7.6-.1-.5-.2-1-.3-1.4.1.5.2 1 .3 1.4.2-.2.4-.3.7-.5.1 1.2.1 2.5.1 3.9 2.6 11.3 6 34.7 6.5 46.3 7.1-.2 16.3-1.7 23-4-.6-5.2-4.1-22.3-4.9-27.5 0 .2-.1.4-.1.6-.5 0-.5-.5-.5-1 0 .5 0 1 .5 1 0-.2.1-.4.1-.6-1-6.7-4.8-15.9-6.1-22.5 3.2 0 6.3.8 9.5 1.6 1-4.9 1.7-9.4 1.5-14.6z"/>
        <path fill="#F8EF89" fill-rule="nonzero" d="M282.8 229.3c-1.6.7-3.1 1.6-4.7 2.8-4.5 3.2-8.8 6.7-13.1 10.2 5.8-3.9 12.1-8.1 18.8-11.1-.4-.6-.7-1.2-1-1.9z"/>
        <path fill="#FFCBB3" fill-rule="nonzero" d="M234.8 207.5c-.1-1.2-1.7-1.4-2.1-.3-1.1 3.2-2.2 6.4-3 9.7-.9 3.9 3.3 3.8 4.4.8 1.1-2.7.9-6.8.7-10.2zM372.3 215c-.8 3.1-1.8 6.1-2.6 6 4.1.3 8.3.6 12.4.9-.9-2-1.6-4.2-2.1-6.3-2.5 1-5.4.8-7.7-.6zM439.1 227.2c-3.8 4-7.8 7.8-11.8 11.4.9.8 1.7 1.7 2.4 2.6 3.4-4.4 6.4-9.2 9.4-14 .1.1 0 0 0 0z"/>
        <path fill="#6D93B4" fill-rule="nonzero" d="M427.3 238.7c-4.4 3.9-8.9 7.6-13.5 11.1-.7.5-1.5 1-2.3.9-.5-.1-1-.4-1.4-.7-10.2-7.1-16.2-16.3-22.2-26.8-1.6-2.9-4.4-4.4-7.4-4.9-.5 7.8-1.5 16.6-7.4 15.8-2.6 0-3.7-7.4-2.7-13.2-2.1 1.7-3.4 4.1-3.4 7.2.2 13.4.3 26.8 2.1 40.1 1 7.7 2.6 15.5 6.8 22 .1 0 .1 0 .2-.1 1.1-6.9 3.8-13.6 7-20 5.7-10.5 2.3-21.9 2-32.5-.1-.4-.2-.7-.2-1.1.1.1.2.2.2.3v-.7.7c1.7 2 3.4 4.1 5.1 6.1 7.3 5.7 15.7 7.9 23.5 13 6.7-3.5 11.7-8.7 16.1-14.5-.9-1-1.6-1.9-2.5-2.7z"/>
        <path fill="#56758F" fill-rule="nonzero" d="M413.6 255.8c.1.1.3.2.4.2-.1-.1-.3-.2-.4-.2-.8.4-1.7.9-2.6 1.2.9-.4 1.8-.8 2.6-1.2-7.8-5.1-16.2-7.3-23.5-13 5.7 6.5 12.1 12.3 20.1 15.3.7.3 1.5.5 2.2.4.8-.1 1.4-.8 2.1-1.3 6-3.9 11.5-8.6 16.5-14.1-.4-.6-.9-1.2-1.4-1.8-4.3 5.8-9.3 11-16 14.5z"/>
        <path fill="#E4AB8F" fill-rule="nonzero" d="M439.2 227.3c-3.1 4.7-6.1 9.6-9.5 14 .5.6.9 1.2 1.4 1.8 3.6-3.9 6.9-8.3 10-13.1-1.2-1.7-.9-1.1-1.9-2.7z"/>
        <path fill="#56758F" fill-rule="nonzero" d="M383 270c-3.2 6.4-5.8 13.2-7 20 8.6-3.1 19-4.2 23.8-12-5.3-11.4-12-28-14.8-40.5.3 10.6 3.7 22-2 32.5z"/>
        <path fill="#FFCBB3" fill-rule="nonzero" d="M335.7 274.6c-3 4.9-6.1 9.9-9.2 14.8 1.3.4 2.6 1.1 3.7 2l.4-.4c2.2-4.2 4.5-8.2 7.3-11.8-.3-1.7-1.4-3.1-2.2-4.6z"/>
        <path fill="#E4AB8F" fill-rule="nonzero" d="M336.9 272.7c-.4.6-.8 1.3-1.2 1.9.8 1.5 1.9 2.9 2.2 4.5l.1-.1-.1.1c.1.3.1.6.1.9 0-.3 0-.6-.1-.9-2.8 3.5-5.1 7.6-7.3 11.8 4.1-4.1 7.9-8.7 11.5-13.6-2-1.2-3.7-2.8-5.2-4.6z"/>
        <path fill="#56758F" fill-rule="nonzero" d="M337.7 273.6c1.3 1.5 2.8 2.7 4.4 3.7 6.8-9.2 12.9-19.4 18.7-29.4-8.1 8.6-13.2 19.5-23.1 25.7z"/>
        <path fill="#CECDE3" fill-rule="nonzero" d="M372 281c-.5 6.8-8.1 26-8 26 15.4 4.4 25.1 3 35 0-4.3-2.7-9.4-9.5-15.5-10.6-8.2-1.7-11.1-8.1-11.5-15.4z"/>
        <path fill="#E7E6FF" fill-rule="nonzero" d="M404 285.8c.1-3.9-.6-8-3.6-11-.9-.9-2-1.7-3.2-2.4-8 3.9-16.2 8.3-25.3 8.7 0 0 .3.4 0 0 .4 7.3 3.3 13.7 11.5 15.4 6.1 1.1 11.2 7.9 15.5 10.6.2 0-.2 0 0 0 2.9-5.2 5-15.7 5.1-21.3z"/>
        <path fill="#395FA4" fill-rule="nonzero" d="M378.1 379.7c.6-1.9.8-4-.2-5.4-1.5-2.2-2.6-1-3.7.7-2.4 4-5.4 9.5-6.4 14.5 3.5-2.9 7.4-6.1 10.3-9.8z"/>
        <path fill="#35485E" fill-rule="nonzero" d="M367.8 389.6c-.2 1.1-.4 2.3-.4 3.3 0 .6 0 1.2.3 1.7s.8.9 1.4.8c.4-.1.8-.4 1.1-.7 3-3 4.6-7 6.2-10.9.4-1.1 1.1-2.6 1.5-4.1-2.7 3.7-6.6 6.9-10.1 9.9z"/>
        <path fill="#FFF" fill-rule="nonzero" d="M4.6 369.4c-1.5 1.5-2.9 2.9-4.5 4 7.1 6.6 7.8 18.2 1.1 25.4l4.8 3.6c8.2-9.5 7.7-24.4-1.4-33zM42.7 235.9c2 .3 4.1.6 5.9 1.2 1-9.7 9.8-17.2 19.6-16.2 0-2-.1-4-.1-6-12.5-.9-24 8.5-25.4 21zM206 234.3c1.5-1.4 3-2.9 4.6-3.9-7-6.8-7.4-18.3-.6-25.4-1.6-1.2-3.2-2.4-4.8-3.7-8.3 9.3-8.1 24.2.8 33z" opacity=".52"/>
        <path fill="#5B90F6" fill-rule="nonzero" d="M424.3 296.3c-1.6 1.3-3.2 2.6-4.9 3.5 6.5 7.3 6 18.9-1.4 25.4 1.5 1.4 3 2.7 4.5 4 9-8.5 9.9-23.4 1.8-32.9z" opacity=".75"/>
        <path fill="#5B90F6" fill-rule="nonzero" d="M348.6 156.3c1.6 1.3 3.2 2.6 4.9 3.5-6.5 7.3-6 18.9 1.4 25.4-1.5 1.4-3 2.7-4.5 4-9-8.5-10-23.4-1.8-32.9z"/>
        <g fill-rule="nonzero">
            <path fill="#CFDBDB" d="M526 79.2c0 1 .7 1.9 1.7 2.1 5.9 1.2 10.2 6.6 9.8 12.9-.4 6.1-5.5 11.2-11.6 11.5-7.1.4-13-5.3-13-12.3 0-.9.1-1.7.3-2.6.2-1-.3-1.9-1.1-2.4 0 0-.1 0-.1-.1-1.2-.6-2.7.1-3 1.5-.4 1.7-.5 3.5-.3 5.4.9 8 7.5 14.2 15.6 14.7 9.6.6 17.6-7.1 17.6-16.6 0-8-5.7-14.7-13.3-16.3-1.3-.2-2.6.8-2.6 2.2z"/>
            <path fill="#6D93B4" d="M526 81.1v0h-.7c-5.4 0-9.9 3.4-11.6 8.2.2.1.5.3.7.5-.2-.2-.5-.3-.7-.5-.5 1.3-.7 2.6-.7 4.1 0 6.8 5.5 12.3 12.3 12.3 6.8 0 12.3-5.5 12.3-12.3 0-6.6-5.2-11.9-11.6-12.3zm-.7 20.2c-4.4 0-8-3.6-8-8s3.6-8 8-8 8 3.6 8 8c-.1 4.4-3.6 8-8 8z"/>
            <path fill="#CFDBDB" d="M528.1 88.8c-.5.8-.4 1.8.1 2.5.8 1.2.9 2.7.1 4-.8 1.3-2.3 1.8-3.7 1.6-.9-.2-1.8.2-2.3.9-.8 1.3-.1 3 1.4 3.3 3.1.6 6.4-.7 8.3-3.5 1.8-2.8 1.6-6.4-.2-9-1-1.1-2.9-1-3.7.2z"/>
            <g opacity=".64">
                <path fill="#CFDBDB" d="M496.4 90.3c.2.9.2 1.9.2 2.9-.4 6.2-5.4 11.1-11.6 11.5-7.1.4-13-5.3-13-12.3 0-.9.1-1.7.3-2.5.2-1-.2-2-1.1-2.4 0 0-.1 0-.1-.1-1.2-.6-2.7.1-3 1.4-.4 1.7-.5 3.5-.3 5.3.8 8.1 7.5 14.4 15.6 14.9 9.6.6 17.6-7.1 17.6-16.6 0-.9-.1-1.9-.2-2.8-.2-1.3-1.5-2.1-2.8-1.7-1.1.3-1.8 1.3-1.6 2.4z"/>
                <path fill="#6D93B4" d="M494 89c.7-.2 1.3-.3 1.9-.5-1.6-4.7-5.8-8.1-10.9-8.4v0h-.7c-5.4 0-9.9 3.4-11.6 8.2.2.1.5.3.7.5-.2-.2-.5-.3-.7-.5-.5 1.3-.7 2.6-.7 4.1 0 6.8 5.5 12.3 12.3 12.3 6.8 0 12.3-5.5 12.3-12.3 0-1.4-.2-2.6-.6-3.9-.7.2-1.3.3-2 .5zm-9.7 11.3c-4.4 0-8-3.6-8-8s3.6-8 8-8 8 3.6 8 8-3.6 8-8 8z"/>
                <path fill="#CFDBDB" d="M489 90.5c-.8.3-1.2 1.1-1.2 1.9 0 .7-.2 1.3-.6 1.9-.8 1.3-2.3 1.8-3.7 1.6-.9-.2-1.8.2-2.3.9v.1c-.8 1.3-.1 3 1.4 3.3 3.1.6 6.4-.7 8.2-3.5.9-1.4 1.3-3 1.3-4.6 0-1.3-1.4-2.2-2.6-1.8-.1.1-.3.2-.5.2z"/>
            </g>
            <g opacity=".64">
                <path fill="#CFDBDB" d="M557.1 103.4c-.6-.7-1.2-1.5-1.6-2.4-2.8-5.5-1.1-12.3 4.1-15.8 5.9-4 13.9-2.1 17.5 3.9.4.7.8 1.5 1.1 2.3.3.9 1.2 1.6 2.2 1.5h.2c1.3-.1 2.2-1.5 1.8-2.7-.5-1.6-1.4-3.2-2.5-4.7-4.8-6.5-13.8-8.5-21-4.8-8.5 4.5-11.5 15.2-6.6 23.3.5.8 1 1.6 1.6 2.3.9 1 2.4 1 3.2 0 .6-.9.7-2.1 0-2.9z"/>
                <path fill="#6D93B4" d="M559.8 103.3l-1.4 1.4c3.7 3.2 9.2 4 13.7 1.6-.5-.8-.9-1.6-1.5-2.5.5.9 1 1.7 1.5 2.5l.6-.3c4.6-2.7 6.7-8 5.7-13h-.9.9c-.3-1.3-.8-2.6-1.5-3.9-3.5-5.8-11.1-7.7-16.9-4.2-5.8 3.5-7.7 11.1-4.2 16.9.7 1.2 1.6 2.2 2.5 3 .5-.6 1-1.1 1.5-1.5zm2.5-14.7c3.8-2.3 8.7-1 10.9 2.7 2.2 3.7 1 8.7-2.7 10.9-3.8 2.3-8.7 1-10.9-2.7-2.3-3.8-1.1-8.7 2.7-10.9z"/>
                <path fill="#CFDBDB" d="M563.2 99.4c.5-.6.5-1.5.1-2.3-.3-.6-.5-1.2-.5-2 .1-1.5 1-2.8 2.3-3.3.8-.3 1.4-1 1.5-1.9v-.1c0-1.5-1.5-2.6-2.9-2.1-3 1.1-5.1 3.9-5.2 7.2-.1 1.7.4 3.3 1.3 4.6.7 1.1 2.3 1.2 3.1.2.1 0 .2-.2.3-.3z"/>
            </g>
        </g>
        <path fill="#FFCBB3" fill-rule="nonzero" d="M336.1 183.7c-.8 2.1-1.1 5.5-1.1 7.3.1-1.6-.1-4.7-.3-6.9 0-.4-.6-.4-.7-.1-.5 1.6-.8 3.7-1 4.9v-6c-.4-.1-.7-.1-1.1-.2-.5 2-.8 4.5-.9 6.2-.3-1.6-.5-4.2-.8-6.3h-.8c0 2.4 0 4.7-.1 7.1-.5-1.3-1-2.5-1.7-3.7-.2-.4-.6-.9-1.1-.8 0 3.1.6 8.2 2.2 11 2.3 4 6.2 2.2 6.9-1.6.3-1.6.6-3.1.9-4.7.3-2 .6-4.1.4-6.2-.2.1-.5.1-.8 0z"/>
        <g fill-rule="nonzero">
            <path fill="#E4AB8F" d="M296.1 196.4c-.5-1.5-1.1-3-1.8-4.4-.6-1.3-1.4-2.6-2.5-3.5-2.1-1.8-5-1.9-7.8-2-1.2 0-2.5 0-3.5.6-.8.5-1.3 1.4-1.7 2.3a31 31 0 0 0-2.1 5.8c6.1 2.6 12.9 2.9 19.4 1.2z"/>
            <path fill="#FFCBB3" d="M276.7 195.3c-1.3 5.1-1.5 10.5-.9 15.7.5 4 1.8 8.1 4.6 11 2.8 2.9 7.4 4.4 11.1 2.8 4.5-2 6.3-7.4 6.7-12.3.4-5.4-.3-10.9-2.1-16-6.5 1.6-13.3 1.3-19.4-1.2z"/>
            <path fill="#FFCBB3" d="M273.3 211.3c1.4 1.5 3.5 2.4 5.5 2.4.1 0 .3 0 .4-.1.2-.1.2-.3.1-.5-.2-2.6-2.2-4.6-4.3-6.2-.6-.5-1.2-1-2-1.2-.8-.2-1.6-.1-2.1.5-.6.7-.5 1.8-.1 2.7.5 1 1.2 1.8 2 2.4.4.3.9.5 1.3.3"/>
            <path fill="#35485E" d="M279.8 196.3c5.6 0 11.2-1.5 16-4.3 4.1-2.4 8-6.5 7.2-11.2-2.1 2.7-4.8 4.9-7.9 6.4 1.5-2.3 2.1-5.1 1.6-7.8-2.2 1.7-4.3 3.4-6.5 5.1 1.1-2.1 2.1-5.1.2-6.5-1.2 3-2.8 6.4-5.9 7.3-1.2.3-2.4.3-3.6.4-3.3.5-6.3 2.8-7.7 5.9-3.7 7.6 2.3 12.8 3.5 19.9 2.4-4.5 3.3-10.2 3.1-15.2z"/>
            <path fill="#E4AB8F" d="M276.1 213.1l2.9 1.9-2.4.1z"/>
        </g>
        <path fill="#FFCBB3" fill-rule="nonzero" d="M373 234c6 .7 6.9-8 7.4-15.8-3.6-.6-7.4.4-10.1 2.6-1 5.8.1 13.2 2.7 13.2zM321.6 288.2c.2.6.8.8 1.4.9.6.1 1.2.1 1.7.4-1.6 1.5-2.8 3.5-3.3 5.7.8 0 1.4-.7 1.8-1.5.4-.7.8-1.5 1.6-1.8-.9 1.2-1.4 2.7-1.5 4.1 0 .1 0 .3.1.4.2.2.5-.1.6-.3.7-1.1 1.4-2.3 2.1-3.4-.6 1.6-1 3.4-1.2 5.1 1.5-.8 1.3-3.3 2.8-4.1-.5 1.5-.9 3.2-1 4.8.3.2.6-.1.7-.4 1.3-2.2 2.3-4.6 3-7 .1-.4.2-.8 0-1.1-.1-.2-.3-.4-.5-.5-1.5-1-2.3-.8-3.8-.9-.1 0-4.5-.6-4.5-.4z"/>
        <path fill="#E4AB8F" fill-rule="nonzero" d="M440 219c2-1 1.1 7 1 9.8 0 .7-.1 1.5-.7 1.9-.4.3-1.3-3.9-1.3-4.3 0-1.9.4-5.6 1-7.4zM373 234l2-8-.4 8z"/>
        <path fill="#35485E" fill-rule="nonzero" d="M438.4 349.4c-.4-2.4-1.4-10.5-6.1-9.1-.3.1-.5.2-.8.3 3.7 4.5 5.5 10 7.5 15.3-.1-2.9-.5-5.7-.6-6.5z"/>
        <path fill="#395FA4" fill-rule="nonzero" d="M439 355.9c-2-5.3-3.8-10.8-7.5-15.3-3 1.6-.6 5.9.4 7.8 1.2 2.2 1.5 4.4 1.8 6.7.5.9.9 1.9 1.3 2.9-.4-1-.8-1.9-1.3-2.9.3 2 .5 4.1 1.4 6 .4 1 1.5 2.1 2.6 1.7 1.2-.2 1.4-3.6 1.3-6.9z"/>
        <path fill="#35485E" fill-rule="nonzero" d="M228.6 224c-1.7-.1-2.9-1.5-2.9-3.1l.6-17 6 .2-.6 17c0 1.7-1.4 3-3.1 2.9zM443.6 236c-1.7-.1-2.9-1.5-2.9-3.1l.6-17 6 .2-.6 17c0 1.7-1.4 3-3.1 2.9z"/>
        <path fill="#FFCBB3" fill-rule="nonzero" d="M227.1 210.7c.5.4.9 1 .8 1.7-.1.7-.8 1.2-1.4 1.1 1 .1 1.9.7 2.2 1.5.3.8-.2 1.9-1.2 2 .8-.1 1.6.6 1.5 1.4-.1.8-1.1 1.3-2.1 1.5-.6.1-1.3.2-2 0-1.2-.3-1.9-1.4-2.4-2.4-1.3-2.4-3.6-7.2-1.2-9.5 2.4-2.4 8.2 0 3.9 2.1.7.1 1.4.2 1.9.6zM445.8 225.6c-.1.1-.3.2-.3.4s.2.4.4.4c1.2.4 2.4-.3 3.6 0-1.4.1-2.7.7-3.8 1.6.2.3.5.3.8.4 1 .1 1.9.2 2.9.2-1.2 0-2.5.2-3.5 1.1-.1.1-.2.2-.2.3 0 .2.2.3.4.3.9 0 1.9 0 2.8-.1-.9 0-1.9.3-2.8.8-.2.1-.5.4-.4.7l.2.2c.5.2 1.1.1 1.6.1.9-.1 2-.3 2.7-1 .7-.8 1-2 1.1-3.2.1-.8.1-1.6-.1-2.4-.8-2.7-4.1-.7-5.4.2z"/>
        <path fill="#FFF" fill-rule="nonzero" d="M256.6 126.6c4.8-14.5 15.5-26.1 29.5-32 1.8-.8.2-3.3-1.5-2.6-14.7 6.3-25.9 18.6-30.9 33.8-.6 1.8 2.3 2.6 2.9.8zM401.4 63.5c14.6 4.8 26.7 14.8 34.4 28.1 1 1.7 3.6.2 2.6-1.5-8-14-20.8-24.4-36.2-29.5-1.8-.6-2.6 2.3-.8 2.9zM352.7 395.6c-14.9 3.8-30.5 2-44.1-5.1-1.7-.9-3.1 1.8-1.4 2.7 14.3 7.5 30.7 9.3 46.4 5.3 1.9-.5 1-3.4-.9-2.9z" opacity=".49"/>
    </g>
</svg>
