<svg xmlns="http://www.w3.org/2000/svg" width="14" height="14" viewBox="0 0 14 14">
    <path fill="#6E6E6E" fill-rule="evenodd" d="M14 8.583V14h-3V8.946c0-1.27-.435-2.136-1.52-2.136-.83 0-1.323.584-1.54 1.149-.08.202-.1.483-.1.765V14H4.838s.04-8.56 0-9.446H7.84v1.339l-.02.03h.02v-.03c.399-.643 1.11-1.561 2.705-1.561C12.52 4.332 14 5.682 14 8.583zM1.699 0C.672 0 0 .705 0 1.632c0 .907.652 1.633 1.659 1.633h.02c1.047 0 1.698-.726 1.698-1.633C3.357.705 2.726 0 1.699 0zM.179 14h3V4.554h-3V14z"/>
</svg>
