<svg xmlns="http://www.w3.org/2000/svg" width="1440" height="750" viewBox="0 0 1440 750">
    <g fill="none" fill-rule="evenodd">
        <path fill="#5B90F7" d="M-5 750h1460V0H-5z"/>
        <path fill="#FFF" d="M1158.562 156.243a.569.569 0 0 1 .874-.07c4.031 3.897 6.564 9.55 6.564 15.835 0 6.275-2.524 11.917-6.545 15.818a.569.569 0 0 1-.875-.069l-3.436-4.594a.669.669 0 0 1 .064-.86c2.545-2.578 4.134-6.237 4.134-10.295 0-4.068-1.597-7.736-4.156-10.31a.686.686 0 0 1-.05-.882l3.426-4.573z" opacity=".212"/>
        <path fill="#F5EA61" d="M1350.787 225.894c-.603.739-1.669.809-2.385.174-10.994-9.744-17.902-23.876-17.902-39.588 0-15.686 6.883-29.793 17.85-39.546.715-.637 1.783-.567 2.387.174l9.371 11.484c.53.65.441 1.58-.175 2.151-6.942 6.445-11.274 15.591-11.274 25.737 0 10.17 4.356 19.34 11.334 25.775.627.579.673 1.545.134 2.204l-9.34 11.435zM1344.262 673.31a.572.572 0 0 1-.795.055c-3.664-3.045-5.967-7.461-5.967-12.371 0-4.902 2.294-9.31 5.95-12.358a.572.572 0 0 1 .796.054l3.123 3.589a.469.469 0 0 1-.058.672c-2.314 2.014-3.758 4.872-3.758 8.043 0 3.178 1.452 6.043 3.778 8.055a.48.48 0 0 1 .045.688l-3.114 3.573zM1129.762 79.81a.572.572 0 0 1-.795.055c-3.664-3.045-5.967-7.461-5.967-12.371 0-4.902 2.294-9.31 5.95-12.358a.572.572 0 0 1 .796.054l3.123 3.589a.469.469 0 0 1-.058.672c-2.314 2.014-3.758 4.872-3.758 8.043 0 3.178 1.452 6.043 3.778 8.055a.48.48 0 0 1 .045.688l-3.114 3.573z"/>
        <path fill="#5B90F7" d="M551.03 703.623c.573.442.627 1.224.135 1.75-7.551 8.061-18.504 13.127-30.68 13.127-12.157 0-23.09-5.048-30.649-13.09-.493-.524-.44-1.307.135-1.75l8.9-6.873a1.265 1.265 0 0 1 1.668.129c4.994 5.09 12.083 8.267 19.945 8.267 7.882 0 14.988-3.194 19.976-8.311.449-.46 1.198-.494 1.708-.099l8.862 6.85z" opacity=".089"/>
        <path fill="#5B90F7" d="M552.152 90.41c.382-.5 1.056-.547 1.51-.118C560.625 96.869 565 106.408 565 117.014c0 10.588-4.36 20.11-11.305 26.693-.453.43-1.13.383-1.512-.117l-5.935-7.752a1.109 1.109 0 0 1 .11-1.452c4.398-4.35 7.141-10.524 7.141-17.372 0-6.865-2.758-13.054-7.178-17.399-.397-.39-.426-1.043-.085-1.487l5.916-7.719z" opacity=".1"/>
        <path fill="#5B90F7" d="M932.03 259.623c.573.442.627 1.224.135 1.75-7.551 8.061-18.504 13.127-30.68 13.127-12.157 0-23.09-5.048-30.649-13.09-.493-.525-.44-1.307.135-1.75l8.9-6.873a1.265 1.265 0 0 1 1.668.129c4.994 5.09 12.083 8.267 19.945 8.267 7.882 0 14.988-3.194 19.976-8.311.449-.46 1.198-.494 1.708-.099l8.862 6.85zM1100.03 495.623c.573.442.627 1.224.135 1.75-7.551 8.061-18.504 13.127-30.68 13.127-12.157 0-23.09-5.048-30.649-13.09-.493-.524-.44-1.307.135-1.75l8.9-6.873a1.265 1.265 0 0 1 1.668.129c4.994 5.09 12.083 8.267 19.945 8.267 7.882 0 14.988-3.194 19.976-8.311.449-.46 1.198-.494 1.708-.099l8.862 6.85z" opacity=".182"/>
        <path fill="#F5EA61" d="M686.849 397.996a.921.921 0 0 1-.1-1.352c5.602-6.23 13.728-10.144 22.763-10.144 9.02 0 17.13 3.9 22.738 10.115a.92.92 0 0 1-.1 1.353l-6.603 5.31a.911.911 0 0 1-1.237-.1 20.267 20.267 0 0 0-14.798-6.388 20.239 20.239 0 0 0-14.821 6.423.935.935 0 0 1-1.267.076l-6.575-5.293z"/>
        <g>
            <path fill="#FFF" d="M254.562 126.243a.569.569 0 0 1 .874-.07c4.031 3.897 6.564 9.55 6.564 15.835 0 6.275-2.524 11.917-6.545 15.818a.569.569 0 0 1-.875-.069l-3.436-4.594a.669.669 0 0 1 .064-.86c2.545-2.578 4.134-6.237 4.134-10.295 0-4.068-1.597-7.736-4.156-10.31a.686.686 0 0 1-.05-.882l3.426-4.573z" opacity=".212"/>
            <path fill="#F5EA61" d="M535.762 715.81a.572.572 0 0 1-.795.055c-3.664-3.045-5.967-7.461-5.967-12.371 0-4.902 2.294-9.31 5.95-12.358a.572.572 0 0 1 .796.054l3.123 3.589a.469.469 0 0 1-.058.672c-2.314 2.014-3.758 4.872-3.758 8.043 0 3.178 1.452 6.043 3.778 8.055a.48.48 0 0 1 .045.688l-3.114 3.573zM225.762 49.81a.572.572 0 0 1-.795.055C221.303 46.82 219 42.404 219 37.494c0-4.902 2.294-9.31 5.95-12.358a.572.572 0 0 1 .796.054l3.123 3.589a.469.469 0 0 1-.058.672c-2.314 2.014-3.758 4.872-3.758 8.043 0 3.178 1.452 6.043 3.778 8.055a.48.48 0 0 1 .045.688l-3.114 3.573z"/>
            <path fill="#5B90F7" d="M28.03 229.623c.573.442.627 1.224.135 1.75-7.551 8.061-18.504 13.127-30.68 13.127-12.157 0-23.09-5.048-30.649-13.09-.493-.525-.44-1.307.135-1.75l8.9-6.873a1.265 1.265 0 0 1 1.668.129c4.994 5.09 12.083 8.267 19.945 8.267 7.882 0 14.988-3.194 19.976-8.311.449-.46 1.198-.494 1.708-.099l8.862 6.85zM196.03 465.623c.573.442.627 1.224.135 1.75-7.551 8.061-18.504 13.127-30.68 13.127-12.157 0-23.09-5.048-30.649-13.09-.493-.525-.44-1.307.135-1.75l8.9-6.873a1.265 1.265 0 0 1 1.668.129c4.994 5.09 12.083 8.267 19.945 8.267 7.882 0 14.988-3.194 19.976-8.311.449-.46 1.198-.494 1.708-.099l8.862 6.85zM542.849 412.996a.921.921 0 0 1-.1-1.352c5.602-6.23 13.728-10.144 22.763-10.144 9.02 0 17.13 3.9 22.738 10.115a.92.92 0 0 1-.1 1.353l-6.603 5.31a.911.911 0 0 1-1.237-.1 20.267 20.267 0 0 0-14.798-6.388 20.239 20.239 0 0 0-14.821 6.423.935.935 0 0 1-1.267.076l-6.575-5.293z" opacity=".182"/>
        </g>
    </g>
</svg>
