<svg xmlns="http://www.w3.org/2000/svg" width="1440" height="836" viewBox="0 0 1440 836">
    <g fill="none" fill-rule="evenodd">
        <path fill="#F5F8FF" d="M-18 0h1460v836H-18z"/>
        <path fill="#FFF" d="M1186.432 554.773a.24.24 0 0 1-.375.03c-1.73-1.724-2.817-4.226-2.817-7.007 0-2.776 1.083-5.273 2.808-7a.24.24 0 0 1 .376.032l1.474 2.032c.084.115.07.28-.027.381-1.092 1.14-1.774 2.76-1.774 4.555 0 1.8.685 3.424 1.783 4.563a.311.311 0 0 1 .021.39l-1.47 2.024zM1246.612 730.593a.24.24 0 0 1-.375.03c-1.73-1.724-2.817-4.226-2.817-7.007 0-2.776 1.083-5.273 2.808-7a.24.24 0 0 1 .376.032l1.474 2.032c.084.115.07.28-.027.381-1.092 1.14-1.774 2.76-1.774 4.555 0 1.8.685 3.423 1.783 4.563a.311.311 0 0 1 .021.39l-1.47 2.024z" opacity=".212"/>
        <path fill="#F5EA61" d="M1163.843 700.28a.716.716 0 0 1 1.032-.075c4.756 4.168 7.745 10.213 7.745 16.934 0 6.71-2.978 12.743-7.723 16.915a.715.715 0 0 1-1.033-.074l-4.054-4.912a.665.665 0 0 1 .075-.92c3.004-2.757 4.878-6.67 4.878-11.01 0-4.35-1.884-8.272-4.904-11.025a.683.683 0 0 1-.058-.942l4.042-4.892zM1125.386 477.08a.18.18 0 0 1 .282-.023c1.297 1.294 2.112 3.17 2.112 5.256 0 2.082-.812 3.955-2.106 5.25a.18.18 0 0 1-.282-.024l-1.106-1.524a.227.227 0 0 1 .02-.286c.82-.855 1.331-2.07 1.331-3.416 0-1.35-.514-2.568-1.337-3.422a.233.233 0 0 1-.016-.293l1.102-1.517zM1258.726 763.82a.18.18 0 0 1 .282-.023c1.297 1.294 2.112 3.17 2.112 5.256 0 2.082-.812 3.955-2.106 5.25a.18.18 0 0 1-.282-.024l-1.106-1.524a.227.227 0 0 1 .02-.286c.82-.855 1.331-2.07 1.331-3.416 0-1.35-.514-2.568-1.337-3.422a.233.233 0 0 1-.016-.293l1.102-1.518z"/>
        <path fill="#5B90F7" d="M1345.106 720.564a.492.492 0 0 1-.06-.75c3.306-3.46 8.1-5.634 13.431-5.634 5.321 0 10.107 2.166 13.416 5.617a.492.492 0 0 1-.06.75l-3.895 2.95a.562.562 0 0 1-.73-.055c-2.186-2.185-5.29-3.548-8.731-3.548-3.45 0-6.561 1.37-8.744 3.566a.577.577 0 0 1-.748.043l-3.88-2.94zM1203.506 561.264a.492.492 0 0 1-.06-.75c3.306-3.46 8.1-5.634 13.431-5.634 5.321 0 10.107 2.166 13.416 5.617a.492.492 0 0 1-.06.75l-3.895 2.95a.562.562 0 0 1-.73-.055c-2.186-2.185-5.29-3.548-8.731-3.548-3.45 0-6.561 1.37-8.744 3.566a.577.577 0 0 1-.748.043l-3.88-2.94zM1122.908 607.912a.372.372 0 0 1 .044.563c-2.444 2.595-5.987 4.225-9.927 4.225-3.933 0-7.47-1.624-9.916-4.212a.372.372 0 0 1 .043-.564l2.88-2.212a.41.41 0 0 1 .54.042c1.616 1.638 3.909 2.66 6.453 2.66 2.55 0 4.85-1.028 6.463-2.674a.422.422 0 0 1 .553-.032l2.867 2.204z" opacity=".182"/>
        <g>
            <path fill="#FFF" d="M444.603 331.148a.24.24 0 0 1 .375-.03c1.73 1.724 2.817 4.225 2.817 7.006 0 2.777-1.083 5.274-2.808 7a.24.24 0 0 1-.376-.03l-1.474-2.033a.303.303 0 0 1 .027-.381c1.092-1.141 1.774-2.76 1.774-4.556 0-1.8-.685-3.423-1.783-4.562a.311.311 0 0 1-.021-.39l1.47-2.024zM384.423 155.328a.24.24 0 0 1 .375-.03c1.73 1.724 2.817 4.225 2.817 7.006 0 2.777-1.083 5.274-2.808 7a.24.24 0 0 1-.376-.03l-1.474-2.033a.303.303 0 0 1 .027-.381c1.093-1.141 1.774-2.76 1.774-4.556 0-1.8-.685-3.423-1.783-4.562a.311.311 0 0 1-.021-.39l1.47-2.024z" opacity=".212"/>
            <path fill="#F5EA61" d="M467.192 185.641a.716.716 0 0 1-1.031.075c-4.757-4.168-7.746-10.213-7.746-16.934 0-6.71 2.978-12.744 7.723-16.916a.715.715 0 0 1 1.033.075l4.054 4.912a.665.665 0 0 1-.075.92c-3.004 2.757-4.878 6.67-4.878 11.01 0 4.35 1.884 8.272 4.904 11.025a.683.683 0 0 1 .058.942l-4.042 4.891zM505.649 408.84a.18.18 0 0 1-.282.023c-1.297-1.293-2.112-3.17-2.112-5.255 0-2.082.812-3.955 2.106-5.25a.18.18 0 0 1 .282.023l1.106 1.525a.227.227 0 0 1-.02.286c-.82.855-1.331 2.07-1.331 3.416 0 1.35.514 2.567 1.337 3.422.074.077.08.205.016.292l-1.102 1.518zM372.309 122.1a.18.18 0 0 1-.282.023c-1.297-1.293-2.112-3.17-2.112-5.255 0-2.082.812-3.955 2.106-5.25a.18.18 0 0 1 .282.023l1.106 1.525a.227.227 0 0 1-.02.286c-.82.855-1.331 2.07-1.331 3.416 0 1.35.514 2.567 1.337 3.422.074.077.08.205.016.292l-1.102 1.518z"/>
            <path fill="#5B90F7" d="M123.09 390.737c.25.19.274.525.058.75-3.305 3.46-8.1 5.634-13.43 5.634-5.321 0-10.107-2.166-13.416-5.617a.492.492 0 0 1 .06-.751l3.895-2.949a.562.562 0 0 1 .73.055c2.187 2.185 5.29 3.548 8.731 3.548 3.45 0 6.561-1.37 8.745-3.567a.577.577 0 0 1 .747-.042l3.88 2.94z" opacity=".089"/>
            <path fill="#5B90F7" d="M124.2 126.49a.432.432 0 0 1 .656-.052c3.027 2.875 4.929 7.044 4.929 11.679 0 4.627-1.895 8.789-4.914 11.666a.432.432 0 0 1-.658-.051l-2.58-3.388a.486.486 0 0 1 .048-.635c1.912-1.901 3.104-4.6 3.104-7.592 0-3-1.199-5.705-3.12-7.604a.5.5 0 0 1-.037-.65l2.571-3.373z" opacity=".1"/>
            <path fill="#5B90F7" d="M285.93 165.357c.25.19.274.525.058.75-3.305 3.46-8.1 5.634-13.43 5.634-5.321 0-10.107-2.166-13.416-5.617a.492.492 0 0 1 .06-.751l3.895-2.949a.562.562 0 0 1 .73.055c2.186 2.185 5.29 3.548 8.731 3.548 3.45 0 6.561-1.37 8.745-3.567a.577.577 0 0 1 .747-.042l3.88 2.94zM427.53 324.657c.25.19.274.525.058.75-3.305 3.46-8.1 5.634-13.43 5.634-5.321 0-10.107-2.166-13.416-5.617a.492.492 0 0 1 .06-.751l3.895-2.949a.562.562 0 0 1 .73.055c2.186 2.185 5.29 3.548 8.731 3.548 3.45 0 6.561-1.37 8.744-3.567a.577.577 0 0 1 .748-.042l3.88 2.94zM508.127 278.009a.372.372 0 0 1-.044-.563c2.444-2.595 5.987-4.225 9.927-4.225 3.933 0 7.47 1.624 9.916 4.212.16.17.142.421-.043.564l-2.88 2.211a.41.41 0 0 1-.54-.04c-1.616-1.64-3.909-2.662-6.453-2.662-2.55 0-4.85 1.028-6.463 2.675a.422.422 0 0 1-.553.032l-2.867-2.204zM56.187 281.549a.372.372 0 0 1-.044-.563c2.444-2.595 5.987-4.225 9.927-4.225 3.933 0 7.47 1.624 9.916 4.212.16.17.142.421-.043.564l-2.88 2.211a.41.41 0 0 1-.54-.04c-1.616-1.64-3.909-2.662-6.453-2.662-2.55 0-4.85 1.028-6.463 2.675a.422.422 0 0 1-.553.032l-2.867-2.204z" opacity=".182"/>
        </g>
    </g>
</svg>
